G04 #@! TF.GenerationSoftware,KiCad,Pcbnew,8.0.4*
G04 #@! TF.CreationDate,2026-03-03T12:09:52-08:00*
G04 #@! TF.ProjectId,SC910GS_MIPI_Breakout,53433931-3047-4535-9f4d-4950495f4272,0.9*
G04 #@! TF.SameCoordinates,Original*
G04 #@! TF.FileFunction,Copper,L2,Inr*
G04 #@! TF.FilePolarity,Positive*
%FSLAX46Y46*%
G04 Gerber Fmt 4.6, Leading zero omitted, Abs format (unit mm)*
G04 Created by KiCad (PCBNEW 8.0.4) date 2026-03-03 12:09:52*
%MOMM*%
%LPD*%
G01*
G04 APERTURE LIST*
G04 #@! TA.AperFunction,ViaPad*
%ADD10C,0.400000*%
G04 #@! TD*
G04 #@! TA.AperFunction,ViaPad*
%ADD11C,0.450000*%
G04 #@! TD*
G04 APERTURE END LIST*
D10*
G04 #@! TO.N,VDDIO*
X-500000Y-7600000D03*
X-2650000Y-11900000D03*
X-3300000Y-12500000D03*
X-10800000Y-12074703D03*
X5500000Y-6400000D03*
X-8950000Y-9200000D03*
X-2450000Y-9450000D03*
X6450000Y3500000D03*
X-2650000Y-12500000D03*
X-3300000Y-11900000D03*
X5500000Y-7000000D03*
X-6500000Y-8500000D03*
X-8500000Y-4500000D03*
X-1500000Y-10360000D03*
X6500000Y2500000D03*
X-2450000Y-8450000D03*
X-7500000Y-8500000D03*
X-6400000Y3500000D03*
X-500000Y-6400000D03*
X-8000000Y-12144703D03*
X-12280000Y-10250000D03*
X-7500000Y-5500000D03*
X5500000Y-7600000D03*
G04 #@! TO.N,GND*
X-2400000Y2500000D03*
X-8600000Y1500000D03*
X-14300000Y-9450000D03*
X8500000Y5400000D03*
X1500000Y5600000D03*
X-700000Y11250000D03*
X5500000Y500000D03*
X-5400000Y-15400000D03*
X3500000Y-2520000D03*
X-1400000Y2500000D03*
X5500000Y5600000D03*
X9450000Y-2500000D03*
X6480000Y-6500000D03*
X500000Y8480000D03*
X-8600000Y2500000D03*
X2780000Y17512500D03*
X-1400000Y11250000D03*
X-11500000Y-3700000D03*
X-5500000Y-2500000D03*
X-500000Y-8480000D03*
X9900000Y8600000D03*
X-5850000Y-15900000D03*
X-16700000Y2250000D03*
X5500000Y-3500000D03*
X3300000Y14450000D03*
X-5520000Y-1500000D03*
X11200000Y-13250000D03*
X-500000Y5600000D03*
X-5400000Y2500000D03*
X9450000Y-500000D03*
X13700000Y-11000000D03*
X-3150000Y-14050000D03*
X-11320000Y-10250000D03*
X2600000Y14450000D03*
X2500000Y5600000D03*
X-17150000Y13700000D03*
X500000Y5600000D03*
X5500000Y2500000D03*
X-3400000Y2500000D03*
X2500000Y2500000D03*
X12000000Y-16700000D03*
X3500000Y5600000D03*
X-8000000Y-13700000D03*
X-8600000Y5500000D03*
X-10700000Y-9100000D03*
X4200000Y12310000D03*
X-5600000Y-13450000D03*
X8500000Y4500000D03*
X13050000Y-13550000D03*
X-3500000Y-2520000D03*
X-6500000Y-2500000D03*
X-2500000Y-2520000D03*
X-8500000Y-8200000D03*
X8600000Y-4500000D03*
X-17150000Y8100000D03*
X-4500000Y8480000D03*
X1000000Y14450000D03*
X3300000Y-14500000D03*
X-7400000Y6450000D03*
X-14150000Y9400000D03*
X3500000Y8480000D03*
X-16700000Y-750000D03*
X-8900000Y10900000D03*
X-1400000Y12450000D03*
X9450000Y500000D03*
X-700000Y11850000D03*
X8000000Y-11110000D03*
X-4400000Y-13450000D03*
X-4500000Y-6510000D03*
X-14800000Y-9950000D03*
X1500000Y2500000D03*
X-7400000Y7500000D03*
X6650000Y-8700000D03*
X-700000Y12450000D03*
X-6520000Y-5500000D03*
X-10949999Y12874999D03*
X1800000Y14450000D03*
X-9100000Y8500000D03*
X-14900000Y-7000000D03*
X5500000Y-500000D03*
X8600000Y-5500000D03*
X-14900000Y3750000D03*
X1520000Y-6500000D03*
X450000Y-13250000D03*
X-15550000Y-5450000D03*
X3100000Y-15400000D03*
X-17850000Y8100000D03*
X4000000Y15150000D03*
X-3500000Y5600000D03*
X2600000Y15150000D03*
X-150000Y14900000D03*
X4500000Y2500000D03*
X-5000000Y-14350000D03*
X-5500000Y-500000D03*
X3520000Y-6500000D03*
X10400000Y-13950000D03*
X-17850000Y13700000D03*
X-100000Y-12750000D03*
X3300000Y15150000D03*
X4500000Y-2520000D03*
X5200000Y-11110000D03*
X-150000Y14200000D03*
X500000Y-2520000D03*
X1520000Y-7500000D03*
X9200000Y8600000D03*
X9600000Y2500000D03*
X-10250000Y-4500000D03*
X6500000Y5600000D03*
X4050000Y-13250000D03*
X8500000Y3600000D03*
X-950000Y14900000D03*
X13000000Y-9850000D03*
X-16450000Y13700000D03*
X-8400000Y4500000D03*
X-2700000Y16000000D03*
X2700000Y-14500000D03*
X2050000Y-14500000D03*
X1000000Y15150000D03*
X-1500000Y-6500000D03*
X-950000Y14200000D03*
X-8400000Y3500000D03*
X10400000Y-13250000D03*
X1500000Y-2520000D03*
X5500000Y-2500000D03*
X9600000Y-13250000D03*
X1800000Y15150000D03*
X-16700000Y-3750000D03*
X-8800000Y-13900000D03*
X12400000Y5500000D03*
X12550000Y-5500000D03*
X-14200000Y3750000D03*
X4000000Y14450000D03*
X-9500000Y-4500000D03*
X-8900000Y12900000D03*
X-15100000Y9400000D03*
X-2500000Y8480000D03*
X-10850000Y-2000000D03*
X13400000Y-10400000D03*
X12550000Y-13150000D03*
X3500000Y-15800000D03*
X-13400000Y-17150000D03*
X8600000Y-3600000D03*
X-10500000Y-14200000D03*
X-4500000Y5600000D03*
X-3750000Y-13450000D03*
X-5400000Y1500000D03*
X6780000Y-12500000D03*
X-5500000Y5600000D03*
X-2650000Y-13600000D03*
X500000Y-5600000D03*
X6200000Y-8350000D03*
X-2500000Y5600000D03*
X5500000Y8480000D03*
X13700000Y-9850000D03*
X9600000Y-13950000D03*
X-5500000Y-8510000D03*
X-14150000Y6250000D03*
X9420000Y-16200000D03*
X-5000000Y-13450000D03*
X-4175000Y2525000D03*
X-18500000Y6250000D03*
X-11279999Y9900000D03*
X-5400000Y3500000D03*
X11200000Y-13950000D03*
X-1400000Y11850000D03*
X3500000Y-7500000D03*
X-2500000Y-6500000D03*
X6810000Y-13500000D03*
X13000000Y-11000000D03*
X-14900000Y-7650000D03*
X-10949999Y10925001D03*
X7500000Y-5400000D03*
X-9800000Y8500000D03*
X3850000Y-14300000D03*
G04 #@! TO.N,VDDA*
X11000000Y-11050000D03*
X11000000Y-9800000D03*
X-2375000Y3500000D03*
X8500000Y7500000D03*
X-2500000Y-3500000D03*
X7500000Y-6950000D03*
X-3500000Y-3500000D03*
X7500000Y-6400000D03*
X11750000Y-11050000D03*
X9100000Y11000000D03*
X10500000Y500000D03*
X10000000Y-10080000D03*
X500000Y-3500000D03*
X7500000Y-7600000D03*
X11750000Y-10400000D03*
X11750000Y-9800000D03*
X1500000Y-3500000D03*
X11000000Y-10400000D03*
X-1400000Y3500000D03*
X8500000Y6500000D03*
X10500000Y-500000D03*
G04 #@! TO.N,+3V3*
X-13650000Y-12544703D03*
X12000000Y-17500000D03*
X-12700000Y10400000D03*
X-2700000Y-17400000D03*
X-18300000Y5250000D03*
X-17600000Y5250000D03*
X-16900000Y5250000D03*
X6500000Y-17000000D03*
X-8415000Y9900000D03*
X-15100000Y10400000D03*
X6100000Y-17400000D03*
X-12700000Y13400000D03*
X-2300000Y-17000000D03*
X600000Y-17700000D03*
X-14150000Y10400000D03*
X-3500000Y16012500D03*
G04 #@! TO.N,CAM_EN*
X-15700000Y2750000D03*
X-5650000Y-14337500D03*
D11*
X9900000Y-15400000D03*
X5840000Y-13500000D03*
X2300000Y16800000D03*
D10*
G04 #@! TO.N,CLOCK*
X-8500000Y-7500000D03*
G04 #@! TO.N,CAM_D1_N*
X-11350000Y-3025000D03*
G04 #@! TO.N,VDDD*
X-5500000Y-3500000D03*
X900000Y-9600000D03*
X-2500000Y-7500000D03*
X-8500000Y7500000D03*
X-6400000Y2500000D03*
X2500000Y-7500000D03*
X1500000Y-10200000D03*
X900000Y-10200000D03*
X3950000Y1450000D03*
X-6500000Y-3500000D03*
X5500000Y3500000D03*
X500000Y-6500000D03*
X6500000Y-3500000D03*
X6500000Y-2500000D03*
X4500000Y3500000D03*
X2500000Y-6500000D03*
X2100000Y-10200000D03*
X1500000Y-9600000D03*
X-6400000Y1500000D03*
X500000Y-7500000D03*
X4500000Y-6500000D03*
X4500000Y-7500000D03*
X2100000Y-9600000D03*
X-8500000Y6500000D03*
G04 #@! TO.N,CAM_D0_P*
X-9600000Y4500000D03*
G04 #@! TO.N,CAM_D2_N*
X-10400000Y5500000D03*
G04 #@! TO.N,CAM_D1_P*
X-11350000Y-2475000D03*
G04 #@! TO.N,CAM_D0_N*
X-10400000Y4500000D03*
G04 #@! TO.N,CAM_D2_P*
X-9600000Y5500000D03*
G04 #@! TO.N,CAM_D3_N*
X-10400000Y1500000D03*
G04 #@! TO.N,CAM_CLK_P*
X-9600000Y3500000D03*
G04 #@! TO.N,CAM_D3_P*
X-9600000Y1500000D03*
G04 #@! TO.N,CAM_CLK_N*
X-10400000Y3500000D03*
G04 #@! TO.N,SCL_IN*
X-12200000Y-14250000D03*
X-16850000Y4250000D03*
X-14615000Y12390000D03*
X-9649999Y12874999D03*
G04 #@! TO.N,SDA_IN*
X-14615000Y11410000D03*
X-9450000Y-13700000D03*
X-15700000Y4750000D03*
X-9649999Y10925001D03*
G04 #@! TO.N,Net-(U1-VRSFMID)*
X1500000Y6500000D03*
X3500000Y7500000D03*
X3500000Y6500000D03*
X-4500000Y7500000D03*
X-4500000Y6500000D03*
G04 #@! TO.N,Net-(U1-VRSFLO)*
X-2500000Y6500000D03*
X-500000Y6500000D03*
X5500000Y6500000D03*
X-2500000Y7500000D03*
X5500000Y7500000D03*
G04 #@! TO.N,Net-(U1-VRM)*
X-4175000Y3525000D03*
X3500000Y-3500000D03*
X-6500000Y-1500000D03*
X-1500000Y-3500000D03*
X4500000Y-3500000D03*
X2500000Y3500000D03*
X-500000Y-3500000D03*
X1500000Y3500000D03*
X6300000Y500000D03*
X-3400000Y3500000D03*
X6300000Y-500000D03*
X-6400000Y-500000D03*
G04 #@! TO.N,Net-(U1-VREFN22)*
X9500000Y-3500000D03*
X9500000Y3500000D03*
G04 #@! TO.N,Net-(U1-VREFN)*
X10500000Y3500000D03*
X10500000Y-3500000D03*
G04 #@! TO.N,Net-(U1-VREFH)*
X9500000Y4500000D03*
X9500000Y-4500000D03*
G04 #@! TO.N,Net-(U1-RSTM)*
X10500000Y2500000D03*
X10500000Y-2500000D03*
G04 #@! TO.N,Net-(U1-GSVREFH22)*
X10500000Y-5500000D03*
X10500000Y5500000D03*
G04 #@! TO.N,Net-(U1-GSVREFH)*
X9500000Y-5500000D03*
X9500000Y5500000D03*
G04 #@! TO.N,Net-(U1-TXVDD)*
X10500000Y4500000D03*
X10500000Y-4500000D03*
G04 #@! TO.N,Net-(U1-PWDNB)*
X-3460000Y-8400000D03*
G04 #@! TO.N,Net-(U1-XSHUTDN)*
X-3460000Y-9450000D03*
G04 #@! TO.N,SCL_1V8*
X-12200000Y-11550000D03*
X-7500000Y-7500000D03*
G04 #@! TO.N,SDA_1V8*
X-6500000Y-7500000D03*
X-9400000Y-11550000D03*
G04 #@! TO.N,Net-(U1-SSB)*
X-4500000Y-5500000D03*
G04 #@! TO.N,Net-(U1-SCK)*
X-5500000Y-7500000D03*
G04 #@! TO.N,TRIG*
X-4500000Y-7500000D03*
G04 #@! TO.N,Net-(U1-RSTCLAMP)*
X8500000Y-6500000D03*
G04 #@! TO.N,Net-(U1-SIGCLAMP)*
X8500000Y-7500000D03*
G04 #@! TO.N,Net-(U1-GPIO0)*
X-6500000Y-6500000D03*
G04 #@! TO.N,Net-(U1-GPIO1)*
X-7500000Y-6600000D03*
G04 #@! TO.N,Net-(U1-LED0)*
X-14300000Y-10350000D03*
G04 #@! TO.N,Net-(U1-LED1)*
X-14300000Y-8750000D03*
G04 #@! TO.N,Net-(U1-LED2)*
X-14300000Y-7800000D03*
G04 #@! TO.N,Net-(U1-LED3)*
X-15400000Y-7300000D03*
G04 #@! TO.N,VDDP*
X550000Y11150000D03*
X1250000Y11800000D03*
X3200000Y11320000D03*
X1250000Y12450000D03*
X6500000Y11000000D03*
X7500000Y7500000D03*
X-6500000Y6500000D03*
X500000Y7500000D03*
X500000Y6500000D03*
X1250000Y11150000D03*
X7500000Y6500000D03*
X550000Y12450000D03*
X-6500000Y7500000D03*
X550000Y11800000D03*
G04 #@! TO.N,Net-(U1-OTPEN)*
X-1500000Y-8460000D03*
D11*
G04 #@! TO.N,Net-(U5-SS_CTRL)*
X350000Y16000000D03*
X3400000Y16000000D03*
G04 #@! TO.N,Net-(U4-SS_CTRL)*
X11900000Y-14800000D03*
X8850000Y-14500000D03*
G04 #@! TD*
G04 #@! TA.AperFunction,Conductor*
G04 #@! TO.N,GND*
G36*
X16190511Y19478326D02*
G01*
X16212185Y19426000D01*
X16190511Y19373674D01*
X16162626Y19356153D01*
X16041592Y19313801D01*
X15788555Y19191945D01*
X15550752Y19042523D01*
X15550751Y19042522D01*
X15331175Y18867416D01*
X15132583Y18668824D01*
X14957477Y18449248D01*
X14808052Y18211440D01*
X14686198Y17958407D01*
X14593442Y17693325D01*
X14593437Y17693309D01*
X14530945Y17419513D01*
X14530945Y17419512D01*
X14530945Y17419509D01*
X14499500Y17140425D01*
X14499500Y16859575D01*
X14512976Y16739967D01*
X14530945Y16580487D01*
X14530945Y16580486D01*
X14593437Y16306690D01*
X14593442Y16306674D01*
X14686198Y16041592D01*
X14808052Y15788559D01*
X14957477Y15550751D01*
X15132583Y15331175D01*
X15331175Y15132583D01*
X15550751Y14957477D01*
X15788559Y14808052D01*
X16041592Y14686198D01*
X16306674Y14593442D01*
X16306690Y14593437D01*
X16580486Y14530945D01*
X16735537Y14513475D01*
X16859575Y14499500D01*
X16859579Y14499500D01*
X17140421Y14499500D01*
X17140425Y14499500D01*
X17299901Y14517468D01*
X17419512Y14530945D01*
X17419513Y14530945D01*
X17693309Y14593437D01*
X17693325Y14593442D01*
X17958407Y14686198D01*
X18211440Y14808052D01*
X18449248Y14957477D01*
X18668824Y15132583D01*
X18867416Y15331175D01*
X19042522Y15550751D01*
X19067360Y15590280D01*
X19191945Y15788555D01*
X19313801Y16041592D01*
X19347467Y16137804D01*
X19356153Y16162626D01*
X19393893Y16204857D01*
X19450441Y16208032D01*
X19492672Y16170292D01*
X19500000Y16138185D01*
X19500000Y-16138185D01*
X19478326Y-16190511D01*
X19426000Y-16212185D01*
X19373674Y-16190511D01*
X19356153Y-16162626D01*
X19313801Y-16041592D01*
X19191947Y-15788559D01*
X19191946Y-15788558D01*
X19191945Y-15788555D01*
X19042523Y-15550752D01*
X18867416Y-15331175D01*
X18668825Y-15132584D01*
X18449248Y-14957477D01*
X18211445Y-14808055D01*
X18211444Y-14808054D01*
X18211440Y-14808052D01*
X17958407Y-14686198D01*
X17693325Y-14593442D01*
X17693309Y-14593437D01*
X17419513Y-14530945D01*
X17279967Y-14515222D01*
X17140425Y-14499500D01*
X16859575Y-14499500D01*
X16720033Y-14515222D01*
X16580487Y-14530945D01*
X16580486Y-14530945D01*
X16306690Y-14593437D01*
X16306674Y-14593442D01*
X16041592Y-14686198D01*
X15788559Y-14808052D01*
X15550751Y-14957477D01*
X15331175Y-15132583D01*
X15132583Y-15331175D01*
X14957477Y-15550751D01*
X14808052Y-15788559D01*
X14686198Y-16041592D01*
X14593442Y-16306674D01*
X14593437Y-16306690D01*
X14530945Y-16580486D01*
X14530945Y-16580487D01*
X14520640Y-16671950D01*
X14499500Y-16859575D01*
X14499500Y-17140425D01*
X14503052Y-17171950D01*
X14530945Y-17419512D01*
X14530945Y-17419513D01*
X14593437Y-17693309D01*
X14593442Y-17693325D01*
X14686198Y-17958407D01*
X14808052Y-18211440D01*
X14808054Y-18211444D01*
X14808055Y-18211445D01*
X14957477Y-18449248D01*
X15132584Y-18668825D01*
X15331175Y-18867416D01*
X15550752Y-19042523D01*
X15788555Y-19191945D01*
X15788558Y-19191946D01*
X15788559Y-19191947D01*
X16041592Y-19313801D01*
X16162626Y-19356153D01*
X16204857Y-19393893D01*
X16208032Y-19450441D01*
X16170292Y-19492672D01*
X16138185Y-19500000D01*
X-16138185Y-19500000D01*
X-16190511Y-19478326D01*
X-16212185Y-19426000D01*
X-16190511Y-19373674D01*
X-16162626Y-19356153D01*
X-16041592Y-19313801D01*
X-15788559Y-19191947D01*
X-15788558Y-19191946D01*
X-15788555Y-19191945D01*
X-15550752Y-19042523D01*
X-15331175Y-18867416D01*
X-15132584Y-18668825D01*
X-14957477Y-18449248D01*
X-14808055Y-18211445D01*
X-14808054Y-18211444D01*
X-14808052Y-18211440D01*
X-14686198Y-17958407D01*
X-14593442Y-17693325D01*
X-14593437Y-17693309D01*
X-14530945Y-17419513D01*
X-14530945Y-17419512D01*
X-14528747Y-17400000D01*
X-3105492Y-17400000D01*
X-3085646Y-17525304D01*
X-3028050Y-17638342D01*
X-2938342Y-17728050D01*
X-2825304Y-17785646D01*
X-2700000Y-17805492D01*
X-2574696Y-17785646D01*
X-2461658Y-17728050D01*
X-2433608Y-17700000D01*
X194508Y-17700000D01*
X214353Y-17825301D01*
X214353Y-17825302D01*
X214354Y-17825304D01*
X271950Y-17938342D01*
X361658Y-18028050D01*
X474696Y-18085646D01*
X600000Y-18105492D01*
X725304Y-18085646D01*
X838342Y-18028050D01*
X928050Y-17938342D01*
X985646Y-17825304D01*
X1005492Y-17700000D01*
X985646Y-17574696D01*
X928050Y-17461658D01*
X866392Y-17400000D01*
X5694508Y-17400000D01*
X5714353Y-17525301D01*
X5714353Y-17525302D01*
X5714354Y-17525304D01*
X5771950Y-17638342D01*
X5861658Y-17728050D01*
X5974696Y-17785646D01*
X6100000Y-17805492D01*
X6225304Y-17785646D01*
X6338342Y-17728050D01*
X6428050Y-17638342D01*
X6485646Y-17525304D01*
X6489654Y-17500000D01*
X11594508Y-17500000D01*
X11614353Y-17625301D01*
X11614353Y-17625302D01*
X11614354Y-17625304D01*
X11671950Y-17738342D01*
X11761658Y-17828050D01*
X11874696Y-17885646D01*
X12000000Y-17905492D01*
X12125304Y-17885646D01*
X12238342Y-17828050D01*
X12328050Y-17738342D01*
X12385646Y-17625304D01*
X12405492Y-17500000D01*
X12385646Y-17374696D01*
X12328050Y-17261658D01*
X12238342Y-17171950D01*
X12125304Y-17114354D01*
X12125302Y-17114353D01*
X12125301Y-17114353D01*
X12000000Y-17094508D01*
X11874698Y-17114353D01*
X11761656Y-17171951D01*
X11671951Y-17261656D01*
X11614353Y-17374698D01*
X11594508Y-17500000D01*
X6489654Y-17500000D01*
X6496331Y-17457842D01*
X6525922Y-17409552D01*
X6557842Y-17396330D01*
X6625304Y-17385646D01*
X6738342Y-17328050D01*
X6828050Y-17238342D01*
X6885646Y-17125304D01*
X6905492Y-17000000D01*
X6885646Y-16874696D01*
X6828050Y-16761658D01*
X6738342Y-16671950D01*
X6625304Y-16614354D01*
X6625302Y-16614353D01*
X6625301Y-16614353D01*
X6500000Y-16594508D01*
X6374698Y-16614353D01*
X6261656Y-16671951D01*
X6171951Y-16761656D01*
X6114353Y-16874698D01*
X6114353Y-16874699D01*
X6103668Y-16942156D01*
X6074074Y-16990447D01*
X6042156Y-17003668D01*
X5974699Y-17014353D01*
X5974698Y-17014353D01*
X5861656Y-17071951D01*
X5771951Y-17161656D01*
X5714353Y-17274698D01*
X5694508Y-17400000D01*
X866392Y-17400000D01*
X838342Y-17371950D01*
X725304Y-17314354D01*
X725302Y-17314353D01*
X725301Y-17314353D01*
X600000Y-17294508D01*
X474698Y-17314353D01*
X361656Y-17371951D01*
X271951Y-17461656D01*
X214353Y-17574698D01*
X194508Y-17700000D01*
X-2433608Y-17700000D01*
X-2371950Y-17638342D01*
X-2314354Y-17525304D01*
X-2314353Y-17525302D01*
X-2314353Y-17525301D01*
X-2314353Y-17525300D01*
X-2303668Y-17457842D01*
X-2274074Y-17409551D01*
X-2242156Y-17396330D01*
X-2174696Y-17385646D01*
X-2061658Y-17328050D01*
X-1971950Y-17238342D01*
X-1914354Y-17125304D01*
X-1914353Y-17125302D01*
X-1914353Y-17125301D01*
X-1894508Y-17000000D01*
X-1914353Y-16874698D01*
X-1971951Y-16761656D01*
X-2061656Y-16671951D01*
X-2174698Y-16614353D01*
X-2300000Y-16594508D01*
X-2425301Y-16614353D01*
X-2425302Y-16614353D01*
X-2425304Y-16614354D01*
X-2538342Y-16671950D01*
X-2628050Y-16761658D01*
X-2685646Y-16874696D01*
X-2685646Y-16874698D01*
X-2696330Y-16942155D01*
X-2725923Y-16990446D01*
X-2757842Y-17003668D01*
X-2825300Y-17014353D01*
X-2825301Y-17014353D01*
X-2825302Y-17014353D01*
X-2825304Y-17014354D01*
X-2938342Y-17071950D01*
X-3028050Y-17161658D01*
X-3085646Y-17274696D01*
X-3105492Y-17400000D01*
X-14528747Y-17400000D01*
X-14503052Y-17171950D01*
X-14499500Y-17140425D01*
X-14499500Y-16859575D01*
X-14520640Y-16671950D01*
X-14530945Y-16580487D01*
X-14530945Y-16580486D01*
X-14593437Y-16306690D01*
X-14593442Y-16306674D01*
X-14686198Y-16041592D01*
X-14808052Y-15788559D01*
X-14957477Y-15550751D01*
X-15077697Y-15400000D01*
X9469196Y-15400000D01*
X9490280Y-15533126D01*
X9551471Y-15653219D01*
X9551472Y-15653220D01*
X9646780Y-15748528D01*
X9766873Y-15809718D01*
X9766873Y-15809719D01*
X9785075Y-15812601D01*
X9900000Y-15830804D01*
X10033126Y-15809719D01*
X10153220Y-15748528D01*
X10248528Y-15653220D01*
X10309719Y-15533126D01*
X10330804Y-15400000D01*
X10309719Y-15266874D01*
X10309719Y-15266873D01*
X10248528Y-15146780D01*
X10153219Y-15051471D01*
X10033126Y-14990281D01*
X10033126Y-14990280D01*
X9900000Y-14969196D01*
X9766873Y-14990280D01*
X9766873Y-14990281D01*
X9646780Y-15051471D01*
X9551471Y-15146780D01*
X9490281Y-15266873D01*
X9490280Y-15266873D01*
X9469196Y-15400000D01*
X-15077697Y-15400000D01*
X-15132583Y-15331175D01*
X-15331175Y-15132583D01*
X-15550751Y-14957477D01*
X-15788559Y-14808052D01*
X-16041592Y-14686198D01*
X-16306674Y-14593442D01*
X-16306690Y-14593437D01*
X-16580486Y-14530945D01*
X-16735537Y-14513475D01*
X-16859575Y-14499500D01*
X-17140425Y-14499500D01*
X-17299901Y-14517468D01*
X-17419512Y-14530945D01*
X-17419513Y-14530945D01*
X-17693309Y-14593437D01*
X-17693325Y-14593442D01*
X-17958407Y-14686198D01*
X-18211440Y-14808052D01*
X-18211444Y-14808054D01*
X-18211445Y-14808055D01*
X-18449248Y-14957477D01*
X-18668825Y-15132584D01*
X-18867416Y-15331175D01*
X-19042523Y-15550752D01*
X-19191945Y-15788555D01*
X-19191946Y-15788558D01*
X-19191947Y-15788559D01*
X-19313801Y-16041592D01*
X-19356153Y-16162626D01*
X-19393893Y-16204857D01*
X-19450441Y-16208032D01*
X-19492672Y-16170292D01*
X-19500000Y-16138185D01*
X-19500000Y-14250000D01*
X-12605492Y-14250000D01*
X-12585646Y-14375304D01*
X-12528050Y-14488342D01*
X-12438342Y-14578050D01*
X-12325304Y-14635646D01*
X-12200000Y-14655492D01*
X-12074696Y-14635646D01*
X-11961658Y-14578050D01*
X-11871950Y-14488342D01*
X-11814354Y-14375304D01*
X-11814353Y-14375302D01*
X-11814353Y-14375301D01*
X-11808366Y-14337500D01*
X-6055492Y-14337500D01*
X-6035646Y-14462804D01*
X-5978050Y-14575842D01*
X-5888342Y-14665550D01*
X-5775304Y-14723146D01*
X-5650000Y-14742992D01*
X-5524696Y-14723146D01*
X-5411658Y-14665550D01*
X-5321950Y-14575842D01*
X-5283306Y-14500000D01*
X8419196Y-14500000D01*
X8440280Y-14633126D01*
X8501471Y-14753219D01*
X8501472Y-14753220D01*
X8596780Y-14848528D01*
X8716873Y-14909718D01*
X8716873Y-14909719D01*
X8735075Y-14912601D01*
X8850000Y-14930804D01*
X8983126Y-14909719D01*
X9103220Y-14848528D01*
X9151748Y-14800000D01*
X11469196Y-14800000D01*
X11490280Y-14933126D01*
X11550581Y-15051472D01*
X11551472Y-15053220D01*
X11646780Y-15148528D01*
X11766873Y-15209718D01*
X11766873Y-15209719D01*
X11785075Y-15212601D01*
X11900000Y-15230804D01*
X12033126Y-15209719D01*
X12153220Y-15148528D01*
X12248528Y-15053220D01*
X12309719Y-14933126D01*
X12330804Y-14800000D01*
X12309719Y-14666874D01*
X12309719Y-14666873D01*
X12248528Y-14546780D01*
X12153219Y-14451471D01*
X12033126Y-14390281D01*
X12033126Y-14390280D01*
X11900000Y-14369196D01*
X11766873Y-14390280D01*
X11766873Y-14390281D01*
X11646780Y-14451471D01*
X11551471Y-14546780D01*
X11490281Y-14666873D01*
X11490280Y-14666873D01*
X11469196Y-14800000D01*
X9151748Y-14800000D01*
X9198528Y-14753220D01*
X9259719Y-14633126D01*
X9280804Y-14500000D01*
X9259719Y-14366874D01*
X9259719Y-14366873D01*
X9198528Y-14246780D01*
X9103219Y-14151471D01*
X8983126Y-14090281D01*
X8983126Y-14090280D01*
X8850000Y-14069196D01*
X8716873Y-14090280D01*
X8716873Y-14090281D01*
X8596780Y-14151471D01*
X8501471Y-14246780D01*
X8440281Y-14366873D01*
X8440280Y-14366873D01*
X8419196Y-14500000D01*
X-5283306Y-14500000D01*
X-5264354Y-14462804D01*
X-5264353Y-14462802D01*
X-5264353Y-14462801D01*
X-5244508Y-14337500D01*
X-5264353Y-14212198D01*
X-5321951Y-14099156D01*
X-5411656Y-14009451D01*
X-5524698Y-13951853D01*
X-5650000Y-13932008D01*
X-5775301Y-13951853D01*
X-5775302Y-13951853D01*
X-5775304Y-13951854D01*
X-5888342Y-14009450D01*
X-5978050Y-14099158D01*
X-6035646Y-14212196D01*
X-6055492Y-14337500D01*
X-11808366Y-14337500D01*
X-11794508Y-14250000D01*
X-11814353Y-14124698D01*
X-11871951Y-14011656D01*
X-11961656Y-13921951D01*
X-12074698Y-13864353D01*
X-12200000Y-13844508D01*
X-12325301Y-13864353D01*
X-12325302Y-13864353D01*
X-12325304Y-13864354D01*
X-12438342Y-13921950D01*
X-12528050Y-14011658D01*
X-12585646Y-14124696D01*
X-12605492Y-14250000D01*
X-19500000Y-14250000D01*
X-19500000Y-13700000D01*
X-9855492Y-13700000D01*
X-9835646Y-13825304D01*
X-9778050Y-13938342D01*
X-9688342Y-14028050D01*
X-9575304Y-14085646D01*
X-9450000Y-14105492D01*
X-9324696Y-14085646D01*
X-9211658Y-14028050D01*
X-9121950Y-13938342D01*
X-9064354Y-13825304D01*
X-9064353Y-13825302D01*
X-9064353Y-13825301D01*
X-9044508Y-13700000D01*
X-9064353Y-13574698D01*
X-9102414Y-13500000D01*
X5409196Y-13500000D01*
X5430280Y-13633126D01*
X5491471Y-13753219D01*
X5491472Y-13753220D01*
X5586780Y-13848528D01*
X5706873Y-13909718D01*
X5706873Y-13909719D01*
X5725075Y-13912601D01*
X5840000Y-13930804D01*
X5973126Y-13909719D01*
X6093220Y-13848528D01*
X6188528Y-13753220D01*
X6249719Y-13633126D01*
X6270804Y-13500000D01*
X6249719Y-13366874D01*
X6249719Y-13366873D01*
X6188528Y-13246780D01*
X6093219Y-13151471D01*
X5973126Y-13090281D01*
X5973126Y-13090280D01*
X5840000Y-13069196D01*
X5706873Y-13090280D01*
X5706873Y-13090281D01*
X5586780Y-13151471D01*
X5491471Y-13246780D01*
X5430281Y-13366873D01*
X5430280Y-13366873D01*
X5409196Y-13500000D01*
X-9102414Y-13500000D01*
X-9121951Y-13461656D01*
X-9211656Y-13371951D01*
X-9324698Y-13314353D01*
X-9450000Y-13294508D01*
X-9575301Y-13314353D01*
X-9575302Y-13314353D01*
X-9575304Y-13314354D01*
X-9688342Y-13371950D01*
X-9778050Y-13461658D01*
X-9835646Y-13574696D01*
X-9855492Y-13700000D01*
X-19500000Y-13700000D01*
X-19500000Y-12544703D01*
X-14055492Y-12544703D01*
X-14035646Y-12670007D01*
X-13978050Y-12783045D01*
X-13888342Y-12872753D01*
X-13775304Y-12930349D01*
X-13650000Y-12950195D01*
X-13524696Y-12930349D01*
X-13411658Y-12872753D01*
X-13321950Y-12783045D01*
X-13264354Y-12670007D01*
X-13264353Y-12670005D01*
X-13264353Y-12670004D01*
X-13244508Y-12544703D01*
X-13264353Y-12419401D01*
X-13321951Y-12306359D01*
X-13411656Y-12216654D01*
X-13524698Y-12159056D01*
X-13650000Y-12139211D01*
X-13775301Y-12159056D01*
X-13775302Y-12159056D01*
X-13775304Y-12159057D01*
X-13888342Y-12216653D01*
X-13978050Y-12306361D01*
X-14035646Y-12419399D01*
X-14055492Y-12544703D01*
X-19500000Y-12544703D01*
X-19500000Y-12074703D01*
X-11205492Y-12074703D01*
X-11185646Y-12200007D01*
X-11128050Y-12313045D01*
X-11038342Y-12402753D01*
X-10925304Y-12460349D01*
X-10800000Y-12480195D01*
X-10674696Y-12460349D01*
X-10561658Y-12402753D01*
X-10471950Y-12313045D01*
X-10414354Y-12200007D01*
X-10414353Y-12200005D01*
X-10414353Y-12200004D01*
X-10405595Y-12144703D01*
X-8405492Y-12144703D01*
X-8385646Y-12270007D01*
X-8328050Y-12383045D01*
X-8238342Y-12472753D01*
X-8125304Y-12530349D01*
X-8000000Y-12550195D01*
X-7874696Y-12530349D01*
X-7761658Y-12472753D01*
X-7671950Y-12383045D01*
X-7614354Y-12270007D01*
X-7614353Y-12270005D01*
X-7614353Y-12270004D01*
X-7594508Y-12144703D01*
X-7614353Y-12019401D01*
X-7671951Y-11906359D01*
X-7678310Y-11900000D01*
X-3705492Y-11900000D01*
X-3685646Y-12025304D01*
X-3628050Y-12138342D01*
X-3621689Y-12144703D01*
X-3618718Y-12147674D01*
X-3597044Y-12200000D01*
X-3618718Y-12252326D01*
X-3628050Y-12261658D01*
X-3685646Y-12374696D01*
X-3705492Y-12500000D01*
X-3685646Y-12625304D01*
X-3628050Y-12738342D01*
X-3538342Y-12828050D01*
X-3425304Y-12885646D01*
X-3300000Y-12905492D01*
X-3174696Y-12885646D01*
X-3061658Y-12828050D01*
X-3027326Y-12793718D01*
X-2975000Y-12772044D01*
X-2922674Y-12793718D01*
X-2888342Y-12828050D01*
X-2775304Y-12885646D01*
X-2650000Y-12905492D01*
X-2524696Y-12885646D01*
X-2411658Y-12828050D01*
X-2321950Y-12738342D01*
X-2264354Y-12625304D01*
X-2264353Y-12625302D01*
X-2264353Y-12625301D01*
X-2244508Y-12500000D01*
X-2264353Y-12374698D01*
X-2321951Y-12261656D01*
X-2331282Y-12252326D01*
X-2352956Y-12200000D01*
X-2331282Y-12147674D01*
X-2321951Y-12138343D01*
X-2321950Y-12138342D01*
X-2264354Y-12025304D01*
X-2264353Y-12025302D01*
X-2264353Y-12025301D01*
X-2244508Y-11900000D01*
X-2264353Y-11774698D01*
X-2321951Y-11661656D01*
X-2411656Y-11571951D01*
X-2524698Y-11514353D01*
X-2650000Y-11494508D01*
X-2775301Y-11514353D01*
X-2775302Y-11514353D01*
X-2775304Y-11514354D01*
X-2888342Y-11571950D01*
X-2888343Y-11571951D01*
X-2922674Y-11606282D01*
X-2975000Y-11627956D01*
X-3027326Y-11606282D01*
X-3061656Y-11571951D01*
X-3174698Y-11514353D01*
X-3300000Y-11494508D01*
X-3425301Y-11514353D01*
X-3425302Y-11514353D01*
X-3425304Y-11514354D01*
X-3538342Y-11571950D01*
X-3628050Y-11661658D01*
X-3685646Y-11774696D01*
X-3705492Y-11900000D01*
X-7678310Y-11900000D01*
X-7761656Y-11816654D01*
X-7874698Y-11759056D01*
X-8000000Y-11739211D01*
X-8125301Y-11759056D01*
X-8125302Y-11759056D01*
X-8125304Y-11759057D01*
X-8238342Y-11816653D01*
X-8328050Y-11906361D01*
X-8385646Y-12019399D01*
X-8405492Y-12144703D01*
X-10405595Y-12144703D01*
X-10394508Y-12074703D01*
X-10414353Y-11949401D01*
X-10471951Y-11836359D01*
X-10561656Y-11746654D01*
X-10674698Y-11689056D01*
X-10800000Y-11669211D01*
X-10925301Y-11689056D01*
X-10925302Y-11689056D01*
X-10925304Y-11689057D01*
X-11038342Y-11746653D01*
X-11128050Y-11836361D01*
X-11185646Y-11949399D01*
X-11205492Y-12074703D01*
X-19500000Y-12074703D01*
X-19500000Y-11550000D01*
X-12605492Y-11550000D01*
X-12585646Y-11675304D01*
X-12528050Y-11788342D01*
X-12438342Y-11878050D01*
X-12325304Y-11935646D01*
X-12200000Y-11955492D01*
X-12074696Y-11935646D01*
X-11961658Y-11878050D01*
X-11871950Y-11788342D01*
X-11814354Y-11675304D01*
X-11814353Y-11675302D01*
X-11814353Y-11675301D01*
X-11794508Y-11550000D01*
X-9805492Y-11550000D01*
X-9785646Y-11675304D01*
X-9728050Y-11788342D01*
X-9638342Y-11878050D01*
X-9525304Y-11935646D01*
X-9400000Y-11955492D01*
X-9274696Y-11935646D01*
X-9161658Y-11878050D01*
X-9071950Y-11788342D01*
X-9014354Y-11675304D01*
X-9014353Y-11675302D01*
X-9014353Y-11675301D01*
X-8994508Y-11550000D01*
X-9014353Y-11424698D01*
X-9071951Y-11311656D01*
X-9161656Y-11221951D01*
X-9274698Y-11164353D01*
X-9400000Y-11144508D01*
X-9525301Y-11164353D01*
X-9525302Y-11164353D01*
X-9525304Y-11164354D01*
X-9638342Y-11221950D01*
X-9728050Y-11311658D01*
X-9785646Y-11424696D01*
X-9805492Y-11550000D01*
X-11794508Y-11550000D01*
X-11814353Y-11424698D01*
X-11871951Y-11311656D01*
X-11961656Y-11221951D01*
X-12074698Y-11164353D01*
X-12200000Y-11144508D01*
X-12325301Y-11164353D01*
X-12325302Y-11164353D01*
X-12325304Y-11164354D01*
X-12438342Y-11221950D01*
X-12528050Y-11311658D01*
X-12585646Y-11424696D01*
X-12605492Y-11550000D01*
X-19500000Y-11550000D01*
X-19500000Y-10350000D01*
X-14705492Y-10350000D01*
X-14685646Y-10475304D01*
X-14628050Y-10588342D01*
X-14538342Y-10678050D01*
X-14425304Y-10735646D01*
X-14300000Y-10755492D01*
X-14174696Y-10735646D01*
X-14061658Y-10678050D01*
X-13971950Y-10588342D01*
X-13914354Y-10475304D01*
X-13914353Y-10475302D01*
X-13914353Y-10475301D01*
X-13894508Y-10350000D01*
X-13910346Y-10250000D01*
X-12685492Y-10250000D01*
X-12665646Y-10375304D01*
X-12608050Y-10488342D01*
X-12518342Y-10578050D01*
X-12405304Y-10635646D01*
X-12280000Y-10655492D01*
X-12154696Y-10635646D01*
X-12041658Y-10578050D01*
X-11951950Y-10488342D01*
X-11894354Y-10375304D01*
X-11894353Y-10375302D01*
X-11894353Y-10375301D01*
X-11891930Y-10360000D01*
X-1905492Y-10360000D01*
X-1885646Y-10485304D01*
X-1828050Y-10598342D01*
X-1738342Y-10688050D01*
X-1625304Y-10745646D01*
X-1500000Y-10765492D01*
X-1374696Y-10745646D01*
X-1261658Y-10688050D01*
X-1171950Y-10598342D01*
X-1114354Y-10485304D01*
X-1114353Y-10485302D01*
X-1114353Y-10485301D01*
X-1094508Y-10360000D01*
X-1114353Y-10234698D01*
X-1171951Y-10121656D01*
X-1261656Y-10031951D01*
X-1374698Y-9974353D01*
X-1500000Y-9954508D01*
X-1625301Y-9974353D01*
X-1625302Y-9974353D01*
X-1625304Y-9974354D01*
X-1738342Y-10031950D01*
X-1828050Y-10121658D01*
X-1885646Y-10234696D01*
X-1905492Y-10360000D01*
X-11891930Y-10360000D01*
X-11874508Y-10250000D01*
X-11894353Y-10124698D01*
X-11951951Y-10011656D01*
X-12041656Y-9921951D01*
X-12154698Y-9864353D01*
X-12280000Y-9844508D01*
X-12405301Y-9864353D01*
X-12405302Y-9864353D01*
X-12405304Y-9864354D01*
X-12518342Y-9921950D01*
X-12608050Y-10011658D01*
X-12665646Y-10124696D01*
X-12685492Y-10250000D01*
X-13910346Y-10250000D01*
X-13914353Y-10224698D01*
X-13971951Y-10111656D01*
X-14061656Y-10021951D01*
X-14174698Y-9964353D01*
X-14300000Y-9944508D01*
X-14425301Y-9964353D01*
X-14425302Y-9964353D01*
X-14425304Y-9964354D01*
X-14538342Y-10021950D01*
X-14628050Y-10111658D01*
X-14685646Y-10224696D01*
X-14705492Y-10350000D01*
X-19500000Y-10350000D01*
X-19500000Y-9200000D01*
X-9355492Y-9200000D01*
X-9335646Y-9325304D01*
X-9278050Y-9438342D01*
X-9188342Y-9528050D01*
X-9075304Y-9585646D01*
X-8950000Y-9605492D01*
X-8824696Y-9585646D01*
X-8711658Y-9528050D01*
X-8633608Y-9450000D01*
X-3865492Y-9450000D01*
X-3845646Y-9575304D01*
X-3788050Y-9688342D01*
X-3698342Y-9778050D01*
X-3585304Y-9835646D01*
X-3460000Y-9855492D01*
X-3334696Y-9835646D01*
X-3221658Y-9778050D01*
X-3131950Y-9688342D01*
X-3074354Y-9575304D01*
X-3074353Y-9575302D01*
X-3074353Y-9575301D01*
X-3054508Y-9450000D01*
X-2855492Y-9450000D01*
X-2835646Y-9575304D01*
X-2778050Y-9688342D01*
X-2688342Y-9778050D01*
X-2575304Y-9835646D01*
X-2450000Y-9855492D01*
X-2324696Y-9835646D01*
X-2211658Y-9778050D01*
X-2121950Y-9688342D01*
X-2076937Y-9600000D01*
X494508Y-9600000D01*
X514353Y-9725301D01*
X514353Y-9725302D01*
X514354Y-9725304D01*
X571950Y-9838342D01*
X571951Y-9838343D01*
X581282Y-9847674D01*
X602956Y-9900000D01*
X581282Y-9952326D01*
X571951Y-9961656D01*
X514353Y-10074698D01*
X494508Y-10200000D01*
X514353Y-10325301D01*
X514353Y-10325302D01*
X514354Y-10325304D01*
X571950Y-10438342D01*
X661658Y-10528050D01*
X774696Y-10585646D01*
X900000Y-10605492D01*
X1025304Y-10585646D01*
X1138342Y-10528050D01*
X1147674Y-10518718D01*
X1200000Y-10497044D01*
X1252326Y-10518718D01*
X1261658Y-10528050D01*
X1374696Y-10585646D01*
X1500000Y-10605492D01*
X1625304Y-10585646D01*
X1738342Y-10528050D01*
X1747674Y-10518718D01*
X1800000Y-10497044D01*
X1852326Y-10518718D01*
X1861658Y-10528050D01*
X1974696Y-10585646D01*
X2100000Y-10605492D01*
X2225304Y-10585646D01*
X2338342Y-10528050D01*
X2428050Y-10438342D01*
X2485646Y-10325304D01*
X2505492Y-10200000D01*
X2486486Y-10080000D01*
X9594508Y-10080000D01*
X9614353Y-10205301D01*
X9614353Y-10205302D01*
X9614354Y-10205304D01*
X9671950Y-10318342D01*
X9761658Y-10408050D01*
X9874696Y-10465646D01*
X10000000Y-10485492D01*
X10125304Y-10465646D01*
X10238342Y-10408050D01*
X10328050Y-10318342D01*
X10385646Y-10205304D01*
X10405492Y-10080000D01*
X10385646Y-9954696D01*
X10328050Y-9841658D01*
X10286392Y-9800000D01*
X10594508Y-9800000D01*
X10614353Y-9925301D01*
X10614353Y-9925302D01*
X10614354Y-9925304D01*
X10668694Y-10031951D01*
X10671951Y-10038343D01*
X10681282Y-10047674D01*
X10702956Y-10100000D01*
X10681282Y-10152326D01*
X10671951Y-10161656D01*
X10614353Y-10274698D01*
X10594508Y-10400000D01*
X10614353Y-10525301D01*
X10614353Y-10525302D01*
X10614354Y-10525304D01*
X10671950Y-10638342D01*
X10671951Y-10638343D01*
X10706282Y-10672674D01*
X10727956Y-10725000D01*
X10706282Y-10777326D01*
X10671951Y-10811656D01*
X10614353Y-10924698D01*
X10594508Y-11050000D01*
X10614353Y-11175301D01*
X10614353Y-11175302D01*
X10614354Y-11175304D01*
X10671950Y-11288342D01*
X10761658Y-11378050D01*
X10874696Y-11435646D01*
X11000000Y-11455492D01*
X11125304Y-11435646D01*
X11238342Y-11378050D01*
X11322674Y-11293718D01*
X11375000Y-11272044D01*
X11427326Y-11293718D01*
X11511658Y-11378050D01*
X11624696Y-11435646D01*
X11750000Y-11455492D01*
X11875304Y-11435646D01*
X11988342Y-11378050D01*
X12078050Y-11288342D01*
X12135646Y-11175304D01*
X12155492Y-11050000D01*
X12135646Y-10924696D01*
X12078050Y-10811658D01*
X12043718Y-10777326D01*
X12022044Y-10725000D01*
X12043718Y-10672674D01*
X12078050Y-10638342D01*
X12135646Y-10525304D01*
X12155492Y-10400000D01*
X12135646Y-10274696D01*
X12078050Y-10161658D01*
X12068718Y-10152326D01*
X12047044Y-10100000D01*
X12068718Y-10047674D01*
X12078050Y-10038342D01*
X12135646Y-9925304D01*
X12155492Y-9800000D01*
X12135646Y-9674696D01*
X12078050Y-9561658D01*
X11988342Y-9471950D01*
X11875304Y-9414354D01*
X11875302Y-9414353D01*
X11875301Y-9414353D01*
X11750000Y-9394508D01*
X11624698Y-9414353D01*
X11511656Y-9471951D01*
X11427326Y-9556282D01*
X11375000Y-9577956D01*
X11322674Y-9556282D01*
X11238343Y-9471951D01*
X11238342Y-9471950D01*
X11125304Y-9414354D01*
X11125302Y-9414353D01*
X11125301Y-9414353D01*
X11000000Y-9394508D01*
X10874698Y-9414353D01*
X10761656Y-9471951D01*
X10671951Y-9561656D01*
X10614353Y-9674698D01*
X10594508Y-9800000D01*
X10286392Y-9800000D01*
X10238342Y-9751950D01*
X10125304Y-9694354D01*
X10125302Y-9694353D01*
X10125301Y-9694353D01*
X10000000Y-9674508D01*
X9874698Y-9694353D01*
X9761656Y-9751951D01*
X9671951Y-9841656D01*
X9614353Y-9954698D01*
X9594508Y-10080000D01*
X2486486Y-10080000D01*
X2485646Y-10074696D01*
X2428050Y-9961658D01*
X2418718Y-9952326D01*
X2397044Y-9900000D01*
X2418718Y-9847674D01*
X2421884Y-9844508D01*
X2428050Y-9838342D01*
X2485646Y-9725304D01*
X2505492Y-9600000D01*
X2485646Y-9474696D01*
X2428050Y-9361658D01*
X2338342Y-9271950D01*
X2225304Y-9214354D01*
X2225302Y-9214353D01*
X2225301Y-9214353D01*
X2100000Y-9194508D01*
X1974698Y-9214353D01*
X1861656Y-9271951D01*
X1852326Y-9281282D01*
X1800000Y-9302956D01*
X1747674Y-9281282D01*
X1738343Y-9271951D01*
X1738342Y-9271950D01*
X1625304Y-9214354D01*
X1625302Y-9214353D01*
X1625301Y-9214353D01*
X1500000Y-9194508D01*
X1374698Y-9214353D01*
X1261656Y-9271951D01*
X1252326Y-9281282D01*
X1200000Y-9302956D01*
X1147674Y-9281282D01*
X1138343Y-9271951D01*
X1138342Y-9271950D01*
X1025304Y-9214354D01*
X1025302Y-9214353D01*
X1025301Y-9214353D01*
X900000Y-9194508D01*
X774698Y-9214353D01*
X661656Y-9271951D01*
X571951Y-9361656D01*
X514353Y-9474698D01*
X494508Y-9600000D01*
X-2076937Y-9600000D01*
X-2064354Y-9575304D01*
X-2064353Y-9575302D01*
X-2064353Y-9575301D01*
X-2044508Y-9450000D01*
X-2064353Y-9324698D01*
X-2121951Y-9211656D01*
X-2211656Y-9121951D01*
X-2324698Y-9064353D01*
X-2450000Y-9044508D01*
X-2575301Y-9064353D01*
X-2575302Y-9064353D01*
X-2575304Y-9064354D01*
X-2688342Y-9121950D01*
X-2778050Y-9211658D01*
X-2835646Y-9324696D01*
X-2855492Y-9450000D01*
X-3054508Y-9450000D01*
X-3074353Y-9324698D01*
X-3131951Y-9211656D01*
X-3221656Y-9121951D01*
X-3334698Y-9064353D01*
X-3460000Y-9044508D01*
X-3585301Y-9064353D01*
X-3585302Y-9064353D01*
X-3585304Y-9064354D01*
X-3698342Y-9121950D01*
X-3788050Y-9211658D01*
X-3845646Y-9324696D01*
X-3865492Y-9450000D01*
X-8633608Y-9450000D01*
X-8621950Y-9438342D01*
X-8564354Y-9325304D01*
X-8564353Y-9325302D01*
X-8564353Y-9325301D01*
X-8544508Y-9200000D01*
X-8564353Y-9074698D01*
X-8621951Y-8961656D01*
X-8711656Y-8871951D01*
X-8824698Y-8814353D01*
X-8950000Y-8794508D01*
X-9075301Y-8814353D01*
X-9075302Y-8814353D01*
X-9075304Y-8814354D01*
X-9188342Y-8871950D01*
X-9278050Y-8961658D01*
X-9335646Y-9074696D01*
X-9355492Y-9200000D01*
X-19500000Y-9200000D01*
X-19500000Y-8750000D01*
X-14705492Y-8750000D01*
X-14685646Y-8875304D01*
X-14628050Y-8988342D01*
X-14538342Y-9078050D01*
X-14425304Y-9135646D01*
X-14300000Y-9155492D01*
X-14174696Y-9135646D01*
X-14061658Y-9078050D01*
X-13971950Y-8988342D01*
X-13914354Y-8875304D01*
X-13914353Y-8875302D01*
X-13914353Y-8875301D01*
X-13894508Y-8750000D01*
X-13914353Y-8624698D01*
X-13971951Y-8511656D01*
X-13983607Y-8500000D01*
X-7905492Y-8500000D01*
X-7885646Y-8625304D01*
X-7828050Y-8738342D01*
X-7738342Y-8828050D01*
X-7625304Y-8885646D01*
X-7500000Y-8905492D01*
X-7374696Y-8885646D01*
X-7261658Y-8828050D01*
X-7171950Y-8738342D01*
X-7114354Y-8625304D01*
X-7114353Y-8625302D01*
X-7114353Y-8625301D01*
X-7094508Y-8500000D01*
X-6905492Y-8500000D01*
X-6885646Y-8625304D01*
X-6828050Y-8738342D01*
X-6738342Y-8828050D01*
X-6625304Y-8885646D01*
X-6500000Y-8905492D01*
X-6374696Y-8885646D01*
X-6261658Y-8828050D01*
X-6171950Y-8738342D01*
X-6114354Y-8625304D01*
X-6114353Y-8625302D01*
X-6114353Y-8625301D01*
X-6094508Y-8500000D01*
X-6110346Y-8400000D01*
X-3865492Y-8400000D01*
X-3845646Y-8525304D01*
X-3788050Y-8638342D01*
X-3698342Y-8728050D01*
X-3585304Y-8785646D01*
X-3460000Y-8805492D01*
X-3334696Y-8785646D01*
X-3221658Y-8728050D01*
X-3131950Y-8638342D01*
X-3074354Y-8525304D01*
X-3074353Y-8525302D01*
X-3074353Y-8525301D01*
X-3062427Y-8450000D01*
X-2855492Y-8450000D01*
X-2835646Y-8575304D01*
X-2778050Y-8688342D01*
X-2688342Y-8778050D01*
X-2575304Y-8835646D01*
X-2450000Y-8855492D01*
X-2324696Y-8835646D01*
X-2211658Y-8778050D01*
X-2121950Y-8688342D01*
X-2064354Y-8575304D01*
X-2064353Y-8575302D01*
X-2064353Y-8575301D01*
X-2048880Y-8477608D01*
X-2036759Y-8457829D01*
X-2039104Y-8452168D01*
X-1913239Y-8452168D01*
X-1902703Y-8477606D01*
X-1885646Y-8585304D01*
X-1828050Y-8698342D01*
X-1738342Y-8788050D01*
X-1625304Y-8845646D01*
X-1500000Y-8865492D01*
X-1374696Y-8845646D01*
X-1261658Y-8788050D01*
X-1171950Y-8698342D01*
X-1114354Y-8585304D01*
X-1114353Y-8585302D01*
X-1114353Y-8585301D01*
X-1094508Y-8460000D01*
X-1114353Y-8334698D01*
X-1171951Y-8221656D01*
X-1261656Y-8131951D01*
X-1374698Y-8074353D01*
X-1500000Y-8054508D01*
X-1625301Y-8074353D01*
X-1625302Y-8074353D01*
X-1625304Y-8074354D01*
X-1738342Y-8131950D01*
X-1828050Y-8221658D01*
X-1885646Y-8334696D01*
X-1899466Y-8421951D01*
X-1901119Y-8432390D01*
X-1913239Y-8452168D01*
X-2039104Y-8452168D01*
X-2047297Y-8432390D01*
X-2064353Y-8324698D01*
X-2121951Y-8211656D01*
X-2211656Y-8121951D01*
X-2324698Y-8064353D01*
X-2452390Y-8044129D01*
X-2464420Y-8036756D01*
X-2465688Y-8038826D01*
X-2497609Y-8052048D01*
X-2575301Y-8064353D01*
X-2575302Y-8064353D01*
X-2575304Y-8064354D01*
X-2688342Y-8121950D01*
X-2778050Y-8211658D01*
X-2835646Y-8324696D01*
X-2855492Y-8450000D01*
X-3062427Y-8450000D01*
X-3054508Y-8400000D01*
X-3074353Y-8274698D01*
X-3131951Y-8161656D01*
X-3221656Y-8071951D01*
X-3334698Y-8014353D01*
X-3460000Y-7994508D01*
X-3585301Y-8014353D01*
X-3585302Y-8014353D01*
X-3585304Y-8014354D01*
X-3698342Y-8071950D01*
X-3788050Y-8161658D01*
X-3845646Y-8274696D01*
X-3865492Y-8400000D01*
X-6110346Y-8400000D01*
X-6114353Y-8374698D01*
X-6171951Y-8261656D01*
X-6261656Y-8171951D01*
X-6374698Y-8114353D01*
X-6500000Y-8094508D01*
X-6625301Y-8114353D01*
X-6625302Y-8114353D01*
X-6625304Y-8114354D01*
X-6738342Y-8171950D01*
X-6828050Y-8261658D01*
X-6885646Y-8374696D01*
X-6905492Y-8500000D01*
X-7094508Y-8500000D01*
X-7114353Y-8374698D01*
X-7171951Y-8261656D01*
X-7261656Y-8171951D01*
X-7374698Y-8114353D01*
X-7500000Y-8094508D01*
X-7625301Y-8114353D01*
X-7625302Y-8114353D01*
X-7625304Y-8114354D01*
X-7738342Y-8171950D01*
X-7828050Y-8261658D01*
X-7885646Y-8374696D01*
X-7905492Y-8500000D01*
X-13983607Y-8500000D01*
X-14061656Y-8421951D01*
X-14174698Y-8364353D01*
X-14277390Y-8348089D01*
X-14295627Y-8336912D01*
X-14322608Y-8348088D01*
X-14342103Y-8351176D01*
X-14425301Y-8364353D01*
X-14425302Y-8364353D01*
X-14425304Y-8364354D01*
X-14538342Y-8421950D01*
X-14628050Y-8511658D01*
X-14685646Y-8624696D01*
X-14705492Y-8750000D01*
X-19500000Y-8750000D01*
X-19500000Y-7800000D01*
X-14705492Y-7800000D01*
X-14685646Y-7925304D01*
X-14628050Y-8038342D01*
X-14538342Y-8128050D01*
X-14425304Y-8185646D01*
X-14322608Y-8201911D01*
X-14304371Y-8213087D01*
X-14277390Y-8201911D01*
X-14267066Y-8200275D01*
X-14174696Y-8185646D01*
X-14061658Y-8128050D01*
X-13971950Y-8038342D01*
X-13914354Y-7925304D01*
X-13914353Y-7925302D01*
X-13914353Y-7925301D01*
X-13894508Y-7800000D01*
X-13914353Y-7674698D01*
X-13971951Y-7561656D01*
X-14033607Y-7500000D01*
X-8905492Y-7500000D01*
X-8885646Y-7625304D01*
X-8828050Y-7738342D01*
X-8738342Y-7828050D01*
X-8625304Y-7885646D01*
X-8500000Y-7905492D01*
X-8374696Y-7885646D01*
X-8261658Y-7828050D01*
X-8171950Y-7738342D01*
X-8114354Y-7625304D01*
X-8114353Y-7625302D01*
X-8114353Y-7625301D01*
X-8094508Y-7500000D01*
X-8114353Y-7374698D01*
X-8171951Y-7261656D01*
X-8261656Y-7171951D01*
X-8374698Y-7114353D01*
X-8500000Y-7094508D01*
X-8625301Y-7114353D01*
X-8625302Y-7114353D01*
X-8625304Y-7114354D01*
X-8738342Y-7171950D01*
X-8828050Y-7261658D01*
X-8885646Y-7374696D01*
X-8905492Y-7500000D01*
X-14033607Y-7500000D01*
X-14061656Y-7471951D01*
X-14174698Y-7414353D01*
X-14300000Y-7394508D01*
X-14425301Y-7414353D01*
X-14425302Y-7414353D01*
X-14425304Y-7414354D01*
X-14538342Y-7471950D01*
X-14628050Y-7561658D01*
X-14685646Y-7674696D01*
X-14705492Y-7800000D01*
X-19500000Y-7800000D01*
X-19500000Y-7300000D01*
X-15805492Y-7300000D01*
X-15785646Y-7425304D01*
X-15728050Y-7538342D01*
X-15638342Y-7628050D01*
X-15525304Y-7685646D01*
X-15400000Y-7705492D01*
X-15274696Y-7685646D01*
X-15161658Y-7628050D01*
X-15071950Y-7538342D01*
X-15014354Y-7425304D01*
X-15014353Y-7425302D01*
X-15014353Y-7425301D01*
X-14994508Y-7300000D01*
X-15014353Y-7174698D01*
X-15071951Y-7061656D01*
X-15161656Y-6971951D01*
X-15274698Y-6914353D01*
X-15400000Y-6894508D01*
X-15525301Y-6914353D01*
X-15525302Y-6914353D01*
X-15525304Y-6914354D01*
X-15638342Y-6971950D01*
X-15728050Y-7061658D01*
X-15785646Y-7174696D01*
X-15805492Y-7300000D01*
X-19500000Y-7300000D01*
X-19500000Y-6600000D01*
X-7905492Y-6600000D01*
X-7885646Y-6725304D01*
X-7828050Y-6838342D01*
X-7738342Y-6928050D01*
X-7628403Y-6984066D01*
X-7591622Y-7027133D01*
X-7596065Y-7083595D01*
X-7628403Y-7115933D01*
X-7738342Y-7171950D01*
X-7828050Y-7261658D01*
X-7885646Y-7374696D01*
X-7905492Y-7500000D01*
X-7885646Y-7625304D01*
X-7828050Y-7738342D01*
X-7738342Y-7828050D01*
X-7625304Y-7885646D01*
X-7500000Y-7905492D01*
X-7374696Y-7885646D01*
X-7261658Y-7828050D01*
X-7171950Y-7738342D01*
X-7114354Y-7625304D01*
X-7114353Y-7625302D01*
X-7114353Y-7625301D01*
X-7094508Y-7500000D01*
X-6905492Y-7500000D01*
X-6885646Y-7625304D01*
X-6828050Y-7738342D01*
X-6738342Y-7828050D01*
X-6625304Y-7885646D01*
X-6500000Y-7905492D01*
X-6374696Y-7885646D01*
X-6261658Y-7828050D01*
X-6171950Y-7738342D01*
X-6114354Y-7625304D01*
X-6114353Y-7625302D01*
X-6114353Y-7625301D01*
X-6094508Y-7500000D01*
X-5905492Y-7500000D01*
X-5885646Y-7625304D01*
X-5828050Y-7738342D01*
X-5738342Y-7828050D01*
X-5625304Y-7885646D01*
X-5500000Y-7905492D01*
X-5374696Y-7885646D01*
X-5261658Y-7828050D01*
X-5171950Y-7738342D01*
X-5114354Y-7625304D01*
X-5114353Y-7625302D01*
X-5114353Y-7625301D01*
X-5094508Y-7500000D01*
X-4905492Y-7500000D01*
X-4885646Y-7625304D01*
X-4828050Y-7738342D01*
X-4738342Y-7828050D01*
X-4625304Y-7885646D01*
X-4500000Y-7905492D01*
X-4374696Y-7885646D01*
X-4261658Y-7828050D01*
X-4171950Y-7738342D01*
X-4114354Y-7625304D01*
X-4114353Y-7625302D01*
X-4114353Y-7625301D01*
X-4094508Y-7500000D01*
X-2905492Y-7500000D01*
X-2885646Y-7625304D01*
X-2828050Y-7738342D01*
X-2738342Y-7828050D01*
X-2625304Y-7885646D01*
X-2500000Y-7905492D01*
X-2499997Y-7905491D01*
X-2497609Y-7905870D01*
X-2485578Y-7913242D01*
X-2484310Y-7911173D01*
X-2452391Y-7897951D01*
X-2374696Y-7885646D01*
X-2261658Y-7828050D01*
X-2171950Y-7738342D01*
X-2114354Y-7625304D01*
X-2114353Y-7625302D01*
X-2114353Y-7625301D01*
X-2110346Y-7600000D01*
X-905492Y-7600000D01*
X-885646Y-7725304D01*
X-828050Y-7838342D01*
X-738342Y-7928050D01*
X-625304Y-7985646D01*
X-500000Y-8005492D01*
X-374696Y-7985646D01*
X-261658Y-7928050D01*
X-171950Y-7838342D01*
X-114354Y-7725304D01*
X-114353Y-7725302D01*
X-114353Y-7725301D01*
X-94508Y-7600000D01*
X-110346Y-7500000D01*
X94508Y-7500000D01*
X114353Y-7625301D01*
X114353Y-7625302D01*
X114354Y-7625304D01*
X171950Y-7738342D01*
X261658Y-7828050D01*
X374696Y-7885646D01*
X500000Y-7905492D01*
X625304Y-7885646D01*
X738342Y-7828050D01*
X828050Y-7738342D01*
X885646Y-7625304D01*
X905492Y-7500000D01*
X2094508Y-7500000D01*
X2114353Y-7625301D01*
X2114353Y-7625302D01*
X2114354Y-7625304D01*
X2171950Y-7738342D01*
X2261658Y-7828050D01*
X2374696Y-7885646D01*
X2500000Y-7905492D01*
X2625304Y-7885646D01*
X2738342Y-7828050D01*
X2828050Y-7738342D01*
X2885646Y-7625304D01*
X2905492Y-7500000D01*
X4094508Y-7500000D01*
X4114353Y-7625301D01*
X4114353Y-7625302D01*
X4114354Y-7625304D01*
X4171950Y-7738342D01*
X4261658Y-7828050D01*
X4374696Y-7885646D01*
X4500000Y-7905492D01*
X4625304Y-7885646D01*
X4738342Y-7828050D01*
X4828050Y-7738342D01*
X4885646Y-7625304D01*
X4905492Y-7500000D01*
X4885646Y-7374696D01*
X4828050Y-7261658D01*
X4738342Y-7171950D01*
X4625304Y-7114354D01*
X4625302Y-7114353D01*
X4625301Y-7114353D01*
X4500000Y-7094508D01*
X4374698Y-7114353D01*
X4261656Y-7171951D01*
X4171951Y-7261656D01*
X4114353Y-7374698D01*
X4094508Y-7500000D01*
X2905492Y-7500000D01*
X2885646Y-7374696D01*
X2828050Y-7261658D01*
X2738342Y-7171950D01*
X2625304Y-7114354D01*
X2625302Y-7114353D01*
X2625301Y-7114353D01*
X2500000Y-7094508D01*
X2374698Y-7114353D01*
X2261656Y-7171951D01*
X2171951Y-7261656D01*
X2114353Y-7374698D01*
X2094508Y-7500000D01*
X905492Y-7500000D01*
X885646Y-7374696D01*
X828050Y-7261658D01*
X738342Y-7171950D01*
X625304Y-7114354D01*
X625302Y-7114353D01*
X625301Y-7114353D01*
X500000Y-7094508D01*
X374698Y-7114353D01*
X261656Y-7171951D01*
X171951Y-7261656D01*
X114353Y-7374698D01*
X94508Y-7500000D01*
X-110346Y-7500000D01*
X-114353Y-7474698D01*
X-171951Y-7361656D01*
X-261656Y-7271951D01*
X-374698Y-7214353D01*
X-500000Y-7194508D01*
X-625301Y-7214353D01*
X-625302Y-7214353D01*
X-625304Y-7214354D01*
X-738342Y-7271950D01*
X-828050Y-7361658D01*
X-885646Y-7474696D01*
X-905492Y-7600000D01*
X-2110346Y-7600000D01*
X-2094508Y-7500000D01*
X-2114353Y-7374698D01*
X-2171951Y-7261656D01*
X-2261656Y-7171951D01*
X-2374698Y-7114353D01*
X-2500000Y-7094508D01*
X-2625301Y-7114353D01*
X-2625302Y-7114353D01*
X-2625304Y-7114354D01*
X-2738342Y-7171950D01*
X-2828050Y-7261658D01*
X-2885646Y-7374696D01*
X-2905492Y-7500000D01*
X-4094508Y-7500000D01*
X-4114353Y-7374698D01*
X-4171951Y-7261656D01*
X-4261656Y-7171951D01*
X-4374698Y-7114353D01*
X-4500000Y-7094508D01*
X-4625301Y-7114353D01*
X-4625302Y-7114353D01*
X-4625304Y-7114354D01*
X-4738342Y-7171950D01*
X-4828050Y-7261658D01*
X-4885646Y-7374696D01*
X-4905492Y-7500000D01*
X-5094508Y-7500000D01*
X-5114353Y-7374698D01*
X-5171951Y-7261656D01*
X-5261656Y-7171951D01*
X-5374698Y-7114353D01*
X-5500000Y-7094508D01*
X-5625301Y-7114353D01*
X-5625302Y-7114353D01*
X-5625304Y-7114354D01*
X-5738342Y-7171950D01*
X-5828050Y-7261658D01*
X-5885646Y-7374696D01*
X-5905492Y-7500000D01*
X-6094508Y-7500000D01*
X-6114353Y-7374698D01*
X-6171951Y-7261656D01*
X-6261656Y-7171951D01*
X-6374698Y-7114353D01*
X-6500000Y-7094508D01*
X-6625301Y-7114353D01*
X-6625302Y-7114353D01*
X-6625304Y-7114354D01*
X-6738342Y-7171950D01*
X-6828050Y-7261658D01*
X-6885646Y-7374696D01*
X-6905492Y-7500000D01*
X-7094508Y-7500000D01*
X-7114353Y-7374698D01*
X-7171951Y-7261656D01*
X-7261659Y-7171948D01*
X-7371594Y-7115934D01*
X-7408377Y-7072867D01*
X-7403933Y-7016405D01*
X-7371594Y-6984066D01*
X-7261659Y-6928051D01*
X-7171951Y-6838343D01*
X-7164998Y-6824698D01*
X-7114354Y-6725304D01*
X-7114353Y-6725302D01*
X-7114353Y-6725301D01*
X-7094508Y-6600000D01*
X-7110346Y-6500000D01*
X-6905492Y-6500000D01*
X-6885646Y-6625304D01*
X-6828050Y-6738342D01*
X-6738342Y-6828050D01*
X-6625304Y-6885646D01*
X-6500000Y-6905492D01*
X-6374696Y-6885646D01*
X-6261658Y-6828050D01*
X-6171950Y-6738342D01*
X-6114354Y-6625304D01*
X-6114353Y-6625302D01*
X-6114353Y-6625301D01*
X-6094508Y-6500000D01*
X-6110346Y-6400000D01*
X-905492Y-6400000D01*
X-885646Y-6525304D01*
X-828050Y-6638342D01*
X-738342Y-6728050D01*
X-625304Y-6785646D01*
X-500000Y-6805492D01*
X-374696Y-6785646D01*
X-261658Y-6728050D01*
X-171950Y-6638342D01*
X-114354Y-6525304D01*
X-114353Y-6525302D01*
X-114353Y-6525301D01*
X-110346Y-6500000D01*
X94508Y-6500000D01*
X114353Y-6625301D01*
X114353Y-6625302D01*
X114354Y-6625304D01*
X171950Y-6738342D01*
X261658Y-6828050D01*
X374696Y-6885646D01*
X500000Y-6905492D01*
X625304Y-6885646D01*
X738342Y-6828050D01*
X828050Y-6738342D01*
X885646Y-6625304D01*
X905492Y-6500000D01*
X2094508Y-6500000D01*
X2114353Y-6625301D01*
X2114353Y-6625302D01*
X2114354Y-6625304D01*
X2171950Y-6738342D01*
X2261658Y-6828050D01*
X2374696Y-6885646D01*
X2500000Y-6905492D01*
X2625304Y-6885646D01*
X2738342Y-6828050D01*
X2828050Y-6738342D01*
X2885646Y-6625304D01*
X2905492Y-6500000D01*
X4094508Y-6500000D01*
X4114353Y-6625301D01*
X4114353Y-6625302D01*
X4114354Y-6625304D01*
X4171950Y-6738342D01*
X4261658Y-6828050D01*
X4374696Y-6885646D01*
X4500000Y-6905492D01*
X4625304Y-6885646D01*
X4738342Y-6828050D01*
X4828050Y-6738342D01*
X4885646Y-6625304D01*
X4905492Y-6500000D01*
X4889654Y-6400000D01*
X5094508Y-6400000D01*
X5114353Y-6525301D01*
X5114353Y-6525302D01*
X5114354Y-6525304D01*
X5165307Y-6625304D01*
X5171951Y-6638343D01*
X5181282Y-6647674D01*
X5202956Y-6700000D01*
X5181282Y-6752326D01*
X5171951Y-6761656D01*
X5114353Y-6874698D01*
X5094508Y-7000000D01*
X5114353Y-7125301D01*
X5114353Y-7125302D01*
X5114354Y-7125304D01*
X5163967Y-7222674D01*
X5171951Y-7238343D01*
X5181282Y-7247674D01*
X5202956Y-7300000D01*
X5181282Y-7352326D01*
X5171951Y-7361656D01*
X5114353Y-7474698D01*
X5094508Y-7600000D01*
X5114353Y-7725301D01*
X5114353Y-7725302D01*
X5114354Y-7725304D01*
X5171950Y-7838342D01*
X5261658Y-7928050D01*
X5374696Y-7985646D01*
X5500000Y-8005492D01*
X5625304Y-7985646D01*
X5738342Y-7928050D01*
X5828050Y-7838342D01*
X5885646Y-7725304D01*
X5905492Y-7600000D01*
X5885646Y-7474696D01*
X5828050Y-7361658D01*
X5818718Y-7352326D01*
X5797044Y-7300000D01*
X5818718Y-7247674D01*
X5828050Y-7238342D01*
X5885646Y-7125304D01*
X5905492Y-7000000D01*
X5885646Y-6874696D01*
X5828050Y-6761658D01*
X5818718Y-6752326D01*
X5797044Y-6700000D01*
X5818718Y-6647674D01*
X5828050Y-6638342D01*
X5885646Y-6525304D01*
X5905492Y-6400000D01*
X7094508Y-6400000D01*
X7114353Y-6525301D01*
X7114353Y-6525302D01*
X7114354Y-6525304D01*
X7165307Y-6625304D01*
X7173511Y-6641405D01*
X7177954Y-6697867D01*
X7173511Y-6708595D01*
X7171950Y-6711657D01*
X7171950Y-6711658D01*
X7124139Y-6805492D01*
X7114353Y-6824698D01*
X7094508Y-6950000D01*
X7114353Y-7075301D01*
X7114353Y-7075302D01*
X7114354Y-7075304D01*
X7164997Y-7174696D01*
X7171951Y-7188343D01*
X7206282Y-7222674D01*
X7227956Y-7275000D01*
X7206282Y-7327326D01*
X7171951Y-7361656D01*
X7114353Y-7474698D01*
X7094508Y-7600000D01*
X7114353Y-7725301D01*
X7114353Y-7725302D01*
X7114354Y-7725304D01*
X7171950Y-7838342D01*
X7261658Y-7928050D01*
X7374696Y-7985646D01*
X7500000Y-8005492D01*
X7625304Y-7985646D01*
X7738342Y-7928050D01*
X7828050Y-7838342D01*
X7885646Y-7725304D01*
X7905492Y-7600000D01*
X7889654Y-7500000D01*
X8094508Y-7500000D01*
X8114353Y-7625301D01*
X8114353Y-7625302D01*
X8114354Y-7625304D01*
X8171950Y-7738342D01*
X8261658Y-7828050D01*
X8374696Y-7885646D01*
X8500000Y-7905492D01*
X8625304Y-7885646D01*
X8738342Y-7828050D01*
X8828050Y-7738342D01*
X8885646Y-7625304D01*
X8905492Y-7500000D01*
X8885646Y-7374696D01*
X8828050Y-7261658D01*
X8738342Y-7171950D01*
X8625304Y-7114354D01*
X8625302Y-7114353D01*
X8625301Y-7114353D01*
X8500000Y-7094508D01*
X8374698Y-7114353D01*
X8261656Y-7171951D01*
X8171951Y-7261656D01*
X8114353Y-7374698D01*
X8094508Y-7500000D01*
X7889654Y-7500000D01*
X7885646Y-7474696D01*
X7828050Y-7361658D01*
X7793718Y-7327326D01*
X7772044Y-7275000D01*
X7793718Y-7222674D01*
X7802039Y-7214353D01*
X7828050Y-7188342D01*
X7885646Y-7075304D01*
X7905492Y-6950000D01*
X7885646Y-6824696D01*
X7828050Y-6711658D01*
X7828048Y-6711656D01*
X7826489Y-6708596D01*
X7822045Y-6652133D01*
X7826489Y-6641404D01*
X7828048Y-6638343D01*
X7828050Y-6638342D01*
X7885646Y-6525304D01*
X7889654Y-6500000D01*
X8094508Y-6500000D01*
X8114353Y-6625301D01*
X8114353Y-6625302D01*
X8114354Y-6625304D01*
X8171950Y-6738342D01*
X8261658Y-6828050D01*
X8374696Y-6885646D01*
X8500000Y-6905492D01*
X8625304Y-6885646D01*
X8738342Y-6828050D01*
X8828050Y-6738342D01*
X8885646Y-6625304D01*
X8905492Y-6500000D01*
X8885646Y-6374696D01*
X8828050Y-6261658D01*
X8738342Y-6171950D01*
X8625304Y-6114354D01*
X8625302Y-6114353D01*
X8625301Y-6114353D01*
X8500000Y-6094508D01*
X8374698Y-6114353D01*
X8261656Y-6171951D01*
X8171951Y-6261656D01*
X8114353Y-6374698D01*
X8094508Y-6500000D01*
X7889654Y-6500000D01*
X7905492Y-6400000D01*
X7885646Y-6274696D01*
X7828050Y-6161658D01*
X7738342Y-6071950D01*
X7625304Y-6014354D01*
X7625302Y-6014353D01*
X7625301Y-6014353D01*
X7500000Y-5994508D01*
X7374698Y-6014353D01*
X7261656Y-6071951D01*
X7171951Y-6161656D01*
X7114353Y-6274698D01*
X7094508Y-6400000D01*
X5905492Y-6400000D01*
X5885646Y-6274696D01*
X5828050Y-6161658D01*
X5738342Y-6071950D01*
X5625304Y-6014354D01*
X5625302Y-6014353D01*
X5625301Y-6014353D01*
X5500000Y-5994508D01*
X5374698Y-6014353D01*
X5261656Y-6071951D01*
X5171951Y-6161656D01*
X5114353Y-6274698D01*
X5094508Y-6400000D01*
X4889654Y-6400000D01*
X4885646Y-6374696D01*
X4828050Y-6261658D01*
X4738342Y-6171950D01*
X4625304Y-6114354D01*
X4625302Y-6114353D01*
X4625301Y-6114353D01*
X4500000Y-6094508D01*
X4374698Y-6114353D01*
X4261656Y-6171951D01*
X4171951Y-6261656D01*
X4114353Y-6374698D01*
X4094508Y-6500000D01*
X2905492Y-6500000D01*
X2885646Y-6374696D01*
X2828050Y-6261658D01*
X2738342Y-6171950D01*
X2625304Y-6114354D01*
X2625302Y-6114353D01*
X2625301Y-6114353D01*
X2500000Y-6094508D01*
X2374698Y-6114353D01*
X2261656Y-6171951D01*
X2171951Y-6261656D01*
X2114353Y-6374698D01*
X2094508Y-6500000D01*
X905492Y-6500000D01*
X885646Y-6374696D01*
X828050Y-6261658D01*
X738342Y-6171950D01*
X625304Y-6114354D01*
X625302Y-6114353D01*
X625301Y-6114353D01*
X500000Y-6094508D01*
X374698Y-6114353D01*
X261656Y-6171951D01*
X171951Y-6261656D01*
X114353Y-6374698D01*
X94508Y-6500000D01*
X-110346Y-6500000D01*
X-94508Y-6400000D01*
X-114353Y-6274698D01*
X-171951Y-6161656D01*
X-261656Y-6071951D01*
X-374698Y-6014353D01*
X-500000Y-5994508D01*
X-625301Y-6014353D01*
X-625302Y-6014353D01*
X-625304Y-6014354D01*
X-738342Y-6071950D01*
X-828050Y-6161658D01*
X-885646Y-6274696D01*
X-905492Y-6400000D01*
X-6110346Y-6400000D01*
X-6114353Y-6374698D01*
X-6171951Y-6261656D01*
X-6261656Y-6171951D01*
X-6374698Y-6114353D01*
X-6500000Y-6094508D01*
X-6625301Y-6114353D01*
X-6625302Y-6114353D01*
X-6625304Y-6114354D01*
X-6738342Y-6171950D01*
X-6828050Y-6261658D01*
X-6885646Y-6374696D01*
X-6905492Y-6500000D01*
X-7110346Y-6500000D01*
X-7114353Y-6474698D01*
X-7171951Y-6361656D01*
X-7261656Y-6271951D01*
X-7374698Y-6214353D01*
X-7500000Y-6194508D01*
X-7625301Y-6214353D01*
X-7625302Y-6214353D01*
X-7625304Y-6214354D01*
X-7738342Y-6271950D01*
X-7828050Y-6361658D01*
X-7885646Y-6474696D01*
X-7905492Y-6600000D01*
X-19500000Y-6600000D01*
X-19500000Y-5500000D01*
X-7905492Y-5500000D01*
X-7885646Y-5625304D01*
X-7828050Y-5738342D01*
X-7738342Y-5828050D01*
X-7625304Y-5885646D01*
X-7500000Y-5905492D01*
X-7374696Y-5885646D01*
X-7261658Y-5828050D01*
X-7171950Y-5738342D01*
X-7114354Y-5625304D01*
X-7114353Y-5625302D01*
X-7114353Y-5625301D01*
X-7094508Y-5500000D01*
X-4905492Y-5500000D01*
X-4885646Y-5625304D01*
X-4828050Y-5738342D01*
X-4738342Y-5828050D01*
X-4625304Y-5885646D01*
X-4500000Y-5905492D01*
X-4374696Y-5885646D01*
X-4261658Y-5828050D01*
X-4171950Y-5738342D01*
X-4114354Y-5625304D01*
X-4114353Y-5625302D01*
X-4114353Y-5625301D01*
X-4094508Y-5500000D01*
X9094508Y-5500000D01*
X9114353Y-5625301D01*
X9114353Y-5625302D01*
X9114354Y-5625304D01*
X9171950Y-5738342D01*
X9261658Y-5828050D01*
X9374696Y-5885646D01*
X9500000Y-5905492D01*
X9625304Y-5885646D01*
X9738342Y-5828050D01*
X9828050Y-5738342D01*
X9885646Y-5625304D01*
X9905492Y-5500000D01*
X10094508Y-5500000D01*
X10114353Y-5625301D01*
X10114353Y-5625302D01*
X10114354Y-5625304D01*
X10171950Y-5738342D01*
X10261658Y-5828050D01*
X10374696Y-5885646D01*
X10500000Y-5905492D01*
X10625304Y-5885646D01*
X10738342Y-5828050D01*
X10828050Y-5738342D01*
X10885646Y-5625304D01*
X10905492Y-5500000D01*
X10885646Y-5374696D01*
X10828050Y-5261658D01*
X10738342Y-5171950D01*
X10625304Y-5114354D01*
X10625302Y-5114353D01*
X10625301Y-5114353D01*
X10500000Y-5094508D01*
X10374698Y-5114353D01*
X10261656Y-5171951D01*
X10171951Y-5261656D01*
X10114353Y-5374698D01*
X10094508Y-5500000D01*
X9905492Y-5500000D01*
X9885646Y-5374696D01*
X9828050Y-5261658D01*
X9738342Y-5171950D01*
X9625304Y-5114354D01*
X9625302Y-5114353D01*
X9625301Y-5114353D01*
X9500000Y-5094508D01*
X9374698Y-5114353D01*
X9261656Y-5171951D01*
X9171951Y-5261656D01*
X9114353Y-5374698D01*
X9094508Y-5500000D01*
X-4094508Y-5500000D01*
X-4114353Y-5374698D01*
X-4171951Y-5261656D01*
X-4261656Y-5171951D01*
X-4374698Y-5114353D01*
X-4500000Y-5094508D01*
X-4625301Y-5114353D01*
X-4625302Y-5114353D01*
X-4625304Y-5114354D01*
X-4738342Y-5171950D01*
X-4828050Y-5261658D01*
X-4885646Y-5374696D01*
X-4905492Y-5500000D01*
X-7094508Y-5500000D01*
X-7114353Y-5374698D01*
X-7171951Y-5261656D01*
X-7261656Y-5171951D01*
X-7374698Y-5114353D01*
X-7500000Y-5094508D01*
X-7625301Y-5114353D01*
X-7625302Y-5114353D01*
X-7625304Y-5114354D01*
X-7738342Y-5171950D01*
X-7828050Y-5261658D01*
X-7885646Y-5374696D01*
X-7905492Y-5500000D01*
X-19500000Y-5500000D01*
X-19500000Y-4500000D01*
X-8905492Y-4500000D01*
X-8885646Y-4625304D01*
X-8828050Y-4738342D01*
X-8738342Y-4828050D01*
X-8625304Y-4885646D01*
X-8500000Y-4905492D01*
X-8374696Y-4885646D01*
X-8261658Y-4828050D01*
X-8171950Y-4738342D01*
X-8114354Y-4625304D01*
X-8114353Y-4625302D01*
X-8114353Y-4625301D01*
X-8094508Y-4500000D01*
X9094508Y-4500000D01*
X9114353Y-4625301D01*
X9114353Y-4625302D01*
X9114354Y-4625304D01*
X9171950Y-4738342D01*
X9261658Y-4828050D01*
X9374696Y-4885646D01*
X9500000Y-4905492D01*
X9625304Y-4885646D01*
X9738342Y-4828050D01*
X9828050Y-4738342D01*
X9885646Y-4625304D01*
X9905492Y-4500000D01*
X10094508Y-4500000D01*
X10114353Y-4625301D01*
X10114353Y-4625302D01*
X10114354Y-4625304D01*
X10171950Y-4738342D01*
X10261658Y-4828050D01*
X10374696Y-4885646D01*
X10500000Y-4905492D01*
X10625304Y-4885646D01*
X10738342Y-4828050D01*
X10828050Y-4738342D01*
X10885646Y-4625304D01*
X10905492Y-4500000D01*
X10885646Y-4374696D01*
X10828050Y-4261658D01*
X10738342Y-4171950D01*
X10625304Y-4114354D01*
X10625302Y-4114353D01*
X10625301Y-4114353D01*
X10500000Y-4094508D01*
X10374698Y-4114353D01*
X10261656Y-4171951D01*
X10171951Y-4261656D01*
X10114353Y-4374698D01*
X10094508Y-4500000D01*
X9905492Y-4500000D01*
X9885646Y-4374696D01*
X9828050Y-4261658D01*
X9738342Y-4171950D01*
X9625304Y-4114354D01*
X9625302Y-4114353D01*
X9625301Y-4114353D01*
X9500000Y-4094508D01*
X9374698Y-4114353D01*
X9261656Y-4171951D01*
X9171951Y-4261656D01*
X9114353Y-4374698D01*
X9094508Y-4500000D01*
X-8094508Y-4500000D01*
X-8114353Y-4374698D01*
X-8171951Y-4261656D01*
X-8261656Y-4171951D01*
X-8374698Y-4114353D01*
X-8500000Y-4094508D01*
X-8625301Y-4114353D01*
X-8625302Y-4114353D01*
X-8625304Y-4114354D01*
X-8738342Y-4171950D01*
X-8828050Y-4261658D01*
X-8885646Y-4374696D01*
X-8905492Y-4500000D01*
X-19500000Y-4500000D01*
X-19500000Y-3500000D01*
X-6905492Y-3500000D01*
X-6885646Y-3625304D01*
X-6828050Y-3738342D01*
X-6738342Y-3828050D01*
X-6625304Y-3885646D01*
X-6500000Y-3905492D01*
X-6374696Y-3885646D01*
X-6261658Y-3828050D01*
X-6171950Y-3738342D01*
X-6114354Y-3625304D01*
X-6114353Y-3625302D01*
X-6114353Y-3625301D01*
X-6094508Y-3500000D01*
X-5905492Y-3500000D01*
X-5885646Y-3625304D01*
X-5828050Y-3738342D01*
X-5738342Y-3828050D01*
X-5625304Y-3885646D01*
X-5500000Y-3905492D01*
X-5374696Y-3885646D01*
X-5261658Y-3828050D01*
X-5171950Y-3738342D01*
X-5114354Y-3625304D01*
X-5114353Y-3625302D01*
X-5114353Y-3625301D01*
X-5094508Y-3500000D01*
X-3905492Y-3500000D01*
X-3885646Y-3625304D01*
X-3828050Y-3738342D01*
X-3738342Y-3828050D01*
X-3625304Y-3885646D01*
X-3500000Y-3905492D01*
X-3374696Y-3885646D01*
X-3261658Y-3828050D01*
X-3171950Y-3738342D01*
X-3114354Y-3625304D01*
X-3114353Y-3625302D01*
X-3114353Y-3625301D01*
X-3094508Y-3500000D01*
X-2905492Y-3500000D01*
X-2885646Y-3625304D01*
X-2828050Y-3738342D01*
X-2738342Y-3828050D01*
X-2625304Y-3885646D01*
X-2500000Y-3905492D01*
X-2374696Y-3885646D01*
X-2261658Y-3828050D01*
X-2171950Y-3738342D01*
X-2114354Y-3625304D01*
X-2114353Y-3625302D01*
X-2114353Y-3625301D01*
X-2094508Y-3500000D01*
X-1905492Y-3500000D01*
X-1885646Y-3625304D01*
X-1828050Y-3738342D01*
X-1738342Y-3828050D01*
X-1625304Y-3885646D01*
X-1500000Y-3905492D01*
X-1374696Y-3885646D01*
X-1261658Y-3828050D01*
X-1171950Y-3738342D01*
X-1114354Y-3625304D01*
X-1114353Y-3625302D01*
X-1114353Y-3625301D01*
X-1094508Y-3500000D01*
X-905492Y-3500000D01*
X-885646Y-3625304D01*
X-828050Y-3738342D01*
X-738342Y-3828050D01*
X-625304Y-3885646D01*
X-500000Y-3905492D01*
X-374696Y-3885646D01*
X-261658Y-3828050D01*
X-171950Y-3738342D01*
X-114354Y-3625304D01*
X-114353Y-3625302D01*
X-114353Y-3625301D01*
X-94508Y-3500000D01*
X94508Y-3500000D01*
X114353Y-3625301D01*
X114353Y-3625302D01*
X114354Y-3625304D01*
X171950Y-3738342D01*
X261658Y-3828050D01*
X374696Y-3885646D01*
X500000Y-3905492D01*
X625304Y-3885646D01*
X738342Y-3828050D01*
X828050Y-3738342D01*
X885646Y-3625304D01*
X905492Y-3500000D01*
X1094508Y-3500000D01*
X1114353Y-3625301D01*
X1114353Y-3625302D01*
X1114354Y-3625304D01*
X1171950Y-3738342D01*
X1261658Y-3828050D01*
X1374696Y-3885646D01*
X1500000Y-3905492D01*
X1625304Y-3885646D01*
X1738342Y-3828050D01*
X1828050Y-3738342D01*
X1885646Y-3625304D01*
X1905492Y-3500000D01*
X3094508Y-3500000D01*
X3114353Y-3625301D01*
X3114353Y-3625302D01*
X3114354Y-3625304D01*
X3171950Y-3738342D01*
X3261658Y-3828050D01*
X3374696Y-3885646D01*
X3500000Y-3905492D01*
X3625304Y-3885646D01*
X3738342Y-3828050D01*
X3828050Y-3738342D01*
X3885646Y-3625304D01*
X3905492Y-3500000D01*
X4094508Y-3500000D01*
X4114353Y-3625301D01*
X4114353Y-3625302D01*
X4114354Y-3625304D01*
X4171950Y-3738342D01*
X4261658Y-3828050D01*
X4374696Y-3885646D01*
X4500000Y-3905492D01*
X4625304Y-3885646D01*
X4738342Y-3828050D01*
X4828050Y-3738342D01*
X4885646Y-3625304D01*
X4905492Y-3500000D01*
X6094508Y-3500000D01*
X6114353Y-3625301D01*
X6114353Y-3625302D01*
X6114354Y-3625304D01*
X6171950Y-3738342D01*
X6261658Y-3828050D01*
X6374696Y-3885646D01*
X6500000Y-3905492D01*
X6625304Y-3885646D01*
X6738342Y-3828050D01*
X6828050Y-3738342D01*
X6885646Y-3625304D01*
X6905492Y-3500000D01*
X9094508Y-3500000D01*
X9114353Y-3625301D01*
X9114353Y-3625302D01*
X9114354Y-3625304D01*
X9171950Y-3738342D01*
X9261658Y-3828050D01*
X9374696Y-3885646D01*
X9500000Y-3905492D01*
X9625304Y-3885646D01*
X9738342Y-3828050D01*
X9828050Y-3738342D01*
X9885646Y-3625304D01*
X9905492Y-3500000D01*
X10094508Y-3500000D01*
X10114353Y-3625301D01*
X10114353Y-3625302D01*
X10114354Y-3625304D01*
X10171950Y-3738342D01*
X10261658Y-3828050D01*
X10374696Y-3885646D01*
X10500000Y-3905492D01*
X10625304Y-3885646D01*
X10738342Y-3828050D01*
X10828050Y-3738342D01*
X10885646Y-3625304D01*
X10905492Y-3500000D01*
X10885646Y-3374696D01*
X10828050Y-3261658D01*
X10738342Y-3171950D01*
X10625304Y-3114354D01*
X10625302Y-3114353D01*
X10625301Y-3114353D01*
X10500000Y-3094508D01*
X10374698Y-3114353D01*
X10261656Y-3171951D01*
X10171951Y-3261656D01*
X10114353Y-3374698D01*
X10094508Y-3500000D01*
X9905492Y-3500000D01*
X9885646Y-3374696D01*
X9828050Y-3261658D01*
X9738342Y-3171950D01*
X9625304Y-3114354D01*
X9625302Y-3114353D01*
X9625301Y-3114353D01*
X9500000Y-3094508D01*
X9374698Y-3114353D01*
X9261656Y-3171951D01*
X9171951Y-3261656D01*
X9114353Y-3374698D01*
X9094508Y-3500000D01*
X6905492Y-3500000D01*
X6885646Y-3374696D01*
X6828050Y-3261658D01*
X6738342Y-3171950D01*
X6625304Y-3114354D01*
X6625302Y-3114353D01*
X6625301Y-3114353D01*
X6500000Y-3094508D01*
X6374698Y-3114353D01*
X6261656Y-3171951D01*
X6171951Y-3261656D01*
X6114353Y-3374698D01*
X6094508Y-3500000D01*
X4905492Y-3500000D01*
X4885646Y-3374696D01*
X4828050Y-3261658D01*
X4738342Y-3171950D01*
X4625304Y-3114354D01*
X4625302Y-3114353D01*
X4625301Y-3114353D01*
X4500000Y-3094508D01*
X4374698Y-3114353D01*
X4261656Y-3171951D01*
X4171951Y-3261656D01*
X4114353Y-3374698D01*
X4094508Y-3500000D01*
X3905492Y-3500000D01*
X3885646Y-3374696D01*
X3828050Y-3261658D01*
X3738342Y-3171950D01*
X3625304Y-3114354D01*
X3625302Y-3114353D01*
X3625301Y-3114353D01*
X3500000Y-3094508D01*
X3374698Y-3114353D01*
X3261656Y-3171951D01*
X3171951Y-3261656D01*
X3114353Y-3374698D01*
X3094508Y-3500000D01*
X1905492Y-3500000D01*
X1885646Y-3374696D01*
X1828050Y-3261658D01*
X1738342Y-3171950D01*
X1625304Y-3114354D01*
X1625302Y-3114353D01*
X1625301Y-3114353D01*
X1500000Y-3094508D01*
X1374698Y-3114353D01*
X1261656Y-3171951D01*
X1171951Y-3261656D01*
X1114353Y-3374698D01*
X1094508Y-3500000D01*
X905492Y-3500000D01*
X885646Y-3374696D01*
X828050Y-3261658D01*
X738342Y-3171950D01*
X625304Y-3114354D01*
X625302Y-3114353D01*
X625301Y-3114353D01*
X500000Y-3094508D01*
X374698Y-3114353D01*
X261656Y-3171951D01*
X171951Y-3261656D01*
X114353Y-3374698D01*
X94508Y-3500000D01*
X-94508Y-3500000D01*
X-114353Y-3374698D01*
X-171951Y-3261656D01*
X-261656Y-3171951D01*
X-374698Y-3114353D01*
X-500000Y-3094508D01*
X-625301Y-3114353D01*
X-625302Y-3114353D01*
X-625304Y-3114354D01*
X-738342Y-3171950D01*
X-828050Y-3261658D01*
X-885646Y-3374696D01*
X-905492Y-3500000D01*
X-1094508Y-3500000D01*
X-1114353Y-3374698D01*
X-1171951Y-3261656D01*
X-1261656Y-3171951D01*
X-1374698Y-3114353D01*
X-1500000Y-3094508D01*
X-1625301Y-3114353D01*
X-1625302Y-3114353D01*
X-1625304Y-3114354D01*
X-1738342Y-3171950D01*
X-1828050Y-3261658D01*
X-1885646Y-3374696D01*
X-1905492Y-3500000D01*
X-2094508Y-3500000D01*
X-2114353Y-3374698D01*
X-2171951Y-3261656D01*
X-2261656Y-3171951D01*
X-2374698Y-3114353D01*
X-2500000Y-3094508D01*
X-2625301Y-3114353D01*
X-2625302Y-3114353D01*
X-2625304Y-3114354D01*
X-2738342Y-3171950D01*
X-2828050Y-3261658D01*
X-2885646Y-3374696D01*
X-2905492Y-3500000D01*
X-3094508Y-3500000D01*
X-3114353Y-3374698D01*
X-3171951Y-3261656D01*
X-3261656Y-3171951D01*
X-3374698Y-3114353D01*
X-3500000Y-3094508D01*
X-3625301Y-3114353D01*
X-3625302Y-3114353D01*
X-3625304Y-3114354D01*
X-3738342Y-3171950D01*
X-3828050Y-3261658D01*
X-3885646Y-3374696D01*
X-3905492Y-3500000D01*
X-5094508Y-3500000D01*
X-5114353Y-3374698D01*
X-5171951Y-3261656D01*
X-5261656Y-3171951D01*
X-5374698Y-3114353D01*
X-5500000Y-3094508D01*
X-5625301Y-3114353D01*
X-5625302Y-3114353D01*
X-5625304Y-3114354D01*
X-5738342Y-3171950D01*
X-5828050Y-3261658D01*
X-5885646Y-3374696D01*
X-5905492Y-3500000D01*
X-6094508Y-3500000D01*
X-6114353Y-3374698D01*
X-6171951Y-3261656D01*
X-6261656Y-3171951D01*
X-6374698Y-3114353D01*
X-6500000Y-3094508D01*
X-6625301Y-3114353D01*
X-6625302Y-3114353D01*
X-6625304Y-3114354D01*
X-6738342Y-3171950D01*
X-6828050Y-3261658D01*
X-6885646Y-3374696D01*
X-6905492Y-3500000D01*
X-19500000Y-3500000D01*
X-19500000Y-2475000D01*
X-11755492Y-2475000D01*
X-11735646Y-2600304D01*
X-11678050Y-2713342D01*
X-11678048Y-2713343D01*
X-11676489Y-2716404D01*
X-11672045Y-2772867D01*
X-11676489Y-2783596D01*
X-11678048Y-2786656D01*
X-11678050Y-2786658D01*
X-11735646Y-2899696D01*
X-11755492Y-3025000D01*
X-11735646Y-3150304D01*
X-11678050Y-3263342D01*
X-11588342Y-3353050D01*
X-11475304Y-3410646D01*
X-11350000Y-3430492D01*
X-11224696Y-3410646D01*
X-11111658Y-3353050D01*
X-11021950Y-3263342D01*
X-10964354Y-3150304D01*
X-10964353Y-3150302D01*
X-10964353Y-3150301D01*
X-10944508Y-3025000D01*
X-10964353Y-2899698D01*
X-11023511Y-2783595D01*
X-11027954Y-2727133D01*
X-11023511Y-2716405D01*
X-11021950Y-2713342D01*
X-10964354Y-2600304D01*
X-10964353Y-2600302D01*
X-10964353Y-2600301D01*
X-10948467Y-2500000D01*
X6094508Y-2500000D01*
X6114353Y-2625301D01*
X6114353Y-2625302D01*
X6114354Y-2625304D01*
X6171950Y-2738342D01*
X6261658Y-2828050D01*
X6374696Y-2885646D01*
X6500000Y-2905492D01*
X6625304Y-2885646D01*
X6738342Y-2828050D01*
X6828050Y-2738342D01*
X6885646Y-2625304D01*
X6905492Y-2500000D01*
X10094508Y-2500000D01*
X10114353Y-2625301D01*
X10114353Y-2625302D01*
X10114354Y-2625304D01*
X10171950Y-2738342D01*
X10261658Y-2828050D01*
X10374696Y-2885646D01*
X10500000Y-2905492D01*
X10625304Y-2885646D01*
X10738342Y-2828050D01*
X10828050Y-2738342D01*
X10885646Y-2625304D01*
X10905492Y-2500000D01*
X10885646Y-2374696D01*
X10828050Y-2261658D01*
X10738342Y-2171950D01*
X10625304Y-2114354D01*
X10625302Y-2114353D01*
X10625301Y-2114353D01*
X10500000Y-2094508D01*
X10374698Y-2114353D01*
X10261656Y-2171951D01*
X10171951Y-2261656D01*
X10114353Y-2374698D01*
X10094508Y-2500000D01*
X6905492Y-2500000D01*
X6885646Y-2374696D01*
X6828050Y-2261658D01*
X6738342Y-2171950D01*
X6625304Y-2114354D01*
X6625302Y-2114353D01*
X6625301Y-2114353D01*
X6500000Y-2094508D01*
X6374698Y-2114353D01*
X6261656Y-2171951D01*
X6171951Y-2261656D01*
X6114353Y-2374698D01*
X6094508Y-2500000D01*
X-10948467Y-2500000D01*
X-10944508Y-2475000D01*
X-10964353Y-2349698D01*
X-11021951Y-2236656D01*
X-11111656Y-2146951D01*
X-11224698Y-2089353D01*
X-11350000Y-2069508D01*
X-11475301Y-2089353D01*
X-11475302Y-2089353D01*
X-11475304Y-2089354D01*
X-11588342Y-2146950D01*
X-11678050Y-2236658D01*
X-11735646Y-2349696D01*
X-11755492Y-2475000D01*
X-19500000Y-2475000D01*
X-19500000Y-1500000D01*
X-6905492Y-1500000D01*
X-6885646Y-1625304D01*
X-6828050Y-1738342D01*
X-6738342Y-1828050D01*
X-6625304Y-1885646D01*
X-6500000Y-1905492D01*
X-6374696Y-1885646D01*
X-6261658Y-1828050D01*
X-6171950Y-1738342D01*
X-6114354Y-1625304D01*
X-6114353Y-1625302D01*
X-6114353Y-1625301D01*
X-6094508Y-1500000D01*
X-6114353Y-1374698D01*
X-6171951Y-1261656D01*
X-6261656Y-1171951D01*
X-6374698Y-1114353D01*
X-6500000Y-1094508D01*
X-6625301Y-1114353D01*
X-6625302Y-1114353D01*
X-6625304Y-1114354D01*
X-6738342Y-1171950D01*
X-6828050Y-1261658D01*
X-6885646Y-1374696D01*
X-6905492Y-1500000D01*
X-19500000Y-1500000D01*
X-19500000Y-500000D01*
X-6805492Y-500000D01*
X-6785646Y-625304D01*
X-6728050Y-738342D01*
X-6638342Y-828050D01*
X-6525304Y-885646D01*
X-6400000Y-905492D01*
X-6274696Y-885646D01*
X-6161658Y-828050D01*
X-6071950Y-738342D01*
X-6014354Y-625304D01*
X-6014353Y-625302D01*
X-6014353Y-625301D01*
X-5994508Y-500000D01*
X5894508Y-500000D01*
X5914353Y-625301D01*
X5914353Y-625302D01*
X5914354Y-625304D01*
X5971950Y-738342D01*
X6061658Y-828050D01*
X6174696Y-885646D01*
X6300000Y-905492D01*
X6425304Y-885646D01*
X6538342Y-828050D01*
X6628050Y-738342D01*
X6685646Y-625304D01*
X6705492Y-500000D01*
X10094508Y-500000D01*
X10114353Y-625301D01*
X10114353Y-625302D01*
X10114354Y-625304D01*
X10171950Y-738342D01*
X10261658Y-828050D01*
X10374696Y-885646D01*
X10500000Y-905492D01*
X10625304Y-885646D01*
X10738342Y-828050D01*
X10828050Y-738342D01*
X10885646Y-625304D01*
X10905492Y-500000D01*
X10885646Y-374696D01*
X10828050Y-261658D01*
X10738342Y-171950D01*
X10625304Y-114354D01*
X10625302Y-114353D01*
X10625301Y-114353D01*
X10500000Y-94508D01*
X10374698Y-114353D01*
X10261656Y-171951D01*
X10171951Y-261656D01*
X10114353Y-374698D01*
X10094508Y-500000D01*
X6705492Y-500000D01*
X6685646Y-374696D01*
X6628050Y-261658D01*
X6538342Y-171950D01*
X6425304Y-114354D01*
X6425302Y-114353D01*
X6425301Y-114353D01*
X6300000Y-94508D01*
X6174698Y-114353D01*
X6061656Y-171951D01*
X5971951Y-261656D01*
X5914353Y-374698D01*
X5894508Y-500000D01*
X-5994508Y-500000D01*
X-6014353Y-374698D01*
X-6071951Y-261656D01*
X-6161656Y-171951D01*
X-6274698Y-114353D01*
X-6400000Y-94508D01*
X-6525301Y-114353D01*
X-6525302Y-114353D01*
X-6525304Y-114354D01*
X-6638342Y-171950D01*
X-6728050Y-261658D01*
X-6785646Y-374696D01*
X-6805492Y-500000D01*
X-19500000Y-500000D01*
X-19500000Y500000D01*
X5894508Y500000D01*
X5914353Y374698D01*
X5971951Y261656D01*
X6061656Y171951D01*
X6174698Y114353D01*
X6300000Y94508D01*
X6425301Y114353D01*
X6425302Y114353D01*
X6425304Y114354D01*
X6538342Y171950D01*
X6628050Y261658D01*
X6685646Y374696D01*
X6705492Y500000D01*
X10094508Y500000D01*
X10114353Y374698D01*
X10171951Y261656D01*
X10261656Y171951D01*
X10374698Y114353D01*
X10500000Y94508D01*
X10625301Y114353D01*
X10625302Y114353D01*
X10625304Y114354D01*
X10738342Y171950D01*
X10828050Y261658D01*
X10885646Y374696D01*
X10905492Y500000D01*
X10885646Y625304D01*
X10828050Y738342D01*
X10738342Y828050D01*
X10625304Y885646D01*
X10500000Y905492D01*
X10374696Y885646D01*
X10261658Y828050D01*
X10171950Y738342D01*
X10114354Y625304D01*
X10114353Y625302D01*
X10114353Y625301D01*
X10094508Y500000D01*
X6705492Y500000D01*
X6685646Y625304D01*
X6628050Y738342D01*
X6538342Y828050D01*
X6425304Y885646D01*
X6300000Y905492D01*
X6174696Y885646D01*
X6061658Y828050D01*
X5971950Y738342D01*
X5914354Y625304D01*
X5914353Y625302D01*
X5914353Y625301D01*
X5894508Y500000D01*
X-19500000Y500000D01*
X-19500000Y1500000D01*
X-10805492Y1500000D01*
X-10785646Y1374696D01*
X-10728050Y1261658D01*
X-10638342Y1171950D01*
X-10525304Y1114354D01*
X-10525302Y1114353D01*
X-10525301Y1114353D01*
X-10400000Y1094508D01*
X-10274698Y1114353D01*
X-10161656Y1171951D01*
X-10071950Y1261657D01*
X-10065934Y1273465D01*
X-10022867Y1310247D01*
X-9966404Y1305803D01*
X-9934066Y1273465D01*
X-9928050Y1261658D01*
X-9838342Y1171950D01*
X-9725304Y1114354D01*
X-9725302Y1114353D01*
X-9725301Y1114353D01*
X-9600000Y1094508D01*
X-9474698Y1114353D01*
X-9361656Y1171951D01*
X-9271951Y1261656D01*
X-9214353Y1374698D01*
X-9194508Y1500000D01*
X-6805492Y1500000D01*
X-6785646Y1374696D01*
X-6728050Y1261658D01*
X-6638342Y1171950D01*
X-6525304Y1114354D01*
X-6525302Y1114353D01*
X-6525301Y1114353D01*
X-6400000Y1094508D01*
X-6274698Y1114353D01*
X-6161656Y1171951D01*
X-6071951Y1261656D01*
X-6014353Y1374698D01*
X-6002427Y1450000D01*
X3544508Y1450000D01*
X3564353Y1324698D01*
X3621951Y1211656D01*
X3711656Y1121951D01*
X3824698Y1064353D01*
X3950000Y1044508D01*
X4075301Y1064353D01*
X4075302Y1064353D01*
X4075304Y1064354D01*
X4188342Y1121950D01*
X4278050Y1211658D01*
X4335646Y1324696D01*
X4355492Y1450000D01*
X4335646Y1575304D01*
X4278050Y1688342D01*
X4188342Y1778050D01*
X4075304Y1835646D01*
X3950000Y1855492D01*
X3824696Y1835646D01*
X3711658Y1778050D01*
X3621950Y1688342D01*
X3564354Y1575304D01*
X3564353Y1575302D01*
X3564353Y1575301D01*
X3544508Y1450000D01*
X-6002427Y1450000D01*
X-5994508Y1500000D01*
X-6014353Y1625301D01*
X-6014353Y1625302D01*
X-6014354Y1625304D01*
X-6071950Y1738342D01*
X-6161658Y1828050D01*
X-6274696Y1885646D01*
X-6400000Y1905492D01*
X-6525304Y1885646D01*
X-6638342Y1828050D01*
X-6728050Y1738342D01*
X-6785646Y1625304D01*
X-6805492Y1500000D01*
X-9194508Y1500000D01*
X-9214353Y1625301D01*
X-9214353Y1625302D01*
X-9214354Y1625304D01*
X-9271950Y1738342D01*
X-9361658Y1828050D01*
X-9474696Y1885646D01*
X-9600000Y1905492D01*
X-9725304Y1885646D01*
X-9838342Y1828050D01*
X-9928050Y1738342D01*
X-9934065Y1726536D01*
X-9977131Y1689752D01*
X-10033594Y1694195D01*
X-10065935Y1726536D01*
X-10071950Y1738342D01*
X-10161656Y1828048D01*
X-10161658Y1828050D01*
X-10274696Y1885646D01*
X-10400000Y1905492D01*
X-10525304Y1885646D01*
X-10638342Y1828050D01*
X-10728050Y1738342D01*
X-10785646Y1625304D01*
X-10805492Y1500000D01*
X-19500000Y1500000D01*
X-19500000Y2750000D01*
X-16105492Y2750000D01*
X-16085646Y2624696D01*
X-16028050Y2511658D01*
X-15938342Y2421950D01*
X-15825304Y2364354D01*
X-15825302Y2364353D01*
X-15825301Y2364353D01*
X-15700000Y2344508D01*
X-15574698Y2364353D01*
X-15461656Y2421951D01*
X-15383607Y2500000D01*
X-6805492Y2500000D01*
X-6785646Y2374696D01*
X-6728050Y2261658D01*
X-6638342Y2171950D01*
X-6525304Y2114354D01*
X-6525302Y2114353D01*
X-6525301Y2114353D01*
X-6400000Y2094508D01*
X-6274698Y2114353D01*
X-6161656Y2171951D01*
X-6071951Y2261656D01*
X-6014353Y2374698D01*
X-5994508Y2500000D01*
X6094508Y2500000D01*
X6114353Y2374698D01*
X6171951Y2261656D01*
X6261656Y2171951D01*
X6374698Y2114353D01*
X6500000Y2094508D01*
X6625301Y2114353D01*
X6625302Y2114353D01*
X6625304Y2114354D01*
X6738342Y2171950D01*
X6828050Y2261658D01*
X6885646Y2374696D01*
X6905492Y2500000D01*
X10094508Y2500000D01*
X10114353Y2374698D01*
X10171951Y2261656D01*
X10261656Y2171951D01*
X10374698Y2114353D01*
X10500000Y2094508D01*
X10625301Y2114353D01*
X10625302Y2114353D01*
X10625304Y2114354D01*
X10738342Y2171950D01*
X10828050Y2261658D01*
X10885646Y2374696D01*
X10905492Y2500000D01*
X10885646Y2625304D01*
X10828050Y2738342D01*
X10738342Y2828050D01*
X10625304Y2885646D01*
X10500000Y2905492D01*
X10374696Y2885646D01*
X10261658Y2828050D01*
X10171950Y2738342D01*
X10114354Y2625304D01*
X10114353Y2625302D01*
X10114353Y2625301D01*
X10094508Y2500000D01*
X6905492Y2500000D01*
X6885646Y2625304D01*
X6828050Y2738342D01*
X6738342Y2828050D01*
X6625304Y2885646D01*
X6500000Y2905492D01*
X6374696Y2885646D01*
X6261658Y2828050D01*
X6171950Y2738342D01*
X6114354Y2625304D01*
X6114353Y2625302D01*
X6114353Y2625301D01*
X6094508Y2500000D01*
X-5994508Y2500000D01*
X-6014353Y2625301D01*
X-6014353Y2625302D01*
X-6014354Y2625304D01*
X-6071950Y2738342D01*
X-6161658Y2828050D01*
X-6274696Y2885646D01*
X-6400000Y2905492D01*
X-6525304Y2885646D01*
X-6638342Y2828050D01*
X-6728050Y2738342D01*
X-6785646Y2625304D01*
X-6805492Y2500000D01*
X-15383607Y2500000D01*
X-15371951Y2511656D01*
X-15314353Y2624698D01*
X-15294508Y2750000D01*
X-15314353Y2875301D01*
X-15314353Y2875302D01*
X-15314354Y2875304D01*
X-15371950Y2988342D01*
X-15461658Y3078050D01*
X-15574696Y3135646D01*
X-15700000Y3155492D01*
X-15825304Y3135646D01*
X-15938342Y3078050D01*
X-16028050Y2988342D01*
X-16085646Y2875304D01*
X-16105492Y2750000D01*
X-19500000Y2750000D01*
X-19500000Y3500000D01*
X-10805492Y3500000D01*
X-10785646Y3374696D01*
X-10728050Y3261658D01*
X-10638342Y3171950D01*
X-10525304Y3114354D01*
X-10525302Y3114353D01*
X-10525301Y3114353D01*
X-10400000Y3094508D01*
X-10274698Y3114353D01*
X-10161656Y3171951D01*
X-10071950Y3261657D01*
X-10065934Y3273465D01*
X-10022867Y3310247D01*
X-9966404Y3305803D01*
X-9934066Y3273465D01*
X-9928050Y3261658D01*
X-9838342Y3171950D01*
X-9725304Y3114354D01*
X-9725302Y3114353D01*
X-9725301Y3114353D01*
X-9600000Y3094508D01*
X-9474698Y3114353D01*
X-9361656Y3171951D01*
X-9271951Y3261656D01*
X-9214353Y3374698D01*
X-9194508Y3500000D01*
X-6805492Y3500000D01*
X-6785646Y3374696D01*
X-6728050Y3261658D01*
X-6638342Y3171950D01*
X-6525304Y3114354D01*
X-6525302Y3114353D01*
X-6525301Y3114353D01*
X-6400000Y3094508D01*
X-6274698Y3114353D01*
X-6161656Y3171951D01*
X-6071951Y3261656D01*
X-6014353Y3374698D01*
X-5994508Y3500000D01*
X-5998467Y3525000D01*
X-4580492Y3525000D01*
X-4560646Y3399696D01*
X-4503050Y3286658D01*
X-4413342Y3196950D01*
X-4300304Y3139354D01*
X-4300302Y3139353D01*
X-4300301Y3139353D01*
X-4175000Y3119508D01*
X-4049698Y3139353D01*
X-3936656Y3196951D01*
X-3848642Y3284965D01*
X-3796316Y3306639D01*
X-3743990Y3284965D01*
X-3730383Y3266236D01*
X-3728050Y3261658D01*
X-3638342Y3171950D01*
X-3525304Y3114354D01*
X-3525302Y3114353D01*
X-3525301Y3114353D01*
X-3400000Y3094508D01*
X-3274698Y3114353D01*
X-3161656Y3171951D01*
X-3071951Y3261656D01*
X-3014353Y3374698D01*
X-2994508Y3500000D01*
X-2780492Y3500000D01*
X-2760646Y3374696D01*
X-2703050Y3261658D01*
X-2613342Y3171950D01*
X-2500304Y3114354D01*
X-2500302Y3114353D01*
X-2500301Y3114353D01*
X-2375000Y3094508D01*
X-2249698Y3114353D01*
X-2136656Y3171951D01*
X-2046951Y3261656D01*
X-1989353Y3374698D01*
X-1969508Y3500000D01*
X-1805492Y3500000D01*
X-1785646Y3374696D01*
X-1728050Y3261658D01*
X-1638342Y3171950D01*
X-1525304Y3114354D01*
X-1525302Y3114353D01*
X-1525301Y3114353D01*
X-1400000Y3094508D01*
X-1274698Y3114353D01*
X-1161656Y3171951D01*
X-1071951Y3261656D01*
X-1014353Y3374698D01*
X-994508Y3500000D01*
X1094508Y3500000D01*
X1114353Y3374698D01*
X1171951Y3261656D01*
X1261656Y3171951D01*
X1374698Y3114353D01*
X1500000Y3094508D01*
X1625301Y3114353D01*
X1625302Y3114353D01*
X1625304Y3114354D01*
X1738342Y3171950D01*
X1828050Y3261658D01*
X1885646Y3374696D01*
X1905492Y3500000D01*
X2094508Y3500000D01*
X2114353Y3374698D01*
X2171951Y3261656D01*
X2261656Y3171951D01*
X2374698Y3114353D01*
X2500000Y3094508D01*
X2625301Y3114353D01*
X2625302Y3114353D01*
X2625304Y3114354D01*
X2738342Y3171950D01*
X2828050Y3261658D01*
X2885646Y3374696D01*
X2905492Y3500000D01*
X4094508Y3500000D01*
X4114353Y3374698D01*
X4171951Y3261656D01*
X4261656Y3171951D01*
X4374698Y3114353D01*
X4500000Y3094508D01*
X4625301Y3114353D01*
X4625302Y3114353D01*
X4625304Y3114354D01*
X4738342Y3171950D01*
X4828050Y3261658D01*
X4885646Y3374696D01*
X4905492Y3500000D01*
X5094508Y3500000D01*
X5114353Y3374698D01*
X5171951Y3261656D01*
X5261656Y3171951D01*
X5374698Y3114353D01*
X5500000Y3094508D01*
X5625301Y3114353D01*
X5625302Y3114353D01*
X5625304Y3114354D01*
X5738342Y3171950D01*
X5828050Y3261658D01*
X5885646Y3374696D01*
X5901911Y3477390D01*
X5913087Y3495627D01*
X5909465Y3504371D01*
X6036912Y3504371D01*
X6048089Y3477390D01*
X6064353Y3374698D01*
X6121951Y3261656D01*
X6211656Y3171951D01*
X6324698Y3114353D01*
X6450000Y3094508D01*
X6575301Y3114353D01*
X6575302Y3114353D01*
X6575304Y3114354D01*
X6688342Y3171950D01*
X6778050Y3261658D01*
X6835646Y3374696D01*
X6855492Y3500000D01*
X9094508Y3500000D01*
X9114353Y3374698D01*
X9171951Y3261656D01*
X9261656Y3171951D01*
X9374698Y3114353D01*
X9500000Y3094508D01*
X9625301Y3114353D01*
X9625302Y3114353D01*
X9625304Y3114354D01*
X9738342Y3171950D01*
X9828050Y3261658D01*
X9885646Y3374696D01*
X9905492Y3500000D01*
X10094508Y3500000D01*
X10114353Y3374698D01*
X10171951Y3261656D01*
X10261656Y3171951D01*
X10374698Y3114353D01*
X10500000Y3094508D01*
X10625301Y3114353D01*
X10625302Y3114353D01*
X10625304Y3114354D01*
X10738342Y3171950D01*
X10828050Y3261658D01*
X10885646Y3374696D01*
X10905492Y3500000D01*
X10885646Y3625304D01*
X10828050Y3738342D01*
X10738342Y3828050D01*
X10625304Y3885646D01*
X10500000Y3905492D01*
X10374696Y3885646D01*
X10261658Y3828050D01*
X10171950Y3738342D01*
X10114354Y3625304D01*
X10114353Y3625302D01*
X10114353Y3625301D01*
X10094508Y3500000D01*
X9905492Y3500000D01*
X9885646Y3625304D01*
X9828050Y3738342D01*
X9738342Y3828050D01*
X9625304Y3885646D01*
X9500000Y3905492D01*
X9374696Y3885646D01*
X9261658Y3828050D01*
X9171950Y3738342D01*
X9114354Y3625304D01*
X9114353Y3625302D01*
X9114353Y3625301D01*
X9094508Y3500000D01*
X6855492Y3500000D01*
X6835646Y3625304D01*
X6778050Y3738342D01*
X6688342Y3828050D01*
X6575304Y3885646D01*
X6450000Y3905492D01*
X6324696Y3885646D01*
X6211658Y3828050D01*
X6121950Y3738342D01*
X6064354Y3625304D01*
X6064353Y3625302D01*
X6064353Y3625301D01*
X6048089Y3522609D01*
X6036912Y3504371D01*
X5909465Y3504371D01*
X5901911Y3522609D01*
X5885646Y3625301D01*
X5885646Y3625304D01*
X5828050Y3738342D01*
X5738342Y3828050D01*
X5625304Y3885646D01*
X5500000Y3905492D01*
X5374696Y3885646D01*
X5261658Y3828050D01*
X5171950Y3738342D01*
X5114354Y3625304D01*
X5114353Y3625302D01*
X5114353Y3625301D01*
X5094508Y3500000D01*
X4905492Y3500000D01*
X4885646Y3625304D01*
X4828050Y3738342D01*
X4738342Y3828050D01*
X4625304Y3885646D01*
X4500000Y3905492D01*
X4374696Y3885646D01*
X4261658Y3828050D01*
X4171950Y3738342D01*
X4114354Y3625304D01*
X4114353Y3625302D01*
X4114353Y3625301D01*
X4094508Y3500000D01*
X2905492Y3500000D01*
X2885646Y3625304D01*
X2828050Y3738342D01*
X2738342Y3828050D01*
X2625304Y3885646D01*
X2500000Y3905492D01*
X2374696Y3885646D01*
X2261658Y3828050D01*
X2171950Y3738342D01*
X2114354Y3625304D01*
X2114353Y3625302D01*
X2114353Y3625301D01*
X2094508Y3500000D01*
X1905492Y3500000D01*
X1885646Y3625304D01*
X1828050Y3738342D01*
X1738342Y3828050D01*
X1625304Y3885646D01*
X1500000Y3905492D01*
X1374696Y3885646D01*
X1261658Y3828050D01*
X1171950Y3738342D01*
X1114354Y3625304D01*
X1114353Y3625302D01*
X1114353Y3625301D01*
X1094508Y3500000D01*
X-994508Y3500000D01*
X-1014353Y3625301D01*
X-1014353Y3625302D01*
X-1014354Y3625304D01*
X-1071950Y3738342D01*
X-1161658Y3828050D01*
X-1274696Y3885646D01*
X-1400000Y3905492D01*
X-1525304Y3885646D01*
X-1638342Y3828050D01*
X-1728050Y3738342D01*
X-1785646Y3625304D01*
X-1805492Y3500000D01*
X-1969508Y3500000D01*
X-1989353Y3625301D01*
X-1989353Y3625302D01*
X-1989354Y3625304D01*
X-2046950Y3738342D01*
X-2136658Y3828050D01*
X-2249696Y3885646D01*
X-2375000Y3905492D01*
X-2500304Y3885646D01*
X-2613342Y3828050D01*
X-2703050Y3738342D01*
X-2760646Y3625304D01*
X-2780492Y3500000D01*
X-2994508Y3500000D01*
X-3014353Y3625301D01*
X-3014353Y3625302D01*
X-3014354Y3625304D01*
X-3071950Y3738342D01*
X-3161658Y3828050D01*
X-3274696Y3885646D01*
X-3400000Y3905492D01*
X-3525304Y3885646D01*
X-3638342Y3828050D01*
X-3726358Y3740033D01*
X-3778683Y3718360D01*
X-3831009Y3740034D01*
X-3844616Y3758762D01*
X-3846949Y3763341D01*
X-3936656Y3853048D01*
X-3936658Y3853050D01*
X-4049696Y3910646D01*
X-4175000Y3930492D01*
X-4300304Y3910646D01*
X-4413342Y3853050D01*
X-4503050Y3763342D01*
X-4560646Y3650304D01*
X-4580492Y3525000D01*
X-5998467Y3525000D01*
X-6014353Y3625301D01*
X-6014353Y3625302D01*
X-6014354Y3625304D01*
X-6071950Y3738342D01*
X-6161658Y3828050D01*
X-6274696Y3885646D01*
X-6400000Y3905492D01*
X-6525304Y3885646D01*
X-6638342Y3828050D01*
X-6728050Y3738342D01*
X-6785646Y3625304D01*
X-6805492Y3500000D01*
X-9194508Y3500000D01*
X-9214353Y3625301D01*
X-9214353Y3625302D01*
X-9214354Y3625304D01*
X-9271950Y3738342D01*
X-9361658Y3828050D01*
X-9474696Y3885646D01*
X-9600000Y3905492D01*
X-9725304Y3885646D01*
X-9838342Y3828050D01*
X-9928050Y3738342D01*
X-9934065Y3726536D01*
X-9977131Y3689752D01*
X-10033594Y3694195D01*
X-10065935Y3726536D01*
X-10071950Y3738342D01*
X-10161656Y3828048D01*
X-10161658Y3828050D01*
X-10274696Y3885646D01*
X-10400000Y3905492D01*
X-10525304Y3885646D01*
X-10638342Y3828050D01*
X-10728050Y3738342D01*
X-10785646Y3625304D01*
X-10805492Y3500000D01*
X-19500000Y3500000D01*
X-19500000Y4250000D01*
X-17255492Y4250000D01*
X-17235646Y4124696D01*
X-17178050Y4011658D01*
X-17088342Y3921950D01*
X-16975304Y3864354D01*
X-16975302Y3864353D01*
X-16975301Y3864353D01*
X-16850000Y3844508D01*
X-16724698Y3864353D01*
X-16611656Y3921951D01*
X-16521951Y4011656D01*
X-16464353Y4124698D01*
X-16444508Y4250000D01*
X-16464353Y4375301D01*
X-16464353Y4375302D01*
X-16464354Y4375304D01*
X-16521950Y4488342D01*
X-16611658Y4578050D01*
X-16724696Y4635646D01*
X-16850000Y4655492D01*
X-16975304Y4635646D01*
X-17088342Y4578050D01*
X-17178050Y4488342D01*
X-17235646Y4375304D01*
X-17255492Y4250000D01*
X-19500000Y4250000D01*
X-19500000Y4750000D01*
X-16105492Y4750000D01*
X-16085646Y4624696D01*
X-16028050Y4511658D01*
X-15938342Y4421950D01*
X-15825304Y4364354D01*
X-15825302Y4364353D01*
X-15825301Y4364353D01*
X-15700000Y4344508D01*
X-15574698Y4364353D01*
X-15461656Y4421951D01*
X-15383607Y4500000D01*
X-10805492Y4500000D01*
X-10785646Y4374696D01*
X-10728050Y4261658D01*
X-10638342Y4171950D01*
X-10525304Y4114354D01*
X-10525302Y4114353D01*
X-10525301Y4114353D01*
X-10400000Y4094508D01*
X-10274698Y4114353D01*
X-10161656Y4171951D01*
X-10071950Y4261657D01*
X-10065934Y4273465D01*
X-10022867Y4310247D01*
X-9966404Y4305803D01*
X-9934066Y4273465D01*
X-9928050Y4261658D01*
X-9838342Y4171950D01*
X-9725304Y4114354D01*
X-9725302Y4114353D01*
X-9725301Y4114353D01*
X-9600000Y4094508D01*
X-9474698Y4114353D01*
X-9361656Y4171951D01*
X-9271951Y4261656D01*
X-9214353Y4374698D01*
X-9194508Y4500000D01*
X9094508Y4500000D01*
X9114353Y4374698D01*
X9171951Y4261656D01*
X9261656Y4171951D01*
X9374698Y4114353D01*
X9500000Y4094508D01*
X9625301Y4114353D01*
X9625302Y4114353D01*
X9625304Y4114354D01*
X9738342Y4171950D01*
X9828050Y4261658D01*
X9885646Y4374696D01*
X9905492Y4500000D01*
X10094508Y4500000D01*
X10114353Y4374698D01*
X10171951Y4261656D01*
X10261656Y4171951D01*
X10374698Y4114353D01*
X10500000Y4094508D01*
X10625301Y4114353D01*
X10625302Y4114353D01*
X10625304Y4114354D01*
X10738342Y4171950D01*
X10828050Y4261658D01*
X10885646Y4374696D01*
X10905492Y4500000D01*
X10885646Y4625304D01*
X10828050Y4738342D01*
X10738342Y4828050D01*
X10625304Y4885646D01*
X10500000Y4905492D01*
X10374696Y4885646D01*
X10261658Y4828050D01*
X10171950Y4738342D01*
X10114354Y4625304D01*
X10114353Y4625302D01*
X10114353Y4625301D01*
X10094508Y4500000D01*
X9905492Y4500000D01*
X9885646Y4625304D01*
X9828050Y4738342D01*
X9738342Y4828050D01*
X9625304Y4885646D01*
X9500000Y4905492D01*
X9374696Y4885646D01*
X9261658Y4828050D01*
X9171950Y4738342D01*
X9114354Y4625304D01*
X9114353Y4625302D01*
X9114353Y4625301D01*
X9094508Y4500000D01*
X-9194508Y4500000D01*
X-9214353Y4625301D01*
X-9214353Y4625302D01*
X-9214354Y4625304D01*
X-9271950Y4738342D01*
X-9361658Y4828050D01*
X-9474696Y4885646D01*
X-9600000Y4905492D01*
X-9725304Y4885646D01*
X-9838342Y4828050D01*
X-9928050Y4738342D01*
X-9934065Y4726536D01*
X-9977131Y4689752D01*
X-10033594Y4694195D01*
X-10065935Y4726536D01*
X-10071950Y4738342D01*
X-10161656Y4828048D01*
X-10161658Y4828050D01*
X-10274696Y4885646D01*
X-10400000Y4905492D01*
X-10525304Y4885646D01*
X-10638342Y4828050D01*
X-10728050Y4738342D01*
X-10785646Y4625304D01*
X-10805492Y4500000D01*
X-15383607Y4500000D01*
X-15371951Y4511656D01*
X-15314353Y4624698D01*
X-15294508Y4750000D01*
X-15314353Y4875301D01*
X-15314353Y4875302D01*
X-15314354Y4875304D01*
X-15371950Y4988342D01*
X-15461658Y5078050D01*
X-15574696Y5135646D01*
X-15700000Y5155492D01*
X-15825304Y5135646D01*
X-15938342Y5078050D01*
X-16028050Y4988342D01*
X-16085646Y4875304D01*
X-16105492Y4750000D01*
X-19500000Y4750000D01*
X-19500000Y5250000D01*
X-18705492Y5250000D01*
X-18685646Y5124696D01*
X-18628050Y5011658D01*
X-18538342Y4921950D01*
X-18425304Y4864354D01*
X-18425302Y4864353D01*
X-18425301Y4864353D01*
X-18300000Y4844508D01*
X-18174698Y4864353D01*
X-18061656Y4921951D01*
X-18002326Y4981282D01*
X-17950000Y5002956D01*
X-17897674Y4981282D01*
X-17838342Y4921950D01*
X-17725304Y4864354D01*
X-17725302Y4864353D01*
X-17725301Y4864353D01*
X-17600000Y4844508D01*
X-17474698Y4864353D01*
X-17361656Y4921951D01*
X-17302326Y4981282D01*
X-17250000Y5002956D01*
X-17197674Y4981282D01*
X-17138342Y4921950D01*
X-17025304Y4864354D01*
X-17025302Y4864353D01*
X-17025301Y4864353D01*
X-16900000Y4844508D01*
X-16774698Y4864353D01*
X-16661656Y4921951D01*
X-16571951Y5011656D01*
X-16514353Y5124698D01*
X-16494508Y5250000D01*
X-16514353Y5375301D01*
X-16514353Y5375302D01*
X-16514354Y5375304D01*
X-16571950Y5488342D01*
X-16583608Y5500000D01*
X-10805492Y5500000D01*
X-10785646Y5374696D01*
X-10728050Y5261658D01*
X-10638342Y5171950D01*
X-10525304Y5114354D01*
X-10525302Y5114353D01*
X-10525301Y5114353D01*
X-10400000Y5094508D01*
X-10274698Y5114353D01*
X-10161656Y5171951D01*
X-10071950Y5261657D01*
X-10065934Y5273465D01*
X-10022867Y5310247D01*
X-9966404Y5305803D01*
X-9934066Y5273465D01*
X-9928050Y5261658D01*
X-9838342Y5171950D01*
X-9725304Y5114354D01*
X-9725302Y5114353D01*
X-9725301Y5114353D01*
X-9600000Y5094508D01*
X-9474698Y5114353D01*
X-9361656Y5171951D01*
X-9271951Y5261656D01*
X-9214353Y5374698D01*
X-9194508Y5500000D01*
X9094508Y5500000D01*
X9114353Y5374698D01*
X9171951Y5261656D01*
X9261656Y5171951D01*
X9374698Y5114353D01*
X9500000Y5094508D01*
X9625301Y5114353D01*
X9625302Y5114353D01*
X9625304Y5114354D01*
X9738342Y5171950D01*
X9828050Y5261658D01*
X9885646Y5374696D01*
X9905492Y5500000D01*
X10094508Y5500000D01*
X10114353Y5374698D01*
X10171951Y5261656D01*
X10261656Y5171951D01*
X10374698Y5114353D01*
X10500000Y5094508D01*
X10625301Y5114353D01*
X10625302Y5114353D01*
X10625304Y5114354D01*
X10738342Y5171950D01*
X10828050Y5261658D01*
X10885646Y5374696D01*
X10905492Y5500000D01*
X10885646Y5625304D01*
X10828050Y5738342D01*
X10738342Y5828050D01*
X10625304Y5885646D01*
X10500000Y5905492D01*
X10374696Y5885646D01*
X10261658Y5828050D01*
X10171950Y5738342D01*
X10114354Y5625304D01*
X10114353Y5625302D01*
X10114353Y5625301D01*
X10094508Y5500000D01*
X9905492Y5500000D01*
X9885646Y5625304D01*
X9828050Y5738342D01*
X9738342Y5828050D01*
X9625304Y5885646D01*
X9500000Y5905492D01*
X9374696Y5885646D01*
X9261658Y5828050D01*
X9171950Y5738342D01*
X9114354Y5625304D01*
X9114353Y5625302D01*
X9114353Y5625301D01*
X9094508Y5500000D01*
X-9194508Y5500000D01*
X-9214353Y5625301D01*
X-9214353Y5625302D01*
X-9214354Y5625304D01*
X-9271950Y5738342D01*
X-9361658Y5828050D01*
X-9474696Y5885646D01*
X-9600000Y5905492D01*
X-9725304Y5885646D01*
X-9838342Y5828050D01*
X-9928050Y5738342D01*
X-9934065Y5726536D01*
X-9977131Y5689752D01*
X-10033594Y5694195D01*
X-10065935Y5726536D01*
X-10071950Y5738342D01*
X-10161656Y5828048D01*
X-10161658Y5828050D01*
X-10274696Y5885646D01*
X-10400000Y5905492D01*
X-10525304Y5885646D01*
X-10638342Y5828050D01*
X-10728050Y5738342D01*
X-10785646Y5625304D01*
X-10805492Y5500000D01*
X-16583608Y5500000D01*
X-16661658Y5578050D01*
X-16774696Y5635646D01*
X-16900000Y5655492D01*
X-17025304Y5635646D01*
X-17138342Y5578050D01*
X-17181717Y5534675D01*
X-17197674Y5518718D01*
X-17250000Y5497044D01*
X-17302326Y5518718D01*
X-17361656Y5578048D01*
X-17361658Y5578050D01*
X-17474696Y5635646D01*
X-17600000Y5655492D01*
X-17725304Y5635646D01*
X-17838342Y5578050D01*
X-17881717Y5534675D01*
X-17897674Y5518718D01*
X-17950000Y5497044D01*
X-18002326Y5518718D01*
X-18061656Y5578048D01*
X-18061658Y5578050D01*
X-18174696Y5635646D01*
X-18300000Y5655492D01*
X-18425304Y5635646D01*
X-18538342Y5578050D01*
X-18628050Y5488342D01*
X-18685646Y5375304D01*
X-18705492Y5250000D01*
X-19500000Y5250000D01*
X-19500000Y6500000D01*
X-8905492Y6500000D01*
X-8885646Y6374696D01*
X-8828050Y6261658D01*
X-8738342Y6171950D01*
X-8625304Y6114354D01*
X-8625302Y6114353D01*
X-8625301Y6114353D01*
X-8500000Y6094508D01*
X-8374698Y6114353D01*
X-8261656Y6171951D01*
X-8171951Y6261656D01*
X-8114353Y6374698D01*
X-8094508Y6500000D01*
X-6905492Y6500000D01*
X-6885646Y6374696D01*
X-6828050Y6261658D01*
X-6738342Y6171950D01*
X-6625304Y6114354D01*
X-6625302Y6114353D01*
X-6625301Y6114353D01*
X-6500000Y6094508D01*
X-6374698Y6114353D01*
X-6261656Y6171951D01*
X-6171951Y6261656D01*
X-6114353Y6374698D01*
X-6094508Y6500000D01*
X-4905492Y6500000D01*
X-4885646Y6374696D01*
X-4828050Y6261658D01*
X-4738342Y6171950D01*
X-4625304Y6114354D01*
X-4625302Y6114353D01*
X-4625301Y6114353D01*
X-4500000Y6094508D01*
X-4374698Y6114353D01*
X-4261656Y6171951D01*
X-4171951Y6261656D01*
X-4114353Y6374698D01*
X-4094508Y6500000D01*
X-2905492Y6500000D01*
X-2885646Y6374696D01*
X-2828050Y6261658D01*
X-2738342Y6171950D01*
X-2625304Y6114354D01*
X-2625302Y6114353D01*
X-2625301Y6114353D01*
X-2500000Y6094508D01*
X-2374698Y6114353D01*
X-2261656Y6171951D01*
X-2171951Y6261656D01*
X-2114353Y6374698D01*
X-2094508Y6500000D01*
X-905492Y6500000D01*
X-885646Y6374696D01*
X-828050Y6261658D01*
X-738342Y6171950D01*
X-625304Y6114354D01*
X-625302Y6114353D01*
X-625301Y6114353D01*
X-500000Y6094508D01*
X-374698Y6114353D01*
X-261656Y6171951D01*
X-171951Y6261656D01*
X-114353Y6374698D01*
X-94508Y6500000D01*
X94508Y6500000D01*
X114353Y6374698D01*
X171951Y6261656D01*
X261656Y6171951D01*
X374698Y6114353D01*
X500000Y6094508D01*
X625301Y6114353D01*
X625302Y6114353D01*
X625304Y6114354D01*
X738342Y6171950D01*
X828050Y6261658D01*
X885646Y6374696D01*
X905492Y6500000D01*
X1094508Y6500000D01*
X1114353Y6374698D01*
X1171951Y6261656D01*
X1261656Y6171951D01*
X1374698Y6114353D01*
X1500000Y6094508D01*
X1625301Y6114353D01*
X1625302Y6114353D01*
X1625304Y6114354D01*
X1738342Y6171950D01*
X1828050Y6261658D01*
X1885646Y6374696D01*
X1905492Y6500000D01*
X3094508Y6500000D01*
X3114353Y6374698D01*
X3171951Y6261656D01*
X3261656Y6171951D01*
X3374698Y6114353D01*
X3500000Y6094508D01*
X3625301Y6114353D01*
X3625302Y6114353D01*
X3625304Y6114354D01*
X3738342Y6171950D01*
X3828050Y6261658D01*
X3885646Y6374696D01*
X3905492Y6500000D01*
X5094508Y6500000D01*
X5114353Y6374698D01*
X5171951Y6261656D01*
X5261656Y6171951D01*
X5374698Y6114353D01*
X5500000Y6094508D01*
X5625301Y6114353D01*
X5625302Y6114353D01*
X5625304Y6114354D01*
X5738342Y6171950D01*
X5828050Y6261658D01*
X5885646Y6374696D01*
X5905492Y6500000D01*
X7094508Y6500000D01*
X7114353Y6374698D01*
X7171951Y6261656D01*
X7261656Y6171951D01*
X7374698Y6114353D01*
X7500000Y6094508D01*
X7625301Y6114353D01*
X7625302Y6114353D01*
X7625304Y6114354D01*
X7738342Y6171950D01*
X7828050Y6261658D01*
X7885646Y6374696D01*
X7905492Y6500000D01*
X8094508Y6500000D01*
X8114353Y6374698D01*
X8171951Y6261656D01*
X8261656Y6171951D01*
X8374698Y6114353D01*
X8500000Y6094508D01*
X8625301Y6114353D01*
X8625302Y6114353D01*
X8625304Y6114354D01*
X8738342Y6171950D01*
X8828050Y6261658D01*
X8885646Y6374696D01*
X8905492Y6500000D01*
X8885646Y6625304D01*
X8828050Y6738342D01*
X8738342Y6828050D01*
X8625304Y6885646D01*
X8500000Y6905492D01*
X8374696Y6885646D01*
X8261658Y6828050D01*
X8171950Y6738342D01*
X8114354Y6625304D01*
X8114353Y6625302D01*
X8114353Y6625301D01*
X8094508Y6500000D01*
X7905492Y6500000D01*
X7885646Y6625304D01*
X7828050Y6738342D01*
X7738342Y6828050D01*
X7625304Y6885646D01*
X7500000Y6905492D01*
X7374696Y6885646D01*
X7261658Y6828050D01*
X7171950Y6738342D01*
X7114354Y6625304D01*
X7114353Y6625302D01*
X7114353Y6625301D01*
X7094508Y6500000D01*
X5905492Y6500000D01*
X5885646Y6625304D01*
X5828050Y6738342D01*
X5738342Y6828050D01*
X5625304Y6885646D01*
X5500000Y6905492D01*
X5374696Y6885646D01*
X5261658Y6828050D01*
X5171950Y6738342D01*
X5114354Y6625304D01*
X5114353Y6625302D01*
X5114353Y6625301D01*
X5094508Y6500000D01*
X3905492Y6500000D01*
X3885646Y6625304D01*
X3828050Y6738342D01*
X3738342Y6828050D01*
X3625304Y6885646D01*
X3500000Y6905492D01*
X3374696Y6885646D01*
X3261658Y6828050D01*
X3171950Y6738342D01*
X3114354Y6625304D01*
X3114353Y6625302D01*
X3114353Y6625301D01*
X3094508Y6500000D01*
X1905492Y6500000D01*
X1885646Y6625304D01*
X1828050Y6738342D01*
X1738342Y6828050D01*
X1625304Y6885646D01*
X1500000Y6905492D01*
X1374696Y6885646D01*
X1261658Y6828050D01*
X1171950Y6738342D01*
X1114354Y6625304D01*
X1114353Y6625302D01*
X1114353Y6625301D01*
X1094508Y6500000D01*
X905492Y6500000D01*
X885646Y6625304D01*
X828050Y6738342D01*
X738342Y6828050D01*
X625304Y6885646D01*
X500000Y6905492D01*
X374696Y6885646D01*
X261658Y6828050D01*
X171950Y6738342D01*
X114354Y6625304D01*
X114353Y6625302D01*
X114353Y6625301D01*
X94508Y6500000D01*
X-94508Y6500000D01*
X-114353Y6625301D01*
X-114353Y6625302D01*
X-114354Y6625304D01*
X-171950Y6738342D01*
X-261658Y6828050D01*
X-374696Y6885646D01*
X-500000Y6905492D01*
X-625304Y6885646D01*
X-738342Y6828050D01*
X-828050Y6738342D01*
X-885646Y6625304D01*
X-905492Y6500000D01*
X-2094508Y6500000D01*
X-2114353Y6625301D01*
X-2114353Y6625302D01*
X-2114354Y6625304D01*
X-2171950Y6738342D01*
X-2261658Y6828050D01*
X-2374696Y6885646D01*
X-2500000Y6905492D01*
X-2625304Y6885646D01*
X-2738342Y6828050D01*
X-2828050Y6738342D01*
X-2885646Y6625304D01*
X-2905492Y6500000D01*
X-4094508Y6500000D01*
X-4114353Y6625301D01*
X-4114353Y6625302D01*
X-4114354Y6625304D01*
X-4171950Y6738342D01*
X-4261658Y6828050D01*
X-4374696Y6885646D01*
X-4500000Y6905492D01*
X-4625304Y6885646D01*
X-4738342Y6828050D01*
X-4828050Y6738342D01*
X-4885646Y6625304D01*
X-4905492Y6500000D01*
X-6094508Y6500000D01*
X-6114353Y6625301D01*
X-6114353Y6625302D01*
X-6114354Y6625304D01*
X-6171950Y6738342D01*
X-6261658Y6828050D01*
X-6374696Y6885646D01*
X-6500000Y6905492D01*
X-6625304Y6885646D01*
X-6738342Y6828050D01*
X-6828050Y6738342D01*
X-6885646Y6625304D01*
X-6905492Y6500000D01*
X-8094508Y6500000D01*
X-8114353Y6625301D01*
X-8114353Y6625302D01*
X-8114354Y6625304D01*
X-8171950Y6738342D01*
X-8261658Y6828050D01*
X-8374696Y6885646D01*
X-8500000Y6905492D01*
X-8625304Y6885646D01*
X-8738342Y6828050D01*
X-8828050Y6738342D01*
X-8885646Y6625304D01*
X-8905492Y6500000D01*
X-19500000Y6500000D01*
X-19500000Y7500000D01*
X-8905492Y7500000D01*
X-8885646Y7374696D01*
X-8828050Y7261658D01*
X-8738342Y7171950D01*
X-8625304Y7114354D01*
X-8625302Y7114353D01*
X-8625301Y7114353D01*
X-8500000Y7094508D01*
X-8374698Y7114353D01*
X-8261656Y7171951D01*
X-8171951Y7261656D01*
X-8114353Y7374698D01*
X-8094508Y7500000D01*
X-6905492Y7500000D01*
X-6885646Y7374696D01*
X-6828050Y7261658D01*
X-6738342Y7171950D01*
X-6625304Y7114354D01*
X-6625302Y7114353D01*
X-6625301Y7114353D01*
X-6500000Y7094508D01*
X-6374698Y7114353D01*
X-6261656Y7171951D01*
X-6171951Y7261656D01*
X-6114353Y7374698D01*
X-6094508Y7500000D01*
X-4905492Y7500000D01*
X-4885646Y7374696D01*
X-4828050Y7261658D01*
X-4738342Y7171950D01*
X-4625304Y7114354D01*
X-4625302Y7114353D01*
X-4625301Y7114353D01*
X-4500000Y7094508D01*
X-4374698Y7114353D01*
X-4261656Y7171951D01*
X-4171951Y7261656D01*
X-4114353Y7374698D01*
X-4094508Y7500000D01*
X-2905492Y7500000D01*
X-2885646Y7374696D01*
X-2828050Y7261658D01*
X-2738342Y7171950D01*
X-2625304Y7114354D01*
X-2625302Y7114353D01*
X-2625301Y7114353D01*
X-2500000Y7094508D01*
X-2374698Y7114353D01*
X-2261656Y7171951D01*
X-2171951Y7261656D01*
X-2114353Y7374698D01*
X-2094508Y7500000D01*
X94508Y7500000D01*
X114353Y7374698D01*
X171951Y7261656D01*
X261656Y7171951D01*
X374698Y7114353D01*
X500000Y7094508D01*
X625301Y7114353D01*
X625302Y7114353D01*
X625304Y7114354D01*
X738342Y7171950D01*
X828050Y7261658D01*
X885646Y7374696D01*
X905492Y7500000D01*
X3094508Y7500000D01*
X3114353Y7374698D01*
X3171951Y7261656D01*
X3261656Y7171951D01*
X3374698Y7114353D01*
X3500000Y7094508D01*
X3625301Y7114353D01*
X3625302Y7114353D01*
X3625304Y7114354D01*
X3738342Y7171950D01*
X3828050Y7261658D01*
X3885646Y7374696D01*
X3905492Y7500000D01*
X5094508Y7500000D01*
X5114353Y7374698D01*
X5171951Y7261656D01*
X5261656Y7171951D01*
X5374698Y7114353D01*
X5500000Y7094508D01*
X5625301Y7114353D01*
X5625302Y7114353D01*
X5625304Y7114354D01*
X5738342Y7171950D01*
X5828050Y7261658D01*
X5885646Y7374696D01*
X5905492Y7500000D01*
X7094508Y7500000D01*
X7114353Y7374698D01*
X7171951Y7261656D01*
X7261656Y7171951D01*
X7374698Y7114353D01*
X7500000Y7094508D01*
X7625301Y7114353D01*
X7625302Y7114353D01*
X7625304Y7114354D01*
X7738342Y7171950D01*
X7828050Y7261658D01*
X7885646Y7374696D01*
X7905492Y7500000D01*
X8094508Y7500000D01*
X8114353Y7374698D01*
X8171951Y7261656D01*
X8261656Y7171951D01*
X8374698Y7114353D01*
X8500000Y7094508D01*
X8625301Y7114353D01*
X8625302Y7114353D01*
X8625304Y7114354D01*
X8738342Y7171950D01*
X8828050Y7261658D01*
X8885646Y7374696D01*
X8905492Y7500000D01*
X8885646Y7625304D01*
X8828050Y7738342D01*
X8738342Y7828050D01*
X8625304Y7885646D01*
X8500000Y7905492D01*
X8374696Y7885646D01*
X8261658Y7828050D01*
X8171950Y7738342D01*
X8114354Y7625304D01*
X8114353Y7625302D01*
X8114353Y7625301D01*
X8094508Y7500000D01*
X7905492Y7500000D01*
X7885646Y7625304D01*
X7828050Y7738342D01*
X7738342Y7828050D01*
X7625304Y7885646D01*
X7500000Y7905492D01*
X7374696Y7885646D01*
X7261658Y7828050D01*
X7171950Y7738342D01*
X7114354Y7625304D01*
X7114353Y7625302D01*
X7114353Y7625301D01*
X7094508Y7500000D01*
X5905492Y7500000D01*
X5885646Y7625304D01*
X5828050Y7738342D01*
X5738342Y7828050D01*
X5625304Y7885646D01*
X5500000Y7905492D01*
X5374696Y7885646D01*
X5261658Y7828050D01*
X5171950Y7738342D01*
X5114354Y7625304D01*
X5114353Y7625302D01*
X5114353Y7625301D01*
X5094508Y7500000D01*
X3905492Y7500000D01*
X3885646Y7625304D01*
X3828050Y7738342D01*
X3738342Y7828050D01*
X3625304Y7885646D01*
X3500000Y7905492D01*
X3374696Y7885646D01*
X3261658Y7828050D01*
X3171950Y7738342D01*
X3114354Y7625304D01*
X3114353Y7625302D01*
X3114353Y7625301D01*
X3094508Y7500000D01*
X905492Y7500000D01*
X885646Y7625304D01*
X828050Y7738342D01*
X738342Y7828050D01*
X625304Y7885646D01*
X500000Y7905492D01*
X374696Y7885646D01*
X261658Y7828050D01*
X171950Y7738342D01*
X114354Y7625304D01*
X114353Y7625302D01*
X114353Y7625301D01*
X94508Y7500000D01*
X-2094508Y7500000D01*
X-2114353Y7625301D01*
X-2114353Y7625302D01*
X-2114354Y7625304D01*
X-2171950Y7738342D01*
X-2261658Y7828050D01*
X-2374696Y7885646D01*
X-2500000Y7905492D01*
X-2625304Y7885646D01*
X-2738342Y7828050D01*
X-2828050Y7738342D01*
X-2885646Y7625304D01*
X-2905492Y7500000D01*
X-4094508Y7500000D01*
X-4114353Y7625301D01*
X-4114353Y7625302D01*
X-4114354Y7625304D01*
X-4171950Y7738342D01*
X-4261658Y7828050D01*
X-4374696Y7885646D01*
X-4500000Y7905492D01*
X-4625304Y7885646D01*
X-4738342Y7828050D01*
X-4828050Y7738342D01*
X-4885646Y7625304D01*
X-4905492Y7500000D01*
X-6094508Y7500000D01*
X-6114353Y7625301D01*
X-6114353Y7625302D01*
X-6114354Y7625304D01*
X-6171950Y7738342D01*
X-6261658Y7828050D01*
X-6374696Y7885646D01*
X-6500000Y7905492D01*
X-6625304Y7885646D01*
X-6738342Y7828050D01*
X-6828050Y7738342D01*
X-6885646Y7625304D01*
X-6905492Y7500000D01*
X-8094508Y7500000D01*
X-8114353Y7625301D01*
X-8114353Y7625302D01*
X-8114354Y7625304D01*
X-8171950Y7738342D01*
X-8261658Y7828050D01*
X-8374696Y7885646D01*
X-8500000Y7905492D01*
X-8625304Y7885646D01*
X-8738342Y7828050D01*
X-8828050Y7738342D01*
X-8885646Y7625304D01*
X-8905492Y7500000D01*
X-19500000Y7500000D01*
X-19500000Y9900000D01*
X-8820492Y9900000D01*
X-8800646Y9774696D01*
X-8743050Y9661658D01*
X-8653342Y9571950D01*
X-8540304Y9514354D01*
X-8540302Y9514353D01*
X-8540301Y9514353D01*
X-8415000Y9494508D01*
X-8289698Y9514353D01*
X-8176656Y9571951D01*
X-8086951Y9661656D01*
X-8029353Y9774698D01*
X-8009508Y9900000D01*
X-8029353Y10025301D01*
X-8029353Y10025302D01*
X-8029354Y10025304D01*
X-8086950Y10138342D01*
X-8176658Y10228050D01*
X-8289696Y10285646D01*
X-8415000Y10305492D01*
X-8540304Y10285646D01*
X-8653342Y10228050D01*
X-8743050Y10138342D01*
X-8800646Y10025304D01*
X-8820492Y9900000D01*
X-19500000Y9900000D01*
X-19500000Y10400000D01*
X-15505492Y10400000D01*
X-15485646Y10274696D01*
X-15428050Y10161658D01*
X-15338342Y10071950D01*
X-15225304Y10014354D01*
X-15225302Y10014353D01*
X-15225301Y10014353D01*
X-15100000Y9994508D01*
X-14974698Y10014353D01*
X-14861656Y10071951D01*
X-14771951Y10161656D01*
X-14714353Y10274698D01*
X-14698089Y10377390D01*
X-14686912Y10395627D01*
X-14690534Y10404371D01*
X-14563087Y10404371D01*
X-14551911Y10377390D01*
X-14535646Y10274696D01*
X-14478050Y10161658D01*
X-14388342Y10071950D01*
X-14275304Y10014354D01*
X-14275302Y10014353D01*
X-14275301Y10014353D01*
X-14150000Y9994508D01*
X-14024698Y10014353D01*
X-13911656Y10071951D01*
X-13821951Y10161656D01*
X-13764353Y10274698D01*
X-13744508Y10400000D01*
X-13105492Y10400000D01*
X-13085646Y10274696D01*
X-13028050Y10161658D01*
X-12938342Y10071950D01*
X-12825304Y10014354D01*
X-12825302Y10014353D01*
X-12825301Y10014353D01*
X-12700000Y9994508D01*
X-12574698Y10014353D01*
X-12461656Y10071951D01*
X-12371951Y10161656D01*
X-12314353Y10274698D01*
X-12294508Y10400000D01*
X-12314353Y10525301D01*
X-12314353Y10525302D01*
X-12314354Y10525304D01*
X-12371950Y10638342D01*
X-12461658Y10728050D01*
X-12574696Y10785646D01*
X-12700000Y10805492D01*
X-12825304Y10785646D01*
X-12938342Y10728050D01*
X-13028050Y10638342D01*
X-13085646Y10525304D01*
X-13105492Y10400000D01*
X-13744508Y10400000D01*
X-13764353Y10525301D01*
X-13764353Y10525302D01*
X-13764354Y10525304D01*
X-13821950Y10638342D01*
X-13911658Y10728050D01*
X-14024696Y10785646D01*
X-14150000Y10805492D01*
X-14275304Y10785646D01*
X-14388342Y10728050D01*
X-14478050Y10638342D01*
X-14535646Y10525304D01*
X-14551911Y10422609D01*
X-14563087Y10404371D01*
X-14690534Y10404371D01*
X-14698089Y10422609D01*
X-14714353Y10525301D01*
X-14714353Y10525302D01*
X-14714354Y10525304D01*
X-14771950Y10638342D01*
X-14861658Y10728050D01*
X-14974696Y10785646D01*
X-15100000Y10805492D01*
X-15225304Y10785646D01*
X-15338342Y10728050D01*
X-15428050Y10638342D01*
X-15485646Y10525304D01*
X-15505492Y10400000D01*
X-19500000Y10400000D01*
X-19500000Y10925001D01*
X-10055491Y10925001D01*
X-10035645Y10799697D01*
X-9978049Y10686659D01*
X-9888341Y10596951D01*
X-9775303Y10539355D01*
X-9775301Y10539354D01*
X-9775300Y10539354D01*
X-9649999Y10519509D01*
X-9524697Y10539354D01*
X-9411655Y10596952D01*
X-9321950Y10686657D01*
X-9264352Y10799699D01*
X-9244507Y10925001D01*
X-9264352Y11050302D01*
X-9264352Y11050303D01*
X-9264353Y11050305D01*
X-9321949Y11163343D01*
X-9411657Y11253051D01*
X-9524695Y11310647D01*
X-9649999Y11330493D01*
X-9775303Y11310647D01*
X-9888341Y11253051D01*
X-9978049Y11163343D01*
X-10035645Y11050305D01*
X-10055491Y10925001D01*
X-19500000Y10925001D01*
X-19500000Y11410000D01*
X-15020492Y11410000D01*
X-15000646Y11284696D01*
X-14943050Y11171658D01*
X-14853342Y11081950D01*
X-14740304Y11024354D01*
X-14740302Y11024353D01*
X-14740301Y11024353D01*
X-14615000Y11004508D01*
X-14489698Y11024353D01*
X-14376656Y11081951D01*
X-14286951Y11171656D01*
X-14234141Y11275301D01*
X-14229354Y11284696D01*
X-14229353Y11284696D01*
X-14229353Y11284698D01*
X-14209508Y11410000D01*
X-14229353Y11535301D01*
X-14229353Y11535302D01*
X-14229354Y11535304D01*
X-14286950Y11648342D01*
X-14376658Y11738050D01*
X-14489696Y11795646D01*
X-14615000Y11815492D01*
X-14740304Y11795646D01*
X-14853342Y11738050D01*
X-14943050Y11648342D01*
X-15000646Y11535304D01*
X-15020492Y11410000D01*
X-19500000Y11410000D01*
X-19500000Y12390000D01*
X-15020492Y12390000D01*
X-15000646Y12264696D01*
X-14943050Y12151658D01*
X-14853342Y12061950D01*
X-14740304Y12004354D01*
X-14740302Y12004353D01*
X-14740301Y12004353D01*
X-14615000Y11984508D01*
X-14489698Y12004353D01*
X-14376656Y12061951D01*
X-14286951Y12151656D01*
X-14229353Y12264698D01*
X-14209508Y12390000D01*
X-14219011Y12450000D01*
X144508Y12450000D01*
X164353Y12324698D01*
X221951Y12211656D01*
X256282Y12177326D01*
X277956Y12125000D01*
X256282Y12072674D01*
X221950Y12038342D01*
X164354Y11925304D01*
X164353Y11925302D01*
X164353Y11925301D01*
X144508Y11800000D01*
X164353Y11674698D01*
X221951Y11561656D01*
X256282Y11527326D01*
X277956Y11475000D01*
X256282Y11422674D01*
X221950Y11388342D01*
X164354Y11275304D01*
X164353Y11275302D01*
X164353Y11275301D01*
X144508Y11150000D01*
X164353Y11024698D01*
X221951Y10911656D01*
X311656Y10821951D01*
X424698Y10764353D01*
X550000Y10744508D01*
X675301Y10764353D01*
X675302Y10764353D01*
X675304Y10764354D01*
X788342Y10821950D01*
X847674Y10881282D01*
X900000Y10902956D01*
X952326Y10881282D01*
X1011656Y10821951D01*
X1124698Y10764353D01*
X1250000Y10744508D01*
X1375301Y10764353D01*
X1375302Y10764353D01*
X1375304Y10764354D01*
X1488342Y10821950D01*
X1578050Y10911658D01*
X1635646Y11024696D01*
X1655492Y11150000D01*
X1635646Y11275304D01*
X1612872Y11320000D01*
X2794508Y11320000D01*
X2814353Y11194698D01*
X2871951Y11081656D01*
X2961656Y10991951D01*
X3074698Y10934353D01*
X3200000Y10914508D01*
X3325301Y10934353D01*
X3325302Y10934353D01*
X3325304Y10934354D01*
X3438342Y10991950D01*
X3446392Y11000000D01*
X6094508Y11000000D01*
X6114353Y10874698D01*
X6171951Y10761656D01*
X6261656Y10671951D01*
X6374698Y10614353D01*
X6500000Y10594508D01*
X6625301Y10614353D01*
X6625302Y10614353D01*
X6625304Y10614354D01*
X6738342Y10671950D01*
X6828050Y10761658D01*
X6885646Y10874696D01*
X6905492Y11000000D01*
X8694508Y11000000D01*
X8714353Y10874698D01*
X8771951Y10761656D01*
X8861656Y10671951D01*
X8974698Y10614353D01*
X9100000Y10594508D01*
X9225301Y10614353D01*
X9225302Y10614353D01*
X9225304Y10614354D01*
X9338342Y10671950D01*
X9428050Y10761658D01*
X9485646Y10874696D01*
X9505492Y11000000D01*
X9485646Y11125304D01*
X9428050Y11238342D01*
X9338342Y11328050D01*
X9225304Y11385646D01*
X9100000Y11405492D01*
X8974696Y11385646D01*
X8861658Y11328050D01*
X8771950Y11238342D01*
X8714354Y11125304D01*
X8714353Y11125302D01*
X8714353Y11125301D01*
X8694508Y11000000D01*
X6905492Y11000000D01*
X6885646Y11125304D01*
X6828050Y11238342D01*
X6738342Y11328050D01*
X6625304Y11385646D01*
X6500000Y11405492D01*
X6374696Y11385646D01*
X6261658Y11328050D01*
X6171950Y11238342D01*
X6114354Y11125304D01*
X6114353Y11125302D01*
X6114353Y11125301D01*
X6094508Y11000000D01*
X3446392Y11000000D01*
X3528050Y11081658D01*
X3585646Y11194696D01*
X3605492Y11320000D01*
X3585646Y11445304D01*
X3528050Y11558342D01*
X3438342Y11648050D01*
X3325304Y11705646D01*
X3200000Y11725492D01*
X3074696Y11705646D01*
X2961658Y11648050D01*
X2871950Y11558342D01*
X2814354Y11445304D01*
X2814353Y11445302D01*
X2814353Y11445301D01*
X2794508Y11320000D01*
X1612872Y11320000D01*
X1578050Y11388342D01*
X1543718Y11422674D01*
X1522044Y11475000D01*
X1543718Y11527326D01*
X1578048Y11561656D01*
X1578050Y11561658D01*
X1635646Y11674696D01*
X1655492Y11800000D01*
X1635646Y11925304D01*
X1578050Y12038342D01*
X1543718Y12072674D01*
X1522044Y12125000D01*
X1543718Y12177326D01*
X1578048Y12211656D01*
X1578050Y12211658D01*
X1635646Y12324696D01*
X1655492Y12450000D01*
X1635646Y12575304D01*
X1578050Y12688342D01*
X1488342Y12778050D01*
X1375304Y12835646D01*
X1250000Y12855492D01*
X1124696Y12835646D01*
X1011658Y12778050D01*
X1011656Y12778048D01*
X952326Y12718718D01*
X900000Y12697044D01*
X847674Y12718718D01*
X788342Y12778050D01*
X675304Y12835646D01*
X550000Y12855492D01*
X424696Y12835646D01*
X311658Y12778050D01*
X221950Y12688342D01*
X164354Y12575304D01*
X164353Y12575302D01*
X164353Y12575301D01*
X144508Y12450000D01*
X-14219011Y12450000D01*
X-14229353Y12515301D01*
X-14229353Y12515302D01*
X-14229354Y12515304D01*
X-14286950Y12628342D01*
X-14376658Y12718050D01*
X-14489696Y12775646D01*
X-14615000Y12795492D01*
X-14740304Y12775646D01*
X-14853342Y12718050D01*
X-14943050Y12628342D01*
X-15000646Y12515304D01*
X-15020492Y12390000D01*
X-19500000Y12390000D01*
X-19500000Y12874999D01*
X-10055491Y12874999D01*
X-10035645Y12749695D01*
X-9978049Y12636657D01*
X-9888341Y12546949D01*
X-9775303Y12489353D01*
X-9775301Y12489352D01*
X-9775300Y12489352D01*
X-9649999Y12469507D01*
X-9524697Y12489352D01*
X-9411655Y12546950D01*
X-9321950Y12636655D01*
X-9264352Y12749697D01*
X-9244507Y12874999D01*
X-9264352Y13000300D01*
X-9264352Y13000301D01*
X-9264353Y13000303D01*
X-9321949Y13113341D01*
X-9411657Y13203049D01*
X-9524695Y13260645D01*
X-9649999Y13280491D01*
X-9775303Y13260645D01*
X-9888341Y13203049D01*
X-9978049Y13113341D01*
X-10035645Y13000303D01*
X-10055491Y12874999D01*
X-19500000Y12874999D01*
X-19500000Y13400000D01*
X-13105492Y13400000D01*
X-13085646Y13274696D01*
X-13028050Y13161658D01*
X-12938342Y13071950D01*
X-12825304Y13014354D01*
X-12825302Y13014353D01*
X-12825301Y13014353D01*
X-12700000Y12994508D01*
X-12574698Y13014353D01*
X-12461656Y13071951D01*
X-12371951Y13161656D01*
X-12314353Y13274698D01*
X-12294508Y13400000D01*
X-12314353Y13525301D01*
X-12314353Y13525302D01*
X-12314354Y13525304D01*
X-12371950Y13638342D01*
X-12461658Y13728050D01*
X-12574696Y13785646D01*
X-12700000Y13805492D01*
X-12825304Y13785646D01*
X-12938342Y13728050D01*
X-13028050Y13638342D01*
X-13085646Y13525304D01*
X-13105492Y13400000D01*
X-19500000Y13400000D01*
X-19500000Y16138185D01*
X-19478326Y16190511D01*
X-19426000Y16212185D01*
X-19373674Y16190511D01*
X-19356153Y16162626D01*
X-19347467Y16137804D01*
X-19313801Y16041592D01*
X-19191945Y15788555D01*
X-19067360Y15590280D01*
X-19042522Y15550751D01*
X-18867416Y15331175D01*
X-18668824Y15132583D01*
X-18449248Y14957477D01*
X-18211440Y14808052D01*
X-17958407Y14686198D01*
X-17693325Y14593442D01*
X-17693309Y14593437D01*
X-17419513Y14530945D01*
X-17279967Y14515222D01*
X-17140425Y14499500D01*
X-17140421Y14499500D01*
X-16859579Y14499500D01*
X-16859575Y14499500D01*
X-16720033Y14515222D01*
X-16580487Y14530945D01*
X-16580486Y14530945D01*
X-16306690Y14593437D01*
X-16306674Y14593442D01*
X-16041592Y14686198D01*
X-15788559Y14808052D01*
X-15550751Y14957477D01*
X-15331175Y15132583D01*
X-15132583Y15331175D01*
X-14957477Y15550751D01*
X-14808052Y15788559D01*
X-14700208Y16012500D01*
X-3905492Y16012500D01*
X-3885646Y15887196D01*
X-3828050Y15774158D01*
X-3738342Y15684450D01*
X-3625304Y15626854D01*
X-3625302Y15626853D01*
X-3625301Y15626853D01*
X-3500000Y15607008D01*
X-3374698Y15626853D01*
X-3261656Y15684451D01*
X-3171951Y15774156D01*
X-3114353Y15887198D01*
X-3096488Y16000000D01*
X-80804Y16000000D01*
X-62938Y15887198D01*
X-59719Y15866873D01*
X1471Y15746780D01*
X96780Y15651471D01*
X216873Y15590281D01*
X216873Y15590280D01*
X350000Y15569196D01*
X483126Y15590280D01*
X483126Y15590281D01*
X603219Y15651471D01*
X698528Y15746780D01*
X759718Y15866873D01*
X759719Y15866873D01*
X762938Y15887198D01*
X780804Y16000000D01*
X2969196Y16000000D01*
X2990280Y15866873D01*
X3051471Y15746780D01*
X3146780Y15651471D01*
X3266873Y15590281D01*
X3266873Y15590280D01*
X3400000Y15569196D01*
X3533126Y15590280D01*
X3533126Y15590281D01*
X3653219Y15651471D01*
X3748528Y15746780D01*
X3809718Y15866873D01*
X3809719Y15866873D01*
X3812938Y15887198D01*
X3830804Y16000000D01*
X3809719Y16133126D01*
X3748528Y16253220D01*
X3653220Y16348528D01*
X3533126Y16409719D01*
X3400000Y16430804D01*
X3266873Y16409719D01*
X3266873Y16409718D01*
X3146780Y16348528D01*
X3051471Y16253219D01*
X2990281Y16133126D01*
X2990280Y16133126D01*
X2969196Y16000000D01*
X780804Y16000000D01*
X759719Y16133126D01*
X698528Y16253220D01*
X603220Y16348528D01*
X483126Y16409719D01*
X350000Y16430804D01*
X216873Y16409719D01*
X216873Y16409718D01*
X96780Y16348528D01*
X1471Y16253219D01*
X260Y16250842D01*
X-59719Y16133126D01*
X-80804Y16000000D01*
X-3096488Y16000000D01*
X-3094508Y16012500D01*
X-3114353Y16137801D01*
X-3114353Y16137802D01*
X-3114354Y16137804D01*
X-3171950Y16250842D01*
X-3261658Y16340550D01*
X-3374696Y16398146D01*
X-3500000Y16417992D01*
X-3625304Y16398146D01*
X-3738342Y16340550D01*
X-3828050Y16250842D01*
X-3885646Y16137804D01*
X-3905492Y16012500D01*
X-14700208Y16012500D01*
X-14686198Y16041592D01*
X-14593442Y16306674D01*
X-14593437Y16306690D01*
X-14530945Y16580486D01*
X-14530945Y16580487D01*
X-14512976Y16739967D01*
X-14506212Y16800000D01*
X1869196Y16800000D01*
X1890280Y16666873D01*
X1951471Y16546780D01*
X2046780Y16451471D01*
X2166873Y16390281D01*
X2166873Y16390280D01*
X2300000Y16369196D01*
X2433126Y16390280D01*
X2433126Y16390281D01*
X2553219Y16451471D01*
X2648528Y16546780D01*
X2665702Y16580486D01*
X2709718Y16666873D01*
X2709719Y16666873D01*
X2712601Y16685075D01*
X2730804Y16800000D01*
X2709719Y16933126D01*
X2648528Y17053220D01*
X2553220Y17148528D01*
X2433126Y17209719D01*
X2300000Y17230804D01*
X2166873Y17209719D01*
X2166873Y17209718D01*
X2046780Y17148528D01*
X1951471Y17053219D01*
X1890281Y16933126D01*
X1890280Y16933126D01*
X1869196Y16800000D01*
X-14506212Y16800000D01*
X-14499500Y16859575D01*
X-14499500Y17140425D01*
X-14530945Y17419509D01*
X-14530945Y17419512D01*
X-14530945Y17419513D01*
X-14593437Y17693309D01*
X-14593442Y17693325D01*
X-14686198Y17958407D01*
X-14808052Y18211440D01*
X-14957477Y18449248D01*
X-15132583Y18668824D01*
X-15331175Y18867416D01*
X-15550751Y19042522D01*
X-15550752Y19042523D01*
X-15788555Y19191945D01*
X-16041592Y19313801D01*
X-16162626Y19356153D01*
X-16204857Y19393893D01*
X-16208032Y19450441D01*
X-16170292Y19492672D01*
X-16138185Y19500000D01*
X16138185Y19500000D01*
X16190511Y19478326D01*
G37*
G04 #@! TD.AperFunction*
G04 #@! TD*
M02*
