M48
; DRILL file {KiCad 8.0.4} date 2026-03-03T12:09:54-0800
; FORMAT={-:-/ absolute / inch / decimal}
; #@! TF.CreationDate,2026-03-03T12:09:54-08:00
; #@! TF.GenerationSoftware,Kicad,Pcbnew,8.0.4
; #@! TF.FileFunction,Plated,1,4,PTH
FMAT,2
INCH
; #@! TA.AperFunction,Plated,PTH,ViaDrill
T1C0.0079
; #@! TA.AperFunction,Plated,PTH,ViaDrill
T2C0.0118
%
G90
G05
T1
X0.0138Y0.6299
X0.0906Y0.6614
X0.1339Y0.6299
X0.2299Y-0.5315
X0.3484Y-0.5709
X0.3898Y-0.6063
X0.4685Y-0.5827
T2
X-0.7283Y0.2461
X-0.7205Y0.2067
X-0.7028Y0.5394
X-0.7028Y0.3189
X-0.6929Y0.2067
X-0.6752Y0.5394
X-0.6752Y0.3189
X-0.6654Y0.2067
X-0.6634Y0.1673
X-0.6575Y0.0886
X-0.6575Y-0.0295
X-0.6575Y-0.1476
X-0.6476Y0.5394
X-0.6181Y0.187
X-0.6181Y0.1083
X-0.6122Y-0.2146
X-0.6063Y-0.2874
X-0.5945Y0.4094
X-0.5945Y0.3701
X-0.5866Y0.1476
X-0.5866Y-0.2756
X-0.5866Y-0.3012
X-0.5827Y-0.3917
X-0.5754Y0.4878
X-0.5754Y0.4492
X-0.563Y-0.3071
X-0.563Y-0.3445
X-0.563Y-0.372
X-0.563Y-0.4075
X-0.5591Y0.1476
X-0.5571Y0.4094
X-0.5571Y0.3701
X-0.5571Y0.2461
X-0.5374Y-0.4939
X-0.5276Y-0.6752
X-0.5Y0.5276
X-0.5Y0.4094
X-0.4835Y-0.4035
X-0.4803Y-0.4547
X-0.4803Y-0.561
X-0.4528Y-0.1457
X-0.4469Y-0.0974
X-0.4469Y-0.1191
X-0.4457Y-0.4035
X-0.4441Y0.3898
X-0.4311Y0.5069
X-0.4311Y0.4301
X-0.4272Y-0.0787
X-0.4252Y-0.4754
X-0.4213Y-0.3583
X-0.4134Y-0.5591
X-0.4094Y0.2165
X-0.4094Y0.1772
X-0.4094Y0.1378
X-0.4094Y0.0591
X-0.4035Y-0.1772
X-0.3858Y0.3346
X-0.3799Y0.5069
X-0.3799Y0.4301
X-0.378Y0.2165
X-0.378Y0.1772
X-0.378Y0.1378
X-0.378Y0.0591
X-0.374Y-0.1772
X-0.372Y-0.5394
X-0.3701Y-0.4547
X-0.3583Y0.3346
X-0.3524Y-0.3622
X-0.3504Y0.5079
X-0.3504Y0.4291
X-0.3465Y-0.5472
X-0.3386Y0.2165
X-0.3386Y0.0984
X-0.3386Y0.0591
X-0.3346Y0.2953
X-0.3346Y0.2559
X-0.3346Y-0.1772
X-0.3346Y-0.2953
X-0.3346Y-0.3228
X-0.3313Y0.3898
X-0.3307Y0.1772
X-0.3307Y0.1378
X-0.315Y-0.4781
X-0.315Y-0.5394
X-0.2953Y-0.2165
X-0.2953Y-0.2598
X-0.2953Y-0.2953
X-0.2953Y-0.3346
X-0.2913Y0.2953
X-0.2913Y0.2539
X-0.2567Y-0.2165
X-0.2559Y0.2953
X-0.2559Y0.2559
X-0.2559Y-0.0591
X-0.2559Y-0.0984
X-0.2559Y-0.1378
X-0.2559Y-0.2559
X-0.2559Y-0.2953
X-0.2559Y-0.3346
X-0.252Y0.1378
X-0.252Y0.0984
X-0.252Y0.0591
X-0.252Y-0.0197
X-0.2303Y-0.626
X-0.2224Y-0.5645
X-0.2205Y-0.5295
X-0.2173Y-0.0591
X-0.2165Y0.2205
X-0.2165Y-0.0197
X-0.2165Y-0.0984
X-0.2165Y-0.1378
X-0.2165Y-0.2953
X-0.2165Y-0.335
X-0.2126Y0.1378
X-0.2126Y0.0984
X-0.2126Y0.0591
X-0.2126Y-0.6063
X-0.1969Y-0.5295
X-0.1969Y-0.565
X-0.1772Y0.3339
X-0.1772Y0.2953
X-0.1772Y0.2559
X-0.1772Y0.2205
X-0.1772Y-0.2165
X-0.1772Y-0.2563
X-0.1772Y-0.2953
X-0.1732Y-0.5295
X-0.1644Y0.1388
X-0.1644Y0.0994
X-0.1476Y-0.5295
X-0.1378Y0.6304
X-0.1378Y0.2205
X-0.1378Y-0.0992
X-0.1378Y-0.1378
X-0.1362Y-0.3307
X-0.1362Y-0.372
X-0.1339Y0.1378
X-0.1339Y0.0984
X-0.1299Y-0.4685
X-0.1299Y-0.4921
X-0.124Y-0.5531
X-0.1063Y0.6299
X-0.1063Y-0.685
X-0.1043Y-0.4685
X-0.1043Y-0.4921
X-0.1043Y-0.5354
X-0.0984Y0.3339
X-0.0984Y0.2953
X-0.0984Y0.2559
X-0.0984Y0.2205
X-0.0984Y-0.0992
X-0.0984Y-0.1378
X-0.0984Y-0.2559
X-0.0984Y-0.2953
X-0.0965Y-0.3327
X-0.0965Y-0.372
X-0.0945Y0.0984
X-0.0935Y0.1378
X-0.0906Y-0.6693
X-0.0591Y-0.1378
X-0.0591Y-0.2559
X-0.0591Y-0.3331
X-0.0591Y-0.4079
X-0.0551Y0.4902
X-0.0551Y0.4665
X-0.0551Y0.4429
X-0.0551Y0.1378
X-0.0551Y0.0984
X-0.0374Y0.5866
X-0.0374Y0.5591
X-0.0276Y0.4902
X-0.0276Y0.4665
X-0.0276Y0.4429
X-0.0197Y0.2559
X-0.0197Y0.2205
X-0.0197Y-0.1378
X-0.0197Y-0.252
X-0.0197Y-0.2992
X-0.0197Y-0.3339
X-0.0059Y0.5866
X-0.0059Y0.5591
X-0.0039Y-0.502
X0.0177Y-0.5217
X0.0197Y0.3339
X0.0197Y0.2953
X0.0197Y0.2559
X0.0197Y0.2205
X0.0197Y-0.0992
X0.0197Y-0.1378
X0.0197Y-0.2205
X0.0197Y-0.2559
X0.0197Y-0.2953
X0.0217Y0.4902
X0.0217Y0.4646
X0.0217Y0.439
X0.0236Y-0.6969
X0.0354Y-0.378
X0.0354Y-0.4016
X0.0394Y0.5965
X0.0394Y0.5689
X0.0492Y0.4902
X0.0492Y0.4646
X0.0492Y0.439
X0.0591Y0.2559
X0.0591Y0.2205
X0.0591Y0.1378
X0.0591Y0.0984
X0.0591Y-0.0992
X0.0591Y-0.1378
X0.0591Y-0.378
X0.0591Y-0.4016
X0.0598Y-0.2559
X0.0598Y-0.2953
X0.0709Y0.5965
X0.0709Y0.5689
X0.0807Y-0.5709
X0.0827Y-0.378
X0.0827Y-0.4016
X0.0984Y0.2205
X0.0984Y0.1378
X0.0984Y0.0984
X0.0984Y-0.2559
X0.0984Y-0.2953
X0.1024Y0.5965
X0.1024Y0.5689
X0.1063Y-0.5709
X0.1094Y0.6895
X0.122Y-0.6063
X0.126Y0.4457
X0.1299Y0.5965
X0.1299Y0.5689
X0.1299Y-0.5709
X0.1378Y0.3339
X0.1378Y0.2953
X0.1378Y0.2559
X0.1378Y0.2205
X0.1378Y-0.0992
X0.1378Y-0.1378
X0.1378Y-0.2953
X0.1378Y-0.622
X0.1386Y-0.2559
X0.1516Y-0.563
X0.1555Y0.0571
X0.1575Y0.5965
X0.1575Y0.5689
X0.1594Y-0.5217
X0.1654Y0.4846
X0.1772Y0.1378
X0.1772Y0.0984
X0.1772Y-0.0992
X0.1772Y-0.1378
X0.1772Y-0.2559
X0.1772Y-0.2953
X0.2047Y-0.4374
X0.2165Y0.3339
X0.2165Y0.2953
X0.2165Y0.2559
X0.2165Y0.2205
X0.2165Y0.1378
X0.2165Y0.0984
X0.2165Y0.0197
X0.2165Y-0.0197
X0.2165Y-0.0984
X0.2165Y-0.1378
X0.2165Y-0.252
X0.2165Y-0.2756
X0.2165Y-0.2992
X0.2402Y-0.685
X0.2441Y-0.3287
X0.248Y0.0197
X0.248Y-0.0197
X0.2539Y0.1378
X0.2551Y-0.2559
X0.2559Y0.4331
X0.2559Y0.2205
X0.2559Y0.0984
X0.2559Y-0.0984
X0.2559Y-0.1378
X0.2559Y-0.6693
X0.2618Y-0.3425
X0.2669Y-0.4921
X0.2681Y-0.5315
X0.2953Y0.2953
X0.2953Y0.2559
X0.2953Y-0.2126
X0.2953Y-0.252
X0.2953Y-0.2736
X0.2953Y-0.2992
X0.315Y-0.4374
X0.3346Y0.2953
X0.3346Y0.2559
X0.3346Y0.2126
X0.3346Y0.1772
X0.3346Y0.1417
X0.3346Y-0.2559
X0.3346Y-0.2953
X0.3386Y-0.1417
X0.3386Y-0.1772
X0.3386Y-0.2165
X0.3583Y0.4331
X0.3622Y0.3386
X0.3709Y-0.6378
X0.372Y0.0197
X0.372Y-0.0197
X0.372Y-0.0984
X0.374Y0.2165
X0.374Y0.1772
X0.374Y0.1378
X0.374Y-0.1378
X0.374Y-0.1772
X0.374Y-0.2165
X0.378Y0.0984
X0.378Y-0.5217
X0.378Y-0.5492
X0.3898Y0.3386
X0.3937Y-0.3969
X0.4094Y-0.5217
X0.4094Y-0.5492
X0.4134Y0.2165
X0.4134Y0.1772
X0.4134Y0.1378
X0.4134Y0.0984
X0.4134Y0.0197
X0.4134Y-0.0197
X0.4134Y-0.0984
X0.4134Y-0.1378
X0.4134Y-0.1772
X0.4134Y-0.2165
X0.4331Y-0.3858
X0.4331Y-0.4094
X0.4331Y-0.435
X0.4409Y-0.5217
X0.4409Y-0.5492
X0.4626Y-0.3858
X0.4626Y-0.4094
X0.4626Y-0.435
X0.4724Y-0.6575
X0.4724Y-0.689
X0.4882Y0.2165
X0.4941Y-0.2165
X0.4941Y-0.5177
X0.5118Y-0.3878
X0.5118Y-0.4331
X0.5138Y-0.5335
X0.5276Y-0.4094
X0.5394Y-0.3878
X0.5394Y-0.4331
M30
