G04 #@! TF.GenerationSoftware,KiCad,Pcbnew,8.0.4*
G04 #@! TF.CreationDate,2026-03-03T12:09:52-08:00*
G04 #@! TF.ProjectId,SC910GS_MIPI_Breakout,53433931-3047-4535-9f4d-4950495f4272,0.9*
G04 #@! TF.SameCoordinates,Original*
G04 #@! TF.FileFunction,Copper,L4,Bot*
G04 #@! TF.FilePolarity,Positive*
%FSLAX46Y46*%
G04 Gerber Fmt 4.6, Leading zero omitted, Abs format (unit mm)*
G04 Created by KiCad (PCBNEW 8.0.4) date 2026-03-03 12:09:52*
%MOMM*%
%LPD*%
G01*
G04 APERTURE LIST*
G04 #@! TA.AperFunction,SMDPad,CuDef*
%ADD10C,0.600000*%
G04 #@! TD*
G04 #@! TA.AperFunction,ViaPad*
%ADD11C,0.400000*%
G04 #@! TD*
G04 #@! TA.AperFunction,ViaPad*
%ADD12C,0.450000*%
G04 #@! TD*
G04 #@! TA.AperFunction,Conductor*
%ADD13C,0.200000*%
G04 #@! TD*
G04 #@! TA.AperFunction,Conductor*
%ADD14C,0.090000*%
G04 #@! TD*
G04 #@! TA.AperFunction,Conductor*
%ADD15C,0.250000*%
G04 #@! TD*
G04 APERTURE END LIST*
D10*
G04 #@! TO.P,U1,T20,AVDD12*
G04 #@! TO.N,VDDA*
X8500000Y7500000D03*
G04 #@! TO.P,U1,T19,PVDD6*
G04 #@! TO.N,VDDP*
X7500000Y7500000D03*
G04 #@! TO.P,U1,T18*
G04 #@! TO.N,N/C*
X6500000Y7500000D03*
G04 #@! TO.P,U1,T17,VRSFLO5*
G04 #@! TO.N,Net-(U1-VRSFLO)*
X5500000Y7500000D03*
G04 #@! TO.P,U1,T16*
G04 #@! TO.N,N/C*
X4500000Y7500000D03*
G04 #@! TO.P,U1,T15,VRSFMID5*
G04 #@! TO.N,Net-(U1-VRSFMID)*
X3500000Y7500000D03*
G04 #@! TO.P,U1,T14*
G04 #@! TO.N,N/C*
X2500000Y7500000D03*
G04 #@! TO.P,U1,T13*
X1500000Y7500000D03*
G04 #@! TO.P,U1,T12,PVDD5*
G04 #@! TO.N,VDDP*
X500000Y7500000D03*
G04 #@! TO.P,U1,T11*
G04 #@! TO.N,N/C*
X-500000Y7500000D03*
G04 #@! TO.P,U1,T10*
X-1500000Y7500000D03*
G04 #@! TO.P,U1,T9,VRSFLO4*
G04 #@! TO.N,Net-(U1-VRSFLO)*
X-2500000Y7500000D03*
G04 #@! TO.P,U1,T8*
G04 #@! TO.N,N/C*
X-3500000Y7500000D03*
G04 #@! TO.P,U1,T7,VRSFMID4*
G04 #@! TO.N,Net-(U1-VRSFMID)*
X-4500000Y7500000D03*
G04 #@! TO.P,U1,T6*
G04 #@! TO.N,N/C*
X-5500000Y7500000D03*
G04 #@! TO.P,U1,T5,PVDD4*
G04 #@! TO.N,VDDP*
X-6500000Y7500000D03*
G04 #@! TO.P,U1,T4,GND96*
G04 #@! TO.N,GND*
X-7500000Y7500000D03*
G04 #@! TO.P,U1,T3,DVDD16*
G04 #@! TO.N,VDDD*
X-8500000Y7500000D03*
G04 #@! TO.P,U1,R20,AVDD11*
G04 #@! TO.N,VDDA*
X8500000Y6500000D03*
G04 #@! TO.P,U1,R19,PVDD3*
G04 #@! TO.N,VDDP*
X7500000Y6500000D03*
G04 #@! TO.P,U1,R18*
G04 #@! TO.N,N/C*
X6500000Y6500000D03*
G04 #@! TO.P,U1,R17,VRSFLO3*
G04 #@! TO.N,Net-(U1-VRSFLO)*
X5500000Y6500000D03*
G04 #@! TO.P,U1,R16*
G04 #@! TO.N,N/C*
X4500000Y6500000D03*
G04 #@! TO.P,U1,R15,VRSFMID3*
G04 #@! TO.N,Net-(U1-VRSFMID)*
X3500000Y6500000D03*
G04 #@! TO.P,U1,R14*
G04 #@! TO.N,N/C*
X2500000Y6500000D03*
G04 #@! TO.P,U1,R13,VRSFMID2*
G04 #@! TO.N,Net-(U1-VRSFMID)*
X1500000Y6500000D03*
G04 #@! TO.P,U1,R12,PVDD2*
G04 #@! TO.N,VDDP*
X500000Y6500000D03*
G04 #@! TO.P,U1,R11,VRSFLO2*
G04 #@! TO.N,Net-(U1-VRSFLO)*
X-500000Y6500000D03*
G04 #@! TO.P,U1,R10*
G04 #@! TO.N,N/C*
X-1500000Y6500000D03*
G04 #@! TO.P,U1,R9,VRSFLO*
G04 #@! TO.N,Net-(U1-VRSFLO)*
X-2500000Y6500000D03*
G04 #@! TO.P,U1,R8*
G04 #@! TO.N,N/C*
X-3500000Y6500000D03*
G04 #@! TO.P,U1,R7,VRSFMID*
G04 #@! TO.N,Net-(U1-VRSFMID)*
X-4500000Y6500000D03*
G04 #@! TO.P,U1,R6*
G04 #@! TO.N,N/C*
X-5500000Y6500000D03*
G04 #@! TO.P,U1,R5,PVDD*
G04 #@! TO.N,VDDP*
X-6500000Y6500000D03*
G04 #@! TO.P,U1,R4,GND95*
G04 #@! TO.N,GND*
X-7500000Y6500000D03*
G04 #@! TO.P,U1,R3,DVDD15*
G04 #@! TO.N,VDDD*
X-8500000Y6500000D03*
G04 #@! TO.P,U1,P22,GSVREFH22*
G04 #@! TO.N,Net-(U1-GSVREFH22)*
X10500000Y5500000D03*
G04 #@! TO.P,U1,P21,GSVREFH2*
G04 #@! TO.N,Net-(U1-GSVREFH)*
X9500000Y5500000D03*
G04 #@! TO.P,U1,P20,GND94*
G04 #@! TO.N,GND*
X8500000Y5500000D03*
G04 #@! TO.P,U1,P19,GND93*
X7500000Y5500000D03*
G04 #@! TO.P,U1,P18,GND92*
X6500000Y5500000D03*
G04 #@! TO.P,U1,P17,GND91*
X5500000Y5500000D03*
G04 #@! TO.P,U1,P16,GND90*
X4500000Y5500000D03*
G04 #@! TO.P,U1,P15,GND89*
X3500000Y5500000D03*
G04 #@! TO.P,U1,P14,GND88*
X2500000Y5500000D03*
G04 #@! TO.P,U1,P13,GND87*
X1500000Y5500000D03*
G04 #@! TO.P,U1,P12,GND86*
X500000Y5500000D03*
G04 #@! TO.P,U1,P11,GND85*
X-500000Y5500000D03*
G04 #@! TO.P,U1,P10,GND84*
X-1500000Y5500000D03*
G04 #@! TO.P,U1,P9,GND83*
X-2500000Y5500000D03*
G04 #@! TO.P,U1,P8,GND82*
X-3500000Y5500000D03*
G04 #@! TO.P,U1,P7,GND81*
X-4500000Y5500000D03*
G04 #@! TO.P,U1,P6,GND80*
X-5500000Y5500000D03*
G04 #@! TO.P,U1,P5,GND79*
X-6500000Y5500000D03*
G04 #@! TO.P,U1,P4,GND78*
X-7500000Y5500000D03*
G04 #@! TO.P,U1,P3,GND77*
X-8500000Y5500000D03*
G04 #@! TO.P,U1,P2,M0D2P*
G04 #@! TO.N,CAM_D2_P*
X-9500000Y5500000D03*
G04 #@! TO.P,U1,P1,M0D2N*
G04 #@! TO.N,CAM_D2_N*
X-10500000Y5500000D03*
G04 #@! TO.P,U1,N22,TXVDD2*
G04 #@! TO.N,Net-(U1-TXVDD)*
X10500000Y4500000D03*
G04 #@! TO.P,U1,N21,VREFH2*
G04 #@! TO.N,Net-(U1-VREFH)*
X9500000Y4500000D03*
G04 #@! TO.P,U1,N20,GND76*
G04 #@! TO.N,GND*
X8500000Y4500000D03*
G04 #@! TO.P,U1,N19*
G04 #@! TO.N,N/C*
X7500000Y4500000D03*
G04 #@! TO.P,U1,N18*
X6500000Y4500000D03*
G04 #@! TO.P,U1,N17*
X5500000Y4500000D03*
G04 #@! TO.P,U1,N16*
X4500000Y4500000D03*
G04 #@! TO.P,U1,N15*
X3500000Y4500000D03*
G04 #@! TO.P,U1,N14*
X2500000Y4500000D03*
G04 #@! TO.P,U1,N13*
X1500000Y4500000D03*
G04 #@! TO.P,U1,N12*
X500000Y4500000D03*
G04 #@! TO.P,U1,N11*
X-500000Y4500000D03*
G04 #@! TO.P,U1,N10*
X-1500000Y4500000D03*
G04 #@! TO.P,U1,N9*
X-2500000Y4500000D03*
G04 #@! TO.P,U1,N8*
X-3500000Y4500000D03*
G04 #@! TO.P,U1,N7*
X-4500000Y4500000D03*
G04 #@! TO.P,U1,N6*
X-5500000Y4500000D03*
G04 #@! TO.P,U1,N5*
X-6500000Y4500000D03*
G04 #@! TO.P,U1,N4*
X-7500000Y4500000D03*
G04 #@! TO.P,U1,N3,GND75*
G04 #@! TO.N,GND*
X-8500000Y4500000D03*
G04 #@! TO.P,U1,N2,M0D0P*
G04 #@! TO.N,CAM_D0_P*
X-9500000Y4500000D03*
G04 #@! TO.P,U1,N1,M0D0N*
G04 #@! TO.N,CAM_D0_N*
X-10500000Y4500000D03*
G04 #@! TO.P,U1,MH4*
G04 #@! TO.N,N/C*
G04 #@! TA.AperFunction,SMDPad,CuDef*
G36*
G01*
X-11050000Y6850000D02*
X-11050000Y7650000D01*
G75*
G02*
X-10650000Y8050000I400000J0D01*
G01*
X-9850000Y8050000D01*
G75*
G02*
X-9450000Y7650000I0J-400000D01*
G01*
X-9450000Y6850000D01*
G75*
G02*
X-9850000Y6450000I-400000J0D01*
G01*
X-10650000Y6450000D01*
G75*
G02*
X-11050000Y6850000I0J400000D01*
G01*
G37*
G04 #@! TD.AperFunction*
G04 #@! TO.P,U1,MH3*
G04 #@! TA.AperFunction,SMDPad,CuDef*
G36*
G01*
X9450000Y6850000D02*
X9450000Y7650000D01*
G75*
G02*
X9850000Y8050000I400000J0D01*
G01*
X10650000Y8050000D01*
G75*
G02*
X11050000Y7650000I0J-400000D01*
G01*
X11050000Y6850000D01*
G75*
G02*
X10650000Y6450000I-400000J0D01*
G01*
X9850000Y6450000D01*
G75*
G02*
X9450000Y6850000I0J400000D01*
G01*
G37*
G04 #@! TD.AperFunction*
G04 #@! TO.P,U1,MH2*
G04 #@! TA.AperFunction,SMDPad,CuDef*
G36*
G01*
X9450000Y-7650000D02*
X9450000Y-6850000D01*
G75*
G02*
X9850000Y-6450000I400000J0D01*
G01*
X10650000Y-6450000D01*
G75*
G02*
X11050000Y-6850000I0J-400000D01*
G01*
X11050000Y-7650000D01*
G75*
G02*
X10650000Y-8050000I-400000J0D01*
G01*
X9850000Y-8050000D01*
G75*
G02*
X9450000Y-7650000I0J400000D01*
G01*
G37*
G04 #@! TD.AperFunction*
G04 #@! TO.P,U1,MH1*
G04 #@! TA.AperFunction,SMDPad,CuDef*
G36*
G01*
X-11050000Y-7650000D02*
X-11050000Y-6850000D01*
G75*
G02*
X-10650000Y-6450000I400000J0D01*
G01*
X-9850000Y-6450000D01*
G75*
G02*
X-9450000Y-6850000I0J-400000D01*
G01*
X-9450000Y-7650000D01*
G75*
G02*
X-9850000Y-8050000I-400000J0D01*
G01*
X-10650000Y-8050000D01*
G75*
G02*
X-11050000Y-7650000I0J400000D01*
G01*
G37*
G04 #@! TD.AperFunction*
G04 #@! TO.P,U1,M22,VREFN2*
G04 #@! TO.N,Net-(U1-VREFN)*
X10500000Y3500000D03*
G04 #@! TO.P,U1,M21,VREFN22*
G04 #@! TO.N,Net-(U1-VREFN22)*
X9500000Y3500000D03*
G04 #@! TO.P,U1,M20,GND74*
G04 #@! TO.N,GND*
X8500000Y3500000D03*
G04 #@! TO.P,U1,M19*
G04 #@! TO.N,N/C*
X7500000Y3500000D03*
G04 #@! TO.P,U1,M18,DOVDD9*
G04 #@! TO.N,VDDIO*
X6500000Y3500000D03*
G04 #@! TO.P,U1,M17,DVDD14*
G04 #@! TO.N,VDDD*
X5500000Y3500000D03*
G04 #@! TO.P,U1,M16,DVDD13*
X4500000Y3500000D03*
G04 #@! TO.P,U1,M15,GND73*
G04 #@! TO.N,GND*
X3500000Y3500000D03*
G04 #@! TO.P,U1,M14,VRM12*
G04 #@! TO.N,Net-(U1-VRM)*
X2500000Y3500000D03*
G04 #@! TO.P,U1,M13,VRM11*
X1500000Y3500000D03*
G04 #@! TO.P,U1,M12*
G04 #@! TO.N,N/C*
X500000Y3500000D03*
G04 #@! TO.P,U1,M11*
X-500000Y3500000D03*
G04 #@! TO.P,U1,M10,AVDD10*
G04 #@! TO.N,VDDA*
X-1500000Y3500000D03*
G04 #@! TO.P,U1,M9,AVDD9*
X-2500000Y3500000D03*
G04 #@! TO.P,U1,M8,VRM10*
G04 #@! TO.N,Net-(U1-VRM)*
X-3500000Y3500000D03*
G04 #@! TO.P,U1,M7,VRM9*
X-4500000Y3500000D03*
G04 #@! TO.P,U1,M6,GND72*
G04 #@! TO.N,GND*
X-5500000Y3500000D03*
G04 #@! TO.P,U1,M5,DOVDD8*
G04 #@! TO.N,VDDIO*
X-6500000Y3500000D03*
G04 #@! TO.P,U1,M4*
G04 #@! TO.N,N/C*
X-7500000Y3500000D03*
G04 #@! TO.P,U1,M3,GND71*
G04 #@! TO.N,GND*
X-8500000Y3500000D03*
G04 #@! TO.P,U1,M2,M0CP*
G04 #@! TO.N,CAM_CLK_P*
X-9500000Y3500000D03*
G04 #@! TO.P,U1,M1,M0CN*
G04 #@! TO.N,CAM_CLK_N*
X-10500000Y3500000D03*
G04 #@! TO.P,U1,L22,RSTM2*
G04 #@! TO.N,Net-(U1-RSTM)*
X10500000Y2500000D03*
G04 #@! TO.P,U1,L21,GND70*
G04 #@! TO.N,GND*
X9500000Y2500000D03*
G04 #@! TO.P,U1,L20*
G04 #@! TO.N,N/C*
X8500000Y2500000D03*
G04 #@! TO.P,U1,L19*
X7500000Y2500000D03*
G04 #@! TO.P,U1,L18,DOVDD7*
G04 #@! TO.N,VDDIO*
X6500000Y2500000D03*
G04 #@! TO.P,U1,L17,GND69*
G04 #@! TO.N,GND*
X5500000Y2500000D03*
G04 #@! TO.P,U1,L16,GND68*
X4500000Y2500000D03*
G04 #@! TO.P,U1,L15,GND67*
X3500000Y2500000D03*
G04 #@! TO.P,U1,L14,GND66*
X2500000Y2500000D03*
G04 #@! TO.P,U1,L13,GND65*
X1500000Y2500000D03*
G04 #@! TO.P,U1,L12*
G04 #@! TO.N,N/C*
X500000Y2500000D03*
G04 #@! TO.P,U1,L11*
X-500000Y2500000D03*
G04 #@! TO.P,U1,L10,GND64*
G04 #@! TO.N,GND*
X-1500000Y2500000D03*
G04 #@! TO.P,U1,L9,GND63*
X-2500000Y2500000D03*
G04 #@! TO.P,U1,L8,GND62*
X-3500000Y2500000D03*
G04 #@! TO.P,U1,L7,GND61*
X-4500000Y2500000D03*
G04 #@! TO.P,U1,L6,GND60*
X-5500000Y2500000D03*
G04 #@! TO.P,U1,L5,DVDD12*
G04 #@! TO.N,VDDD*
X-6500000Y2500000D03*
G04 #@! TO.P,U1,L4*
G04 #@! TO.N,N/C*
X-7500000Y2500000D03*
G04 #@! TO.P,U1,L3,GND59*
G04 #@! TO.N,GND*
X-8500000Y2500000D03*
G04 #@! TO.P,U1,L2,M0D1P*
G04 #@! TO.N,CAM_D1_P*
X-9500000Y2500000D03*
G04 #@! TO.P,U1,L1,M0D1N*
G04 #@! TO.N,CAM_D1_N*
X-10500000Y2500000D03*
G04 #@! TO.P,U1,K22,GND58*
G04 #@! TO.N,GND*
X10500000Y1500000D03*
G04 #@! TO.P,U1,K21,GND57*
X9500000Y1500000D03*
G04 #@! TO.P,U1,K20*
G04 #@! TO.N,N/C*
X8500000Y1500000D03*
G04 #@! TO.P,U1,K19*
X7500000Y1500000D03*
G04 #@! TO.P,U1,K18,GND56*
G04 #@! TO.N,GND*
X6500000Y1500000D03*
G04 #@! TO.P,U1,K17,GND55*
X5500000Y1500000D03*
G04 #@! TO.P,U1,K6,GND54*
X-5500000Y1500000D03*
G04 #@! TO.P,U1,K5,DVDD11*
G04 #@! TO.N,VDDD*
X-6500000Y1500000D03*
G04 #@! TO.P,U1,K4*
G04 #@! TO.N,N/C*
X-7500000Y1500000D03*
G04 #@! TO.P,U1,K3,GND53*
G04 #@! TO.N,GND*
X-8500000Y1500000D03*
G04 #@! TO.P,U1,K2,M0D3P*
G04 #@! TO.N,CAM_D3_P*
X-9500000Y1500000D03*
G04 #@! TO.P,U1,K1,M0D3N*
G04 #@! TO.N,CAM_D3_N*
X-10500000Y1500000D03*
G04 #@! TO.P,U1,J22,AVDD8*
G04 #@! TO.N,VDDA*
X10500000Y500000D03*
G04 #@! TO.P,U1,J21,GND52*
G04 #@! TO.N,GND*
X9500000Y500000D03*
G04 #@! TO.P,U1,J20*
G04 #@! TO.N,N/C*
X8500000Y500000D03*
G04 #@! TO.P,U1,J19*
X7500000Y500000D03*
G04 #@! TO.P,U1,J18,VRM8*
G04 #@! TO.N,Net-(U1-VRM)*
X6500000Y500000D03*
G04 #@! TO.P,U1,J17,GND51*
G04 #@! TO.N,GND*
X5500000Y500000D03*
G04 #@! TO.P,U1,J6,GND50*
X-5500000Y500000D03*
G04 #@! TO.P,U1,J5,GND49*
X-6500000Y500000D03*
G04 #@! TO.P,U1,J4*
G04 #@! TO.N,N/C*
X-7500000Y500000D03*
G04 #@! TO.P,U1,J3,GND48*
G04 #@! TO.N,GND*
X-8500000Y500000D03*
G04 #@! TO.P,U1,J2,M1D3N*
G04 #@! TO.N,unconnected-(U1-M1D3N-PadJ2)*
X-9500000Y500000D03*
G04 #@! TO.P,U1,J1,M1D3P*
G04 #@! TO.N,unconnected-(U1-M1D3P-PadJ1)*
X-10500000Y500000D03*
G04 #@! TO.P,U1,H22,AVDD7*
G04 #@! TO.N,VDDA*
X10500000Y-500000D03*
G04 #@! TO.P,U1,H21,GND47*
G04 #@! TO.N,GND*
X9500000Y-500000D03*
G04 #@! TO.P,U1,H20*
G04 #@! TO.N,N/C*
X8500000Y-500000D03*
G04 #@! TO.P,U1,H19*
X7500000Y-500000D03*
G04 #@! TO.P,U1,H18,VRM7*
G04 #@! TO.N,Net-(U1-VRM)*
X6500000Y-500000D03*
G04 #@! TO.P,U1,H17,GND46*
G04 #@! TO.N,GND*
X5500000Y-500000D03*
G04 #@! TO.P,U1,H6,GND45*
X-5500000Y-500000D03*
G04 #@! TO.P,U1,H5,VRM6*
G04 #@! TO.N,Net-(U1-VRM)*
X-6500000Y-500000D03*
G04 #@! TO.P,U1,H4*
G04 #@! TO.N,N/C*
X-7500000Y-500000D03*
G04 #@! TO.P,U1,H3,GND44*
G04 #@! TO.N,GND*
X-8500000Y-500000D03*
G04 #@! TO.P,U1,H2,M1D1N*
G04 #@! TO.N,unconnected-(U1-M1D1N-PadH2)*
X-9500000Y-500000D03*
G04 #@! TO.P,U1,H1,M1D1P*
G04 #@! TO.N,unconnected-(U1-M1D1P-PadH1)*
X-10500000Y-500000D03*
G04 #@! TO.P,U1,G22,GND43*
G04 #@! TO.N,GND*
X10500000Y-1500000D03*
G04 #@! TO.P,U1,G21,GND42*
X9500000Y-1500000D03*
G04 #@! TO.P,U1,G20*
G04 #@! TO.N,N/C*
X8500000Y-1500000D03*
G04 #@! TO.P,U1,G19*
X7500000Y-1500000D03*
G04 #@! TO.P,U1,G18,GND41*
G04 #@! TO.N,GND*
X6500000Y-1500000D03*
G04 #@! TO.P,U1,G17,GND40*
X5500000Y-1500000D03*
G04 #@! TO.P,U1,G6,GND39*
X-5500000Y-1500000D03*
G04 #@! TO.P,U1,G5,VRM5*
G04 #@! TO.N,Net-(U1-VRM)*
X-6500000Y-1500000D03*
G04 #@! TO.P,U1,G4*
G04 #@! TO.N,N/C*
X-7500000Y-1500000D03*
G04 #@! TO.P,U1,G3,GND38*
G04 #@! TO.N,GND*
X-8500000Y-1500000D03*
G04 #@! TO.P,U1,G2,M1CN*
G04 #@! TO.N,unconnected-(U1-M1CN-PadG2)*
X-9500000Y-1500000D03*
G04 #@! TO.P,U1,G1,M1CP*
G04 #@! TO.N,unconnected-(U1-M1CP-PadG1)*
X-10500000Y-1500000D03*
G04 #@! TO.P,U1,F22,RSTM*
G04 #@! TO.N,Net-(U1-RSTM)*
X10500000Y-2500000D03*
G04 #@! TO.P,U1,F21,GND37*
G04 #@! TO.N,GND*
X9500000Y-2500000D03*
G04 #@! TO.P,U1,F20*
G04 #@! TO.N,N/C*
X8500000Y-2500000D03*
G04 #@! TO.P,U1,F19*
X7500000Y-2500000D03*
G04 #@! TO.P,U1,F18,DVDD10*
G04 #@! TO.N,VDDD*
X6500000Y-2500000D03*
G04 #@! TO.P,U1,F17,GND36*
G04 #@! TO.N,GND*
X5500000Y-2500000D03*
G04 #@! TO.P,U1,F16,GND35*
X4500000Y-2500000D03*
G04 #@! TO.P,U1,F15,GND34*
X3500000Y-2500000D03*
G04 #@! TO.P,U1,F14*
G04 #@! TO.N,N/C*
X2500000Y-2500000D03*
G04 #@! TO.P,U1,F13,GND33*
G04 #@! TO.N,GND*
X1500000Y-2500000D03*
G04 #@! TO.P,U1,F12,GND32*
X500000Y-2500000D03*
G04 #@! TO.P,U1,F11,GND31*
X-500000Y-2500000D03*
G04 #@! TO.P,U1,F10,GND30*
X-1500000Y-2500000D03*
G04 #@! TO.P,U1,F9,GND29*
X-2500000Y-2500000D03*
G04 #@! TO.P,U1,F8,GND28*
X-3500000Y-2500000D03*
G04 #@! TO.P,U1,F7,GND27*
X-4500000Y-2500000D03*
G04 #@! TO.P,U1,F6,GND26*
X-5500000Y-2500000D03*
G04 #@! TO.P,U1,F5,GND25*
X-6500000Y-2500000D03*
G04 #@! TO.P,U1,F4*
G04 #@! TO.N,N/C*
X-7500000Y-2500000D03*
G04 #@! TO.P,U1,F3,GND24*
G04 #@! TO.N,GND*
X-8500000Y-2500000D03*
G04 #@! TO.P,U1,F2,M1D0N*
G04 #@! TO.N,unconnected-(U1-M1D0N-PadF2)*
X-9500000Y-2500000D03*
G04 #@! TO.P,U1,F1,M1D0P*
G04 #@! TO.N,unconnected-(U1-M1D0P-PadF1)*
X-10500000Y-2500000D03*
G04 #@! TO.P,U1,E22,VREFN*
G04 #@! TO.N,Net-(U1-VREFN)*
X10500000Y-3500000D03*
G04 #@! TO.P,U1,E21,VREFN2*
G04 #@! TO.N,Net-(U1-VREFN22)*
X9500000Y-3500000D03*
G04 #@! TO.P,U1,E20,GND23*
G04 #@! TO.N,GND*
X8500000Y-3500000D03*
G04 #@! TO.P,U1,E19*
G04 #@! TO.N,N/C*
X7500000Y-3500000D03*
G04 #@! TO.P,U1,E18,DVDD9*
G04 #@! TO.N,VDDD*
X6500000Y-3500000D03*
G04 #@! TO.P,U1,E17,GND22*
G04 #@! TO.N,GND*
X5500000Y-3500000D03*
G04 #@! TO.P,U1,E16,VRM4*
G04 #@! TO.N,Net-(U1-VRM)*
X4500000Y-3500000D03*
G04 #@! TO.P,U1,E15,VRM3*
X3500000Y-3500000D03*
G04 #@! TO.P,U1,E14*
G04 #@! TO.N,N/C*
X2500000Y-3500000D03*
G04 #@! TO.P,U1,E13,AVDD6*
G04 #@! TO.N,VDDA*
X1500000Y-3500000D03*
G04 #@! TO.P,U1,E12,AVDD5*
X500000Y-3500000D03*
G04 #@! TO.P,U1,E11,VRM2*
G04 #@! TO.N,Net-(U1-VRM)*
X-500000Y-3500000D03*
G04 #@! TO.P,U1,E10,VRM*
X-1500000Y-3500000D03*
G04 #@! TO.P,U1,E9,AVDD4*
G04 #@! TO.N,VDDA*
X-2500000Y-3500000D03*
G04 #@! TO.P,U1,E8,AVDD3*
X-3500000Y-3500000D03*
G04 #@! TO.P,U1,E7,GND21*
G04 #@! TO.N,GND*
X-4500000Y-3500000D03*
G04 #@! TO.P,U1,E6,DVDD8*
G04 #@! TO.N,VDDD*
X-5500000Y-3500000D03*
G04 #@! TO.P,U1,E5,DVDD7*
X-6500000Y-3500000D03*
G04 #@! TO.P,U1,E4*
G04 #@! TO.N,N/C*
X-7500000Y-3500000D03*
G04 #@! TO.P,U1,E3,GND20*
G04 #@! TO.N,GND*
X-8500000Y-3500000D03*
G04 #@! TO.P,U1,E2,M1D2N*
G04 #@! TO.N,unconnected-(U1-M1D2N-PadE2)*
X-9500000Y-3500000D03*
G04 #@! TO.P,U1,E1,M1D2P*
G04 #@! TO.N,unconnected-(U1-M1D2P-PadE1)*
X-10500000Y-3500000D03*
G04 #@! TO.P,U1,D22,TXVDD*
G04 #@! TO.N,Net-(U1-TXVDD)*
X10500000Y-4500000D03*
G04 #@! TO.P,U1,D21,VREFH*
G04 #@! TO.N,Net-(U1-VREFH)*
X9500000Y-4500000D03*
G04 #@! TO.P,U1,D20,GND19*
G04 #@! TO.N,GND*
X8500000Y-4500000D03*
G04 #@! TO.P,U1,D19*
G04 #@! TO.N,N/C*
X7500000Y-4500000D03*
G04 #@! TO.P,U1,D18*
X6500000Y-4500000D03*
G04 #@! TO.P,U1,D17*
X5500000Y-4500000D03*
G04 #@! TO.P,U1,D16*
X4500000Y-4500000D03*
G04 #@! TO.P,U1,D15*
X3500000Y-4500000D03*
G04 #@! TO.P,U1,D14*
X2500000Y-4500000D03*
G04 #@! TO.P,U1,D13*
X1500000Y-4500000D03*
G04 #@! TO.P,U1,D12*
X500000Y-4500000D03*
G04 #@! TO.P,U1,D11*
X-500000Y-4500000D03*
G04 #@! TO.P,U1,D10*
X-1500000Y-4500000D03*
G04 #@! TO.P,U1,D9*
X-2500000Y-4500000D03*
G04 #@! TO.P,U1,D8*
X-3500000Y-4500000D03*
G04 #@! TO.P,U1,D7*
X-4500000Y-4500000D03*
G04 #@! TO.P,U1,D6*
X-5500000Y-4500000D03*
G04 #@! TO.P,U1,D5*
X-6500000Y-4500000D03*
G04 #@! TO.P,U1,D4*
X-7500000Y-4500000D03*
G04 #@! TO.P,U1,D3,DOVDD6*
G04 #@! TO.N,VDDIO*
X-8500000Y-4500000D03*
G04 #@! TO.P,U1,D2,GND18*
G04 #@! TO.N,GND*
X-9500000Y-4500000D03*
G04 #@! TO.P,U1,D1,GND17*
X-10500000Y-4500000D03*
G04 #@! TO.P,U1,C22,GSVREFH2*
G04 #@! TO.N,Net-(U1-GSVREFH22)*
X10500000Y-5500000D03*
G04 #@! TO.P,U1,C21,GSVREFH*
G04 #@! TO.N,Net-(U1-GSVREFH)*
X9500000Y-5500000D03*
G04 #@! TO.P,U1,C20,GND16*
G04 #@! TO.N,GND*
X8500000Y-5500000D03*
G04 #@! TO.P,U1,C19,GND15*
X7500000Y-5500000D03*
G04 #@! TO.P,U1,C18,GND14*
X6500000Y-5500000D03*
G04 #@! TO.P,U1,C17,GND13*
X5500000Y-5500000D03*
G04 #@! TO.P,U1,C16,GND12*
X4500000Y-5500000D03*
G04 #@! TO.P,U1,C15*
G04 #@! TO.N,N/C*
X3500000Y-5500000D03*
G04 #@! TO.P,U1,C14,GND11*
G04 #@! TO.N,GND*
X2500000Y-5500000D03*
G04 #@! TO.P,U1,C13*
G04 #@! TO.N,N/C*
X1500000Y-5500000D03*
G04 #@! TO.P,U1,C12,GND10*
G04 #@! TO.N,GND*
X500000Y-5500000D03*
G04 #@! TO.P,U1,C11*
G04 #@! TO.N,N/C*
X-500000Y-5500000D03*
G04 #@! TO.P,U1,C10,GND9*
G04 #@! TO.N,GND*
X-1500000Y-5500000D03*
G04 #@! TO.P,U1,C9,GND8*
X-2500000Y-5500000D03*
G04 #@! TO.P,U1,C8,TM*
X-3500000Y-5500000D03*
G04 #@! TO.P,U1,C7,SSB*
G04 #@! TO.N,Net-(U1-SSB)*
X-4500000Y-5500000D03*
G04 #@! TO.P,U1,C6,MOSI*
G04 #@! TO.N,unconnected-(U1-MOSI-PadC6)*
X-5500000Y-5500000D03*
G04 #@! TO.P,U1,C5,GND7*
G04 #@! TO.N,GND*
X-6500000Y-5500000D03*
G04 #@! TO.P,U1,C4,DOVDD5*
G04 #@! TO.N,VDDIO*
X-7500000Y-5500000D03*
G04 #@! TO.P,U1,C3,LED3*
G04 #@! TO.N,Net-(U1-LED3)*
X-8500000Y-5500000D03*
G04 #@! TO.P,U1,C2,LED2*
G04 #@! TO.N,Net-(U1-LED2)*
X-9500000Y-5500000D03*
G04 #@! TO.P,U1,C1,LED1*
G04 #@! TO.N,Net-(U1-LED1)*
X-10500000Y-5500000D03*
G04 #@! TO.P,U1,B20,RSTCLAMP*
G04 #@! TO.N,Net-(U1-RSTCLAMP)*
X8500000Y-6500000D03*
G04 #@! TO.P,U1,B19,AVDD2*
G04 #@! TO.N,VDDA*
X7500000Y-6500000D03*
G04 #@! TO.P,U1,B18,GND6*
G04 #@! TO.N,GND*
X6500000Y-6500000D03*
G04 #@! TO.P,U1,B17,DOVDD4*
G04 #@! TO.N,VDDIO*
X5500000Y-6500000D03*
G04 #@! TO.P,U1,B16,DVDD6*
G04 #@! TO.N,VDDD*
X4500000Y-6500000D03*
G04 #@! TO.P,U1,B15,GND5*
G04 #@! TO.N,GND*
X3500000Y-6500000D03*
G04 #@! TO.P,U1,B14,DVDD5*
G04 #@! TO.N,VDDD*
X2500000Y-6500000D03*
G04 #@! TO.P,U1,B13,GND4*
G04 #@! TO.N,GND*
X1500000Y-6500000D03*
G04 #@! TO.P,U1,B12,DVDD4*
G04 #@! TO.N,VDDD*
X500000Y-6500000D03*
G04 #@! TO.P,U1,B11,DOVDD3*
G04 #@! TO.N,VDDIO*
X-500000Y-6500000D03*
G04 #@! TO.P,U1,B10,SPI_EN*
G04 #@! TO.N,GND*
X-1500000Y-6500000D03*
G04 #@! TO.P,U1,B9,GND3*
X-2500000Y-6500000D03*
G04 #@! TO.P,U1,B8,XSHUTDN*
G04 #@! TO.N,Net-(U1-XSHUTDN)*
X-3500000Y-6500000D03*
G04 #@! TO.P,U1,B7,SID*
G04 #@! TO.N,GND*
X-4500000Y-6500000D03*
G04 #@! TO.P,U1,B6,MISO*
G04 #@! TO.N,unconnected-(U1-MISO-PadB6)*
X-5500000Y-6500000D03*
G04 #@! TO.P,U1,B5,GPIO0*
G04 #@! TO.N,Net-(U1-GPIO0)*
X-6500000Y-6500000D03*
G04 #@! TO.P,U1,B4,GPIO1*
G04 #@! TO.N,Net-(U1-GPIO1)*
X-7500000Y-6500000D03*
G04 #@! TO.P,U1,B3,LED0*
G04 #@! TO.N,Net-(U1-LED0)*
X-8500000Y-6500000D03*
G04 #@! TO.P,U1,A20,SIGCLAMP*
G04 #@! TO.N,Net-(U1-SIGCLAMP)*
X8500000Y-7500000D03*
G04 #@! TO.P,U1,A19,AVDD*
G04 #@! TO.N,VDDA*
X7500000Y-7500000D03*
G04 #@! TO.P,U1,A18*
G04 #@! TO.N,N/C*
X6500000Y-7500000D03*
G04 #@! TO.P,U1,A17,DOVDD2*
G04 #@! TO.N,VDDIO*
X5500000Y-7500000D03*
G04 #@! TO.P,U1,A16,DVDD3*
G04 #@! TO.N,VDDD*
X4500000Y-7500000D03*
G04 #@! TO.P,U1,A15,GND2*
G04 #@! TO.N,GND*
X3500000Y-7500000D03*
G04 #@! TO.P,U1,A14,DVDD2*
G04 #@! TO.N,VDDD*
X2500000Y-7500000D03*
G04 #@! TO.P,U1,A13,GND*
G04 #@! TO.N,GND*
X1500000Y-7500000D03*
G04 #@! TO.P,U1,A12,DVDD*
G04 #@! TO.N,VDDD*
X500000Y-7500000D03*
G04 #@! TO.P,U1,A11,DOVDD*
G04 #@! TO.N,VDDIO*
X-500000Y-7500000D03*
G04 #@! TO.P,U1,A10,OTPEN*
G04 #@! TO.N,Net-(U1-OTPEN)*
X-1500000Y-7500000D03*
G04 #@! TO.P,U1,A9,PDVDD*
G04 #@! TO.N,VDDD*
X-2500000Y-7500000D03*
G04 #@! TO.P,U1,A8,PWDNB*
G04 #@! TO.N,Net-(U1-PWDNB)*
X-3500000Y-7500000D03*
G04 #@! TO.P,U1,A7,Trigger*
G04 #@! TO.N,TRIG*
X-4500000Y-7500000D03*
G04 #@! TO.P,U1,A6,SCK*
G04 #@! TO.N,Net-(U1-SCK)*
X-5500000Y-7500000D03*
G04 #@! TO.P,U1,A5,SDA*
G04 #@! TO.N,SDA_1V8*
X-6500000Y-7500000D03*
G04 #@! TO.P,U1,A4,SCL*
G04 #@! TO.N,SCL_1V8*
X-7500000Y-7500000D03*
G04 #@! TO.P,U1,A3,EXTCLK*
G04 #@! TO.N,CLOCK*
X-8500000Y-7500000D03*
G04 #@! TD*
D11*
G04 #@! TO.N,VDDIO*
X-500000Y-7600000D03*
X-2650000Y-11900000D03*
X-3300000Y-12500000D03*
X-10800000Y-12074703D03*
X5500000Y-6400000D03*
X-8950000Y-9200000D03*
X-2450000Y-9450000D03*
X6450000Y3500000D03*
X-2650000Y-12500000D03*
X-3300000Y-11900000D03*
X5500000Y-7000000D03*
X-6500000Y-8500000D03*
X-8500000Y-4500000D03*
X-1500000Y-10360000D03*
X6500000Y2500000D03*
X-2450000Y-8450000D03*
X-7500000Y-8500000D03*
X-6400000Y3500000D03*
X-500000Y-6400000D03*
X-8000000Y-12144703D03*
X-12280000Y-10250000D03*
X-7500000Y-5500000D03*
X5500000Y-7600000D03*
G04 #@! TO.N,GND*
X-2400000Y2500000D03*
X-8600000Y1500000D03*
X-14300000Y-9450000D03*
X8500000Y5400000D03*
X1500000Y5600000D03*
X-700000Y11250000D03*
X5500000Y500000D03*
X-5400000Y-15400000D03*
X3500000Y-2520000D03*
X-1400000Y2500000D03*
X5500000Y5600000D03*
X9450000Y-2500000D03*
X6480000Y-6500000D03*
X500000Y8480000D03*
X-8600000Y2500000D03*
X2780000Y17512500D03*
X-1400000Y11250000D03*
X-11500000Y-3700000D03*
X-5500000Y-2500000D03*
X-500000Y-8480000D03*
X9900000Y8600000D03*
X-5850000Y-15900000D03*
X-16700000Y2250000D03*
X5500000Y-3500000D03*
X3300000Y14450000D03*
X-5520000Y-1500000D03*
X11200000Y-13250000D03*
X-500000Y5600000D03*
X-5400000Y2500000D03*
X9450000Y-500000D03*
X13700000Y-11000000D03*
X-3150000Y-14050000D03*
X-11320000Y-10250000D03*
X2600000Y14450000D03*
X2500000Y5600000D03*
X-17150000Y13700000D03*
X500000Y5600000D03*
X5500000Y2500000D03*
X-3400000Y2500000D03*
X2500000Y2500000D03*
X12000000Y-16700000D03*
X3500000Y5600000D03*
X-8000000Y-13700000D03*
X-8600000Y5500000D03*
X-10700000Y-9100000D03*
X4200000Y12310000D03*
X-5600000Y-13450000D03*
X8500000Y4500000D03*
X13050000Y-13550000D03*
X-3500000Y-2520000D03*
X-6500000Y-2500000D03*
X-2500000Y-2520000D03*
X-8500000Y-8200000D03*
X8600000Y-4500000D03*
X-17150000Y8100000D03*
X-4500000Y8480000D03*
X1000000Y14450000D03*
X3300000Y-14500000D03*
X-7400000Y6450000D03*
X-14150000Y9400000D03*
X3500000Y8480000D03*
X-16700000Y-750000D03*
X-8900000Y10900000D03*
X-1400000Y12450000D03*
X9450000Y500000D03*
X-700000Y11850000D03*
X8000000Y-11110000D03*
X-4400000Y-13450000D03*
X-4500000Y-6510000D03*
X-14800000Y-9950000D03*
X1500000Y2500000D03*
X-7400000Y7500000D03*
X6650000Y-8700000D03*
X-700000Y12450000D03*
X-6520000Y-5500000D03*
X-10949999Y12874999D03*
X1800000Y14450000D03*
X-9100000Y8500000D03*
X-14900000Y-7000000D03*
X5500000Y-500000D03*
X8600000Y-5500000D03*
X-14900000Y3750000D03*
X1520000Y-6500000D03*
X450000Y-13250000D03*
X-15550000Y-5450000D03*
X3100000Y-15400000D03*
X-17850000Y8100000D03*
X4000000Y15150000D03*
X-3500000Y5600000D03*
X2600000Y15150000D03*
X-150000Y14900000D03*
X4500000Y2500000D03*
X-5000000Y-14350000D03*
X-5500000Y-500000D03*
X3520000Y-6500000D03*
X10400000Y-13950000D03*
X-17850000Y13700000D03*
X-100000Y-12750000D03*
X3300000Y15150000D03*
X4500000Y-2520000D03*
X5200000Y-11110000D03*
X-150000Y14200000D03*
X500000Y-2520000D03*
X1520000Y-7500000D03*
X9200000Y8600000D03*
X9600000Y2500000D03*
X-10250000Y-4500000D03*
X6500000Y5600000D03*
X4050000Y-13250000D03*
X8500000Y3600000D03*
X-950000Y14900000D03*
X13000000Y-9850000D03*
X-16450000Y13700000D03*
X-8400000Y4500000D03*
X-2700000Y16000000D03*
X2700000Y-14500000D03*
X2050000Y-14500000D03*
X1000000Y15150000D03*
X-1500000Y-6500000D03*
X-950000Y14200000D03*
X-8400000Y3500000D03*
X10400000Y-13250000D03*
X1500000Y-2520000D03*
X5500000Y-2500000D03*
X9600000Y-13250000D03*
X1800000Y15150000D03*
X-16700000Y-3750000D03*
X-8800000Y-13900000D03*
X12400000Y5500000D03*
X12550000Y-5500000D03*
X-14200000Y3750000D03*
X4000000Y14450000D03*
X-9500000Y-4500000D03*
X-8900000Y12900000D03*
X-15100000Y9400000D03*
X-2500000Y8480000D03*
X-10850000Y-2000000D03*
X13400000Y-10400000D03*
X12550000Y-13150000D03*
X3500000Y-15800000D03*
X-13400000Y-17150000D03*
X8600000Y-3600000D03*
X-10500000Y-14200000D03*
X-4500000Y5600000D03*
X-3750000Y-13450000D03*
X-5400000Y1500000D03*
X6780000Y-12500000D03*
X-5500000Y5600000D03*
X-2650000Y-13600000D03*
X500000Y-5600000D03*
X6200000Y-8350000D03*
X-2500000Y5600000D03*
X5500000Y8480000D03*
X13700000Y-9850000D03*
X9600000Y-13950000D03*
X-5500000Y-8510000D03*
X-14150000Y6250000D03*
X9420000Y-16200000D03*
X-5000000Y-13450000D03*
X-4175000Y2525000D03*
X-18500000Y6250000D03*
X-11279999Y9900000D03*
X-5400000Y3500000D03*
X11200000Y-13950000D03*
X-1400000Y11850000D03*
X3500000Y-7500000D03*
X-2500000Y-6500000D03*
X6810000Y-13500000D03*
X13000000Y-11000000D03*
X-14900000Y-7650000D03*
X-10949999Y10925001D03*
X7500000Y-5400000D03*
X-9800000Y8500000D03*
X3850000Y-14300000D03*
G04 #@! TO.N,VDDA*
X11000000Y-11050000D03*
X11000000Y-9800000D03*
X-2375000Y3500000D03*
X8500000Y7500000D03*
X-2500000Y-3500000D03*
X7500000Y-6950000D03*
X-3500000Y-3500000D03*
X7500000Y-6400000D03*
X11750000Y-11050000D03*
X9100000Y11000000D03*
X10500000Y500000D03*
X10000000Y-10080000D03*
X500000Y-3500000D03*
X7500000Y-7600000D03*
X11750000Y-10400000D03*
X11750000Y-9800000D03*
X1500000Y-3500000D03*
X11000000Y-10400000D03*
X-1400000Y3500000D03*
X8500000Y6500000D03*
X10500000Y-500000D03*
G04 #@! TO.N,+3V3*
X-13650000Y-12544703D03*
X12000000Y-17500000D03*
X-12700000Y10400000D03*
X-2700000Y-17400000D03*
X-18300000Y5250000D03*
X-17600000Y5250000D03*
X-16900000Y5250000D03*
X6500000Y-17000000D03*
X-8415000Y9900000D03*
X-15100000Y10400000D03*
X6100000Y-17400000D03*
X-12700000Y13400000D03*
X-2300000Y-17000000D03*
X600000Y-17700000D03*
X-14150000Y10400000D03*
X-3500000Y16012500D03*
G04 #@! TO.N,CAM_EN*
X-15700000Y2750000D03*
X-5650000Y-14337500D03*
D12*
X9900000Y-15400000D03*
X5840000Y-13500000D03*
X2300000Y16800000D03*
D11*
G04 #@! TO.N,CLOCK*
X-8500000Y-7500000D03*
G04 #@! TO.N,CAM_D1_N*
X-11350000Y-3025000D03*
G04 #@! TO.N,VDDD*
X-5500000Y-3500000D03*
X900000Y-9600000D03*
X-2500000Y-7500000D03*
X-8500000Y7500000D03*
X-6400000Y2500000D03*
X2500000Y-7500000D03*
X1500000Y-10200000D03*
X900000Y-10200000D03*
X3950000Y1450000D03*
X-6500000Y-3500000D03*
X5500000Y3500000D03*
X500000Y-6500000D03*
X6500000Y-3500000D03*
X6500000Y-2500000D03*
X4500000Y3500000D03*
X2500000Y-6500000D03*
X2100000Y-10200000D03*
X1500000Y-9600000D03*
X-6400000Y1500000D03*
X500000Y-7500000D03*
X4500000Y-6500000D03*
X4500000Y-7500000D03*
X2100000Y-9600000D03*
X-8500000Y6500000D03*
G04 #@! TO.N,CAM_D0_P*
X-9600000Y4500000D03*
G04 #@! TO.N,CAM_D2_N*
X-10400000Y5500000D03*
G04 #@! TO.N,CAM_D1_P*
X-11350000Y-2475000D03*
G04 #@! TO.N,CAM_D0_N*
X-10400000Y4500000D03*
G04 #@! TO.N,CAM_D2_P*
X-9600000Y5500000D03*
G04 #@! TO.N,CAM_D3_N*
X-10400000Y1500000D03*
G04 #@! TO.N,CAM_CLK_P*
X-9600000Y3500000D03*
G04 #@! TO.N,CAM_D3_P*
X-9600000Y1500000D03*
G04 #@! TO.N,CAM_CLK_N*
X-10400000Y3500000D03*
G04 #@! TO.N,SCL_IN*
X-12200000Y-14250000D03*
X-16850000Y4250000D03*
X-14615000Y12390000D03*
X-9649999Y12874999D03*
G04 #@! TO.N,SDA_IN*
X-14615000Y11410000D03*
X-9450000Y-13700000D03*
X-15700000Y4750000D03*
X-9649999Y10925001D03*
G04 #@! TO.N,Net-(U1-VRSFMID)*
X1500000Y6500000D03*
X3500000Y7500000D03*
X3500000Y6500000D03*
X-4500000Y7500000D03*
X-4500000Y6500000D03*
G04 #@! TO.N,Net-(U1-VRSFLO)*
X-2500000Y6500000D03*
X-500000Y6500000D03*
X5500000Y6500000D03*
X-2500000Y7500000D03*
X5500000Y7500000D03*
G04 #@! TO.N,Net-(U1-VRM)*
X-4175000Y3525000D03*
X3500000Y-3500000D03*
X-6500000Y-1500000D03*
X-1500000Y-3500000D03*
X4500000Y-3500000D03*
X2500000Y3500000D03*
X-500000Y-3500000D03*
X1500000Y3500000D03*
X6300000Y500000D03*
X-3400000Y3500000D03*
X6300000Y-500000D03*
X-6400000Y-500000D03*
G04 #@! TO.N,Net-(U1-VREFN22)*
X9500000Y-3500000D03*
X9500000Y3500000D03*
G04 #@! TO.N,Net-(U1-VREFN)*
X10500000Y3500000D03*
X10500000Y-3500000D03*
G04 #@! TO.N,Net-(U1-VREFH)*
X9500000Y4500000D03*
X9500000Y-4500000D03*
G04 #@! TO.N,Net-(U1-RSTM)*
X10500000Y2500000D03*
X10500000Y-2500000D03*
G04 #@! TO.N,Net-(U1-GSVREFH22)*
X10500000Y-5500000D03*
X10500000Y5500000D03*
G04 #@! TO.N,Net-(U1-GSVREFH)*
X9500000Y-5500000D03*
X9500000Y5500000D03*
G04 #@! TO.N,Net-(U1-TXVDD)*
X10500000Y4500000D03*
X10500000Y-4500000D03*
G04 #@! TO.N,Net-(U1-PWDNB)*
X-3460000Y-8400000D03*
G04 #@! TO.N,Net-(U1-XSHUTDN)*
X-3460000Y-9450000D03*
G04 #@! TO.N,SCL_1V8*
X-12200000Y-11550000D03*
X-7500000Y-7500000D03*
G04 #@! TO.N,SDA_1V8*
X-6500000Y-7500000D03*
X-9400000Y-11550000D03*
G04 #@! TO.N,Net-(U1-SSB)*
X-4500000Y-5500000D03*
G04 #@! TO.N,Net-(U1-SCK)*
X-5500000Y-7500000D03*
G04 #@! TO.N,TRIG*
X-4500000Y-7500000D03*
G04 #@! TO.N,Net-(U1-RSTCLAMP)*
X8500000Y-6500000D03*
G04 #@! TO.N,Net-(U1-SIGCLAMP)*
X8500000Y-7500000D03*
G04 #@! TO.N,Net-(U1-GPIO0)*
X-6500000Y-6500000D03*
G04 #@! TO.N,Net-(U1-GPIO1)*
X-7500000Y-6600000D03*
G04 #@! TO.N,Net-(U1-LED0)*
X-14300000Y-10350000D03*
G04 #@! TO.N,Net-(U1-LED1)*
X-14300000Y-8750000D03*
G04 #@! TO.N,Net-(U1-LED2)*
X-14300000Y-7800000D03*
G04 #@! TO.N,Net-(U1-LED3)*
X-15400000Y-7300000D03*
G04 #@! TO.N,VDDP*
X550000Y11150000D03*
X1250000Y11800000D03*
X3200000Y11320000D03*
X1250000Y12450000D03*
X6500000Y11000000D03*
X7500000Y7500000D03*
X-6500000Y6500000D03*
X500000Y7500000D03*
X500000Y6500000D03*
X1250000Y11150000D03*
X7500000Y6500000D03*
X550000Y12450000D03*
X-6500000Y7500000D03*
X550000Y11800000D03*
G04 #@! TO.N,Net-(U1-OTPEN)*
X-1500000Y-8460000D03*
D12*
G04 #@! TO.N,Net-(U5-SS_CTRL)*
X350000Y16000000D03*
X3400000Y16000000D03*
G04 #@! TO.N,Net-(U4-SS_CTRL)*
X11900000Y-14800000D03*
X8850000Y-14500000D03*
G04 #@! TD*
D13*
G04 #@! TO.N,CAM_EN*
X-16200000Y2250000D02*
X-16200000Y-11050000D01*
X-6837500Y-13150000D02*
X-5650000Y-14337500D01*
X-7300000Y14850000D02*
X-4900000Y17250000D01*
X-5650000Y-14450000D02*
X-3800000Y-16300000D01*
X-15700000Y2750000D02*
X-15700000Y3700000D01*
X-13450000Y9100000D02*
X-7850000Y9100000D01*
X-14750000Y4650000D02*
X-14750000Y7800000D01*
X-15700000Y2750000D02*
X-16200000Y2250000D01*
X5840000Y-15410000D02*
X5850000Y-15400000D01*
X-14750000Y7800000D02*
X-13450000Y9100000D01*
X-4900000Y17250000D02*
X1850000Y17250000D01*
X-16200000Y-11050000D02*
X-14100000Y-13150000D01*
X1850000Y17250000D02*
X2300000Y16800000D01*
X-3800000Y-16300000D02*
X4950000Y-16300000D01*
X5850000Y-15400000D02*
X9900000Y-15400000D01*
X4950000Y-16300000D02*
X5840000Y-15410000D01*
X-14100000Y-13150000D02*
X-6837500Y-13150000D01*
X-15700000Y3700000D02*
X-14750000Y4650000D01*
X-7300000Y9650000D02*
X-7300000Y14850000D01*
X5840000Y-15410000D02*
X5840000Y-13500000D01*
X-7850000Y9100000D02*
X-7300000Y9650000D01*
D14*
G04 #@! TO.N,CAM_D1_N*
X-11702293Y2250000D02*
X-11774293Y2250000D01*
X-11966274Y539000D02*
X-12406000Y539000D01*
X-13672726Y-342000D02*
X-13672726Y-220000D01*
X-12184352Y2250000D02*
X-12449011Y1985341D01*
X-11774293Y2250000D02*
X-11950000Y2250000D01*
X-12894000Y-1901000D02*
X-13333738Y-1901000D01*
X-11817262Y-952000D02*
X-11817262Y-830000D01*
X-11966262Y-681000D02*
X-12555000Y-681000D01*
X-11950000Y2250000D02*
X-12184352Y2250000D01*
X-11558293Y2454167D02*
X-11558293Y2394000D01*
X-13333738Y-1101000D02*
X-12894000Y-1101000D01*
X-12745000Y-2189352D02*
X-12745000Y-2050000D01*
X-12745000Y1689352D02*
X-12449011Y1985341D01*
X-11198293Y2394000D02*
X-11198293Y2454167D01*
X-13333726Y119000D02*
X-12745000Y119000D01*
X-10500000Y2500000D02*
X-10750000Y2250000D01*
X-10750000Y2250000D02*
X-11054293Y2250000D01*
X-11350000Y-3025000D02*
X-11530000Y-2845000D01*
X-12089352Y-2845000D02*
X-12745000Y-2189352D01*
X-12555000Y-681000D02*
X-13333726Y-681000D01*
X-12745000Y1000000D02*
X-12745000Y1689352D01*
X-11530000Y-2845000D02*
X-12089352Y-2845000D01*
X-13672738Y-1562000D02*
X-13672738Y-1440000D01*
X-11342293Y2598167D02*
X-11414293Y2598167D01*
X-11817274Y268000D02*
X-11817274Y390000D01*
X-12745000Y878000D02*
X-12745000Y1000000D01*
X-12894000Y-1101000D02*
X-11966262Y-1101000D01*
X-12745000Y119000D02*
X-11966274Y119000D01*
X-11558293Y2394000D02*
G75*
G02*
X-11702293Y2250000I-144001J1D01*
G01*
X-13333726Y-681000D02*
G75*
G02*
X-13672726Y-342000I1J339001D01*
G01*
X-11817262Y-830000D02*
G75*
G03*
X-11966262Y-681000I-149000J0D01*
G01*
X-13672738Y-1440000D02*
G75*
G02*
X-13333738Y-1101000I339001J-1D01*
G01*
X-11817274Y390000D02*
G75*
G03*
X-11966274Y539000I-149000J0D01*
G01*
X-13333738Y-1901000D02*
G75*
G02*
X-13672738Y-1562000I1J339001D01*
G01*
X-11054293Y2250000D02*
G75*
G02*
X-11198293Y2394000I1J144001D01*
G01*
X-12745000Y-2050000D02*
G75*
G03*
X-12894000Y-1901000I-149000J0D01*
G01*
X-13672726Y-220000D02*
G75*
G02*
X-13333726Y119000I339001J-1D01*
G01*
X-11414293Y2598167D02*
G75*
G03*
X-11558293Y2454167I1J-144001D01*
G01*
X-11198293Y2454167D02*
G75*
G03*
X-11342293Y2598167I-144001J-1D01*
G01*
X-11966274Y119000D02*
G75*
G03*
X-11817274Y268000I0J149000D01*
G01*
X-11966262Y-1101000D02*
G75*
G03*
X-11817262Y-952000I0J149000D01*
G01*
X-12406000Y539000D02*
G75*
G02*
X-12745000Y878000I1J339001D01*
G01*
G04 #@! TO.N,CAM_D0_P*
X-9500000Y4500000D02*
X-9600000Y4500000D01*
G04 #@! TO.N,CAM_D2_N*
X-10500000Y5500000D02*
X-10400000Y5500000D01*
G04 #@! TO.N,CAM_D1_P*
X-12010648Y-2655000D02*
X-12555000Y-2110648D01*
X-12555000Y878000D02*
X-12555000Y1000000D01*
X-13333738Y-1291000D02*
X-12894000Y-1291000D01*
X-13333726Y-71000D02*
X-12745000Y-71000D01*
X-12555000Y-2110648D02*
X-12555000Y-2050000D01*
X-11966274Y729000D02*
X-12406000Y729000D01*
X-9995000Y2005000D02*
X-9500000Y2500000D01*
X-12745000Y-71000D02*
X-11966274Y-71000D01*
X-11627262Y-952000D02*
X-11627262Y-830000D01*
X-12555000Y1000000D02*
X-12555000Y1610648D01*
X-12314659Y1850989D02*
X-12160648Y2005000D01*
X-12555000Y-491000D02*
X-13333726Y-491000D01*
X-12894000Y-1291000D02*
X-11966262Y-1291000D01*
X-11350000Y-2475000D02*
X-11530000Y-2655000D01*
X-13482738Y-1562000D02*
X-13482738Y-1440000D01*
X-12894000Y-1711000D02*
X-13333738Y-1711000D01*
X-12160648Y2005000D02*
X-9995000Y2005000D01*
X-12555000Y1610648D02*
X-12314659Y1850989D01*
X-11966262Y-491000D02*
X-12555000Y-491000D01*
X-13482726Y-342000D02*
X-13482726Y-220000D01*
X-11627274Y268000D02*
X-11627274Y390000D01*
X-11530000Y-2655000D02*
X-12010648Y-2655000D01*
X-12555000Y-2050000D02*
G75*
G03*
X-12894000Y-1711000I-339001J-1D01*
G01*
X-11627274Y390000D02*
G75*
G03*
X-11966274Y729000I-339001J-1D01*
G01*
X-13482726Y-220000D02*
G75*
G02*
X-13333726Y-71000I149000J0D01*
G01*
X-13482738Y-1440000D02*
G75*
G02*
X-13333738Y-1291000I149000J0D01*
G01*
X-12406000Y729000D02*
G75*
G02*
X-12555000Y878000I0J149000D01*
G01*
X-11966262Y-1291000D02*
G75*
G03*
X-11627262Y-952000I-1J339001D01*
G01*
X-13333738Y-1711000D02*
G75*
G02*
X-13482738Y-1562000I0J149000D01*
G01*
X-11966274Y-71000D02*
G75*
G03*
X-11627274Y268000I-1J339001D01*
G01*
X-13333726Y-491000D02*
G75*
G02*
X-13482726Y-342000I0J149000D01*
G01*
X-11627262Y-830000D02*
G75*
G03*
X-11966262Y-491000I-339001J-1D01*
G01*
G04 #@! TO.N,CAM_D0_N*
X-10400000Y4500000D02*
X-10500000Y4500000D01*
G04 #@! TO.N,CAM_D2_P*
X-9600000Y5500000D02*
X-9500000Y5500000D01*
G04 #@! TO.N,CAM_D3_N*
X-10400000Y1500000D02*
X-10500000Y1500000D01*
G04 #@! TO.N,CAM_CLK_P*
X-9500000Y3500000D02*
X-9600000Y3500000D01*
G04 #@! TO.N,CAM_D3_P*
X-9600000Y1500000D02*
X-9500000Y1500000D01*
G04 #@! TO.N,CAM_CLK_N*
X-10400000Y3500000D02*
X-10500000Y3500000D01*
D13*
G04 #@! TO.N,SCL_IN*
X-10134998Y12390000D02*
X-9649999Y12874999D01*
X-17850000Y-10800000D02*
X-17850000Y3250000D01*
X-14400000Y-14250000D02*
X-17850000Y-10800000D01*
X-12200000Y-14250000D02*
X-14400000Y-14250000D01*
X-16850000Y4250000D02*
X-16350000Y4750000D01*
X-16350000Y11000000D02*
X-14960000Y12390000D01*
X-14960000Y12390000D02*
X-14615000Y12390000D01*
X-16350000Y4750000D02*
X-16350000Y11000000D01*
X-14615000Y12390000D02*
X-10134998Y12390000D01*
X-17850000Y3250000D02*
X-16850000Y4250000D01*
G04 #@! TO.N,SDA_IN*
X-9450000Y-13700000D02*
X-14300000Y-13700000D01*
X-17200000Y3000000D02*
X-15700000Y4500000D01*
X-15700000Y10750000D02*
X-15040000Y11410000D01*
X-14615000Y11410000D02*
X-14605000Y11400000D01*
X-10124998Y11400000D02*
X-9649999Y10925001D01*
X-15040000Y11410000D02*
X-14615000Y11410000D01*
X-17200000Y-10800000D02*
X-17200000Y3000000D01*
X-14605000Y11400000D02*
X-10124998Y11400000D01*
X-15700000Y4500000D02*
X-15700000Y10750000D01*
X-14300000Y-13700000D02*
X-17200000Y-10800000D01*
G04 #@! TO.N,Net-(U1-VREFN22)*
X11500000Y-2450000D02*
X11500000Y2300000D01*
X10000000Y-3000000D02*
X10950000Y-3000000D01*
X9500000Y-3500000D02*
X10000000Y-3000000D01*
X10000000Y3000000D02*
X9500000Y3500000D01*
X11500000Y2300000D02*
X10800000Y3000000D01*
X10800000Y3000000D02*
X10000000Y3000000D01*
X10950000Y-3000000D02*
X11500000Y-2450000D01*
G04 #@! TO.N,Net-(U1-VREFN)*
X10924264Y3500000D02*
X11900000Y2524264D01*
X11150000Y-3500000D02*
X10500000Y-3500000D01*
X11900000Y2524264D02*
X11900000Y-2750000D01*
X10500000Y3500000D02*
X10924264Y3500000D01*
X11900000Y-2750000D02*
X11150000Y-3500000D01*
G04 #@! TO.N,Net-(U1-VREFH)*
X12250000Y-3000000D02*
X11250000Y-4000000D01*
X10000000Y4000000D02*
X11050000Y4000000D01*
X11250000Y-4000000D02*
X10000000Y-4000000D01*
X10000000Y-4000000D02*
X9500000Y-4500000D01*
X11050000Y4000000D02*
X12250000Y2800000D01*
X9500000Y4500000D02*
X10000000Y4000000D01*
X12250000Y2800000D02*
X12250000Y-3000000D01*
G04 #@! TO.N,Net-(U1-RSTM)*
X11100000Y-1900000D02*
X11100000Y1900000D01*
X11100000Y1900000D02*
X10500000Y2500000D01*
X10500000Y-2500000D02*
X11100000Y-1900000D01*
G04 #@! TO.N,Net-(U1-GSVREFH22)*
X11450000Y5500000D02*
X10500000Y5500000D01*
X13450000Y-3600000D02*
X13450000Y3500000D01*
X13450000Y3500000D02*
X11450000Y5500000D01*
X10500000Y-5500000D02*
X11550000Y-5500000D01*
X11550000Y-5500000D02*
X13450000Y-3600000D01*
G04 #@! TO.N,Net-(U1-GSVREFH)*
X13050000Y-3400000D02*
X11450000Y-5000000D01*
X11450000Y-5000000D02*
X10000000Y-5000000D01*
X13050000Y3250000D02*
X13050000Y-3400000D01*
X9500000Y5500000D02*
X10000000Y5000000D01*
X11300000Y5000000D02*
X13050000Y3250000D01*
X10000000Y-5000000D02*
X9500000Y-5500000D01*
X10000000Y5000000D02*
X11300000Y5000000D01*
G04 #@! TO.N,Net-(U1-TXVDD)*
X10500000Y-4500000D02*
X11350000Y-4500000D01*
X12650000Y-3200000D02*
X12650000Y3000000D01*
X11150000Y4500000D02*
X10500000Y4500000D01*
X12650000Y3000000D02*
X11150000Y4500000D01*
X11350000Y-4500000D02*
X12650000Y-3200000D01*
G04 #@! TO.N,Net-(U1-PWDNB)*
X-3500000Y-8360000D02*
X-3500000Y-7500000D01*
X-3460000Y-8400000D02*
X-3500000Y-8360000D01*
G04 #@! TO.N,Net-(U1-XSHUTDN)*
X-3000000Y-8990000D02*
X-3000000Y-7000000D01*
X-3460000Y-9450000D02*
X-3000000Y-8990000D01*
X-3000000Y-7000000D02*
X-3500000Y-6500000D01*
G04 #@! TO.N,SCL_1V8*
X-9100000Y-11000000D02*
X-6900000Y-8800000D01*
X-12200000Y-11550000D02*
X-11650000Y-11000000D01*
X-6900000Y-8800000D02*
X-6900000Y-8100000D01*
X-6900000Y-8100000D02*
X-7500000Y-7500000D01*
X-11650000Y-11000000D02*
X-9100000Y-11000000D01*
G04 #@! TO.N,SDA_1V8*
X-8650000Y-11550000D02*
X-6100000Y-9000000D01*
X-6100000Y-7900000D02*
X-6500000Y-7500000D01*
X-9400000Y-11550000D02*
X-8650000Y-11550000D01*
X-6100000Y-9000000D02*
X-6100000Y-7900000D01*
G04 #@! TO.N,Net-(U1-LED0)*
X-14300000Y-10350000D02*
X-13250000Y-9300000D01*
X-12850000Y-6150000D02*
X-8850000Y-6150000D01*
X-8850000Y-6150000D02*
X-8500000Y-6500000D01*
X-13250000Y-6550000D02*
X-12850000Y-6150000D01*
X-13250000Y-9300000D02*
X-13250000Y-6550000D01*
G04 #@! TO.N,Net-(U1-LED1)*
X-10850000Y-5850000D02*
X-10500000Y-5500000D01*
X-14300000Y-8750000D02*
X-13750000Y-8200000D01*
X-13750000Y-8200000D02*
X-13750000Y-6250000D01*
X-13750000Y-6250000D02*
X-13350000Y-5850000D01*
X-13350000Y-5850000D02*
X-10850000Y-5850000D01*
G04 #@! TO.N,Net-(U1-LED2)*
X-10000000Y-5000000D02*
X-9500000Y-5500000D01*
X-11300000Y-5000000D02*
X-10000000Y-5000000D01*
X-11700000Y-5400000D02*
X-11300000Y-5000000D01*
X-13750000Y-5400000D02*
X-11700000Y-5400000D01*
X-14300000Y-7800000D02*
X-14300000Y-5950000D01*
X-14300000Y-5950000D02*
X-13750000Y-5400000D01*
G04 #@! TO.N,Net-(U1-LED3)*
X-9000000Y-5000000D02*
X-8500000Y-5500000D01*
X-14000000Y-5000000D02*
X-11950000Y-5000000D01*
X-11950000Y-5000000D02*
X-10950000Y-4000000D01*
X-9000000Y-4292893D02*
X-9000000Y-5000000D01*
X-15400000Y-6400000D02*
X-14000000Y-5000000D01*
X-10950000Y-4000000D02*
X-9292893Y-4000000D01*
X-15400000Y-7300000D02*
X-15400000Y-6400000D01*
X-9292893Y-4000000D02*
X-9000000Y-4292893D01*
G04 #@! TO.N,Net-(U1-OTPEN)*
X-1500000Y-7500000D02*
X-1500000Y-8460000D01*
D15*
G04 #@! TO.N,Net-(U5-SS_CTRL)*
X3400000Y16000000D02*
X3200000Y15800000D01*
X550000Y15800000D02*
X350000Y16000000D01*
X3200000Y15800000D02*
X550000Y15800000D01*
G04 #@! TO.N,Net-(U4-SS_CTRL)*
X8850000Y-14500000D02*
X11600000Y-14500000D01*
X11600000Y-14500000D02*
X11900000Y-14800000D01*
G04 #@! TD*
G04 #@! TA.AperFunction,Conductor*
G04 #@! TO.N,GND*
G36*
X-16022174Y3648202D02*
G01*
X-16000500Y3595876D01*
X-16000500Y3046544D01*
X-16022174Y2994218D01*
X-16028050Y2988342D01*
X-16085646Y2875304D01*
X-16098064Y2796891D01*
X-16118825Y2756144D01*
X-16384511Y2490460D01*
X-16440460Y2434511D01*
X-16480021Y2365989D01*
X-16489350Y2331171D01*
X-16500499Y2289564D01*
X-16500500Y2289564D01*
X-16500500Y-10895877D01*
X-16522174Y-10948203D01*
X-16574500Y-10969877D01*
X-16626826Y-10948203D01*
X-16877826Y-10697203D01*
X-16899500Y-10644877D01*
X-16899500Y2844876D01*
X-16877826Y2897202D01*
X-16126826Y3648202D01*
X-16074500Y3669876D01*
X-16022174Y3648202D01*
G37*
G04 #@! TD.AperFunction*
G04 #@! TA.AperFunction,Conductor*
G36*
X-969260Y-4720793D02*
G01*
X-932687Y-4757365D01*
X-925377Y-4773373D01*
X-831128Y-4882143D01*
X-744606Y-4937747D01*
X-712304Y-4984270D01*
X-722360Y-5040007D01*
X-744605Y-5062252D01*
X-831128Y-5117857D01*
X-925377Y-5226627D01*
X-985165Y-5357543D01*
X-1005647Y-5500000D01*
X-985165Y-5642457D01*
X-925377Y-5773373D01*
X-831128Y-5882143D01*
X-744606Y-5937747D01*
X-712304Y-5984270D01*
X-722360Y-6040007D01*
X-744605Y-6062252D01*
X-831128Y-6117857D01*
X-831129Y-6117859D01*
X-831131Y-6117860D01*
X-860537Y-6151797D01*
X-925377Y-6226627D01*
X-985165Y-6357543D01*
X-1005647Y-6500000D01*
X-985165Y-6642457D01*
X-925377Y-6773373D01*
X-831128Y-6882143D01*
X-744606Y-6937747D01*
X-712304Y-6984270D01*
X-722360Y-7040007D01*
X-744605Y-7062252D01*
X-831128Y-7117857D01*
X-831129Y-7117859D01*
X-831131Y-7117860D01*
X-925377Y-7226627D01*
X-932688Y-7242635D01*
X-974141Y-7281228D01*
X-1030742Y-7279205D01*
X-1067312Y-7242635D01*
X-1074622Y-7226627D01*
X-1168868Y-7117860D01*
X-1168875Y-7117855D01*
X-1289945Y-7040047D01*
X-1289949Y-7040046D01*
X-1428036Y-6999500D01*
X-1428039Y-6999500D01*
X-1571961Y-6999500D01*
X-1571964Y-6999500D01*
X-1710050Y-7040046D01*
X-1710054Y-7040047D01*
X-1764911Y-7075302D01*
X-1831128Y-7117857D01*
X-1831129Y-7117859D01*
X-1831131Y-7117860D01*
X-1925377Y-7226627D01*
X-1932688Y-7242635D01*
X-1974141Y-7281228D01*
X-2030742Y-7279205D01*
X-2067312Y-7242635D01*
X-2074622Y-7226627D01*
X-2168868Y-7117860D01*
X-2168875Y-7117855D01*
X-2289945Y-7040047D01*
X-2289949Y-7040046D01*
X-2428036Y-6999500D01*
X-2428039Y-6999500D01*
X-2571961Y-6999500D01*
X-2571962Y-6999500D01*
X-2607782Y-7010017D01*
X-2664095Y-7003962D01*
X-2699632Y-6959861D01*
X-2700104Y-6958178D01*
X-2702294Y-6950010D01*
X-2702298Y-6949998D01*
X-2719978Y-6884011D01*
X-2719980Y-6884007D01*
X-2759540Y-6815488D01*
X-2978301Y-6596726D01*
X-2999975Y-6544400D01*
X-2999222Y-6533870D01*
X-2994353Y-6500000D01*
X-3014834Y-6357545D01*
X-3074623Y-6226626D01*
X-3168868Y-6117860D01*
X-3168875Y-6117855D01*
X-3289945Y-6040047D01*
X-3289949Y-6040046D01*
X-3428036Y-5999500D01*
X-3428039Y-5999500D01*
X-3571961Y-5999500D01*
X-3571964Y-5999500D01*
X-3710050Y-6040046D01*
X-3710054Y-6040047D01*
X-3749642Y-6065489D01*
X-3831128Y-6117857D01*
X-3831129Y-6117859D01*
X-3831131Y-6117860D01*
X-3860537Y-6151797D01*
X-3925377Y-6226627D01*
X-3985165Y-6357543D01*
X-4005647Y-6500000D01*
X-3985165Y-6642457D01*
X-3925377Y-6773373D01*
X-3831128Y-6882143D01*
X-3744606Y-6937747D01*
X-3712304Y-6984270D01*
X-3722360Y-7040007D01*
X-3744605Y-7062252D01*
X-3831128Y-7117857D01*
X-3831129Y-7117859D01*
X-3831131Y-7117860D01*
X-3925377Y-7226627D01*
X-3932688Y-7242635D01*
X-3974141Y-7281228D01*
X-4030742Y-7279205D01*
X-4067312Y-7242635D01*
X-4074622Y-7226627D01*
X-4168868Y-7117860D01*
X-4168875Y-7117855D01*
X-4289945Y-7040047D01*
X-4289949Y-7040046D01*
X-4428036Y-6999500D01*
X-4428039Y-6999500D01*
X-4571961Y-6999500D01*
X-4571964Y-6999500D01*
X-4710050Y-7040046D01*
X-4710054Y-7040047D01*
X-4764911Y-7075302D01*
X-4831128Y-7117857D01*
X-4831129Y-7117859D01*
X-4831131Y-7117860D01*
X-4925377Y-7226627D01*
X-4932688Y-7242635D01*
X-4974141Y-7281228D01*
X-5030742Y-7279205D01*
X-5067312Y-7242635D01*
X-5074622Y-7226627D01*
X-5168868Y-7117860D01*
X-5168872Y-7117857D01*
X-5212351Y-7089915D01*
X-5255394Y-7062252D01*
X-5287695Y-7015730D01*
X-5277639Y-6959992D01*
X-5255394Y-6937747D01*
X-5168872Y-6882143D01*
X-5168869Y-6882140D01*
X-5168868Y-6882139D01*
X-5074623Y-6773373D01*
X-5038025Y-6693235D01*
X-5014835Y-6642457D01*
X-5014834Y-6642455D01*
X-5014834Y-6642454D01*
X-4994353Y-6500000D01*
X-5014834Y-6357545D01*
X-5074623Y-6226626D01*
X-5168868Y-6117860D01*
X-5168872Y-6117857D01*
X-5236382Y-6074471D01*
X-5255394Y-6062252D01*
X-5287695Y-6015730D01*
X-5277639Y-5959992D01*
X-5255394Y-5937747D01*
X-5168872Y-5882143D01*
X-5168869Y-5882140D01*
X-5168868Y-5882139D01*
X-5120260Y-5826041D01*
X-5074623Y-5773373D01*
X-5067312Y-5757365D01*
X-5025861Y-5718772D01*
X-4969260Y-5720793D01*
X-4932687Y-5757365D01*
X-4925377Y-5773373D01*
X-4831128Y-5882143D01*
X-4710053Y-5959953D01*
X-4572611Y-6000309D01*
X-4571964Y-6000499D01*
X-4571963Y-6000500D01*
X-4571961Y-6000500D01*
X-4428037Y-6000500D01*
X-4428035Y-6000499D01*
X-4372764Y-5984270D01*
X-4289947Y-5959953D01*
X-4168872Y-5882143D01*
X-4168869Y-5882140D01*
X-4168868Y-5882139D01*
X-4074623Y-5773373D01*
X-4014834Y-5642454D01*
X-3994353Y-5500000D01*
X-4014834Y-5357545D01*
X-4074623Y-5226626D01*
X-4168868Y-5117860D01*
X-4168872Y-5117857D01*
X-4255394Y-5062253D01*
X-4287695Y-5015730D01*
X-4277639Y-4959992D01*
X-4255394Y-4937747D01*
X-4168872Y-4882143D01*
X-4168869Y-4882140D01*
X-4168868Y-4882139D01*
X-4132932Y-4840666D01*
X-4074623Y-4773373D01*
X-4067312Y-4757365D01*
X-4025861Y-4718772D01*
X-3969260Y-4720793D01*
X-3932687Y-4757365D01*
X-3925377Y-4773373D01*
X-3831128Y-4882143D01*
X-3710053Y-4959953D01*
X-3572611Y-5000309D01*
X-3571964Y-5000499D01*
X-3571963Y-5000500D01*
X-3571961Y-5000500D01*
X-3428037Y-5000500D01*
X-3428035Y-5000499D01*
X-3350818Y-4977826D01*
X-3289947Y-4959953D01*
X-3168872Y-4882143D01*
X-3168869Y-4882140D01*
X-3168868Y-4882139D01*
X-3132932Y-4840666D01*
X-3074623Y-4773373D01*
X-3067312Y-4757365D01*
X-3025861Y-4718772D01*
X-2969260Y-4720793D01*
X-2932687Y-4757365D01*
X-2925377Y-4773373D01*
X-2831128Y-4882143D01*
X-2710053Y-4959953D01*
X-2572611Y-5000309D01*
X-2571964Y-5000499D01*
X-2571963Y-5000500D01*
X-2571961Y-5000500D01*
X-2428037Y-5000500D01*
X-2428035Y-5000499D01*
X-2350818Y-4977826D01*
X-2289947Y-4959953D01*
X-2168872Y-4882143D01*
X-2168869Y-4882140D01*
X-2168868Y-4882139D01*
X-2132932Y-4840666D01*
X-2074623Y-4773373D01*
X-2067312Y-4757365D01*
X-2025861Y-4718772D01*
X-1969260Y-4720793D01*
X-1932687Y-4757365D01*
X-1925377Y-4773373D01*
X-1831128Y-4882143D01*
X-1710053Y-4959953D01*
X-1572611Y-5000309D01*
X-1571964Y-5000499D01*
X-1571963Y-5000500D01*
X-1571961Y-5000500D01*
X-1428037Y-5000500D01*
X-1428035Y-5000499D01*
X-1350818Y-4977826D01*
X-1289947Y-4959953D01*
X-1168872Y-4882143D01*
X-1168869Y-4882140D01*
X-1168868Y-4882139D01*
X-1132932Y-4840666D01*
X-1074623Y-4773373D01*
X-1067312Y-4757365D01*
X-1025861Y-4718772D01*
X-969260Y-4720793D01*
G37*
G04 #@! TD.AperFunction*
G04 #@! TA.AperFunction,Conductor*
G36*
X-5969260Y-4720793D02*
G01*
X-5932687Y-4757365D01*
X-5925377Y-4773373D01*
X-5831128Y-4882143D01*
X-5744606Y-4937747D01*
X-5712304Y-4984270D01*
X-5722360Y-5040007D01*
X-5744605Y-5062252D01*
X-5831128Y-5117857D01*
X-5925377Y-5226627D01*
X-5985165Y-5357543D01*
X-6005647Y-5500000D01*
X-5985165Y-5642457D01*
X-5925377Y-5773373D01*
X-5831128Y-5882143D01*
X-5744606Y-5937747D01*
X-5712304Y-5984270D01*
X-5722360Y-6040007D01*
X-5744605Y-6062252D01*
X-5831128Y-6117857D01*
X-5831129Y-6117859D01*
X-5831131Y-6117860D01*
X-5925377Y-6226627D01*
X-5932688Y-6242635D01*
X-5974141Y-6281228D01*
X-6030742Y-6279205D01*
X-6067312Y-6242635D01*
X-6074622Y-6226627D01*
X-6168868Y-6117860D01*
X-6168875Y-6117855D01*
X-6289945Y-6040047D01*
X-6289949Y-6040046D01*
X-6428036Y-5999500D01*
X-6428039Y-5999500D01*
X-6571961Y-5999500D01*
X-6571964Y-5999500D01*
X-6710050Y-6040046D01*
X-6710054Y-6040047D01*
X-6749642Y-6065489D01*
X-6831128Y-6117857D01*
X-6831129Y-6117859D01*
X-6831131Y-6117860D01*
X-6925377Y-6226627D01*
X-6932688Y-6242635D01*
X-6974141Y-6281228D01*
X-7030742Y-6279205D01*
X-7067312Y-6242635D01*
X-7074622Y-6226627D01*
X-7168868Y-6117860D01*
X-7168872Y-6117857D01*
X-7236382Y-6074471D01*
X-7255394Y-6062252D01*
X-7287695Y-6015730D01*
X-7277639Y-5959992D01*
X-7255394Y-5937747D01*
X-7168872Y-5882143D01*
X-7168869Y-5882140D01*
X-7168868Y-5882139D01*
X-7074623Y-5773373D01*
X-7014834Y-5642454D01*
X-6994353Y-5500000D01*
X-7014834Y-5357545D01*
X-7074623Y-5226626D01*
X-7168868Y-5117860D01*
X-7168872Y-5117857D01*
X-7255394Y-5062253D01*
X-7287695Y-5015730D01*
X-7277639Y-4959992D01*
X-7255394Y-4937747D01*
X-7168872Y-4882143D01*
X-7168869Y-4882140D01*
X-7168868Y-4882139D01*
X-7132932Y-4840666D01*
X-7074623Y-4773373D01*
X-7067312Y-4757365D01*
X-7025861Y-4718772D01*
X-6969260Y-4720793D01*
X-6932687Y-4757365D01*
X-6925377Y-4773373D01*
X-6831128Y-4882143D01*
X-6710053Y-4959953D01*
X-6572611Y-5000309D01*
X-6571964Y-5000499D01*
X-6571963Y-5000500D01*
X-6571961Y-5000500D01*
X-6428037Y-5000500D01*
X-6428035Y-5000499D01*
X-6350818Y-4977826D01*
X-6289947Y-4959953D01*
X-6168872Y-4882143D01*
X-6168869Y-4882140D01*
X-6168868Y-4882139D01*
X-6132932Y-4840666D01*
X-6074623Y-4773373D01*
X-6067312Y-4757365D01*
X-6025861Y-4718772D01*
X-5969260Y-4720793D01*
G37*
G04 #@! TD.AperFunction*
G04 #@! TA.AperFunction,Conductor*
G36*
X-9395690Y-4322174D02*
G01*
X-9322174Y-4395690D01*
X-9300500Y-4448016D01*
X-9300500Y-4938095D01*
X-9322174Y-4990421D01*
X-9374500Y-5012095D01*
X-9395347Y-5009098D01*
X-9428038Y-4999500D01*
X-9428039Y-4999500D01*
X-9544876Y-4999500D01*
X-9597202Y-4977826D01*
X-9815488Y-4759540D01*
X-9848537Y-4740460D01*
X-9884009Y-4719979D01*
X-9884014Y-4719977D01*
X-9960436Y-4699500D01*
X-9960438Y-4699500D01*
X-11045877Y-4699500D01*
X-11098203Y-4677826D01*
X-11119877Y-4625500D01*
X-11098203Y-4573174D01*
X-10847203Y-4322174D01*
X-10794877Y-4300500D01*
X-9448016Y-4300500D01*
X-9395690Y-4322174D01*
G37*
G04 #@! TD.AperFunction*
G04 #@! TA.AperFunction,Conductor*
G36*
X4030742Y4279205D02*
G01*
X4067312Y4242635D01*
X4074622Y4226627D01*
X4168868Y4117860D01*
X4168872Y4117857D01*
X4255394Y4062253D01*
X4287695Y4015730D01*
X4277639Y3959992D01*
X4255394Y3937747D01*
X4168872Y3882143D01*
X4168869Y3882140D01*
X4168868Y3882139D01*
X4156986Y3868426D01*
X4074623Y3773373D01*
X4041071Y3699904D01*
X4014834Y3642454D01*
X3994353Y3500000D01*
X4014834Y3357545D01*
X4074623Y3226626D01*
X4168868Y3117860D01*
X4168875Y3117855D01*
X4289945Y3040047D01*
X4289949Y3040046D01*
X4428035Y2999500D01*
X4428039Y2999500D01*
X4571964Y2999500D01*
X4710050Y3040046D01*
X4710054Y3040047D01*
X4774182Y3081260D01*
X4831128Y3117857D01*
X4833761Y3120895D01*
X4925377Y3226627D01*
X4932688Y3242635D01*
X4974141Y3281228D01*
X5030742Y3279205D01*
X5067312Y3242635D01*
X5074622Y3226627D01*
X5168868Y3117860D01*
X5168875Y3117855D01*
X5289945Y3040047D01*
X5289949Y3040046D01*
X5428035Y2999500D01*
X5428039Y2999500D01*
X5571964Y2999500D01*
X5710050Y3040046D01*
X5710054Y3040047D01*
X5774182Y3081260D01*
X5831128Y3117857D01*
X5833761Y3120895D01*
X5925377Y3226627D01*
X5932688Y3242635D01*
X5974141Y3281228D01*
X6030742Y3279205D01*
X6067312Y3242635D01*
X6074622Y3226627D01*
X6168868Y3117860D01*
X6168872Y3117857D01*
X6246334Y3068075D01*
X6255394Y3062253D01*
X6287695Y3015730D01*
X6277639Y2959992D01*
X6255394Y2937747D01*
X6168872Y2882143D01*
X6168869Y2882140D01*
X6168868Y2882139D01*
X6074623Y2773373D01*
X6014834Y2642454D01*
X5994353Y2500000D01*
X6014834Y2357545D01*
X6074623Y2226626D01*
X6168868Y2117860D01*
X6168875Y2117855D01*
X6289945Y2040047D01*
X6289949Y2040046D01*
X6428035Y1999500D01*
X6428039Y1999500D01*
X6571964Y1999500D01*
X6710050Y2040046D01*
X6710054Y2040047D01*
X6774182Y2081260D01*
X6831128Y2117857D01*
X6856556Y2147202D01*
X6925377Y2226627D01*
X6932688Y2242635D01*
X6974141Y2281228D01*
X7030742Y2279205D01*
X7067312Y2242635D01*
X7074622Y2226627D01*
X7168868Y2117860D01*
X7168872Y2117857D01*
X7255394Y2062253D01*
X7287695Y2015730D01*
X7277639Y1959992D01*
X7255394Y1937747D01*
X7168872Y1882143D01*
X7168869Y1882140D01*
X7168868Y1882139D01*
X7145779Y1855492D01*
X7074623Y1773373D01*
X7041115Y1700000D01*
X7014834Y1642454D01*
X6994353Y1500000D01*
X7014834Y1357545D01*
X7074623Y1226626D01*
X7168868Y1117860D01*
X7168872Y1117857D01*
X7252124Y1064354D01*
X7255394Y1062253D01*
X7287695Y1015730D01*
X7277639Y959992D01*
X7255394Y937747D01*
X7168872Y882143D01*
X7168869Y882140D01*
X7168868Y882139D01*
X7167340Y880375D01*
X7074623Y773373D01*
X7074623Y773372D01*
X7067313Y757366D01*
X7025861Y718772D01*
X6969260Y720793D01*
X6932687Y757366D01*
X6925377Y773373D01*
X6831128Y882143D01*
X6710053Y959953D01*
X6641007Y980226D01*
X6571964Y1000500D01*
X6571961Y1000500D01*
X6428039Y1000500D01*
X6428036Y1000500D01*
X6358950Y980214D01*
X6289947Y959953D01*
X6289945Y959952D01*
X6176003Y886726D01*
X6169591Y883045D01*
X6061659Y828051D01*
X6061658Y828050D01*
X5971950Y738342D01*
X5914354Y625304D01*
X5914353Y625302D01*
X5914353Y625301D01*
X5894508Y500000D01*
X5914353Y374698D01*
X5971951Y261656D01*
X6061658Y171949D01*
X6169595Y116951D01*
X6176005Y113270D01*
X6255392Y62253D01*
X6287695Y15731D01*
X6277639Y-40006D01*
X6255392Y-62253D01*
X6176005Y-113270D01*
X6169595Y-116951D01*
X6061658Y-171949D01*
X5971951Y-261656D01*
X5914353Y-374698D01*
X5894508Y-500000D01*
X5914353Y-625301D01*
X5914353Y-625302D01*
X5914354Y-625304D01*
X5971950Y-738342D01*
X5971951Y-738343D01*
X6061659Y-828051D01*
X6169591Y-883045D01*
X6176003Y-886726D01*
X6255393Y-937747D01*
X6289947Y-959953D01*
X6372764Y-984270D01*
X6428035Y-1000499D01*
X6428037Y-1000500D01*
X6428039Y-1000500D01*
X6571963Y-1000500D01*
X6571964Y-1000499D01*
X6710053Y-959953D01*
X6831128Y-882143D01*
X6925377Y-773373D01*
X6932687Y-757365D01*
X6974139Y-718772D01*
X7030740Y-720793D01*
X7067312Y-757365D01*
X7074623Y-773373D01*
X7126575Y-833329D01*
X7168868Y-882139D01*
X7168869Y-882140D01*
X7168872Y-882143D01*
X7255394Y-937747D01*
X7287695Y-984270D01*
X7277639Y-1040008D01*
X7255394Y-1062253D01*
X7168872Y-1117857D01*
X7168868Y-1117860D01*
X7074623Y-1226626D01*
X7014834Y-1357545D01*
X6994353Y-1500000D01*
X7014834Y-1642454D01*
X7074623Y-1773373D01*
X7168868Y-1882139D01*
X7168869Y-1882140D01*
X7168872Y-1882143D01*
X7255394Y-1937747D01*
X7287695Y-1984270D01*
X7277639Y-2040008D01*
X7255394Y-2062253D01*
X7168872Y-2117857D01*
X7168868Y-2117860D01*
X7074622Y-2226627D01*
X7067312Y-2242635D01*
X7025859Y-2281228D01*
X6969258Y-2279205D01*
X6932688Y-2242635D01*
X6925377Y-2226627D01*
X6831131Y-2117860D01*
X6831129Y-2117859D01*
X6831128Y-2117857D01*
X6774182Y-2081260D01*
X6710054Y-2040047D01*
X6710050Y-2040046D01*
X6571964Y-1999500D01*
X6571961Y-1999500D01*
X6428039Y-1999500D01*
X6428036Y-1999500D01*
X6289949Y-2040046D01*
X6289945Y-2040047D01*
X6168875Y-2117855D01*
X6168868Y-2117860D01*
X6074623Y-2226626D01*
X6014834Y-2357545D01*
X5994353Y-2500000D01*
X6014834Y-2642454D01*
X6014834Y-2642455D01*
X6014835Y-2642457D01*
X6040886Y-2699500D01*
X6074623Y-2773373D01*
X6168868Y-2882139D01*
X6168869Y-2882140D01*
X6168872Y-2882143D01*
X6255394Y-2937747D01*
X6287695Y-2984270D01*
X6277639Y-3040008D01*
X6255394Y-3062253D01*
X6168872Y-3117857D01*
X6168868Y-3117860D01*
X6074623Y-3226626D01*
X6014834Y-3357545D01*
X5994353Y-3500000D01*
X6014834Y-3642454D01*
X6014834Y-3642455D01*
X6014835Y-3642457D01*
X6047165Y-3713248D01*
X6074623Y-3773373D01*
X6168868Y-3882139D01*
X6168869Y-3882140D01*
X6168872Y-3882143D01*
X6255394Y-3937747D01*
X6287695Y-3984270D01*
X6277639Y-4040008D01*
X6255394Y-4062252D01*
X6218222Y-4086142D01*
X6168872Y-4117857D01*
X6168868Y-4117860D01*
X6074622Y-4226627D01*
X6067312Y-4242635D01*
X6025859Y-4281228D01*
X5969258Y-4279205D01*
X5932688Y-4242635D01*
X5925377Y-4226627D01*
X5831131Y-4117860D01*
X5831129Y-4117859D01*
X5831128Y-4117857D01*
X5747258Y-4063957D01*
X5710054Y-4040047D01*
X5710050Y-4040046D01*
X5571964Y-3999500D01*
X5571961Y-3999500D01*
X5428039Y-3999500D01*
X5428036Y-3999500D01*
X5289949Y-4040046D01*
X5289945Y-4040047D01*
X5168875Y-4117855D01*
X5168868Y-4117860D01*
X5074622Y-4226627D01*
X5067312Y-4242635D01*
X5025859Y-4281228D01*
X4969258Y-4279205D01*
X4932688Y-4242635D01*
X4925377Y-4226627D01*
X4831131Y-4117860D01*
X4831129Y-4117859D01*
X4831128Y-4117857D01*
X4744605Y-4062252D01*
X4712304Y-4015730D01*
X4722360Y-3959993D01*
X4744606Y-3937747D01*
X4831128Y-3882143D01*
X4925377Y-3773373D01*
X4985165Y-3642457D01*
X5005647Y-3500000D01*
X4985165Y-3357543D01*
X4925377Y-3226627D01*
X4901814Y-3199434D01*
X4831131Y-3117860D01*
X4831129Y-3117859D01*
X4831128Y-3117857D01*
X4774182Y-3081260D01*
X4710054Y-3040047D01*
X4710050Y-3040046D01*
X4571964Y-2999500D01*
X4571961Y-2999500D01*
X4428039Y-2999500D01*
X4428036Y-2999500D01*
X4289949Y-3040046D01*
X4289945Y-3040047D01*
X4168875Y-3117855D01*
X4168868Y-3117860D01*
X4074622Y-3226627D01*
X4067312Y-3242635D01*
X4025859Y-3281228D01*
X3969258Y-3279205D01*
X3932688Y-3242635D01*
X3925377Y-3226627D01*
X3831131Y-3117860D01*
X3831129Y-3117859D01*
X3831128Y-3117857D01*
X3774182Y-3081260D01*
X3710054Y-3040047D01*
X3710050Y-3040046D01*
X3571964Y-2999500D01*
X3571961Y-2999500D01*
X3428039Y-2999500D01*
X3428036Y-2999500D01*
X3289949Y-3040046D01*
X3289945Y-3040047D01*
X3168875Y-3117855D01*
X3168868Y-3117860D01*
X3074622Y-3226627D01*
X3067312Y-3242635D01*
X3025859Y-3281228D01*
X2969258Y-3279205D01*
X2932688Y-3242635D01*
X2925377Y-3226627D01*
X2831131Y-3117860D01*
X2831129Y-3117859D01*
X2831128Y-3117857D01*
X2744605Y-3062252D01*
X2712304Y-3015730D01*
X2722360Y-2959993D01*
X2744606Y-2937747D01*
X2831128Y-2882143D01*
X2925377Y-2773373D01*
X2985165Y-2642457D01*
X3005647Y-2500000D01*
X2985165Y-2357543D01*
X2925377Y-2226627D01*
X2876543Y-2170269D01*
X2831131Y-2117860D01*
X2831129Y-2117859D01*
X2831128Y-2117857D01*
X2774182Y-2081260D01*
X2710054Y-2040047D01*
X2710050Y-2040046D01*
X2571964Y-1999500D01*
X2571961Y-1999500D01*
X2428039Y-1999500D01*
X2428036Y-1999500D01*
X2289949Y-2040046D01*
X2289945Y-2040047D01*
X2168875Y-2117855D01*
X2168868Y-2117860D01*
X2074623Y-2226626D01*
X2014834Y-2357545D01*
X1994353Y-2500000D01*
X2014834Y-2642454D01*
X2014834Y-2642455D01*
X2014835Y-2642457D01*
X2040886Y-2699500D01*
X2074623Y-2773373D01*
X2168868Y-2882139D01*
X2168869Y-2882140D01*
X2168872Y-2882143D01*
X2255394Y-2937747D01*
X2287695Y-2984270D01*
X2277639Y-3040008D01*
X2255394Y-3062253D01*
X2168872Y-3117857D01*
X2168868Y-3117860D01*
X2074622Y-3226627D01*
X2067312Y-3242635D01*
X2025859Y-3281228D01*
X1969258Y-3279205D01*
X1932688Y-3242635D01*
X1925377Y-3226627D01*
X1831131Y-3117860D01*
X1831129Y-3117859D01*
X1831128Y-3117857D01*
X1774182Y-3081260D01*
X1710054Y-3040047D01*
X1710050Y-3040046D01*
X1571964Y-2999500D01*
X1571961Y-2999500D01*
X1428039Y-2999500D01*
X1428036Y-2999500D01*
X1289949Y-3040046D01*
X1289945Y-3040047D01*
X1168875Y-3117855D01*
X1168868Y-3117860D01*
X1074622Y-3226627D01*
X1067312Y-3242635D01*
X1025859Y-3281228D01*
X969258Y-3279205D01*
X932688Y-3242635D01*
X925377Y-3226627D01*
X831131Y-3117860D01*
X831129Y-3117859D01*
X831128Y-3117857D01*
X774182Y-3081260D01*
X710054Y-3040047D01*
X710050Y-3040046D01*
X571964Y-2999500D01*
X571961Y-2999500D01*
X428039Y-2999500D01*
X428036Y-2999500D01*
X289949Y-3040046D01*
X289945Y-3040047D01*
X168875Y-3117855D01*
X168868Y-3117860D01*
X74622Y-3226627D01*
X67312Y-3242635D01*
X25859Y-3281228D01*
X-30742Y-3279205D01*
X-67312Y-3242635D01*
X-74622Y-3226627D01*
X-168868Y-3117860D01*
X-168875Y-3117855D01*
X-289945Y-3040047D01*
X-289949Y-3040046D01*
X-428036Y-2999500D01*
X-428039Y-2999500D01*
X-571961Y-2999500D01*
X-571964Y-2999500D01*
X-710050Y-3040046D01*
X-710054Y-3040047D01*
X-774182Y-3081260D01*
X-831128Y-3117857D01*
X-831129Y-3117859D01*
X-831131Y-3117860D01*
X-925377Y-3226627D01*
X-932688Y-3242635D01*
X-974141Y-3281228D01*
X-1030742Y-3279205D01*
X-1067312Y-3242635D01*
X-1074622Y-3226627D01*
X-1168868Y-3117860D01*
X-1168875Y-3117855D01*
X-1289945Y-3040047D01*
X-1289949Y-3040046D01*
X-1428036Y-2999500D01*
X-1428039Y-2999500D01*
X-1571961Y-2999500D01*
X-1571964Y-2999500D01*
X-1710050Y-3040046D01*
X-1710054Y-3040047D01*
X-1774182Y-3081260D01*
X-1831128Y-3117857D01*
X-1831129Y-3117859D01*
X-1831131Y-3117860D01*
X-1925377Y-3226627D01*
X-1932688Y-3242635D01*
X-1974141Y-3281228D01*
X-2030742Y-3279205D01*
X-2067312Y-3242635D01*
X-2074622Y-3226627D01*
X-2168868Y-3117860D01*
X-2168875Y-3117855D01*
X-2289945Y-3040047D01*
X-2289949Y-3040046D01*
X-2428036Y-2999500D01*
X-2428039Y-2999500D01*
X-2571961Y-2999500D01*
X-2571964Y-2999500D01*
X-2710050Y-3040046D01*
X-2710054Y-3040047D01*
X-2774182Y-3081260D01*
X-2831128Y-3117857D01*
X-2831129Y-3117859D01*
X-2831131Y-3117860D01*
X-2925377Y-3226627D01*
X-2932688Y-3242635D01*
X-2974141Y-3281228D01*
X-3030742Y-3279205D01*
X-3067312Y-3242635D01*
X-3074622Y-3226627D01*
X-3168868Y-3117860D01*
X-3168875Y-3117855D01*
X-3289945Y-3040047D01*
X-3289949Y-3040046D01*
X-3428036Y-2999500D01*
X-3428039Y-2999500D01*
X-3571961Y-2999500D01*
X-3571964Y-2999500D01*
X-3710050Y-3040046D01*
X-3710054Y-3040047D01*
X-3774182Y-3081260D01*
X-3831128Y-3117857D01*
X-3831129Y-3117859D01*
X-3831131Y-3117860D01*
X-3901814Y-3199434D01*
X-3925377Y-3226627D01*
X-3985165Y-3357543D01*
X-4005647Y-3500000D01*
X-3985165Y-3642457D01*
X-3925377Y-3773373D01*
X-3831128Y-3882143D01*
X-3744606Y-3937747D01*
X-3712304Y-3984270D01*
X-3722360Y-4040007D01*
X-3744605Y-4062252D01*
X-3831128Y-4117857D01*
X-3831129Y-4117859D01*
X-3831131Y-4117860D01*
X-3925377Y-4226627D01*
X-3932688Y-4242635D01*
X-3974141Y-4281228D01*
X-4030742Y-4279205D01*
X-4067312Y-4242635D01*
X-4074622Y-4226627D01*
X-4168868Y-4117860D01*
X-4168875Y-4117855D01*
X-4289945Y-4040047D01*
X-4289949Y-4040046D01*
X-4428036Y-3999500D01*
X-4428039Y-3999500D01*
X-4571961Y-3999500D01*
X-4571964Y-3999500D01*
X-4710050Y-4040046D01*
X-4710054Y-4040047D01*
X-4747258Y-4063957D01*
X-4831128Y-4117857D01*
X-4831129Y-4117859D01*
X-4831131Y-4117860D01*
X-4925377Y-4226627D01*
X-4932688Y-4242635D01*
X-4974141Y-4281228D01*
X-5030742Y-4279205D01*
X-5067312Y-4242635D01*
X-5074622Y-4226627D01*
X-5168868Y-4117860D01*
X-5168872Y-4117857D01*
X-5218222Y-4086142D01*
X-5255394Y-4062252D01*
X-5287695Y-4015730D01*
X-5277639Y-3959992D01*
X-5255394Y-3937747D01*
X-5168872Y-3882143D01*
X-5168869Y-3882140D01*
X-5168868Y-3882139D01*
X-5074623Y-3773373D01*
X-5047165Y-3713248D01*
X-5014835Y-3642457D01*
X-5014834Y-3642455D01*
X-5014834Y-3642454D01*
X-4994353Y-3500000D01*
X-5014834Y-3357545D01*
X-5074623Y-3226626D01*
X-5168868Y-3117860D01*
X-5168875Y-3117855D01*
X-5289945Y-3040047D01*
X-5289949Y-3040046D01*
X-5428036Y-2999500D01*
X-5428039Y-2999500D01*
X-5571961Y-2999500D01*
X-5571964Y-2999500D01*
X-5710050Y-3040046D01*
X-5710054Y-3040047D01*
X-5774182Y-3081260D01*
X-5831128Y-3117857D01*
X-5831129Y-3117859D01*
X-5831131Y-3117860D01*
X-5925377Y-3226627D01*
X-5932688Y-3242635D01*
X-5974141Y-3281228D01*
X-6030742Y-3279205D01*
X-6067312Y-3242635D01*
X-6074622Y-3226627D01*
X-6168868Y-3117860D01*
X-6168875Y-3117855D01*
X-6289945Y-3040047D01*
X-6289949Y-3040046D01*
X-6428036Y-2999500D01*
X-6428039Y-2999500D01*
X-6571961Y-2999500D01*
X-6571964Y-2999500D01*
X-6710050Y-3040046D01*
X-6710054Y-3040047D01*
X-6774182Y-3081260D01*
X-6831128Y-3117857D01*
X-6831129Y-3117859D01*
X-6831131Y-3117860D01*
X-6925377Y-3226627D01*
X-6932688Y-3242635D01*
X-6974141Y-3281228D01*
X-7030742Y-3279205D01*
X-7067312Y-3242635D01*
X-7074622Y-3226627D01*
X-7168868Y-3117860D01*
X-7168872Y-3117857D01*
X-7255394Y-3062253D01*
X-7287695Y-3015730D01*
X-7277639Y-2959992D01*
X-7255394Y-2937747D01*
X-7168872Y-2882143D01*
X-7168869Y-2882140D01*
X-7168868Y-2882139D01*
X-7074623Y-2773373D01*
X-7040886Y-2699500D01*
X-7014835Y-2642457D01*
X-7014834Y-2642455D01*
X-7014834Y-2642454D01*
X-6994353Y-2500000D01*
X-7014834Y-2357545D01*
X-7074623Y-2226626D01*
X-7168868Y-2117860D01*
X-7168872Y-2117857D01*
X-7255394Y-2062253D01*
X-7287695Y-2015730D01*
X-7277639Y-1959992D01*
X-7255394Y-1937747D01*
X-7168872Y-1882143D01*
X-7168869Y-1882140D01*
X-7168868Y-1882139D01*
X-7126575Y-1833329D01*
X-7074623Y-1773373D01*
X-7067312Y-1757365D01*
X-7025861Y-1718772D01*
X-6969260Y-1720793D01*
X-6932687Y-1757365D01*
X-6925377Y-1773373D01*
X-6831128Y-1882143D01*
X-6710053Y-1959953D01*
X-6572611Y-2000309D01*
X-6571964Y-2000499D01*
X-6571963Y-2000500D01*
X-6571961Y-2000500D01*
X-6428037Y-2000500D01*
X-6428035Y-2000499D01*
X-6350818Y-1977826D01*
X-6289947Y-1959953D01*
X-6168872Y-1882143D01*
X-6168869Y-1882140D01*
X-6168868Y-1882139D01*
X-6074623Y-1773373D01*
X-6014834Y-1642454D01*
X-5994353Y-1500000D01*
X-6014834Y-1357545D01*
X-6074623Y-1226626D01*
X-6168868Y-1117860D01*
X-6168872Y-1117857D01*
X-6255394Y-1062253D01*
X-6287695Y-1015730D01*
X-6277639Y-959992D01*
X-6255394Y-937747D01*
X-6168872Y-882143D01*
X-6168869Y-882140D01*
X-6168868Y-882139D01*
X-6074623Y-773373D01*
X-6014834Y-642454D01*
X-5994353Y-500000D01*
X-6014834Y-357545D01*
X-6074623Y-226626D01*
X-6168868Y-117860D01*
X-6168875Y-117855D01*
X-6289945Y-40047D01*
X-6289949Y-40046D01*
X-6428036Y500D01*
X-6428039Y500D01*
X-6571961Y500D01*
X-6571964Y500D01*
X-6710050Y-40046D01*
X-6710054Y-40047D01*
X-6774182Y-81260D01*
X-6831128Y-117857D01*
X-6831129Y-117859D01*
X-6831131Y-117860D01*
X-6925377Y-226627D01*
X-6932688Y-242635D01*
X-6974141Y-281228D01*
X-7030742Y-279205D01*
X-7067312Y-242635D01*
X-7074622Y-226627D01*
X-7168868Y-117860D01*
X-7168872Y-117857D01*
X-7255394Y-62253D01*
X-7287695Y-15730D01*
X-7277639Y40008D01*
X-7255394Y62253D01*
X-7168872Y117857D01*
X-7168868Y117860D01*
X-7074623Y226626D01*
X-7014834Y357545D01*
X-6994353Y500000D01*
X-7014834Y642454D01*
X-7074623Y773373D01*
X-7168868Y882139D01*
X-7168869Y882140D01*
X-7168872Y882143D01*
X-7255394Y937747D01*
X-7287695Y984270D01*
X-7277639Y1040008D01*
X-7255394Y1062253D01*
X-7252124Y1064354D01*
X-7168872Y1117857D01*
X-7168868Y1117860D01*
X-7074622Y1226627D01*
X-7067312Y1242635D01*
X-7025859Y1281228D01*
X-6969258Y1279205D01*
X-6932688Y1242635D01*
X-6925377Y1226627D01*
X-6831132Y1117861D01*
X-6831128Y1117857D01*
X-6774182Y1081260D01*
X-6710054Y1040047D01*
X-6710050Y1040046D01*
X-6571964Y999500D01*
X-6571961Y999500D01*
X-6428035Y999500D01*
X-6289949Y1040046D01*
X-6289945Y1040047D01*
X-6168875Y1117855D01*
X-6168868Y1117860D01*
X-6074623Y1226626D01*
X-6014834Y1357545D01*
X-6001542Y1450000D01*
X3544508Y1450000D01*
X3564353Y1324698D01*
X3621951Y1211656D01*
X3711656Y1121951D01*
X3824698Y1064353D01*
X3950000Y1044508D01*
X4075301Y1064353D01*
X4075302Y1064353D01*
X4075304Y1064354D01*
X4188342Y1121950D01*
X4278050Y1211658D01*
X4335646Y1324696D01*
X4355492Y1450000D01*
X4335646Y1575304D01*
X4278050Y1688342D01*
X4188342Y1778050D01*
X4075304Y1835646D01*
X3950000Y1855492D01*
X3824696Y1835646D01*
X3711658Y1778050D01*
X3621950Y1688342D01*
X3564354Y1575304D01*
X3564353Y1575302D01*
X3564353Y1575301D01*
X3544508Y1450000D01*
X-6001542Y1450000D01*
X-5994353Y1500000D01*
X-6014834Y1642454D01*
X-6041115Y1700000D01*
X-6074623Y1773373D01*
X-6145779Y1855492D01*
X-6168868Y1882139D01*
X-6168869Y1882140D01*
X-6168872Y1882143D01*
X-6255394Y1937747D01*
X-6287695Y1984270D01*
X-6277639Y2040008D01*
X-6255394Y2062253D01*
X-6168872Y2117857D01*
X-6168868Y2117860D01*
X-6074623Y2226626D01*
X-6014834Y2357545D01*
X-5994353Y2500000D01*
X-6014834Y2642454D01*
X-6074623Y2773373D01*
X-6168868Y2882139D01*
X-6168869Y2882140D01*
X-6168872Y2882143D01*
X-6255394Y2937747D01*
X-6287695Y2984270D01*
X-6277639Y3040008D01*
X-6255394Y3062253D01*
X-6246334Y3068075D01*
X-6168872Y3117857D01*
X-6168868Y3117860D01*
X-6074623Y3226626D01*
X-6014834Y3357545D01*
X-5994353Y3500000D01*
X-6014834Y3642454D01*
X-6041071Y3699904D01*
X-6074623Y3773373D01*
X-6156986Y3868426D01*
X-6168868Y3882139D01*
X-6168869Y3882140D01*
X-6168872Y3882143D01*
X-6255394Y3937747D01*
X-6287695Y3984270D01*
X-6277639Y4040008D01*
X-6255394Y4062253D01*
X-6168872Y4117857D01*
X-6168868Y4117860D01*
X-6074622Y4226627D01*
X-6067312Y4242635D01*
X-6025859Y4281228D01*
X-5969258Y4279205D01*
X-5932688Y4242635D01*
X-5925377Y4226627D01*
X-5831128Y4117857D01*
X-5774182Y4081260D01*
X-5710054Y4040047D01*
X-5710050Y4040046D01*
X-5571964Y3999500D01*
X-5571961Y3999500D01*
X-5428035Y3999500D01*
X-5289949Y4040046D01*
X-5289945Y4040047D01*
X-5168875Y4117855D01*
X-5168868Y4117860D01*
X-5074622Y4226627D01*
X-5067312Y4242635D01*
X-5025859Y4281228D01*
X-4969258Y4279205D01*
X-4932688Y4242635D01*
X-4925377Y4226627D01*
X-4831128Y4117857D01*
X-4744606Y4062253D01*
X-4712304Y4015730D01*
X-4722360Y3959993D01*
X-4744605Y3937747D01*
X-4831128Y3882143D01*
X-4925377Y3773373D01*
X-4985165Y3642457D01*
X-5005647Y3500000D01*
X-4985165Y3357543D01*
X-4925377Y3226627D01*
X-4925376Y3226626D01*
X-4833761Y3120895D01*
X-4831128Y3117857D01*
X-4774182Y3081260D01*
X-4710054Y3040047D01*
X-4710050Y3040046D01*
X-4571964Y2999500D01*
X-4571961Y2999500D01*
X-4428035Y2999500D01*
X-4289949Y3040046D01*
X-4289945Y3040048D01*
X-4176537Y3112930D01*
X-4148107Y3123766D01*
X-4049699Y3139353D01*
X-4049695Y3139354D01*
X-3962589Y3183736D01*
X-3906127Y3188179D01*
X-3873069Y3166260D01*
X-3833761Y3120895D01*
X-3831128Y3117857D01*
X-3774182Y3081260D01*
X-3710054Y3040047D01*
X-3710050Y3040046D01*
X-3571964Y2999500D01*
X-3571961Y2999500D01*
X-3428035Y2999500D01*
X-3289949Y3040046D01*
X-3289945Y3040047D01*
X-3168875Y3117855D01*
X-3168868Y3117860D01*
X-3074622Y3226627D01*
X-3067312Y3242635D01*
X-3025859Y3281228D01*
X-2969258Y3279205D01*
X-2932688Y3242635D01*
X-2925377Y3226627D01*
X-2833761Y3120895D01*
X-2831128Y3117857D01*
X-2774182Y3081260D01*
X-2710054Y3040047D01*
X-2710050Y3040046D01*
X-2571964Y2999500D01*
X-2571961Y2999500D01*
X-2428035Y2999500D01*
X-2289949Y3040046D01*
X-2289945Y3040047D01*
X-2168875Y3117855D01*
X-2168868Y3117860D01*
X-2074623Y3226626D01*
X-2074620Y3226631D01*
X-2073982Y3228029D01*
X-2058998Y3249609D01*
X-2049837Y3258770D01*
X-1997511Y3280444D01*
X-1945185Y3258770D01*
X-1930198Y3237185D01*
X-1925377Y3226627D01*
X-1888212Y3183736D01*
X-1833761Y3120895D01*
X-1831128Y3117857D01*
X-1774182Y3081260D01*
X-1710054Y3040047D01*
X-1710050Y3040046D01*
X-1571964Y2999500D01*
X-1571961Y2999500D01*
X-1428035Y2999500D01*
X-1289949Y3040046D01*
X-1289945Y3040047D01*
X-1168875Y3117855D01*
X-1168868Y3117860D01*
X-1074622Y3226627D01*
X-1067312Y3242635D01*
X-1025859Y3281228D01*
X-969258Y3279205D01*
X-932688Y3242635D01*
X-925377Y3226627D01*
X-833761Y3120895D01*
X-831128Y3117857D01*
X-744606Y3062253D01*
X-712304Y3015730D01*
X-722360Y2959993D01*
X-744605Y2937747D01*
X-831128Y2882143D01*
X-925377Y2773373D01*
X-985165Y2642457D01*
X-1005647Y2500000D01*
X-985165Y2357543D01*
X-925377Y2226627D01*
X-925376Y2226626D01*
X-856556Y2147202D01*
X-831128Y2117857D01*
X-774182Y2081260D01*
X-710054Y2040047D01*
X-710050Y2040046D01*
X-571964Y1999500D01*
X-571961Y1999500D01*
X-428035Y1999500D01*
X-289949Y2040046D01*
X-289945Y2040047D01*
X-168875Y2117855D01*
X-168868Y2117860D01*
X-74622Y2226627D01*
X-67312Y2242635D01*
X-25859Y2281228D01*
X30742Y2279205D01*
X67312Y2242635D01*
X74622Y2226627D01*
X168868Y2117860D01*
X168875Y2117855D01*
X289945Y2040047D01*
X289949Y2040046D01*
X428035Y1999500D01*
X428039Y1999500D01*
X571964Y1999500D01*
X710050Y2040046D01*
X710054Y2040047D01*
X774182Y2081260D01*
X831128Y2117857D01*
X856556Y2147202D01*
X925376Y2226626D01*
X925377Y2226627D01*
X985165Y2357543D01*
X1005647Y2500000D01*
X985165Y2642457D01*
X925377Y2773373D01*
X831128Y2882143D01*
X744605Y2937747D01*
X712304Y2984270D01*
X722360Y3040007D01*
X744606Y3062253D01*
X831128Y3117857D01*
X833761Y3120895D01*
X925377Y3226627D01*
X932688Y3242635D01*
X974141Y3281228D01*
X1030742Y3279205D01*
X1067312Y3242635D01*
X1074622Y3226627D01*
X1168868Y3117860D01*
X1168875Y3117855D01*
X1289945Y3040047D01*
X1289949Y3040046D01*
X1428035Y2999500D01*
X1428039Y2999500D01*
X1571964Y2999500D01*
X1710050Y3040046D01*
X1710054Y3040047D01*
X1774182Y3081260D01*
X1831128Y3117857D01*
X1833761Y3120895D01*
X1925377Y3226627D01*
X1932688Y3242635D01*
X1974141Y3281228D01*
X2030742Y3279205D01*
X2067312Y3242635D01*
X2074622Y3226627D01*
X2168868Y3117860D01*
X2168875Y3117855D01*
X2289945Y3040047D01*
X2289949Y3040046D01*
X2428035Y2999500D01*
X2428039Y2999500D01*
X2571964Y2999500D01*
X2710050Y3040046D01*
X2710054Y3040047D01*
X2774182Y3081260D01*
X2831128Y3117857D01*
X2833761Y3120895D01*
X2925376Y3226626D01*
X2925377Y3226627D01*
X2985165Y3357543D01*
X3005647Y3500000D01*
X2985165Y3642457D01*
X2925377Y3773373D01*
X2831128Y3882143D01*
X2744605Y3937747D01*
X2712304Y3984270D01*
X2722360Y4040007D01*
X2744606Y4062253D01*
X2831128Y4117857D01*
X2925377Y4226627D01*
X2932688Y4242635D01*
X2974141Y4281228D01*
X3030742Y4279205D01*
X3067312Y4242635D01*
X3074622Y4226627D01*
X3168868Y4117860D01*
X3168875Y4117855D01*
X3289945Y4040047D01*
X3289949Y4040046D01*
X3428035Y3999500D01*
X3428039Y3999500D01*
X3571964Y3999500D01*
X3710050Y4040046D01*
X3710054Y4040047D01*
X3774182Y4081260D01*
X3831128Y4117857D01*
X3925377Y4226627D01*
X3932688Y4242635D01*
X3974141Y4281228D01*
X4030742Y4279205D01*
G37*
G04 #@! TD.AperFunction*
G04 #@! TA.AperFunction,Conductor*
G36*
X-10873674Y-1833329D02*
G01*
X-10870081Y-1837188D01*
X-10831128Y-1882143D01*
X-10744606Y-1937747D01*
X-10712304Y-1984270D01*
X-10722360Y-2040007D01*
X-10744605Y-2062252D01*
X-10831128Y-2117857D01*
X-10831130Y-2117859D01*
X-10831132Y-2117861D01*
X-10870075Y-2162804D01*
X-10920721Y-2188155D01*
X-10974460Y-2170269D01*
X-10999811Y-2119623D01*
X-11000000Y-2114344D01*
X-11000000Y-1885655D01*
X-10978326Y-1833329D01*
X-10926000Y-1811655D01*
X-10873674Y-1833329D01*
G37*
G04 #@! TD.AperFunction*
G04 #@! TA.AperFunction,Conductor*
G36*
X16190511Y19478326D02*
G01*
X16212185Y19426000D01*
X16190511Y19373674D01*
X16162626Y19356153D01*
X16041592Y19313801D01*
X15788555Y19191945D01*
X15550752Y19042523D01*
X15550751Y19042522D01*
X15331175Y18867416D01*
X15132583Y18668824D01*
X14957477Y18449248D01*
X14808052Y18211440D01*
X14686198Y17958407D01*
X14593442Y17693325D01*
X14593437Y17693309D01*
X14530945Y17419513D01*
X14530945Y17419512D01*
X14530945Y17419509D01*
X14499500Y17140425D01*
X14499500Y16859575D01*
X14508107Y16783182D01*
X14530945Y16580487D01*
X14530945Y16580486D01*
X14593437Y16306690D01*
X14593442Y16306674D01*
X14686198Y16041592D01*
X14808052Y15788559D01*
X14957477Y15550751D01*
X15132583Y15331175D01*
X15331175Y15132583D01*
X15550751Y14957477D01*
X15788559Y14808052D01*
X16041592Y14686198D01*
X16306674Y14593442D01*
X16306690Y14593437D01*
X16580486Y14530945D01*
X16735537Y14513475D01*
X16859575Y14499500D01*
X16859579Y14499500D01*
X17140421Y14499500D01*
X17140425Y14499500D01*
X17299901Y14517468D01*
X17419512Y14530945D01*
X17419513Y14530945D01*
X17693309Y14593437D01*
X17693325Y14593442D01*
X17958407Y14686198D01*
X18211440Y14808052D01*
X18449248Y14957477D01*
X18668824Y15132583D01*
X18867416Y15331175D01*
X18999402Y15496680D01*
X19042523Y15550752D01*
X19191945Y15788555D01*
X19313801Y16041592D01*
X19347467Y16137804D01*
X19356153Y16162626D01*
X19393893Y16204857D01*
X19450441Y16208032D01*
X19492672Y16170292D01*
X19500000Y16138185D01*
X19500000Y-16138185D01*
X19478326Y-16190511D01*
X19426000Y-16212185D01*
X19373674Y-16190511D01*
X19356153Y-16162626D01*
X19313801Y-16041592D01*
X19191947Y-15788559D01*
X19191946Y-15788558D01*
X19191945Y-15788555D01*
X19042523Y-15550752D01*
X18867416Y-15331175D01*
X18668825Y-15132584D01*
X18449248Y-14957477D01*
X18211445Y-14808055D01*
X18211444Y-14808054D01*
X18211440Y-14808052D01*
X17958407Y-14686198D01*
X17693325Y-14593442D01*
X17693309Y-14593437D01*
X17419513Y-14530945D01*
X17279967Y-14515222D01*
X17140425Y-14499500D01*
X16859575Y-14499500D01*
X16720033Y-14515222D01*
X16580487Y-14530945D01*
X16580486Y-14530945D01*
X16306690Y-14593437D01*
X16306674Y-14593442D01*
X16041592Y-14686198D01*
X15788559Y-14808052D01*
X15550751Y-14957477D01*
X15331175Y-15132583D01*
X15132583Y-15331175D01*
X14957477Y-15550751D01*
X14808052Y-15788559D01*
X14686198Y-16041592D01*
X14593442Y-16306674D01*
X14593437Y-16306690D01*
X14530945Y-16580486D01*
X14530945Y-16580487D01*
X14526248Y-16622174D01*
X14499500Y-16859575D01*
X14499500Y-17140425D01*
X14503052Y-17171950D01*
X14530945Y-17419512D01*
X14530945Y-17419513D01*
X14593437Y-17693309D01*
X14593442Y-17693325D01*
X14686198Y-17958407D01*
X14808052Y-18211440D01*
X14808054Y-18211444D01*
X14808055Y-18211445D01*
X14957477Y-18449248D01*
X15132584Y-18668825D01*
X15331175Y-18867416D01*
X15550752Y-19042523D01*
X15788555Y-19191945D01*
X15788558Y-19191946D01*
X15788559Y-19191947D01*
X16041592Y-19313801D01*
X16162626Y-19356153D01*
X16204857Y-19393893D01*
X16208032Y-19450441D01*
X16170292Y-19492672D01*
X16138185Y-19500000D01*
X-16138185Y-19500000D01*
X-16190511Y-19478326D01*
X-16212185Y-19426000D01*
X-16190511Y-19373674D01*
X-16162626Y-19356153D01*
X-16041592Y-19313801D01*
X-15788559Y-19191947D01*
X-15788558Y-19191946D01*
X-15788555Y-19191945D01*
X-15550752Y-19042523D01*
X-15331175Y-18867416D01*
X-15132584Y-18668825D01*
X-14957477Y-18449248D01*
X-14808055Y-18211445D01*
X-14808054Y-18211444D01*
X-14808052Y-18211440D01*
X-14686198Y-17958407D01*
X-14593442Y-17693325D01*
X-14593437Y-17693309D01*
X-14530945Y-17419513D01*
X-14530945Y-17419512D01*
X-14503052Y-17171950D01*
X-14499500Y-17140425D01*
X-14499500Y-16859575D01*
X-14526248Y-16622174D01*
X-14530945Y-16580487D01*
X-14530945Y-16580486D01*
X-14593437Y-16306690D01*
X-14593442Y-16306674D01*
X-14686198Y-16041592D01*
X-14808052Y-15788559D01*
X-14957477Y-15550751D01*
X-15132583Y-15331175D01*
X-15331175Y-15132583D01*
X-15550751Y-14957477D01*
X-15788559Y-14808052D01*
X-16041592Y-14686198D01*
X-16306674Y-14593442D01*
X-16306690Y-14593437D01*
X-16580486Y-14530945D01*
X-16735537Y-14513475D01*
X-16859575Y-14499500D01*
X-17140425Y-14499500D01*
X-17299901Y-14517468D01*
X-17419512Y-14530945D01*
X-17419513Y-14530945D01*
X-17693309Y-14593437D01*
X-17693325Y-14593442D01*
X-17958407Y-14686198D01*
X-18211440Y-14808052D01*
X-18211444Y-14808054D01*
X-18211445Y-14808055D01*
X-18449248Y-14957477D01*
X-18668825Y-15132584D01*
X-18867416Y-15331175D01*
X-19042523Y-15550752D01*
X-19191945Y-15788555D01*
X-19191946Y-15788558D01*
X-19191947Y-15788559D01*
X-19313801Y-16041592D01*
X-19356153Y-16162626D01*
X-19393893Y-16204857D01*
X-19450441Y-16208032D01*
X-19492672Y-16170292D01*
X-19500000Y-16138185D01*
X-19500000Y5250000D01*
X-18705492Y5250000D01*
X-18685646Y5124696D01*
X-18628050Y5011658D01*
X-18538342Y4921950D01*
X-18425304Y4864354D01*
X-18425302Y4864353D01*
X-18425301Y4864353D01*
X-18300000Y4844508D01*
X-18174698Y4864353D01*
X-18061656Y4921951D01*
X-18002326Y4981282D01*
X-17950000Y5002956D01*
X-17897674Y4981282D01*
X-17838342Y4921950D01*
X-17725304Y4864354D01*
X-17725302Y4864353D01*
X-17725301Y4864353D01*
X-17600000Y4844508D01*
X-17474698Y4864353D01*
X-17361656Y4921951D01*
X-17302326Y4981282D01*
X-17250000Y5002956D01*
X-17197674Y4981282D01*
X-17138342Y4921950D01*
X-17025304Y4864354D01*
X-17025302Y4864353D01*
X-17025301Y4864353D01*
X-16935907Y4850195D01*
X-16900000Y4844508D01*
X-16899999Y4844508D01*
X-16864092Y4850195D01*
X-16809019Y4836973D01*
X-16779427Y4788682D01*
X-16792649Y4733609D01*
X-16800190Y4724781D01*
X-16856142Y4668828D01*
X-16896891Y4648064D01*
X-16975304Y4635646D01*
X-17088342Y4578050D01*
X-17178050Y4488342D01*
X-17235646Y4375304D01*
X-17248064Y4296891D01*
X-17268825Y4256144D01*
X-18034511Y3490460D01*
X-18090460Y3434511D01*
X-18130021Y3365989D01*
X-18132283Y3357545D01*
X-18150499Y3289564D01*
X-18150500Y3289564D01*
X-18150500Y-10839564D01*
X-18135678Y-10894877D01*
X-18130021Y-10915989D01*
X-18104358Y-10960438D01*
X-18090460Y-10984511D01*
X-14584511Y-14490460D01*
X-14515988Y-14530022D01*
X-14439562Y-14550500D01*
X-12496544Y-14550500D01*
X-12444218Y-14572174D01*
X-12438342Y-14578050D01*
X-12325304Y-14635646D01*
X-12200000Y-14655492D01*
X-12074696Y-14635646D01*
X-11961658Y-14578050D01*
X-11871950Y-14488342D01*
X-11814354Y-14375304D01*
X-11814353Y-14375302D01*
X-11814353Y-14375301D01*
X-11794508Y-14250000D01*
X-11814353Y-14124697D01*
X-11817474Y-14118572D01*
X-11822813Y-14108094D01*
X-11827258Y-14051634D01*
X-11790475Y-14008566D01*
X-11756879Y-14000500D01*
X-9746544Y-14000500D01*
X-9694218Y-14022174D01*
X-9688342Y-14028050D01*
X-9575304Y-14085646D01*
X-9450000Y-14105492D01*
X-9324696Y-14085646D01*
X-9211658Y-14028050D01*
X-9121950Y-13938342D01*
X-9064354Y-13825304D01*
X-9064353Y-13825302D01*
X-9064353Y-13825301D01*
X-9044508Y-13700000D01*
X-9064353Y-13574697D01*
X-9067474Y-13568572D01*
X-9072813Y-13558094D01*
X-9077258Y-13501634D01*
X-9040475Y-13458566D01*
X-9006879Y-13450500D01*
X-6992623Y-13450500D01*
X-6940296Y-13472174D01*
X-6068825Y-14343644D01*
X-6048064Y-14384391D01*
X-6035646Y-14462804D01*
X-5978050Y-14575842D01*
X-5888342Y-14665550D01*
X-5847817Y-14686198D01*
X-5839819Y-14690273D01*
X-5821090Y-14703879D01*
X-4040460Y-16484511D01*
X-3984511Y-16540460D01*
X-3915989Y-16580021D01*
X-3839564Y-16600499D01*
X-3839564Y-16600500D01*
X-3839562Y-16600500D01*
X-2645544Y-16600500D01*
X-2593218Y-16622174D01*
X-2571544Y-16674500D01*
X-2593218Y-16726826D01*
X-2628050Y-16761658D01*
X-2685646Y-16874696D01*
X-2685646Y-16874698D01*
X-2696330Y-16942155D01*
X-2725923Y-16990446D01*
X-2757842Y-17003668D01*
X-2825300Y-17014353D01*
X-2825301Y-17014353D01*
X-2825302Y-17014353D01*
X-2825304Y-17014354D01*
X-2938342Y-17071950D01*
X-3028050Y-17161658D01*
X-3085646Y-17274696D01*
X-3105492Y-17400000D01*
X-3085646Y-17525304D01*
X-3028050Y-17638342D01*
X-2938342Y-17728050D01*
X-2825304Y-17785646D01*
X-2700000Y-17805492D01*
X-2574696Y-17785646D01*
X-2461658Y-17728050D01*
X-2433608Y-17700000D01*
X194508Y-17700000D01*
X214353Y-17825301D01*
X214353Y-17825302D01*
X214354Y-17825304D01*
X271950Y-17938342D01*
X361658Y-18028050D01*
X474696Y-18085646D01*
X600000Y-18105492D01*
X725304Y-18085646D01*
X838342Y-18028050D01*
X928050Y-17938342D01*
X985646Y-17825304D01*
X1005492Y-17700000D01*
X985646Y-17574696D01*
X928050Y-17461658D01*
X866392Y-17400000D01*
X5694508Y-17400000D01*
X5714353Y-17525301D01*
X5714353Y-17525302D01*
X5714354Y-17525304D01*
X5771950Y-17638342D01*
X5861658Y-17728050D01*
X5974696Y-17785646D01*
X6100000Y-17805492D01*
X6225304Y-17785646D01*
X6338342Y-17728050D01*
X6428050Y-17638342D01*
X6485646Y-17525304D01*
X6489654Y-17500000D01*
X11594508Y-17500000D01*
X11614353Y-17625301D01*
X11614353Y-17625302D01*
X11614354Y-17625304D01*
X11671950Y-17738342D01*
X11761658Y-17828050D01*
X11874696Y-17885646D01*
X12000000Y-17905492D01*
X12125304Y-17885646D01*
X12238342Y-17828050D01*
X12328050Y-17738342D01*
X12385646Y-17625304D01*
X12405492Y-17500000D01*
X12385646Y-17374696D01*
X12328050Y-17261658D01*
X12238342Y-17171950D01*
X12125304Y-17114354D01*
X12125302Y-17114353D01*
X12125301Y-17114353D01*
X12000000Y-17094508D01*
X11874698Y-17114353D01*
X11761656Y-17171951D01*
X11671951Y-17261656D01*
X11614353Y-17374698D01*
X11594508Y-17500000D01*
X6489654Y-17500000D01*
X6496331Y-17457842D01*
X6525922Y-17409552D01*
X6557842Y-17396330D01*
X6625304Y-17385646D01*
X6738342Y-17328050D01*
X6828050Y-17238342D01*
X6885646Y-17125304D01*
X6905492Y-17000000D01*
X6885646Y-16874696D01*
X6828050Y-16761658D01*
X6738342Y-16671950D01*
X6625304Y-16614354D01*
X6625302Y-16614353D01*
X6625301Y-16614353D01*
X6500000Y-16594508D01*
X6374698Y-16614353D01*
X6261656Y-16671951D01*
X6171951Y-16761656D01*
X6114353Y-16874698D01*
X6114353Y-16874699D01*
X6103668Y-16942156D01*
X6074074Y-16990447D01*
X6042156Y-17003668D01*
X5974699Y-17014353D01*
X5974698Y-17014353D01*
X5861656Y-17071951D01*
X5771951Y-17161656D01*
X5714353Y-17274698D01*
X5694508Y-17400000D01*
X866392Y-17400000D01*
X838342Y-17371950D01*
X725304Y-17314354D01*
X725302Y-17314353D01*
X725301Y-17314353D01*
X600000Y-17294508D01*
X474698Y-17314353D01*
X361656Y-17371951D01*
X271951Y-17461656D01*
X214353Y-17574698D01*
X194508Y-17700000D01*
X-2433608Y-17700000D01*
X-2371950Y-17638342D01*
X-2314354Y-17525304D01*
X-2314353Y-17525302D01*
X-2314353Y-17525301D01*
X-2314353Y-17525300D01*
X-2303668Y-17457842D01*
X-2274074Y-17409551D01*
X-2242156Y-17396330D01*
X-2174696Y-17385646D01*
X-2061658Y-17328050D01*
X-1971950Y-17238342D01*
X-1914354Y-17125304D01*
X-1914353Y-17125302D01*
X-1914353Y-17125301D01*
X-1894508Y-17000000D01*
X-1914353Y-16874698D01*
X-1971951Y-16761656D01*
X-2006782Y-16726826D01*
X-2028456Y-16674500D01*
X-2006782Y-16622174D01*
X-1954456Y-16600500D01*
X4989564Y-16600500D01*
X4989564Y-16600499D01*
X5065989Y-16580021D01*
X5134511Y-16540460D01*
X5190460Y-16484511D01*
X5952797Y-15722174D01*
X6005123Y-15700500D01*
X9568100Y-15700500D01*
X9620426Y-15722174D01*
X9646780Y-15748528D01*
X9766873Y-15809718D01*
X9766873Y-15809719D01*
X9785075Y-15812601D01*
X9900000Y-15830804D01*
X10033126Y-15809719D01*
X10153220Y-15748528D01*
X10248528Y-15653220D01*
X10309719Y-15533126D01*
X10330804Y-15400000D01*
X10309719Y-15266874D01*
X10309719Y-15266873D01*
X10248528Y-15146780D01*
X10153219Y-15051471D01*
X10033126Y-14990281D01*
X10033125Y-14990280D01*
X9921423Y-14972589D01*
X9901971Y-14960669D01*
X9878577Y-14972589D01*
X9766874Y-14990280D01*
X9766873Y-14990281D01*
X9646780Y-15051471D01*
X9646779Y-15051472D01*
X9620426Y-15077826D01*
X9568100Y-15099500D01*
X6214500Y-15099500D01*
X6162174Y-15077826D01*
X6140500Y-15025500D01*
X6140500Y-14500000D01*
X8419196Y-14500000D01*
X8440280Y-14633126D01*
X8501471Y-14753219D01*
X8501472Y-14753220D01*
X8596780Y-14848528D01*
X8716873Y-14909718D01*
X8716873Y-14909719D01*
X8735075Y-14912601D01*
X8850000Y-14930804D01*
X8983126Y-14909719D01*
X9103220Y-14848528D01*
X9104574Y-14847174D01*
X9105759Y-14846682D01*
X9107936Y-14845102D01*
X9108315Y-14845624D01*
X9156900Y-14825500D01*
X9867001Y-14825500D01*
X9896013Y-14837517D01*
X9932999Y-14825500D01*
X11410032Y-14825500D01*
X11462358Y-14847174D01*
X11483121Y-14887923D01*
X11490280Y-14933122D01*
X11490282Y-14933128D01*
X11550580Y-15051471D01*
X11551472Y-15053220D01*
X11646780Y-15148528D01*
X11766873Y-15209718D01*
X11766873Y-15209719D01*
X11785075Y-15212601D01*
X11900000Y-15230804D01*
X12033126Y-15209719D01*
X12153220Y-15148528D01*
X12248528Y-15053220D01*
X12309719Y-14933126D01*
X12330804Y-14800000D01*
X12309719Y-14666874D01*
X12309719Y-14666873D01*
X12248528Y-14546780D01*
X12153219Y-14451471D01*
X12033128Y-14390282D01*
X12033127Y-14390281D01*
X12033126Y-14390281D01*
X12033124Y-14390280D01*
X12033122Y-14390280D01*
X11958825Y-14378512D01*
X11918076Y-14357749D01*
X11897827Y-14337500D01*
X11799862Y-14239535D01*
X11799859Y-14239533D01*
X11799858Y-14239532D01*
X11725643Y-14196684D01*
X11725641Y-14196683D01*
X11725640Y-14196682D01*
X11725639Y-14196682D01*
X11642853Y-14174500D01*
X11642851Y-14174500D01*
X9156900Y-14174500D01*
X9108315Y-14154375D01*
X9107936Y-14154898D01*
X9105759Y-14153317D01*
X9104574Y-14152826D01*
X9103219Y-14151471D01*
X8983126Y-14090281D01*
X8983126Y-14090280D01*
X8850000Y-14069196D01*
X8716873Y-14090280D01*
X8716873Y-14090281D01*
X8596780Y-14151471D01*
X8501471Y-14246780D01*
X8440281Y-14366873D01*
X8440280Y-14366873D01*
X8419196Y-14500000D01*
X6140500Y-14500000D01*
X6140500Y-13831900D01*
X6162174Y-13779574D01*
X6188528Y-13753220D01*
X6249719Y-13633126D01*
X6270804Y-13500000D01*
X6249719Y-13366874D01*
X6249719Y-13366873D01*
X6188528Y-13246780D01*
X6093219Y-13151471D01*
X5973126Y-13090281D01*
X5973126Y-13090280D01*
X5840000Y-13069196D01*
X5706873Y-13090280D01*
X5706873Y-13090281D01*
X5586780Y-13151471D01*
X5491471Y-13246780D01*
X5430281Y-13366873D01*
X5430280Y-13366873D01*
X5409196Y-13500000D01*
X5430280Y-13633126D01*
X5491471Y-13753219D01*
X5517826Y-13779574D01*
X5539500Y-13831900D01*
X5539500Y-15254877D01*
X5517826Y-15307203D01*
X4847203Y-15977826D01*
X4794877Y-15999500D01*
X-3644877Y-15999500D01*
X-3697203Y-15977826D01*
X-5230564Y-14444463D01*
X-5252238Y-14392137D01*
X-5251327Y-14380563D01*
X-5244508Y-14337502D01*
X-5244508Y-14337500D01*
X-5264353Y-14212198D01*
X-5321951Y-14099156D01*
X-5411656Y-14009451D01*
X-5524698Y-13951853D01*
X-5603107Y-13939434D01*
X-5643856Y-13918671D01*
X-6652988Y-12909540D01*
X-6694375Y-12885646D01*
X-6721509Y-12869979D01*
X-6721514Y-12869977D01*
X-6797936Y-12849500D01*
X-6797938Y-12849500D01*
X-13235054Y-12849500D01*
X-13287380Y-12827826D01*
X-13309054Y-12775500D01*
X-13300988Y-12741905D01*
X-13264354Y-12670007D01*
X-13264353Y-12670007D01*
X-13244508Y-12544703D01*
X-13264353Y-12419401D01*
X-13321951Y-12306359D01*
X-13411656Y-12216654D01*
X-13524698Y-12159056D01*
X-13650000Y-12139211D01*
X-13775301Y-12159056D01*
X-13775302Y-12159056D01*
X-13775304Y-12159057D01*
X-13888342Y-12216653D01*
X-13978050Y-12306361D01*
X-14035646Y-12419399D01*
X-14055492Y-12544703D01*
X-14048808Y-12586903D01*
X-14062030Y-12641975D01*
X-14110321Y-12671568D01*
X-14165393Y-12658346D01*
X-14174223Y-12650805D01*
X-14750325Y-12074703D01*
X-11205492Y-12074703D01*
X-11185646Y-12200007D01*
X-11128050Y-12313045D01*
X-11038342Y-12402753D01*
X-10925304Y-12460349D01*
X-10800000Y-12480195D01*
X-10674696Y-12460349D01*
X-10561658Y-12402753D01*
X-10471950Y-12313045D01*
X-10414354Y-12200007D01*
X-10414353Y-12200005D01*
X-10414353Y-12200004D01*
X-10405595Y-12144703D01*
X-8405492Y-12144703D01*
X-8385646Y-12270007D01*
X-8328050Y-12383045D01*
X-8238342Y-12472753D01*
X-8125304Y-12530349D01*
X-8000000Y-12550195D01*
X-7874696Y-12530349D01*
X-7761658Y-12472753D01*
X-7671950Y-12383045D01*
X-7614354Y-12270007D01*
X-7614353Y-12270005D01*
X-7614353Y-12270004D01*
X-7594508Y-12144703D01*
X-7614353Y-12019401D01*
X-7671951Y-11906359D01*
X-7761656Y-11816654D01*
X-7874698Y-11759056D01*
X-8000000Y-11739211D01*
X-8125301Y-11759056D01*
X-8125302Y-11759056D01*
X-8125304Y-11759057D01*
X-8238342Y-11816653D01*
X-8328050Y-11906361D01*
X-8385646Y-12019399D01*
X-8405492Y-12144703D01*
X-10405595Y-12144703D01*
X-10394508Y-12074703D01*
X-10414353Y-11949401D01*
X-10471951Y-11836359D01*
X-10561656Y-11746654D01*
X-10674698Y-11689056D01*
X-10800000Y-11669211D01*
X-10925301Y-11689056D01*
X-10925302Y-11689056D01*
X-10925304Y-11689057D01*
X-11038342Y-11746653D01*
X-11128050Y-11836361D01*
X-11185646Y-11949399D01*
X-11205492Y-12074703D01*
X-14750325Y-12074703D01*
X-15877826Y-10947203D01*
X-15899500Y-10894877D01*
X-15899500Y-7510084D01*
X-15877826Y-7457758D01*
X-15825500Y-7436084D01*
X-15773174Y-7457758D01*
X-15759567Y-7476485D01*
X-15728050Y-7538342D01*
X-15638342Y-7628050D01*
X-15525304Y-7685646D01*
X-15400000Y-7705492D01*
X-15274696Y-7685646D01*
X-15161658Y-7628050D01*
X-15071950Y-7538342D01*
X-15014354Y-7425304D01*
X-15014353Y-7425302D01*
X-15014353Y-7425301D01*
X-14994508Y-7300000D01*
X-15014353Y-7174698D01*
X-15071951Y-7061656D01*
X-15077826Y-7055782D01*
X-15099500Y-7003456D01*
X-15099500Y-6555123D01*
X-15077826Y-6502797D01*
X-14726826Y-6151797D01*
X-14674500Y-6130123D01*
X-14622174Y-6151797D01*
X-14600500Y-6204123D01*
X-14600500Y-7503456D01*
X-14622174Y-7555782D01*
X-14628050Y-7561658D01*
X-14685646Y-7674696D01*
X-14705492Y-7800000D01*
X-14685646Y-7925304D01*
X-14628050Y-8038342D01*
X-14538342Y-8128050D01*
X-14425304Y-8185646D01*
X-14340251Y-8199116D01*
X-14291961Y-8228708D01*
X-14278739Y-8283780D01*
X-14299502Y-8324531D01*
X-14306142Y-8331171D01*
X-14346891Y-8351934D01*
X-14425300Y-8364353D01*
X-14425301Y-8364353D01*
X-14425302Y-8364353D01*
X-14425304Y-8364354D01*
X-14538342Y-8421950D01*
X-14628050Y-8511658D01*
X-14685646Y-8624696D01*
X-14705492Y-8750000D01*
X-14685646Y-8875304D01*
X-14628050Y-8988342D01*
X-14538342Y-9078050D01*
X-14425304Y-9135646D01*
X-14300000Y-9155492D01*
X-14174696Y-9135646D01*
X-14061658Y-9078050D01*
X-13971950Y-8988342D01*
X-13914354Y-8875304D01*
X-13914353Y-8875302D01*
X-13914353Y-8875301D01*
X-13914353Y-8875300D01*
X-13901934Y-8796891D01*
X-13881171Y-8756142D01*
X-13676826Y-8551797D01*
X-13624500Y-8530123D01*
X-13572174Y-8551797D01*
X-13550500Y-8604123D01*
X-13550500Y-9144877D01*
X-13572174Y-9197203D01*
X-14306142Y-9931171D01*
X-14346891Y-9951934D01*
X-14425300Y-9964353D01*
X-14425301Y-9964353D01*
X-14425302Y-9964353D01*
X-14425304Y-9964354D01*
X-14538342Y-10021950D01*
X-14628050Y-10111658D01*
X-14685646Y-10224696D01*
X-14705492Y-10350000D01*
X-14685646Y-10475304D01*
X-14628050Y-10588342D01*
X-14538342Y-10678050D01*
X-14425304Y-10735646D01*
X-14300000Y-10755492D01*
X-14174696Y-10735646D01*
X-14061658Y-10678050D01*
X-13971950Y-10588342D01*
X-13914354Y-10475304D01*
X-13914353Y-10475302D01*
X-13914353Y-10475301D01*
X-13914353Y-10475300D01*
X-13901934Y-10396891D01*
X-13881171Y-10356142D01*
X-13775029Y-10250000D01*
X-12685492Y-10250000D01*
X-12665646Y-10375304D01*
X-12608050Y-10488342D01*
X-12518342Y-10578050D01*
X-12405304Y-10635646D01*
X-12280000Y-10655492D01*
X-12154696Y-10635646D01*
X-12041658Y-10578050D01*
X-11951950Y-10488342D01*
X-11894354Y-10375304D01*
X-11894353Y-10375302D01*
X-11894353Y-10375301D01*
X-11874508Y-10250000D01*
X-11894353Y-10124698D01*
X-11951951Y-10011656D01*
X-12041656Y-9921951D01*
X-12154698Y-9864353D01*
X-12280000Y-9844508D01*
X-12405301Y-9864353D01*
X-12405302Y-9864353D01*
X-12405304Y-9864354D01*
X-12518342Y-9921950D01*
X-12608050Y-10011658D01*
X-12665646Y-10124696D01*
X-12685492Y-10250000D01*
X-13775029Y-10250000D01*
X-13009540Y-9484511D01*
X-12986804Y-9445131D01*
X-12986803Y-9445131D01*
X-12969978Y-9415988D01*
X-12949500Y-9339564D01*
X-12949500Y-9200000D01*
X-9355492Y-9200000D01*
X-9335646Y-9325304D01*
X-9278050Y-9438342D01*
X-9188342Y-9528050D01*
X-9075304Y-9585646D01*
X-8950000Y-9605492D01*
X-8824696Y-9585646D01*
X-8711658Y-9528050D01*
X-8621950Y-9438342D01*
X-8564354Y-9325304D01*
X-8564353Y-9325302D01*
X-8564353Y-9325301D01*
X-8544508Y-9200000D01*
X-8564353Y-9074698D01*
X-8621951Y-8961656D01*
X-8711656Y-8871951D01*
X-8824698Y-8814353D01*
X-8950000Y-8794508D01*
X-9075301Y-8814353D01*
X-9075302Y-8814353D01*
X-9075304Y-8814354D01*
X-9188342Y-8871950D01*
X-9278050Y-8961658D01*
X-9335646Y-9074696D01*
X-9355492Y-9200000D01*
X-12949500Y-9200000D01*
X-12949500Y-6705123D01*
X-12927826Y-6652797D01*
X-12747203Y-6472174D01*
X-12694877Y-6450500D01*
X-11245248Y-6450500D01*
X-11192922Y-6472174D01*
X-11171248Y-6524500D01*
X-11176881Y-6552818D01*
X-11235043Y-6693235D01*
X-11235044Y-6693238D01*
X-11250500Y-6810639D01*
X-11250499Y-7689360D01*
X-11235044Y-7806762D01*
X-11174536Y-7952841D01*
X-11078282Y-8078282D01*
X-10952841Y-8174536D01*
X-10806762Y-8235044D01*
X-10689361Y-8250500D01*
X-9810640Y-8250499D01*
X-9693238Y-8235044D01*
X-9547159Y-8174536D01*
X-9468728Y-8114354D01*
X-9421720Y-8078284D01*
X-9421715Y-8078279D01*
X-9325464Y-7952841D01*
X-9264955Y-7806761D01*
X-9249500Y-7689359D01*
X-9249500Y-6810640D01*
X-9264955Y-6693240D01*
X-9264956Y-6693236D01*
X-9323119Y-6552818D01*
X-9323119Y-6496181D01*
X-9283070Y-6456133D01*
X-9254752Y-6450500D01*
X-9076886Y-6450500D01*
X-9024560Y-6472174D01*
X-9003639Y-6513969D01*
X-8998867Y-6547158D01*
X-8985165Y-6642457D01*
X-8925377Y-6773373D01*
X-8831128Y-6882143D01*
X-8744606Y-6937747D01*
X-8712304Y-6984270D01*
X-8722360Y-7040007D01*
X-8744605Y-7062252D01*
X-8831128Y-7117857D01*
X-8831129Y-7117859D01*
X-8831131Y-7117860D01*
X-8853340Y-7143491D01*
X-8925377Y-7226627D01*
X-8985165Y-7357543D01*
X-9005647Y-7500000D01*
X-8985165Y-7642457D01*
X-8925377Y-7773373D01*
X-8831128Y-7882143D01*
X-8710053Y-7959953D01*
X-8571964Y-8000499D01*
X-8571963Y-8000500D01*
X-8571961Y-8000500D01*
X-8428037Y-8000500D01*
X-8428035Y-8000499D01*
X-8380676Y-7986593D01*
X-8289947Y-7959953D01*
X-8289943Y-7959951D01*
X-8236032Y-7925304D01*
X-8168872Y-7882143D01*
X-8168869Y-7882140D01*
X-8168868Y-7882139D01*
X-8132932Y-7840666D01*
X-8074623Y-7773373D01*
X-8067312Y-7757365D01*
X-8025861Y-7718772D01*
X-7969260Y-7720793D01*
X-7932687Y-7757365D01*
X-7925377Y-7773373D01*
X-7831128Y-7882143D01*
X-7710053Y-7959953D01*
X-7642626Y-7979750D01*
X-7598529Y-8015287D01*
X-7592474Y-8071600D01*
X-7628012Y-8115700D01*
X-7629882Y-8116686D01*
X-7738340Y-8171948D01*
X-7738342Y-8171950D01*
X-7828050Y-8261658D01*
X-7885646Y-8374696D01*
X-7905492Y-8500000D01*
X-7885646Y-8625304D01*
X-7828050Y-8738342D01*
X-7738342Y-8828050D01*
X-7625304Y-8885646D01*
X-7583416Y-8892280D01*
X-7535125Y-8921872D01*
X-7521903Y-8976944D01*
X-7542666Y-9017695D01*
X-9202797Y-10677826D01*
X-9255123Y-10699500D01*
X-11689564Y-10699500D01*
X-11765988Y-10719978D01*
X-11827495Y-10755488D01*
X-11827495Y-10755489D01*
X-11827500Y-10755492D01*
X-11834511Y-10759540D01*
X-11834512Y-10759541D01*
X-12206142Y-11131171D01*
X-12246891Y-11151934D01*
X-12325300Y-11164353D01*
X-12325301Y-11164353D01*
X-12325302Y-11164353D01*
X-12325304Y-11164354D01*
X-12438342Y-11221950D01*
X-12528050Y-11311658D01*
X-12585646Y-11424696D01*
X-12605492Y-11550000D01*
X-12585646Y-11675304D01*
X-12528050Y-11788342D01*
X-12438342Y-11878050D01*
X-12325304Y-11935646D01*
X-12200000Y-11955492D01*
X-12074696Y-11935646D01*
X-11961658Y-11878050D01*
X-11871950Y-11788342D01*
X-11814354Y-11675304D01*
X-11814353Y-11675302D01*
X-11814353Y-11675301D01*
X-11814353Y-11675300D01*
X-11801934Y-11596891D01*
X-11781171Y-11556142D01*
X-11547203Y-11322174D01*
X-11494877Y-11300500D01*
X-9843121Y-11300500D01*
X-9790795Y-11322174D01*
X-9769121Y-11374500D01*
X-9777186Y-11408092D01*
X-9785646Y-11424696D01*
X-9805492Y-11550000D01*
X-9785646Y-11675304D01*
X-9728050Y-11788342D01*
X-9638342Y-11878050D01*
X-9525304Y-11935646D01*
X-9400000Y-11955492D01*
X-9274696Y-11935646D01*
X-9161658Y-11878050D01*
X-9155782Y-11872174D01*
X-9103456Y-11850500D01*
X-8610436Y-11850500D01*
X-8610435Y-11850499D01*
X-8572224Y-11840260D01*
X-8534014Y-11830022D01*
X-8534012Y-11830021D01*
X-8534011Y-11830021D01*
X-8465489Y-11790460D01*
X-8409540Y-11734511D01*
X-8399029Y-11724000D01*
X-3755500Y-11724000D01*
X-3755500Y-12676000D01*
X-3739857Y-12754641D01*
X-3718183Y-12806967D01*
X-3681555Y-12865261D01*
X-3606967Y-12918183D01*
X-3554641Y-12939857D01*
X-3476000Y-12955500D01*
X-3475998Y-12955500D01*
X-2474002Y-12955500D01*
X-2474000Y-12955500D01*
X-2395359Y-12939857D01*
X-2395354Y-12939855D01*
X-2343037Y-12918185D01*
X-2343035Y-12918183D01*
X-2343033Y-12918183D01*
X-2284739Y-12881555D01*
X-2231817Y-12806967D01*
X-2231816Y-12806966D01*
X-2210144Y-12754645D01*
X-2210141Y-12754635D01*
X-2194500Y-12675998D01*
X-2194500Y-11724001D01*
X-2210141Y-11645364D01*
X-2210144Y-11645354D01*
X-2231814Y-11593037D01*
X-2268445Y-11534739D01*
X-2268447Y-11534737D01*
X-2343033Y-11481816D01*
X-2395354Y-11460144D01*
X-2395364Y-11460141D01*
X-2451707Y-11448934D01*
X-2474000Y-11444500D01*
X-3476000Y-11444500D01*
X-3501974Y-11449666D01*
X-3554635Y-11460141D01*
X-3554645Y-11460144D01*
X-3606962Y-11481814D01*
X-3606966Y-11481816D01*
X-3606967Y-11481817D01*
X-3665261Y-11518445D01*
X-3718183Y-11593033D01*
X-3739857Y-11645359D01*
X-3755500Y-11724000D01*
X-8399029Y-11724000D01*
X-7035029Y-10360000D01*
X-1905492Y-10360000D01*
X-1885646Y-10485304D01*
X-1828050Y-10598342D01*
X-1738342Y-10688050D01*
X-1625304Y-10745646D01*
X-1500000Y-10765492D01*
X-1374696Y-10745646D01*
X-1261658Y-10688050D01*
X-1171950Y-10598342D01*
X-1114354Y-10485304D01*
X-1114353Y-10485302D01*
X-1114353Y-10485301D01*
X-1094508Y-10360000D01*
X-1114353Y-10234698D01*
X-1171951Y-10121656D01*
X-1261656Y-10031951D01*
X-1374698Y-9974353D01*
X-1500000Y-9954508D01*
X-1625301Y-9974353D01*
X-1625302Y-9974353D01*
X-1625304Y-9974354D01*
X-1738342Y-10031950D01*
X-1828050Y-10121658D01*
X-1885646Y-10234696D01*
X-1905492Y-10360000D01*
X-7035029Y-10360000D01*
X-5859540Y-9184511D01*
X-5859538Y-9184508D01*
X-5859537Y-9184507D01*
X-5819980Y-9115992D01*
X-5819979Y-9115990D01*
X-5819978Y-9115988D01*
X-5799500Y-9039562D01*
X-5799500Y-8960438D01*
X-5799500Y-8032540D01*
X-5777826Y-7980214D01*
X-5725500Y-7958540D01*
X-5704658Y-7961536D01*
X-5598913Y-7992586D01*
X-5571962Y-8000500D01*
X-5571961Y-8000500D01*
X-5428037Y-8000500D01*
X-5428035Y-8000499D01*
X-5380676Y-7986593D01*
X-5289947Y-7959953D01*
X-5289943Y-7959951D01*
X-5236032Y-7925304D01*
X-5168872Y-7882143D01*
X-5168869Y-7882140D01*
X-5168868Y-7882139D01*
X-5132932Y-7840666D01*
X-5074623Y-7773373D01*
X-5067312Y-7757365D01*
X-5025861Y-7718772D01*
X-4969260Y-7720793D01*
X-4932687Y-7757365D01*
X-4925377Y-7773373D01*
X-4831128Y-7882143D01*
X-4710053Y-7959953D01*
X-4571964Y-8000499D01*
X-4571963Y-8000500D01*
X-4571961Y-8000500D01*
X-4428037Y-8000500D01*
X-4428035Y-8000499D01*
X-4380676Y-7986593D01*
X-4289947Y-7959953D01*
X-4289943Y-7959951D01*
X-4236032Y-7925304D01*
X-4168872Y-7882143D01*
X-4168869Y-7882140D01*
X-4168868Y-7882139D01*
X-4132932Y-7840666D01*
X-4074623Y-7773373D01*
X-4067312Y-7757365D01*
X-4025861Y-7718772D01*
X-3969260Y-7720793D01*
X-3932687Y-7757365D01*
X-3925377Y-7773373D01*
X-3847781Y-7862924D01*
X-3831131Y-7882140D01*
X-3827131Y-7885606D01*
X-3829053Y-7887825D01*
X-3802197Y-7926476D01*
X-3800500Y-7942233D01*
X-3800500Y-8168327D01*
X-3808565Y-8201921D01*
X-3845646Y-8274696D01*
X-3865492Y-8400000D01*
X-3845646Y-8525304D01*
X-3788050Y-8638342D01*
X-3698342Y-8728050D01*
X-3585304Y-8785646D01*
X-3460000Y-8805492D01*
X-3424090Y-8799804D01*
X-3369021Y-8813025D01*
X-3339427Y-8861316D01*
X-3352648Y-8916388D01*
X-3360190Y-8925219D01*
X-3466142Y-9031171D01*
X-3506891Y-9051934D01*
X-3585300Y-9064353D01*
X-3585301Y-9064353D01*
X-3585302Y-9064353D01*
X-3585304Y-9064354D01*
X-3698342Y-9121950D01*
X-3788050Y-9211658D01*
X-3845646Y-9324696D01*
X-3865492Y-9450000D01*
X-3845646Y-9575304D01*
X-3788050Y-9688342D01*
X-3698342Y-9778050D01*
X-3585304Y-9835646D01*
X-3460000Y-9855492D01*
X-3334696Y-9835646D01*
X-3221658Y-9778050D01*
X-3131950Y-9688342D01*
X-3074354Y-9575304D01*
X-3074353Y-9575302D01*
X-3074353Y-9575301D01*
X-3074353Y-9575300D01*
X-3061934Y-9496891D01*
X-3041171Y-9456142D01*
X-2981818Y-9396789D01*
X-2929492Y-9375115D01*
X-2877166Y-9396789D01*
X-2857439Y-9444412D01*
X-2856403Y-9444248D01*
X-2855718Y-9448567D01*
X-2855492Y-9449115D01*
X-2855492Y-9449999D01*
X-2855492Y-9450000D01*
X-2835646Y-9575304D01*
X-2778050Y-9688342D01*
X-2688342Y-9778050D01*
X-2575304Y-9835646D01*
X-2450000Y-9855492D01*
X-2324696Y-9835646D01*
X-2211658Y-9778050D01*
X-2121950Y-9688342D01*
X-2064354Y-9575304D01*
X-2064353Y-9575302D01*
X-2064353Y-9575301D01*
X-2044508Y-9450000D01*
X-2056545Y-9374001D01*
X394500Y-9374001D01*
X394500Y-10425998D01*
X410141Y-10504635D01*
X410144Y-10504645D01*
X431814Y-10556962D01*
X431816Y-10556966D01*
X431817Y-10556967D01*
X468445Y-10615261D01*
X543033Y-10668183D01*
X595359Y-10689857D01*
X674000Y-10705500D01*
X674002Y-10705500D01*
X2375998Y-10705500D01*
X2376000Y-10705500D01*
X2454641Y-10689857D01*
X2506967Y-10668183D01*
X2565261Y-10631555D01*
X2618183Y-10556967D01*
X2639857Y-10504641D01*
X2655500Y-10426000D01*
X2655500Y-10080000D01*
X9594508Y-10080000D01*
X9614353Y-10205301D01*
X9614353Y-10205302D01*
X9614354Y-10205304D01*
X9671950Y-10318342D01*
X9761658Y-10408050D01*
X9874696Y-10465646D01*
X10000000Y-10485492D01*
X10125304Y-10465646D01*
X10238342Y-10408050D01*
X10328050Y-10318342D01*
X10385646Y-10205304D01*
X10397411Y-10131020D01*
X10427004Y-10082730D01*
X10439582Y-10079710D01*
X10498725Y-10079710D01*
X10530367Y-10099101D01*
X10544500Y-10142597D01*
X10544500Y-11175998D01*
X10560141Y-11254635D01*
X10560144Y-11254645D01*
X10581814Y-11306962D01*
X10581816Y-11306966D01*
X10581817Y-11306967D01*
X10618445Y-11365261D01*
X10693033Y-11418183D01*
X10745359Y-11439857D01*
X10824000Y-11455500D01*
X10824002Y-11455500D01*
X11925998Y-11455500D01*
X11926000Y-11455500D01*
X12004641Y-11439857D01*
X12056967Y-11418183D01*
X12115261Y-11381555D01*
X12168183Y-11306967D01*
X12189857Y-11254641D01*
X12205500Y-11176000D01*
X12205500Y-9674000D01*
X12189857Y-9595359D01*
X12181549Y-9575301D01*
X12168185Y-9543037D01*
X12168183Y-9543035D01*
X12168183Y-9543033D01*
X12131555Y-9484739D01*
X12081347Y-9449115D01*
X12056966Y-9431816D01*
X12004645Y-9410144D01*
X12004635Y-9410141D01*
X11951974Y-9399666D01*
X11926000Y-9394500D01*
X10824000Y-9394500D01*
X10801707Y-9398934D01*
X10745364Y-9410141D01*
X10745354Y-9410144D01*
X10693037Y-9431814D01*
X10634739Y-9468445D01*
X10634737Y-9468447D01*
X10581816Y-9543033D01*
X10560144Y-9595354D01*
X10560141Y-9595364D01*
X10544500Y-9674001D01*
X10544500Y-10017402D01*
X10522826Y-10069728D01*
X10498725Y-10079710D01*
X10439582Y-10079710D01*
X10441285Y-10079301D01*
X10418174Y-10069728D01*
X10397411Y-10028978D01*
X10388759Y-9974353D01*
X10385646Y-9954696D01*
X10328050Y-9841658D01*
X10238342Y-9751950D01*
X10125304Y-9694354D01*
X10125302Y-9694353D01*
X10125301Y-9694353D01*
X10000000Y-9674508D01*
X9874698Y-9694353D01*
X9761656Y-9751951D01*
X9671951Y-9841656D01*
X9614353Y-9954698D01*
X9594508Y-10080000D01*
X2655500Y-10080000D01*
X2655500Y-9374000D01*
X2639857Y-9295359D01*
X2618183Y-9243033D01*
X2581555Y-9184739D01*
X2550782Y-9162905D01*
X2506966Y-9131816D01*
X2454645Y-9110144D01*
X2454635Y-9110141D01*
X2401974Y-9099666D01*
X2376000Y-9094500D01*
X674000Y-9094500D01*
X651707Y-9098934D01*
X595364Y-9110141D01*
X595354Y-9110144D01*
X543037Y-9131814D01*
X484739Y-9168445D01*
X484737Y-9168447D01*
X431816Y-9243033D01*
X410144Y-9295354D01*
X410141Y-9295364D01*
X394500Y-9374001D01*
X-2056545Y-9374001D01*
X-2064353Y-9324698D01*
X-2121951Y-9211656D01*
X-2211656Y-9121951D01*
X-2324698Y-9064353D01*
X-2450000Y-9044508D01*
X-2575303Y-9064353D01*
X-2591906Y-9072813D01*
X-2648369Y-9077256D01*
X-2691435Y-9040472D01*
X-2699500Y-9006878D01*
X-2699500Y-8893121D01*
X-2677826Y-8840795D01*
X-2625500Y-8819121D01*
X-2591907Y-8827186D01*
X-2575304Y-8835646D01*
X-2450000Y-8855492D01*
X-2324696Y-8835646D01*
X-2211658Y-8778050D01*
X-2121950Y-8688342D01*
X-2064354Y-8575304D01*
X-2064353Y-8575302D01*
X-2064353Y-8575301D01*
X-2048880Y-8477608D01*
X-2036759Y-8457829D01*
X-2047297Y-8432390D01*
X-2064353Y-8324698D01*
X-2121951Y-8211656D01*
X-2211657Y-8121950D01*
X-2281094Y-8086570D01*
X-2317876Y-8043503D01*
X-2313432Y-7987040D01*
X-2287506Y-7958384D01*
X-2168872Y-7882143D01*
X-2168869Y-7882140D01*
X-2168868Y-7882139D01*
X-2132932Y-7840666D01*
X-2074623Y-7773373D01*
X-2067312Y-7757365D01*
X-2025861Y-7718772D01*
X-1969260Y-7720793D01*
X-1932687Y-7757365D01*
X-1925377Y-7773373D01*
X-1847781Y-7862924D01*
X-1831131Y-7882140D01*
X-1827131Y-7885606D01*
X-1829053Y-7887825D01*
X-1802197Y-7926476D01*
X-1800500Y-7942233D01*
X-1800500Y-8163456D01*
X-1822174Y-8215782D01*
X-1828050Y-8221658D01*
X-1885646Y-8334696D01*
X-1899466Y-8421951D01*
X-1901119Y-8432390D01*
X-1913239Y-8452168D01*
X-1902703Y-8477606D01*
X-1885646Y-8585304D01*
X-1828050Y-8698342D01*
X-1738342Y-8788050D01*
X-1625304Y-8845646D01*
X-1500000Y-8865492D01*
X-1374696Y-8845646D01*
X-1261658Y-8788050D01*
X-1171950Y-8698342D01*
X-1114354Y-8585304D01*
X-1114353Y-8585302D01*
X-1114353Y-8585301D01*
X-1094508Y-8460000D01*
X-1114353Y-8334698D01*
X-1171951Y-8221656D01*
X-1177826Y-8215782D01*
X-1199500Y-8163456D01*
X-1199500Y-7942233D01*
X-1177826Y-7889907D01*
X-1172711Y-7885787D01*
X-1172869Y-7885606D01*
X-1168868Y-7882140D01*
X-1110645Y-7814945D01*
X-1074623Y-7773373D01*
X-1067312Y-7757365D01*
X-1025861Y-7718772D01*
X-969260Y-7720793D01*
X-932687Y-7757365D01*
X-925377Y-7773373D01*
X-831128Y-7882143D01*
X-710053Y-7959953D01*
X-635660Y-7981795D01*
X-629006Y-7984442D01*
X-625311Y-7985642D01*
X-625304Y-7985646D01*
X-624020Y-7985849D01*
X-614771Y-7987929D01*
X-571961Y-8000500D01*
X-537343Y-8000500D01*
X-525767Y-8001410D01*
X-500000Y-8005492D01*
X-474232Y-8001410D01*
X-462657Y-8000500D01*
X-428037Y-8000500D01*
X-385242Y-7987934D01*
X-375959Y-7985846D01*
X-374696Y-7985646D01*
X-374694Y-7985645D01*
X-371004Y-7984446D01*
X-364341Y-7981796D01*
X-289947Y-7959953D01*
X-168872Y-7882143D01*
X-168869Y-7882140D01*
X-168868Y-7882139D01*
X-132932Y-7840666D01*
X-74623Y-7773373D01*
X-67312Y-7757365D01*
X-25861Y-7718772D01*
X30740Y-7720793D01*
X67312Y-7757365D01*
X74623Y-7773373D01*
X132932Y-7840666D01*
X168868Y-7882139D01*
X168869Y-7882140D01*
X168872Y-7882143D01*
X236032Y-7925304D01*
X289943Y-7959951D01*
X289947Y-7959953D01*
X380676Y-7986593D01*
X428035Y-8000499D01*
X428037Y-8000500D01*
X428039Y-8000500D01*
X571963Y-8000500D01*
X571964Y-8000499D01*
X710053Y-7959953D01*
X831128Y-7882143D01*
X925377Y-7773373D01*
X985165Y-7642457D01*
X1005647Y-7500000D01*
X985165Y-7357543D01*
X925377Y-7226627D01*
X853340Y-7143491D01*
X831131Y-7117860D01*
X831129Y-7117859D01*
X831128Y-7117857D01*
X744605Y-7062252D01*
X712304Y-7015730D01*
X722360Y-6959993D01*
X744606Y-6937747D01*
X831128Y-6882143D01*
X925377Y-6773373D01*
X985165Y-6642457D01*
X1005647Y-6500000D01*
X1994353Y-6500000D01*
X2014834Y-6642454D01*
X2014834Y-6642455D01*
X2014835Y-6642457D01*
X2038025Y-6693235D01*
X2074623Y-6773373D01*
X2168868Y-6882139D01*
X2168869Y-6882140D01*
X2168872Y-6882143D01*
X2255394Y-6937747D01*
X2287695Y-6984270D01*
X2277639Y-7040008D01*
X2255394Y-7062252D01*
X2212351Y-7089915D01*
X2168872Y-7117857D01*
X2168868Y-7117860D01*
X2074623Y-7226626D01*
X2014834Y-7357545D01*
X1994353Y-7500000D01*
X2014834Y-7642454D01*
X2014834Y-7642455D01*
X2014835Y-7642457D01*
X2049687Y-7718772D01*
X2074623Y-7773373D01*
X2168868Y-7882139D01*
X2168869Y-7882140D01*
X2168872Y-7882143D01*
X2236032Y-7925304D01*
X2289943Y-7959951D01*
X2289947Y-7959953D01*
X2380676Y-7986593D01*
X2428035Y-8000499D01*
X2428037Y-8000500D01*
X2428039Y-8000500D01*
X2571963Y-8000500D01*
X2571964Y-8000499D01*
X2710053Y-7959953D01*
X2831128Y-7882143D01*
X2925377Y-7773373D01*
X2985165Y-7642457D01*
X3005647Y-7500000D01*
X2985165Y-7357543D01*
X2925377Y-7226627D01*
X2853340Y-7143491D01*
X2831131Y-7117860D01*
X2831129Y-7117859D01*
X2831128Y-7117857D01*
X2744605Y-7062252D01*
X2712304Y-7015730D01*
X2722360Y-6959993D01*
X2744606Y-6937747D01*
X2831128Y-6882143D01*
X2925377Y-6773373D01*
X2985165Y-6642457D01*
X3005647Y-6500000D01*
X3994353Y-6500000D01*
X4014834Y-6642454D01*
X4014834Y-6642455D01*
X4014835Y-6642457D01*
X4038025Y-6693235D01*
X4074623Y-6773373D01*
X4168868Y-6882139D01*
X4168869Y-6882140D01*
X4168872Y-6882143D01*
X4255394Y-6937747D01*
X4287695Y-6984270D01*
X4277639Y-7040008D01*
X4255394Y-7062252D01*
X4212351Y-7089915D01*
X4168872Y-7117857D01*
X4168868Y-7117860D01*
X4074623Y-7226626D01*
X4014834Y-7357545D01*
X3994353Y-7500000D01*
X4014834Y-7642454D01*
X4014834Y-7642455D01*
X4014835Y-7642457D01*
X4049687Y-7718772D01*
X4074623Y-7773373D01*
X4168868Y-7882139D01*
X4168869Y-7882140D01*
X4168872Y-7882143D01*
X4236032Y-7925304D01*
X4289943Y-7959951D01*
X4289947Y-7959953D01*
X4380676Y-7986593D01*
X4428035Y-8000499D01*
X4428037Y-8000500D01*
X4428039Y-8000500D01*
X4571963Y-8000500D01*
X4571964Y-8000499D01*
X4710053Y-7959953D01*
X4831128Y-7882143D01*
X4925377Y-7773373D01*
X4932687Y-7757365D01*
X4974139Y-7718772D01*
X5030740Y-7720793D01*
X5067312Y-7757365D01*
X5074623Y-7773373D01*
X5132932Y-7840666D01*
X5168868Y-7882139D01*
X5168869Y-7882140D01*
X5168872Y-7882143D01*
X5289947Y-7959953D01*
X5364341Y-7981796D01*
X5371004Y-7984446D01*
X5374694Y-7985645D01*
X5374696Y-7985646D01*
X5375959Y-7985846D01*
X5385242Y-7987934D01*
X5428037Y-8000500D01*
X5428039Y-8000500D01*
X5462657Y-8000500D01*
X5474232Y-8001410D01*
X5500000Y-8005492D01*
X5525767Y-8001410D01*
X5537343Y-8000500D01*
X5571961Y-8000500D01*
X5614771Y-7987929D01*
X5624020Y-7985849D01*
X5625304Y-7985646D01*
X5625311Y-7985642D01*
X5629006Y-7984442D01*
X5635660Y-7981795D01*
X5710053Y-7959953D01*
X5831128Y-7882143D01*
X5925377Y-7773373D01*
X5932687Y-7757365D01*
X5974139Y-7718772D01*
X6030740Y-7720793D01*
X6067312Y-7757365D01*
X6074623Y-7773373D01*
X6132932Y-7840666D01*
X6168868Y-7882139D01*
X6168869Y-7882140D01*
X6168872Y-7882143D01*
X6236032Y-7925304D01*
X6289943Y-7959951D01*
X6289947Y-7959953D01*
X6380676Y-7986593D01*
X6428035Y-8000499D01*
X6428037Y-8000500D01*
X6428039Y-8000500D01*
X6571963Y-8000500D01*
X6571964Y-8000499D01*
X6710053Y-7959953D01*
X6831128Y-7882143D01*
X6925377Y-7773373D01*
X6932687Y-7757365D01*
X6974139Y-7718772D01*
X7030740Y-7720793D01*
X7067312Y-7757365D01*
X7074623Y-7773373D01*
X7132932Y-7840666D01*
X7168868Y-7882139D01*
X7168869Y-7882140D01*
X7168872Y-7882143D01*
X7289947Y-7959953D01*
X7364341Y-7981796D01*
X7371004Y-7984446D01*
X7374694Y-7985645D01*
X7374696Y-7985646D01*
X7375959Y-7985846D01*
X7385242Y-7987934D01*
X7428037Y-8000500D01*
X7428039Y-8000500D01*
X7462657Y-8000500D01*
X7474232Y-8001410D01*
X7500000Y-8005492D01*
X7525767Y-8001410D01*
X7537343Y-8000500D01*
X7571961Y-8000500D01*
X7614771Y-7987929D01*
X7624020Y-7985849D01*
X7625304Y-7985646D01*
X7625311Y-7985642D01*
X7629006Y-7984442D01*
X7635660Y-7981795D01*
X7710053Y-7959953D01*
X7831128Y-7882143D01*
X7925377Y-7773373D01*
X7932687Y-7757365D01*
X7974139Y-7718772D01*
X8030740Y-7720793D01*
X8067312Y-7757365D01*
X8074623Y-7773373D01*
X8132932Y-7840666D01*
X8168868Y-7882139D01*
X8168869Y-7882140D01*
X8168872Y-7882143D01*
X8236032Y-7925304D01*
X8289943Y-7959951D01*
X8289947Y-7959953D01*
X8380676Y-7986593D01*
X8428035Y-8000499D01*
X8428037Y-8000500D01*
X8428039Y-8000500D01*
X8571963Y-8000500D01*
X8571964Y-8000499D01*
X8710053Y-7959953D01*
X8831128Y-7882143D01*
X8925377Y-7773373D01*
X8985165Y-7642457D01*
X9005647Y-7500000D01*
X8985165Y-7357543D01*
X8925377Y-7226627D01*
X8853340Y-7143491D01*
X8831131Y-7117860D01*
X8831129Y-7117859D01*
X8831128Y-7117857D01*
X8744605Y-7062252D01*
X8712304Y-7015730D01*
X8722360Y-6959993D01*
X8744606Y-6937747D01*
X8831128Y-6882143D01*
X8893085Y-6810640D01*
X9249500Y-6810640D01*
X9249500Y-7689359D01*
X9264955Y-7806759D01*
X9264956Y-7806763D01*
X9325463Y-7952840D01*
X9421715Y-8078279D01*
X9421720Y-8078284D01*
X9468728Y-8114354D01*
X9547159Y-8174536D01*
X9693238Y-8235044D01*
X9810639Y-8250500D01*
X10689360Y-8250499D01*
X10806762Y-8235044D01*
X10952841Y-8174536D01*
X11078282Y-8078282D01*
X11174536Y-7952841D01*
X11235044Y-7806762D01*
X11250500Y-7689361D01*
X11250499Y-6810640D01*
X11235044Y-6693238D01*
X11174536Y-6547159D01*
X11157127Y-6524471D01*
X11078284Y-6421720D01*
X11078279Y-6421715D01*
X10952841Y-6325464D01*
X10806761Y-6264955D01*
X10716675Y-6253095D01*
X10689361Y-6249500D01*
X10689359Y-6249500D01*
X9810640Y-6249500D01*
X9693240Y-6264955D01*
X9693236Y-6264956D01*
X9547159Y-6325463D01*
X9421720Y-6421715D01*
X9421715Y-6421720D01*
X9325464Y-6547158D01*
X9264955Y-6693238D01*
X9249500Y-6810640D01*
X8893085Y-6810640D01*
X8925377Y-6773373D01*
X8985165Y-6642457D01*
X9005647Y-6500000D01*
X8985165Y-6357543D01*
X8925377Y-6226627D01*
X8860537Y-6151797D01*
X8831131Y-6117860D01*
X8831129Y-6117859D01*
X8831128Y-6117857D01*
X8749642Y-6065489D01*
X8710054Y-6040047D01*
X8710050Y-6040046D01*
X8571964Y-5999500D01*
X8571961Y-5999500D01*
X8428039Y-5999500D01*
X8428036Y-5999500D01*
X8289949Y-6040046D01*
X8289945Y-6040047D01*
X8168875Y-6117855D01*
X8168868Y-6117860D01*
X8074622Y-6226627D01*
X8067312Y-6242635D01*
X8025859Y-6281228D01*
X7969258Y-6279205D01*
X7932688Y-6242635D01*
X7925377Y-6226627D01*
X7831131Y-6117860D01*
X7831129Y-6117859D01*
X7831128Y-6117857D01*
X7749642Y-6065489D01*
X7710054Y-6040047D01*
X7710050Y-6040046D01*
X7635660Y-6018203D01*
X7628986Y-6015550D01*
X7625308Y-6014355D01*
X7625305Y-6014354D01*
X7625304Y-6014354D01*
X7624020Y-6014150D01*
X7614763Y-6012067D01*
X7606156Y-6009540D01*
X7571961Y-5999500D01*
X7537343Y-5999500D01*
X7525767Y-5998589D01*
X7500000Y-5994508D01*
X7474233Y-5998589D01*
X7462657Y-5999500D01*
X7428038Y-5999500D01*
X7385237Y-6012066D01*
X7375983Y-6014149D01*
X7374699Y-6014352D01*
X7371023Y-6015546D01*
X7364346Y-6018201D01*
X7289950Y-6040045D01*
X7289944Y-6040048D01*
X7168875Y-6117855D01*
X7168868Y-6117860D01*
X7074623Y-6226626D01*
X7014834Y-6357545D01*
X6994353Y-6500000D01*
X7014834Y-6642454D01*
X7014834Y-6642455D01*
X7014835Y-6642457D01*
X7038026Y-6693238D01*
X7074624Y-6773375D01*
X7074625Y-6773377D01*
X7092536Y-6794047D01*
X7110421Y-6847786D01*
X7109699Y-6854081D01*
X7094508Y-6949998D01*
X7094508Y-6950000D01*
X7099936Y-6984270D01*
X7114354Y-7075304D01*
X7114354Y-7075305D01*
X7125572Y-7097321D01*
X7130016Y-7153784D01*
X7115565Y-7179375D01*
X7074624Y-7226625D01*
X7074621Y-7226629D01*
X7067312Y-7242635D01*
X7025859Y-7281228D01*
X6969258Y-7279205D01*
X6932688Y-7242635D01*
X6925377Y-7226627D01*
X6831131Y-7117860D01*
X6831129Y-7117859D01*
X6831128Y-7117857D01*
X6764911Y-7075302D01*
X6710054Y-7040047D01*
X6710050Y-7040046D01*
X6571964Y-6999500D01*
X6571961Y-6999500D01*
X6428039Y-6999500D01*
X6428036Y-6999500D01*
X6289949Y-7040046D01*
X6289945Y-7040047D01*
X6168875Y-7117855D01*
X6168868Y-7117860D01*
X6074622Y-7226627D01*
X6067312Y-7242635D01*
X6025859Y-7281228D01*
X5969258Y-7279205D01*
X5932688Y-7242635D01*
X5925377Y-7226627D01*
X5899904Y-7197230D01*
X5882018Y-7143491D01*
X5885454Y-7125893D01*
X5885641Y-7125312D01*
X5885646Y-7125304D01*
X5905492Y-7000000D01*
X5885646Y-6874696D01*
X5885644Y-6874692D01*
X5885453Y-6874103D01*
X5885485Y-6873684D01*
X5884735Y-6868943D01*
X5885872Y-6868762D01*
X5889891Y-6817640D01*
X5899902Y-6802771D01*
X5925377Y-6773373D01*
X5985165Y-6642457D01*
X6005647Y-6500000D01*
X5985165Y-6357543D01*
X5925377Y-6226627D01*
X5860537Y-6151797D01*
X5831131Y-6117860D01*
X5831129Y-6117859D01*
X5831128Y-6117857D01*
X5749642Y-6065489D01*
X5710054Y-6040047D01*
X5710050Y-6040046D01*
X5635660Y-6018203D01*
X5628986Y-6015550D01*
X5625308Y-6014355D01*
X5625305Y-6014354D01*
X5625304Y-6014354D01*
X5624020Y-6014150D01*
X5614763Y-6012067D01*
X5606156Y-6009540D01*
X5571961Y-5999500D01*
X5537343Y-5999500D01*
X5525767Y-5998589D01*
X5500000Y-5994508D01*
X5474233Y-5998589D01*
X5462657Y-5999500D01*
X5428038Y-5999500D01*
X5385237Y-6012066D01*
X5375983Y-6014149D01*
X5374699Y-6014352D01*
X5371023Y-6015546D01*
X5364346Y-6018201D01*
X5289950Y-6040045D01*
X5289944Y-6040048D01*
X5168875Y-6117855D01*
X5168868Y-6117860D01*
X5074622Y-6226627D01*
X5067312Y-6242635D01*
X5025859Y-6281228D01*
X4969258Y-6279205D01*
X4932688Y-6242635D01*
X4925377Y-6226627D01*
X4831131Y-6117860D01*
X4831129Y-6117859D01*
X4831128Y-6117857D01*
X4749642Y-6065489D01*
X4710054Y-6040047D01*
X4710050Y-6040046D01*
X4571964Y-5999500D01*
X4571961Y-5999500D01*
X4428039Y-5999500D01*
X4428036Y-5999500D01*
X4289949Y-6040046D01*
X4289945Y-6040047D01*
X4168875Y-6117855D01*
X4168868Y-6117860D01*
X4074623Y-6226626D01*
X4014834Y-6357545D01*
X3994353Y-6500000D01*
X3005647Y-6500000D01*
X2985165Y-6357543D01*
X2925377Y-6226627D01*
X2860537Y-6151797D01*
X2831131Y-6117860D01*
X2831129Y-6117859D01*
X2831128Y-6117857D01*
X2749642Y-6065489D01*
X2710054Y-6040047D01*
X2710050Y-6040046D01*
X2571964Y-5999500D01*
X2571961Y-5999500D01*
X2428039Y-5999500D01*
X2428036Y-5999500D01*
X2289949Y-6040046D01*
X2289945Y-6040047D01*
X2168875Y-6117855D01*
X2168868Y-6117860D01*
X2074623Y-6226626D01*
X2014834Y-6357545D01*
X1994353Y-6500000D01*
X1005647Y-6500000D01*
X985165Y-6357543D01*
X925377Y-6226627D01*
X860537Y-6151797D01*
X831131Y-6117860D01*
X831129Y-6117859D01*
X831128Y-6117857D01*
X749642Y-6065489D01*
X710054Y-6040047D01*
X710050Y-6040046D01*
X571964Y-5999500D01*
X571961Y-5999500D01*
X428039Y-5999500D01*
X428036Y-5999500D01*
X289949Y-6040046D01*
X289945Y-6040047D01*
X168875Y-6117855D01*
X168868Y-6117860D01*
X74622Y-6226627D01*
X67312Y-6242635D01*
X25859Y-6281228D01*
X-30742Y-6279205D01*
X-67312Y-6242635D01*
X-74622Y-6226627D01*
X-168868Y-6117860D01*
X-168872Y-6117857D01*
X-236382Y-6074471D01*
X-255394Y-6062252D01*
X-287695Y-6015730D01*
X-277639Y-5959992D01*
X-255394Y-5937747D01*
X-168872Y-5882143D01*
X-168869Y-5882140D01*
X-168868Y-5882139D01*
X-74623Y-5773373D01*
X-14834Y-5642454D01*
X-1470Y-5549500D01*
X5647Y-5500000D01*
X-6313Y-5416812D01*
X-14834Y-5357545D01*
X-74623Y-5226626D01*
X-168868Y-5117860D01*
X-168872Y-5117857D01*
X-255394Y-5062253D01*
X-287695Y-5015730D01*
X-277639Y-4959992D01*
X-255394Y-4937747D01*
X-168872Y-4882143D01*
X-168869Y-4882140D01*
X-168868Y-4882139D01*
X-132932Y-4840666D01*
X-74623Y-4773373D01*
X-67312Y-4757365D01*
X-25861Y-4718772D01*
X30740Y-4720793D01*
X67312Y-4757365D01*
X74623Y-4773373D01*
X132932Y-4840666D01*
X168868Y-4882139D01*
X168869Y-4882140D01*
X168872Y-4882143D01*
X289947Y-4959953D01*
X350818Y-4977826D01*
X428035Y-5000499D01*
X428037Y-5000500D01*
X428039Y-5000500D01*
X571963Y-5000500D01*
X571964Y-5000499D01*
X572611Y-5000309D01*
X710053Y-4959953D01*
X831128Y-4882143D01*
X925377Y-4773373D01*
X932687Y-4757365D01*
X974139Y-4718772D01*
X1030740Y-4720793D01*
X1067312Y-4757365D01*
X1074623Y-4773373D01*
X1132932Y-4840666D01*
X1168868Y-4882139D01*
X1168869Y-4882140D01*
X1168872Y-4882143D01*
X1255394Y-4937747D01*
X1287695Y-4984270D01*
X1277639Y-5040008D01*
X1255394Y-5062253D01*
X1168872Y-5117857D01*
X1168868Y-5117860D01*
X1074623Y-5226626D01*
X1014834Y-5357545D01*
X994353Y-5500000D01*
X1014834Y-5642454D01*
X1074623Y-5773373D01*
X1168868Y-5882139D01*
X1168869Y-5882140D01*
X1168872Y-5882143D01*
X1289947Y-5959953D01*
X1372764Y-5984270D01*
X1428035Y-6000499D01*
X1428037Y-6000500D01*
X1428039Y-6000500D01*
X1571963Y-6000500D01*
X1571964Y-6000499D01*
X1572611Y-6000309D01*
X1710053Y-5959953D01*
X1831128Y-5882143D01*
X1925377Y-5773373D01*
X1985165Y-5642457D01*
X2005647Y-5500000D01*
X1985165Y-5357543D01*
X1925377Y-5226627D01*
X1831128Y-5117857D01*
X1744605Y-5062252D01*
X1712304Y-5015730D01*
X1722360Y-4959993D01*
X1744606Y-4937747D01*
X1831128Y-4882143D01*
X1925377Y-4773373D01*
X1932687Y-4757365D01*
X1974139Y-4718772D01*
X2030740Y-4720793D01*
X2067312Y-4757365D01*
X2074623Y-4773373D01*
X2132932Y-4840666D01*
X2168868Y-4882139D01*
X2168869Y-4882140D01*
X2168872Y-4882143D01*
X2289947Y-4959953D01*
X2350818Y-4977826D01*
X2428035Y-5000499D01*
X2428037Y-5000500D01*
X2428039Y-5000500D01*
X2571963Y-5000500D01*
X2571964Y-5000499D01*
X2572611Y-5000309D01*
X2710053Y-4959953D01*
X2831128Y-4882143D01*
X2925377Y-4773373D01*
X2932687Y-4757365D01*
X2974139Y-4718772D01*
X3030740Y-4720793D01*
X3067312Y-4757365D01*
X3074623Y-4773373D01*
X3132932Y-4840666D01*
X3168868Y-4882139D01*
X3168869Y-4882140D01*
X3168872Y-4882143D01*
X3255394Y-4937747D01*
X3287695Y-4984270D01*
X3277639Y-5040008D01*
X3255394Y-5062253D01*
X3168872Y-5117857D01*
X3168868Y-5117860D01*
X3074623Y-5226626D01*
X3014834Y-5357545D01*
X2994353Y-5500000D01*
X3014834Y-5642454D01*
X3074623Y-5773373D01*
X3168868Y-5882139D01*
X3168869Y-5882140D01*
X3168872Y-5882143D01*
X3289947Y-5959953D01*
X3372764Y-5984270D01*
X3428035Y-6000499D01*
X3428037Y-6000500D01*
X3428039Y-6000500D01*
X3571963Y-6000500D01*
X3571964Y-6000499D01*
X3572611Y-6000309D01*
X3710053Y-5959953D01*
X3831128Y-5882143D01*
X3925377Y-5773373D01*
X3985165Y-5642457D01*
X4005647Y-5500000D01*
X3985165Y-5357543D01*
X3925377Y-5226627D01*
X3831128Y-5117857D01*
X3744605Y-5062252D01*
X3712304Y-5015730D01*
X3722360Y-4959993D01*
X3744606Y-4937747D01*
X3831128Y-4882143D01*
X3925377Y-4773373D01*
X3932687Y-4757365D01*
X3974139Y-4718772D01*
X4030740Y-4720793D01*
X4067312Y-4757365D01*
X4074623Y-4773373D01*
X4132932Y-4840666D01*
X4168868Y-4882139D01*
X4168869Y-4882140D01*
X4168872Y-4882143D01*
X4289947Y-4959953D01*
X4350818Y-4977826D01*
X4428035Y-5000499D01*
X4428037Y-5000500D01*
X4428039Y-5000500D01*
X4571963Y-5000500D01*
X4571964Y-5000499D01*
X4572611Y-5000309D01*
X4710053Y-4959953D01*
X4831128Y-4882143D01*
X4925377Y-4773373D01*
X4932687Y-4757365D01*
X4974139Y-4718772D01*
X5030740Y-4720793D01*
X5067312Y-4757365D01*
X5074623Y-4773373D01*
X5132932Y-4840666D01*
X5168868Y-4882139D01*
X5168869Y-4882140D01*
X5168872Y-4882143D01*
X5289947Y-4959953D01*
X5350818Y-4977826D01*
X5428035Y-5000499D01*
X5428037Y-5000500D01*
X5428039Y-5000500D01*
X5571963Y-5000500D01*
X5571964Y-5000499D01*
X5572611Y-5000309D01*
X5710053Y-4959953D01*
X5831128Y-4882143D01*
X5925377Y-4773373D01*
X5932687Y-4757365D01*
X5974139Y-4718772D01*
X6030740Y-4720793D01*
X6067312Y-4757365D01*
X6074623Y-4773373D01*
X6132932Y-4840666D01*
X6168868Y-4882139D01*
X6168869Y-4882140D01*
X6168872Y-4882143D01*
X6289947Y-4959953D01*
X6350818Y-4977826D01*
X6428035Y-5000499D01*
X6428037Y-5000500D01*
X6428039Y-5000500D01*
X6571963Y-5000500D01*
X6571964Y-5000499D01*
X6572611Y-5000309D01*
X6710053Y-4959953D01*
X6831128Y-4882143D01*
X6925377Y-4773373D01*
X6932687Y-4757365D01*
X6974139Y-4718772D01*
X7030740Y-4720793D01*
X7067312Y-4757365D01*
X7074623Y-4773373D01*
X7132932Y-4840666D01*
X7168868Y-4882139D01*
X7168869Y-4882140D01*
X7168872Y-4882143D01*
X7289947Y-4959953D01*
X7350818Y-4977826D01*
X7428035Y-5000499D01*
X7428037Y-5000500D01*
X7428039Y-5000500D01*
X7571963Y-5000500D01*
X7571964Y-5000499D01*
X7572611Y-5000309D01*
X7710053Y-4959953D01*
X7831128Y-4882143D01*
X7925377Y-4773373D01*
X7985165Y-4642457D01*
X8005647Y-4500000D01*
X7985165Y-4357543D01*
X7925377Y-4226627D01*
X7831128Y-4117857D01*
X7744605Y-4062252D01*
X7712304Y-4015730D01*
X7722360Y-3959993D01*
X7744606Y-3937747D01*
X7831128Y-3882143D01*
X7925377Y-3773373D01*
X7985165Y-3642457D01*
X8005647Y-3500000D01*
X7985165Y-3357543D01*
X7925377Y-3226627D01*
X7901814Y-3199434D01*
X7831131Y-3117860D01*
X7831129Y-3117859D01*
X7831128Y-3117857D01*
X7744605Y-3062252D01*
X7712304Y-3015730D01*
X7722360Y-2959993D01*
X7744606Y-2937747D01*
X7831128Y-2882143D01*
X7925377Y-2773373D01*
X7932687Y-2757365D01*
X7974139Y-2718772D01*
X8030740Y-2720793D01*
X8067312Y-2757365D01*
X8074623Y-2773373D01*
X8123462Y-2829737D01*
X8168868Y-2882139D01*
X8168869Y-2882140D01*
X8168872Y-2882143D01*
X8289947Y-2959953D01*
X8350818Y-2977826D01*
X8428035Y-3000499D01*
X8428037Y-3000500D01*
X8428039Y-3000500D01*
X8571963Y-3000500D01*
X8571964Y-3000499D01*
X8572611Y-3000309D01*
X8710053Y-2959953D01*
X8831128Y-2882143D01*
X8925377Y-2773373D01*
X8985165Y-2642457D01*
X9005647Y-2500000D01*
X8985165Y-2357543D01*
X8925377Y-2226627D01*
X8876543Y-2170269D01*
X8831131Y-2117860D01*
X8831129Y-2117859D01*
X8831128Y-2117857D01*
X8744605Y-2062252D01*
X8712304Y-2015730D01*
X8722360Y-1959993D01*
X8744606Y-1937747D01*
X8831128Y-1882143D01*
X8925377Y-1773373D01*
X8985165Y-1642457D01*
X9005647Y-1500000D01*
X8985165Y-1357543D01*
X8925377Y-1226627D01*
X8876543Y-1170269D01*
X8831131Y-1117860D01*
X8831129Y-1117859D01*
X8831128Y-1117857D01*
X8744605Y-1062252D01*
X8712304Y-1015730D01*
X8722360Y-959993D01*
X8744606Y-937747D01*
X8831128Y-882143D01*
X8925377Y-773373D01*
X8985165Y-642457D01*
X9005647Y-500000D01*
X8985165Y-357543D01*
X8925377Y-226627D01*
X8892041Y-188155D01*
X8831131Y-117860D01*
X8831129Y-117859D01*
X8831128Y-117857D01*
X8744605Y-62252D01*
X8712304Y-15730D01*
X8722360Y40007D01*
X8744606Y62253D01*
X8823990Y113270D01*
X8831128Y117857D01*
X8831132Y117861D01*
X8925376Y226626D01*
X8925377Y226627D01*
X8985165Y357543D01*
X9005647Y500000D01*
X8985165Y642457D01*
X8925377Y773373D01*
X8831128Y882143D01*
X8744605Y937747D01*
X8712304Y984270D01*
X8722360Y1040007D01*
X8744606Y1062253D01*
X8747874Y1064353D01*
X8831128Y1117857D01*
X8831132Y1117861D01*
X8925376Y1226626D01*
X8925377Y1226627D01*
X8985165Y1357543D01*
X9005647Y1500000D01*
X8985165Y1642457D01*
X8925377Y1773373D01*
X8831128Y1882143D01*
X8744605Y1937747D01*
X8712304Y1984270D01*
X8722360Y2040007D01*
X8744606Y2062253D01*
X8831128Y2117857D01*
X8856556Y2147202D01*
X8925376Y2226626D01*
X8925377Y2226627D01*
X8985165Y2357543D01*
X9005647Y2500000D01*
X8985165Y2642457D01*
X8925377Y2773373D01*
X8831128Y2882143D01*
X8710053Y2959953D01*
X8641007Y2980226D01*
X8571964Y3000500D01*
X8571961Y3000500D01*
X8428039Y3000500D01*
X8428036Y3000500D01*
X8345183Y2976171D01*
X8289947Y2959953D01*
X8168872Y2882143D01*
X8168869Y2882140D01*
X8168868Y2882139D01*
X8163141Y2875529D01*
X8074623Y2773373D01*
X8068306Y2759540D01*
X8067313Y2757366D01*
X8025861Y2718772D01*
X7969260Y2720793D01*
X7932687Y2757366D01*
X7931694Y2759540D01*
X7925377Y2773373D01*
X7831128Y2882143D01*
X7744605Y2937747D01*
X7712304Y2984270D01*
X7722360Y3040007D01*
X7744606Y3062253D01*
X7831128Y3117857D01*
X7833761Y3120895D01*
X7925376Y3226626D01*
X7925377Y3226627D01*
X7985165Y3357543D01*
X8005647Y3500000D01*
X7985165Y3642457D01*
X7925377Y3773373D01*
X7831128Y3882143D01*
X7744605Y3937747D01*
X7712304Y3984270D01*
X7722360Y4040007D01*
X7744606Y4062253D01*
X7831128Y4117857D01*
X7925377Y4226627D01*
X7985165Y4357543D01*
X8005647Y4500000D01*
X7985165Y4642457D01*
X7925377Y4773373D01*
X7831128Y4882143D01*
X7710053Y4959953D01*
X7637412Y4981282D01*
X7571964Y5000500D01*
X7571961Y5000500D01*
X7428039Y5000500D01*
X7428036Y5000500D01*
X7345183Y4976171D01*
X7289947Y4959953D01*
X7168872Y4882143D01*
X7168869Y4882140D01*
X7168868Y4882139D01*
X7162946Y4875304D01*
X7074623Y4773373D01*
X7074623Y4773372D01*
X7067313Y4757366D01*
X7025861Y4718772D01*
X6969260Y4720793D01*
X6932687Y4757366D01*
X6925377Y4773373D01*
X6831128Y4882143D01*
X6710053Y4959953D01*
X6637412Y4981282D01*
X6571964Y5000500D01*
X6571961Y5000500D01*
X6428039Y5000500D01*
X6428036Y5000500D01*
X6345183Y4976171D01*
X6289947Y4959953D01*
X6168872Y4882143D01*
X6168869Y4882140D01*
X6168868Y4882139D01*
X6162946Y4875304D01*
X6074623Y4773373D01*
X6074623Y4773372D01*
X6067313Y4757366D01*
X6025861Y4718772D01*
X5969260Y4720793D01*
X5932687Y4757366D01*
X5925377Y4773373D01*
X5831128Y4882143D01*
X5710053Y4959953D01*
X5637412Y4981282D01*
X5571964Y5000500D01*
X5571961Y5000500D01*
X5428039Y5000500D01*
X5428036Y5000500D01*
X5345183Y4976171D01*
X5289947Y4959953D01*
X5168872Y4882143D01*
X5168869Y4882140D01*
X5168868Y4882139D01*
X5162946Y4875304D01*
X5074623Y4773373D01*
X5074623Y4773372D01*
X5067313Y4757366D01*
X5025861Y4718772D01*
X4969260Y4720793D01*
X4932687Y4757366D01*
X4925377Y4773373D01*
X4831128Y4882143D01*
X4710053Y4959953D01*
X4637412Y4981282D01*
X4571964Y5000500D01*
X4571961Y5000500D01*
X4428039Y5000500D01*
X4428036Y5000500D01*
X4345183Y4976171D01*
X4289947Y4959953D01*
X4168872Y4882143D01*
X4168869Y4882140D01*
X4168868Y4882139D01*
X4162946Y4875304D01*
X4074623Y4773373D01*
X4074623Y4773372D01*
X4067313Y4757366D01*
X4025861Y4718772D01*
X3969260Y4720793D01*
X3932687Y4757366D01*
X3925377Y4773373D01*
X3831128Y4882143D01*
X3710053Y4959953D01*
X3637412Y4981282D01*
X3571964Y5000500D01*
X3571961Y5000500D01*
X3428039Y5000500D01*
X3428036Y5000500D01*
X3345183Y4976171D01*
X3289947Y4959953D01*
X3168872Y4882143D01*
X3168869Y4882140D01*
X3168868Y4882139D01*
X3162946Y4875304D01*
X3074623Y4773373D01*
X3074623Y4773372D01*
X3067313Y4757366D01*
X3025861Y4718772D01*
X2969260Y4720793D01*
X2932687Y4757366D01*
X2925377Y4773373D01*
X2831128Y4882143D01*
X2710053Y4959953D01*
X2637412Y4981282D01*
X2571964Y5000500D01*
X2571961Y5000500D01*
X2428039Y5000500D01*
X2428036Y5000500D01*
X2345183Y4976171D01*
X2289947Y4959953D01*
X2168872Y4882143D01*
X2168869Y4882140D01*
X2168868Y4882139D01*
X2162946Y4875304D01*
X2074623Y4773373D01*
X2074623Y4773372D01*
X2067313Y4757366D01*
X2025861Y4718772D01*
X1969260Y4720793D01*
X1932687Y4757366D01*
X1925377Y4773373D01*
X1831128Y4882143D01*
X1710053Y4959953D01*
X1637412Y4981282D01*
X1571964Y5000500D01*
X1571961Y5000500D01*
X1428039Y5000500D01*
X1428036Y5000500D01*
X1345183Y4976171D01*
X1289947Y4959953D01*
X1168872Y4882143D01*
X1168869Y4882140D01*
X1168868Y4882139D01*
X1162946Y4875304D01*
X1074623Y4773373D01*
X1074623Y4773372D01*
X1067313Y4757366D01*
X1025861Y4718772D01*
X969260Y4720793D01*
X932687Y4757366D01*
X925377Y4773373D01*
X831128Y4882143D01*
X710053Y4959953D01*
X637412Y4981282D01*
X571964Y5000500D01*
X571961Y5000500D01*
X428039Y5000500D01*
X428036Y5000500D01*
X345183Y4976171D01*
X289947Y4959953D01*
X168872Y4882143D01*
X168869Y4882140D01*
X168868Y4882139D01*
X162946Y4875304D01*
X74623Y4773373D01*
X74623Y4773372D01*
X67313Y4757366D01*
X25861Y4718772D01*
X-30740Y4720793D01*
X-67313Y4757366D01*
X-74623Y4773372D01*
X-74623Y4773373D01*
X-162946Y4875304D01*
X-168868Y4882139D01*
X-168869Y4882140D01*
X-168872Y4882143D01*
X-289947Y4959953D01*
X-345183Y4976171D01*
X-428036Y5000500D01*
X-428039Y5000500D01*
X-571961Y5000500D01*
X-571964Y5000500D01*
X-637412Y4981282D01*
X-710053Y4959953D01*
X-831128Y4882143D01*
X-925377Y4773373D01*
X-932687Y4757366D01*
X-974139Y4718772D01*
X-1030740Y4720793D01*
X-1067313Y4757366D01*
X-1074623Y4773372D01*
X-1074623Y4773373D01*
X-1162946Y4875304D01*
X-1168868Y4882139D01*
X-1168869Y4882140D01*
X-1168872Y4882143D01*
X-1289947Y4959953D01*
X-1345183Y4976171D01*
X-1428036Y5000500D01*
X-1428039Y5000500D01*
X-1571961Y5000500D01*
X-1571964Y5000500D01*
X-1637412Y4981282D01*
X-1710053Y4959953D01*
X-1831128Y4882143D01*
X-1925377Y4773373D01*
X-1932687Y4757366D01*
X-1974139Y4718772D01*
X-2030740Y4720793D01*
X-2067313Y4757366D01*
X-2074623Y4773372D01*
X-2074623Y4773373D01*
X-2162946Y4875304D01*
X-2168868Y4882139D01*
X-2168869Y4882140D01*
X-2168872Y4882143D01*
X-2289947Y4959953D01*
X-2345183Y4976171D01*
X-2428036Y5000500D01*
X-2428039Y5000500D01*
X-2571961Y5000500D01*
X-2571964Y5000500D01*
X-2637412Y4981282D01*
X-2710053Y4959953D01*
X-2831128Y4882143D01*
X-2925377Y4773373D01*
X-2932687Y4757366D01*
X-2974139Y4718772D01*
X-3030740Y4720793D01*
X-3067313Y4757366D01*
X-3074623Y4773372D01*
X-3074623Y4773373D01*
X-3162946Y4875304D01*
X-3168868Y4882139D01*
X-3168869Y4882140D01*
X-3168872Y4882143D01*
X-3289947Y4959953D01*
X-3345183Y4976171D01*
X-3428036Y5000500D01*
X-3428039Y5000500D01*
X-3571961Y5000500D01*
X-3571964Y5000500D01*
X-3637412Y4981282D01*
X-3710053Y4959953D01*
X-3831128Y4882143D01*
X-3925377Y4773373D01*
X-3932687Y4757366D01*
X-3974139Y4718772D01*
X-4030740Y4720793D01*
X-4067313Y4757366D01*
X-4074623Y4773372D01*
X-4074623Y4773373D01*
X-4162946Y4875304D01*
X-4168868Y4882139D01*
X-4168869Y4882140D01*
X-4168872Y4882143D01*
X-4289947Y4959953D01*
X-4345183Y4976171D01*
X-4428036Y5000500D01*
X-4428039Y5000500D01*
X-4571961Y5000500D01*
X-4571964Y5000500D01*
X-4637412Y4981282D01*
X-4710053Y4959953D01*
X-4831128Y4882143D01*
X-4925377Y4773373D01*
X-4932687Y4757366D01*
X-4974139Y4718772D01*
X-5030740Y4720793D01*
X-5067313Y4757366D01*
X-5074623Y4773372D01*
X-5074623Y4773373D01*
X-5162946Y4875304D01*
X-5168868Y4882139D01*
X-5168869Y4882140D01*
X-5168872Y4882143D01*
X-5289947Y4959953D01*
X-5345183Y4976171D01*
X-5428036Y5000500D01*
X-5428039Y5000500D01*
X-5571961Y5000500D01*
X-5571964Y5000500D01*
X-5637412Y4981282D01*
X-5710053Y4959953D01*
X-5831128Y4882143D01*
X-5925377Y4773373D01*
X-5932687Y4757366D01*
X-5974139Y4718772D01*
X-6030740Y4720793D01*
X-6067313Y4757366D01*
X-6074623Y4773372D01*
X-6074623Y4773373D01*
X-6162946Y4875304D01*
X-6168868Y4882139D01*
X-6168869Y4882140D01*
X-6168872Y4882143D01*
X-6289947Y4959953D01*
X-6345183Y4976171D01*
X-6428036Y5000500D01*
X-6428039Y5000500D01*
X-6571961Y5000500D01*
X-6571964Y5000500D01*
X-6637412Y4981282D01*
X-6710053Y4959953D01*
X-6831128Y4882143D01*
X-6925377Y4773373D01*
X-6932687Y4757366D01*
X-6974139Y4718772D01*
X-7030740Y4720793D01*
X-7067313Y4757366D01*
X-7074623Y4773372D01*
X-7074623Y4773373D01*
X-7162946Y4875304D01*
X-7168868Y4882139D01*
X-7168869Y4882140D01*
X-7168872Y4882143D01*
X-7289947Y4959953D01*
X-7345183Y4976171D01*
X-7428036Y5000500D01*
X-7428039Y5000500D01*
X-7571961Y5000500D01*
X-7571964Y5000500D01*
X-7637412Y4981282D01*
X-7710053Y4959953D01*
X-7831128Y4882143D01*
X-7925377Y4773373D01*
X-7985165Y4642457D01*
X-8005647Y4500000D01*
X-7985165Y4357543D01*
X-7925377Y4226627D01*
X-7831128Y4117857D01*
X-7744606Y4062253D01*
X-7712304Y4015730D01*
X-7722360Y3959993D01*
X-7744605Y3937747D01*
X-7831128Y3882143D01*
X-7925377Y3773373D01*
X-7985165Y3642457D01*
X-8005647Y3500000D01*
X-7985165Y3357543D01*
X-7925377Y3226627D01*
X-7925376Y3226626D01*
X-7833761Y3120895D01*
X-7831128Y3117857D01*
X-7744606Y3062253D01*
X-7712304Y3015730D01*
X-7722360Y2959993D01*
X-7744605Y2937747D01*
X-7831128Y2882143D01*
X-7925377Y2773373D01*
X-7985165Y2642457D01*
X-8005647Y2500000D01*
X-7985165Y2357543D01*
X-7925377Y2226627D01*
X-7925376Y2226626D01*
X-7856556Y2147202D01*
X-7831128Y2117857D01*
X-7744606Y2062253D01*
X-7712304Y2015730D01*
X-7722360Y1959993D01*
X-7744605Y1937747D01*
X-7831128Y1882143D01*
X-7925377Y1773373D01*
X-7985165Y1642457D01*
X-8005647Y1500000D01*
X-7985165Y1357543D01*
X-7925377Y1226627D01*
X-7925376Y1226626D01*
X-7831132Y1117861D01*
X-7831128Y1117857D01*
X-7747874Y1064353D01*
X-7744606Y1062253D01*
X-7712304Y1015730D01*
X-7722360Y959993D01*
X-7744605Y937747D01*
X-7831128Y882143D01*
X-7925377Y773373D01*
X-7985165Y642457D01*
X-8005647Y500000D01*
X-7985165Y357543D01*
X-7925377Y226627D01*
X-7925376Y226626D01*
X-7831132Y117861D01*
X-7831128Y117857D01*
X-7823990Y113270D01*
X-7744606Y62253D01*
X-7712304Y15730D01*
X-7722360Y-40007D01*
X-7744605Y-62252D01*
X-7831128Y-117857D01*
X-7831129Y-117859D01*
X-7831131Y-117860D01*
X-7892041Y-188155D01*
X-7925377Y-226627D01*
X-7985165Y-357543D01*
X-8005647Y-500000D01*
X-7985165Y-642457D01*
X-7925377Y-773373D01*
X-7831128Y-882143D01*
X-7744606Y-937747D01*
X-7712304Y-984270D01*
X-7722360Y-1040007D01*
X-7744605Y-1062252D01*
X-7831128Y-1117857D01*
X-7831129Y-1117859D01*
X-7831131Y-1117860D01*
X-7876543Y-1170269D01*
X-7925377Y-1226627D01*
X-7985165Y-1357543D01*
X-8005647Y-1500000D01*
X-7985165Y-1642457D01*
X-7925377Y-1773373D01*
X-7831128Y-1882143D01*
X-7744606Y-1937747D01*
X-7712304Y-1984270D01*
X-7722360Y-2040007D01*
X-7744605Y-2062252D01*
X-7831128Y-2117857D01*
X-7831129Y-2117859D01*
X-7831131Y-2117860D01*
X-7876543Y-2170269D01*
X-7925377Y-2226627D01*
X-7985165Y-2357543D01*
X-8005647Y-2500000D01*
X-7985165Y-2642457D01*
X-7925377Y-2773373D01*
X-7831128Y-2882143D01*
X-7744606Y-2937747D01*
X-7712304Y-2984270D01*
X-7722360Y-3040007D01*
X-7744605Y-3062252D01*
X-7831128Y-3117857D01*
X-7831129Y-3117859D01*
X-7831131Y-3117860D01*
X-7901814Y-3199434D01*
X-7925377Y-3226627D01*
X-7985165Y-3357543D01*
X-8005647Y-3500000D01*
X-7985165Y-3642457D01*
X-7925377Y-3773373D01*
X-7831128Y-3882143D01*
X-7744606Y-3937747D01*
X-7712304Y-3984270D01*
X-7722360Y-4040007D01*
X-7744605Y-4062252D01*
X-7831128Y-4117857D01*
X-7831129Y-4117859D01*
X-7831131Y-4117860D01*
X-7925377Y-4226627D01*
X-7932688Y-4242635D01*
X-7974141Y-4281228D01*
X-8030742Y-4279205D01*
X-8067312Y-4242635D01*
X-8074622Y-4226627D01*
X-8168868Y-4117860D01*
X-8168875Y-4117855D01*
X-8289945Y-4040047D01*
X-8289949Y-4040046D01*
X-8428036Y-3999500D01*
X-8428039Y-3999500D01*
X-8571961Y-3999500D01*
X-8571964Y-3999500D01*
X-8710050Y-4040046D01*
X-8710053Y-4040047D01*
X-8731614Y-4053903D01*
X-8787352Y-4063957D01*
X-8823946Y-4043975D01*
X-9044539Y-3823381D01*
X-9066213Y-3771055D01*
X-9059526Y-3740316D01*
X-9014835Y-3642457D01*
X-9014834Y-3642455D01*
X-9014834Y-3642454D01*
X-8994353Y-3500000D01*
X-9014834Y-3357545D01*
X-9074623Y-3226626D01*
X-9168868Y-3117860D01*
X-9168872Y-3117857D01*
X-9255394Y-3062253D01*
X-9287695Y-3015730D01*
X-9277639Y-2959992D01*
X-9255394Y-2937747D01*
X-9168872Y-2882143D01*
X-9168869Y-2882140D01*
X-9168868Y-2882139D01*
X-9074623Y-2773373D01*
X-9040886Y-2699500D01*
X-9014835Y-2642457D01*
X-9014834Y-2642455D01*
X-9014834Y-2642454D01*
X-8994353Y-2500000D01*
X-9014834Y-2357545D01*
X-9074623Y-2226626D01*
X-9168868Y-2117860D01*
X-9168872Y-2117857D01*
X-9255394Y-2062253D01*
X-9287695Y-2015730D01*
X-9277639Y-1959992D01*
X-9255394Y-1937747D01*
X-9168872Y-1882143D01*
X-9168869Y-1882140D01*
X-9168868Y-1882139D01*
X-9074623Y-1773373D01*
X-9014834Y-1642454D01*
X-8994353Y-1500000D01*
X-9014834Y-1357545D01*
X-9074623Y-1226626D01*
X-9168868Y-1117860D01*
X-9168872Y-1117857D01*
X-9255394Y-1062253D01*
X-9287695Y-1015730D01*
X-9277639Y-959992D01*
X-9255394Y-937747D01*
X-9168872Y-882143D01*
X-9168869Y-882140D01*
X-9168868Y-882139D01*
X-9074623Y-773373D01*
X-9014834Y-642454D01*
X-8994353Y-500000D01*
X-9014834Y-357545D01*
X-9074623Y-226626D01*
X-9168868Y-117860D01*
X-9168872Y-117857D01*
X-9255394Y-62253D01*
X-9287695Y-15730D01*
X-9277639Y40008D01*
X-9255394Y62253D01*
X-9168872Y117857D01*
X-9168868Y117860D01*
X-9074623Y226626D01*
X-9014834Y357545D01*
X-8994353Y500000D01*
X-9014834Y642454D01*
X-9074623Y773373D01*
X-9168868Y882139D01*
X-9168869Y882140D01*
X-9168872Y882143D01*
X-9255394Y937747D01*
X-9287695Y984270D01*
X-9277639Y1040008D01*
X-9255394Y1062253D01*
X-9252124Y1064354D01*
X-9168872Y1117857D01*
X-9168868Y1117860D01*
X-9074623Y1226626D01*
X-9014834Y1357545D01*
X-8994353Y1500000D01*
X-9014834Y1642454D01*
X-9041115Y1700000D01*
X-9074623Y1773373D01*
X-9145779Y1855492D01*
X-9169707Y1883107D01*
X-9187592Y1936846D01*
X-9166108Y1983891D01*
X-9100000Y2050000D01*
X-9100000Y2169739D01*
X-9081925Y2218199D01*
X-9074626Y2226622D01*
X-9074624Y2226624D01*
X-9014834Y2357545D01*
X-8994353Y2500000D01*
X-9014834Y2642454D01*
X-9074622Y2773371D01*
X-9074623Y2773372D01*
X-9074623Y2773373D01*
X-9081925Y2781799D01*
X-9100000Y2830259D01*
X-9100000Y2900000D01*
X-9194637Y2994637D01*
X-9216311Y3046963D01*
X-9194637Y3099289D01*
X-9182318Y3109216D01*
X-9168875Y3117855D01*
X-9168868Y3117860D01*
X-9074623Y3226626D01*
X-9014834Y3357545D01*
X-8994353Y3500000D01*
X-9014834Y3642454D01*
X-9041071Y3699904D01*
X-9074623Y3773373D01*
X-9156986Y3868426D01*
X-9168868Y3882139D01*
X-9168869Y3882140D01*
X-9168872Y3882143D01*
X-9255394Y3937747D01*
X-9287695Y3984270D01*
X-9277639Y4040008D01*
X-9255394Y4062253D01*
X-9168872Y4117857D01*
X-9168868Y4117860D01*
X-9074623Y4226626D01*
X-9014834Y4357545D01*
X-8994353Y4500000D01*
X-9014834Y4642454D01*
X-9026879Y4668828D01*
X-9074623Y4773373D01*
X-9153457Y4864353D01*
X-9168868Y4882139D01*
X-9168869Y4882140D01*
X-9168872Y4882143D01*
X-9255394Y4937747D01*
X-9287695Y4984270D01*
X-9277639Y5040008D01*
X-9255394Y5062253D01*
X-9168872Y5117857D01*
X-9168868Y5117860D01*
X-9074623Y5226626D01*
X-9014834Y5357545D01*
X-8994353Y5500000D01*
X8994353Y5500000D01*
X9014834Y5357545D01*
X9074623Y5226626D01*
X9168868Y5117860D01*
X9168872Y5117857D01*
X9255394Y5062253D01*
X9287695Y5015730D01*
X9277639Y4959992D01*
X9255394Y4937747D01*
X9168872Y4882143D01*
X9168869Y4882140D01*
X9168868Y4882139D01*
X9153457Y4864353D01*
X9074623Y4773373D01*
X9026879Y4668828D01*
X9014834Y4642454D01*
X8994353Y4500000D01*
X9014834Y4357545D01*
X9074623Y4226626D01*
X9168868Y4117860D01*
X9168872Y4117857D01*
X9255394Y4062253D01*
X9287695Y4015730D01*
X9277639Y3959992D01*
X9255394Y3937747D01*
X9168872Y3882143D01*
X9168869Y3882140D01*
X9168868Y3882139D01*
X9156986Y3868426D01*
X9074623Y3773373D01*
X9041071Y3699904D01*
X9014834Y3642454D01*
X8994353Y3500000D01*
X9014834Y3357545D01*
X9074623Y3226626D01*
X9168868Y3117860D01*
X9168875Y3117855D01*
X9289945Y3040047D01*
X9289949Y3040046D01*
X9428035Y2999500D01*
X9544876Y2999500D01*
X9597202Y2977826D01*
X9815488Y2759540D01*
X9884007Y2719980D01*
X9884016Y2719976D01*
X9957273Y2700347D01*
X10002206Y2665868D01*
X10011367Y2618338D01*
X9994353Y2500000D01*
X10014834Y2357545D01*
X10074623Y2226626D01*
X10168868Y2117860D01*
X10168875Y2117855D01*
X10289945Y2040047D01*
X10289949Y2040046D01*
X10428035Y1999500D01*
X10544876Y1999500D01*
X10597202Y1977826D01*
X10777826Y1797202D01*
X10799500Y1744876D01*
X10799500Y1032540D01*
X10777826Y980214D01*
X10725500Y958540D01*
X10704658Y961536D01*
X10616765Y987344D01*
X10571963Y1000500D01*
X10571961Y1000500D01*
X10428039Y1000500D01*
X10428036Y1000500D01*
X10358950Y980214D01*
X10289947Y959953D01*
X10168872Y882143D01*
X10168869Y882140D01*
X10168868Y882139D01*
X10074623Y773373D01*
X10014834Y642454D01*
X9994353Y500000D01*
X10014834Y357545D01*
X10074623Y226626D01*
X10168868Y117860D01*
X10168872Y117857D01*
X10255394Y62253D01*
X10287695Y15730D01*
X10277639Y-40008D01*
X10255394Y-62253D01*
X10168872Y-117857D01*
X10168868Y-117860D01*
X10074623Y-226626D01*
X10014834Y-357545D01*
X9994353Y-500000D01*
X10014834Y-642454D01*
X10074623Y-773373D01*
X10168868Y-882139D01*
X10168869Y-882140D01*
X10168872Y-882143D01*
X10289947Y-959953D01*
X10372764Y-984270D01*
X10428035Y-1000499D01*
X10428037Y-1000500D01*
X10428039Y-1000500D01*
X10571962Y-1000500D01*
X10598913Y-992586D01*
X10704653Y-961538D01*
X10760964Y-967591D01*
X10796502Y-1011691D01*
X10799500Y-1032540D01*
X10799500Y-1744876D01*
X10777826Y-1797202D01*
X10597202Y-1977826D01*
X10544876Y-1999500D01*
X10428036Y-1999500D01*
X10289949Y-2040046D01*
X10289945Y-2040047D01*
X10168875Y-2117855D01*
X10168868Y-2117860D01*
X10074623Y-2226626D01*
X10014834Y-2357545D01*
X9994353Y-2500000D01*
X10011367Y-2618338D01*
X9997360Y-2673216D01*
X9957273Y-2700347D01*
X9884016Y-2719976D01*
X9884007Y-2719980D01*
X9815488Y-2759540D01*
X9597202Y-2977826D01*
X9544876Y-2999500D01*
X9428036Y-2999500D01*
X9289949Y-3040046D01*
X9289945Y-3040047D01*
X9168875Y-3117855D01*
X9168868Y-3117860D01*
X9074623Y-3226626D01*
X9014834Y-3357545D01*
X8994353Y-3500000D01*
X9014834Y-3642454D01*
X9014834Y-3642455D01*
X9014835Y-3642457D01*
X9047165Y-3713248D01*
X9074623Y-3773373D01*
X9168868Y-3882139D01*
X9168869Y-3882140D01*
X9168872Y-3882143D01*
X9255394Y-3937747D01*
X9287695Y-3984270D01*
X9277639Y-4040008D01*
X9255394Y-4062252D01*
X9218222Y-4086142D01*
X9168872Y-4117857D01*
X9168868Y-4117860D01*
X9074623Y-4226626D01*
X9014834Y-4357545D01*
X8994353Y-4500000D01*
X9014834Y-4642454D01*
X9014834Y-4642455D01*
X9014835Y-4642457D01*
X9049687Y-4718772D01*
X9074623Y-4773373D01*
X9168868Y-4882139D01*
X9168869Y-4882140D01*
X9168872Y-4882143D01*
X9255394Y-4937747D01*
X9287695Y-4984270D01*
X9277639Y-5040008D01*
X9255394Y-5062253D01*
X9168872Y-5117857D01*
X9168868Y-5117860D01*
X9074623Y-5226626D01*
X9014834Y-5357545D01*
X8994353Y-5500000D01*
X9014834Y-5642454D01*
X9074623Y-5773373D01*
X9168868Y-5882139D01*
X9168869Y-5882140D01*
X9168872Y-5882143D01*
X9289947Y-5959953D01*
X9372764Y-5984270D01*
X9428035Y-6000499D01*
X9428037Y-6000500D01*
X9428039Y-6000500D01*
X9571963Y-6000500D01*
X9571964Y-6000499D01*
X9572611Y-6000309D01*
X9710053Y-5959953D01*
X9831128Y-5882143D01*
X9925377Y-5773373D01*
X9932687Y-5757365D01*
X9974139Y-5718772D01*
X10030740Y-5720793D01*
X10067312Y-5757365D01*
X10074623Y-5773373D01*
X10120260Y-5826041D01*
X10168868Y-5882139D01*
X10168869Y-5882140D01*
X10168872Y-5882143D01*
X10289947Y-5959953D01*
X10372764Y-5984270D01*
X10428035Y-6000499D01*
X10428037Y-6000500D01*
X10428039Y-6000500D01*
X10571963Y-6000500D01*
X10571964Y-6000499D01*
X10572611Y-6000309D01*
X10710053Y-5959953D01*
X10831128Y-5882143D01*
X10879741Y-5826041D01*
X10930388Y-5800689D01*
X10935667Y-5800500D01*
X11589564Y-5800500D01*
X11589564Y-5800499D01*
X11665989Y-5780021D01*
X11734511Y-5740460D01*
X11790460Y-5684511D01*
X13690460Y-3784511D01*
X13730022Y-3715988D01*
X13750500Y-3639562D01*
X13750500Y-3560438D01*
X13750500Y3539562D01*
X13750500Y3539564D01*
X13730022Y3615985D01*
X13730021Y3615989D01*
X13690460Y3684511D01*
X13634511Y3740460D01*
X11634511Y5740460D01*
X11625781Y5745500D01*
X11565989Y5780021D01*
X11556953Y5782442D01*
X11489564Y5800500D01*
X11489562Y5800500D01*
X10935667Y5800500D01*
X10883341Y5822174D01*
X10879741Y5826041D01*
X10831131Y5882139D01*
X10831128Y5882143D01*
X10710053Y5959953D01*
X10641007Y5980226D01*
X10571964Y6000500D01*
X10571961Y6000500D01*
X10428039Y6000500D01*
X10428036Y6000500D01*
X10345183Y5976171D01*
X10289947Y5959953D01*
X10168872Y5882143D01*
X10168869Y5882140D01*
X10168868Y5882139D01*
X10132932Y5840666D01*
X10074623Y5773373D01*
X10074623Y5773372D01*
X10067313Y5757366D01*
X10025861Y5718772D01*
X9969260Y5720793D01*
X9932687Y5757366D01*
X9925377Y5773373D01*
X9831128Y5882143D01*
X9710053Y5959953D01*
X9641007Y5980226D01*
X9571964Y6000500D01*
X9571961Y6000500D01*
X9428039Y6000500D01*
X9428036Y6000500D01*
X9345183Y5976171D01*
X9289947Y5959953D01*
X9168872Y5882143D01*
X9168869Y5882140D01*
X9168868Y5882139D01*
X9074623Y5773373D01*
X9014834Y5642454D01*
X8994353Y5500000D01*
X-8994353Y5500000D01*
X-9014834Y5642454D01*
X-9074623Y5773373D01*
X-9168868Y5882139D01*
X-9168869Y5882140D01*
X-9168872Y5882143D01*
X-9289947Y5959953D01*
X-9345183Y5976171D01*
X-9428036Y6000500D01*
X-9428039Y6000500D01*
X-9571961Y6000500D01*
X-9571964Y6000500D01*
X-9641007Y5980226D01*
X-9710053Y5959953D01*
X-9831128Y5882143D01*
X-9925377Y5773373D01*
X-9932687Y5757366D01*
X-9974139Y5718772D01*
X-10030740Y5720793D01*
X-10067313Y5757366D01*
X-10074623Y5773372D01*
X-10074623Y5773373D01*
X-10132932Y5840666D01*
X-10168868Y5882139D01*
X-10168869Y5882140D01*
X-10168872Y5882143D01*
X-10289947Y5959953D01*
X-10345183Y5976171D01*
X-10428036Y6000500D01*
X-10428039Y6000500D01*
X-10571961Y6000500D01*
X-10571964Y6000500D01*
X-10641007Y5980226D01*
X-10710053Y5959953D01*
X-10831128Y5882143D01*
X-10925377Y5773373D01*
X-10985165Y5642457D01*
X-11005647Y5500000D01*
X-10985165Y5357543D01*
X-10925377Y5226627D01*
X-10831128Y5117857D01*
X-10744606Y5062253D01*
X-10712304Y5015730D01*
X-10722360Y4959993D01*
X-10744605Y4937747D01*
X-10831128Y4882143D01*
X-10925377Y4773373D01*
X-10985165Y4642457D01*
X-11005647Y4500000D01*
X-10985165Y4357543D01*
X-10925377Y4226627D01*
X-10831128Y4117857D01*
X-10744606Y4062253D01*
X-10712304Y4015730D01*
X-10722360Y3959993D01*
X-10744605Y3937747D01*
X-10831128Y3882143D01*
X-10925377Y3773373D01*
X-10985165Y3642457D01*
X-11005647Y3500000D01*
X-10985165Y3357543D01*
X-10925377Y3226627D01*
X-10888884Y3184511D01*
X-10878441Y3172460D01*
X-10860555Y3118721D01*
X-10885906Y3068075D01*
X-10934366Y3050000D01*
X-12300000Y3050000D01*
X-13950000Y1400000D01*
X-13950000Y-2150000D01*
X-12650000Y-3450000D01*
X-11350000Y-3450000D01*
X-11343821Y-3443821D01*
X-11303071Y-3423058D01*
X-11241787Y-3413352D01*
X-11224695Y-3410646D01*
X-11224693Y-3410645D01*
X-11167138Y-3381318D01*
X-11111658Y-3353050D01*
X-11111655Y-3353047D01*
X-11111353Y-3352828D01*
X-11111105Y-3352768D01*
X-11106469Y-3350406D01*
X-11105901Y-3351519D01*
X-11056281Y-3339605D01*
X-11007989Y-3369196D01*
X-10994608Y-3423224D01*
X-11005647Y-3500000D01*
X-10996957Y-3560438D01*
X-10986778Y-3631239D01*
X-11000785Y-3686117D01*
X-11040872Y-3713248D01*
X-11065983Y-3719976D01*
X-11065992Y-3719980D01*
X-11134507Y-3759537D01*
X-11134508Y-3759538D01*
X-11134511Y-3759540D01*
X-11601597Y-4226626D01*
X-12052797Y-4677826D01*
X-12105123Y-4699500D01*
X-14039564Y-4699500D01*
X-14115985Y-4719977D01*
X-14115990Y-4719979D01*
X-14151463Y-4740460D01*
X-14184511Y-4759540D01*
X-15584511Y-6159540D01*
X-15640460Y-6215489D01*
X-15660096Y-6249500D01*
X-15680020Y-6284009D01*
X-15680022Y-6284014D01*
X-15700499Y-6360435D01*
X-15700500Y-6360436D01*
X-15700500Y-7003456D01*
X-15722174Y-7055782D01*
X-15728050Y-7061658D01*
X-15742448Y-7089915D01*
X-15759566Y-7123511D01*
X-15802633Y-7160293D01*
X-15859096Y-7155849D01*
X-15895878Y-7112782D01*
X-15899500Y-7089915D01*
X-15899500Y2094876D01*
X-15877826Y2147202D01*
X-15693856Y2331171D01*
X-15653107Y2351934D01*
X-15574699Y2364353D01*
X-15574698Y2364353D01*
X-15461656Y2421951D01*
X-15371951Y2511656D01*
X-15314353Y2624698D01*
X-15294508Y2750000D01*
X-15314353Y2875301D01*
X-15314353Y2875302D01*
X-15314354Y2875304D01*
X-15371950Y2988342D01*
X-15377826Y2994218D01*
X-15399500Y3046544D01*
X-15399500Y3544877D01*
X-15377826Y3597203D01*
X-14509540Y4465488D01*
X-14489615Y4500000D01*
X-14489614Y4499999D01*
X-14469978Y4534011D01*
X-14449500Y4610435D01*
X-14449500Y7644877D01*
X-14431074Y7689361D01*
X-11250500Y7689361D01*
X-11250499Y6810640D01*
X-11235044Y6693238D01*
X-11174536Y6547159D01*
X-11078284Y6421720D01*
X-11078279Y6421715D01*
X-10952841Y6325464D01*
X-10806761Y6264955D01*
X-10716675Y6253095D01*
X-10689361Y6249500D01*
X-10689359Y6249500D01*
X-9810640Y6249500D01*
X-9693240Y6264955D01*
X-9693236Y6264956D01*
X-9547159Y6325463D01*
X-9421720Y6421715D01*
X-9421715Y6421720D01*
X-9325464Y6547158D01*
X-9264955Y6693238D01*
X-9249500Y6810640D01*
X-9249500Y7500000D01*
X-9005647Y7500000D01*
X-8985165Y7357543D01*
X-8925377Y7226627D01*
X-8831128Y7117857D01*
X-8744606Y7062253D01*
X-8712304Y7015730D01*
X-8722360Y6959993D01*
X-8744605Y6937747D01*
X-8831128Y6882143D01*
X-8925377Y6773373D01*
X-8985165Y6642457D01*
X-9005647Y6500000D01*
X-8985165Y6357543D01*
X-8925377Y6226627D01*
X-8831128Y6117857D01*
X-8774182Y6081260D01*
X-8710054Y6040047D01*
X-8710050Y6040046D01*
X-8571964Y5999500D01*
X-8571961Y5999500D01*
X-8428035Y5999500D01*
X-8289949Y6040046D01*
X-8289945Y6040047D01*
X-8168875Y6117855D01*
X-8168868Y6117860D01*
X-8074623Y6226626D01*
X-8014834Y6357545D01*
X-7994353Y6500000D01*
X-8014834Y6642454D01*
X-8074623Y6773373D01*
X-8168868Y6882139D01*
X-8168869Y6882140D01*
X-8168872Y6882143D01*
X-8255394Y6937747D01*
X-8287695Y6984270D01*
X-8277639Y7040008D01*
X-8255394Y7062253D01*
X-8168872Y7117857D01*
X-8168868Y7117860D01*
X-8074623Y7226626D01*
X-8014834Y7357545D01*
X-7994353Y7500000D01*
X-7005647Y7500000D01*
X-6985165Y7357543D01*
X-6925377Y7226627D01*
X-6831128Y7117857D01*
X-6744606Y7062253D01*
X-6712304Y7015730D01*
X-6722360Y6959993D01*
X-6744605Y6937747D01*
X-6831128Y6882143D01*
X-6925377Y6773373D01*
X-6985165Y6642457D01*
X-7005647Y6500000D01*
X-6985165Y6357543D01*
X-6925377Y6226627D01*
X-6831128Y6117857D01*
X-6774182Y6081260D01*
X-6710054Y6040047D01*
X-6710050Y6040046D01*
X-6571964Y5999500D01*
X-6571961Y5999500D01*
X-6428035Y5999500D01*
X-6289949Y6040046D01*
X-6289945Y6040047D01*
X-6168875Y6117855D01*
X-6168868Y6117860D01*
X-6074622Y6226627D01*
X-6067312Y6242635D01*
X-6025859Y6281228D01*
X-5969258Y6279205D01*
X-5932688Y6242635D01*
X-5925377Y6226627D01*
X-5831128Y6117857D01*
X-5774182Y6081260D01*
X-5710054Y6040047D01*
X-5710050Y6040046D01*
X-5571964Y5999500D01*
X-5571961Y5999500D01*
X-5428035Y5999500D01*
X-5289949Y6040046D01*
X-5289945Y6040047D01*
X-5168875Y6117855D01*
X-5168868Y6117860D01*
X-5074622Y6226627D01*
X-5067312Y6242635D01*
X-5025859Y6281228D01*
X-4969258Y6279205D01*
X-4932688Y6242635D01*
X-4925377Y6226627D01*
X-4831128Y6117857D01*
X-4774182Y6081260D01*
X-4710054Y6040047D01*
X-4710050Y6040046D01*
X-4571964Y5999500D01*
X-4571961Y5999500D01*
X-4428035Y5999500D01*
X-4289949Y6040046D01*
X-4289945Y6040047D01*
X-4168875Y6117855D01*
X-4168868Y6117860D01*
X-4074622Y6226627D01*
X-4067312Y6242635D01*
X-4025859Y6281228D01*
X-3969258Y6279205D01*
X-3932688Y6242635D01*
X-3925377Y6226627D01*
X-3831128Y6117857D01*
X-3774182Y6081260D01*
X-3710054Y6040047D01*
X-3710050Y6040046D01*
X-3571964Y5999500D01*
X-3571961Y5999500D01*
X-3428035Y5999500D01*
X-3289949Y6040046D01*
X-3289945Y6040047D01*
X-3168875Y6117855D01*
X-3168868Y6117860D01*
X-3074622Y6226627D01*
X-3067312Y6242635D01*
X-3025859Y6281228D01*
X-2969258Y6279205D01*
X-2932688Y6242635D01*
X-2925377Y6226627D01*
X-2831128Y6117857D01*
X-2774182Y6081260D01*
X-2710054Y6040047D01*
X-2710050Y6040046D01*
X-2571964Y5999500D01*
X-2571961Y5999500D01*
X-2428035Y5999500D01*
X-2289949Y6040046D01*
X-2289945Y6040047D01*
X-2168875Y6117855D01*
X-2168868Y6117860D01*
X-2074622Y6226627D01*
X-2067312Y6242635D01*
X-2025859Y6281228D01*
X-1969258Y6279205D01*
X-1932688Y6242635D01*
X-1925377Y6226627D01*
X-1831128Y6117857D01*
X-1774182Y6081260D01*
X-1710054Y6040047D01*
X-1710050Y6040046D01*
X-1571964Y5999500D01*
X-1571961Y5999500D01*
X-1428035Y5999500D01*
X-1289949Y6040046D01*
X-1289945Y6040047D01*
X-1168875Y6117855D01*
X-1168868Y6117860D01*
X-1074622Y6226627D01*
X-1067312Y6242635D01*
X-1025859Y6281228D01*
X-969258Y6279205D01*
X-932688Y6242635D01*
X-925377Y6226627D01*
X-831128Y6117857D01*
X-774182Y6081260D01*
X-710054Y6040047D01*
X-710050Y6040046D01*
X-571964Y5999500D01*
X-571961Y5999500D01*
X-428035Y5999500D01*
X-289949Y6040046D01*
X-289945Y6040047D01*
X-168875Y6117855D01*
X-168868Y6117860D01*
X-74622Y6226627D01*
X-67312Y6242635D01*
X-25859Y6281228D01*
X30742Y6279205D01*
X67312Y6242635D01*
X74622Y6226627D01*
X168868Y6117860D01*
X168875Y6117855D01*
X289945Y6040047D01*
X289949Y6040046D01*
X428035Y5999500D01*
X428039Y5999500D01*
X571964Y5999500D01*
X710050Y6040046D01*
X710054Y6040047D01*
X774182Y6081260D01*
X831128Y6117857D01*
X925377Y6226627D01*
X932688Y6242635D01*
X974141Y6281228D01*
X1030742Y6279205D01*
X1067312Y6242635D01*
X1074622Y6226627D01*
X1168868Y6117860D01*
X1168875Y6117855D01*
X1289945Y6040047D01*
X1289949Y6040046D01*
X1428035Y5999500D01*
X1428039Y5999500D01*
X1571964Y5999500D01*
X1710050Y6040046D01*
X1710054Y6040047D01*
X1774182Y6081260D01*
X1831128Y6117857D01*
X1925377Y6226627D01*
X1932688Y6242635D01*
X1974141Y6281228D01*
X2030742Y6279205D01*
X2067312Y6242635D01*
X2074622Y6226627D01*
X2168868Y6117860D01*
X2168875Y6117855D01*
X2289945Y6040047D01*
X2289949Y6040046D01*
X2428035Y5999500D01*
X2428039Y5999500D01*
X2571964Y5999500D01*
X2710050Y6040046D01*
X2710054Y6040047D01*
X2774182Y6081260D01*
X2831128Y6117857D01*
X2925377Y6226627D01*
X2932688Y6242635D01*
X2974141Y6281228D01*
X3030742Y6279205D01*
X3067312Y6242635D01*
X3074622Y6226627D01*
X3168868Y6117860D01*
X3168875Y6117855D01*
X3289945Y6040047D01*
X3289949Y6040046D01*
X3428035Y5999500D01*
X3428039Y5999500D01*
X3571964Y5999500D01*
X3710050Y6040046D01*
X3710054Y6040047D01*
X3774182Y6081260D01*
X3831128Y6117857D01*
X3925377Y6226627D01*
X3932688Y6242635D01*
X3974141Y6281228D01*
X4030742Y6279205D01*
X4067312Y6242635D01*
X4074622Y6226627D01*
X4168868Y6117860D01*
X4168875Y6117855D01*
X4289945Y6040047D01*
X4289949Y6040046D01*
X4428035Y5999500D01*
X4428039Y5999500D01*
X4571964Y5999500D01*
X4710050Y6040046D01*
X4710054Y6040047D01*
X4774182Y6081260D01*
X4831128Y6117857D01*
X4925377Y6226627D01*
X4932688Y6242635D01*
X4974141Y6281228D01*
X5030742Y6279205D01*
X5067312Y6242635D01*
X5074622Y6226627D01*
X5168868Y6117860D01*
X5168875Y6117855D01*
X5289945Y6040047D01*
X5289949Y6040046D01*
X5428035Y5999500D01*
X5428039Y5999500D01*
X5571964Y5999500D01*
X5710050Y6040046D01*
X5710054Y6040047D01*
X5774182Y6081260D01*
X5831128Y6117857D01*
X5925377Y6226627D01*
X5932688Y6242635D01*
X5974141Y6281228D01*
X6030742Y6279205D01*
X6067312Y6242635D01*
X6074622Y6226627D01*
X6168868Y6117860D01*
X6168875Y6117855D01*
X6289945Y6040047D01*
X6289949Y6040046D01*
X6428035Y5999500D01*
X6428039Y5999500D01*
X6571964Y5999500D01*
X6710050Y6040046D01*
X6710054Y6040047D01*
X6774182Y6081260D01*
X6831128Y6117857D01*
X6925377Y6226627D01*
X6932688Y6242635D01*
X6974141Y6281228D01*
X7030742Y6279205D01*
X7067312Y6242635D01*
X7074622Y6226627D01*
X7168868Y6117860D01*
X7168875Y6117855D01*
X7289945Y6040047D01*
X7289949Y6040046D01*
X7428035Y5999500D01*
X7428039Y5999500D01*
X7571964Y5999500D01*
X7710050Y6040046D01*
X7710054Y6040047D01*
X7774182Y6081260D01*
X7831128Y6117857D01*
X7925377Y6226627D01*
X7932688Y6242635D01*
X7974141Y6281228D01*
X8030742Y6279205D01*
X8067312Y6242635D01*
X8074622Y6226627D01*
X8168868Y6117860D01*
X8168875Y6117855D01*
X8289945Y6040047D01*
X8289949Y6040046D01*
X8428035Y5999500D01*
X8428039Y5999500D01*
X8571964Y5999500D01*
X8710050Y6040046D01*
X8710054Y6040047D01*
X8774182Y6081260D01*
X8831128Y6117857D01*
X8925377Y6226627D01*
X8985165Y6357543D01*
X9005647Y6500000D01*
X8985165Y6642457D01*
X8925377Y6773373D01*
X8831128Y6882143D01*
X8744605Y6937747D01*
X8712304Y6984270D01*
X8722360Y7040007D01*
X8744606Y7062253D01*
X8831128Y7117857D01*
X8925377Y7226627D01*
X8985165Y7357543D01*
X9005647Y7500000D01*
X8985165Y7642457D01*
X8963745Y7689359D01*
X9249500Y7689359D01*
X9249500Y6810640D01*
X9264955Y6693240D01*
X9264956Y6693236D01*
X9325463Y6547159D01*
X9421715Y6421720D01*
X9421720Y6421715D01*
X9547158Y6325464D01*
X9693238Y6264955D01*
X9796981Y6251297D01*
X9810639Y6249500D01*
X9810640Y6249500D01*
X10689359Y6249500D01*
X10806759Y6264955D01*
X10806763Y6264956D01*
X10952840Y6325463D01*
X11078279Y6421715D01*
X11078284Y6421720D01*
X11174535Y6547158D01*
X11174536Y6547159D01*
X11235044Y6693238D01*
X11250500Y6810639D01*
X11250499Y7689360D01*
X11235044Y7806762D01*
X11174536Y7952841D01*
X11078282Y8078282D01*
X10952841Y8174536D01*
X10806762Y8235044D01*
X10689361Y8250500D01*
X9810640Y8250499D01*
X9693238Y8235044D01*
X9693236Y8235043D01*
X9547159Y8174536D01*
X9421720Y8078284D01*
X9421715Y8078279D01*
X9325464Y7952841D01*
X9264955Y7806761D01*
X9260560Y7773373D01*
X9250533Y7697203D01*
X9249500Y7689359D01*
X8963745Y7689359D01*
X8925377Y7773373D01*
X8831128Y7882143D01*
X8710053Y7959953D01*
X8641007Y7980226D01*
X8571964Y8000500D01*
X8571961Y8000500D01*
X8428039Y8000500D01*
X8428036Y8000500D01*
X8345183Y7976171D01*
X8289947Y7959953D01*
X8168872Y7882143D01*
X8168869Y7882140D01*
X8168868Y7882139D01*
X8132932Y7840666D01*
X8074623Y7773373D01*
X8074623Y7773372D01*
X8067313Y7757366D01*
X8025861Y7718772D01*
X7969260Y7720793D01*
X7932687Y7757366D01*
X7925377Y7773373D01*
X7831128Y7882143D01*
X7710053Y7959953D01*
X7641007Y7980226D01*
X7571964Y8000500D01*
X7571961Y8000500D01*
X7428039Y8000500D01*
X7428036Y8000500D01*
X7345183Y7976171D01*
X7289947Y7959953D01*
X7168872Y7882143D01*
X7168869Y7882140D01*
X7168868Y7882139D01*
X7132932Y7840666D01*
X7074623Y7773373D01*
X7074623Y7773372D01*
X7067313Y7757366D01*
X7025861Y7718772D01*
X6969260Y7720793D01*
X6932687Y7757366D01*
X6925377Y7773373D01*
X6831128Y7882143D01*
X6710053Y7959953D01*
X6641007Y7980226D01*
X6571964Y8000500D01*
X6571961Y8000500D01*
X6428039Y8000500D01*
X6428036Y8000500D01*
X6345183Y7976171D01*
X6289947Y7959953D01*
X6168872Y7882143D01*
X6168869Y7882140D01*
X6168868Y7882139D01*
X6132932Y7840666D01*
X6074623Y7773373D01*
X6074623Y7773372D01*
X6067313Y7757366D01*
X6025861Y7718772D01*
X5969260Y7720793D01*
X5932687Y7757366D01*
X5925377Y7773373D01*
X5831128Y7882143D01*
X5710053Y7959953D01*
X5641007Y7980226D01*
X5571964Y8000500D01*
X5571961Y8000500D01*
X5428039Y8000500D01*
X5428036Y8000500D01*
X5345183Y7976171D01*
X5289947Y7959953D01*
X5168872Y7882143D01*
X5168869Y7882140D01*
X5168868Y7882139D01*
X5132932Y7840666D01*
X5074623Y7773373D01*
X5074623Y7773372D01*
X5067313Y7757366D01*
X5025861Y7718772D01*
X4969260Y7720793D01*
X4932687Y7757366D01*
X4925377Y7773373D01*
X4831128Y7882143D01*
X4710053Y7959953D01*
X4641007Y7980226D01*
X4571964Y8000500D01*
X4571961Y8000500D01*
X4428039Y8000500D01*
X4428036Y8000500D01*
X4345183Y7976171D01*
X4289947Y7959953D01*
X4168872Y7882143D01*
X4168869Y7882140D01*
X4168868Y7882139D01*
X4132932Y7840666D01*
X4074623Y7773373D01*
X4074623Y7773372D01*
X4067313Y7757366D01*
X4025861Y7718772D01*
X3969260Y7720793D01*
X3932687Y7757366D01*
X3925377Y7773373D01*
X3831128Y7882143D01*
X3710053Y7959953D01*
X3641007Y7980226D01*
X3571964Y8000500D01*
X3571961Y8000500D01*
X3428039Y8000500D01*
X3428036Y8000500D01*
X3345183Y7976171D01*
X3289947Y7959953D01*
X3168872Y7882143D01*
X3168869Y7882140D01*
X3168868Y7882139D01*
X3132932Y7840666D01*
X3074623Y7773373D01*
X3074623Y7773372D01*
X3067313Y7757366D01*
X3025861Y7718772D01*
X2969260Y7720793D01*
X2932687Y7757366D01*
X2925377Y7773373D01*
X2831128Y7882143D01*
X2710053Y7959953D01*
X2641007Y7980226D01*
X2571964Y8000500D01*
X2571961Y8000500D01*
X2428039Y8000500D01*
X2428036Y8000500D01*
X2345183Y7976171D01*
X2289947Y7959953D01*
X2168872Y7882143D01*
X2168869Y7882140D01*
X2168868Y7882139D01*
X2132932Y7840666D01*
X2074623Y7773373D01*
X2074623Y7773372D01*
X2067313Y7757366D01*
X2025861Y7718772D01*
X1969260Y7720793D01*
X1932687Y7757366D01*
X1925377Y7773373D01*
X1831128Y7882143D01*
X1710053Y7959953D01*
X1641007Y7980226D01*
X1571964Y8000500D01*
X1571961Y8000500D01*
X1428039Y8000500D01*
X1428036Y8000500D01*
X1345183Y7976171D01*
X1289947Y7959953D01*
X1168872Y7882143D01*
X1168869Y7882140D01*
X1168868Y7882139D01*
X1132932Y7840666D01*
X1074623Y7773373D01*
X1074623Y7773372D01*
X1067313Y7757366D01*
X1025861Y7718772D01*
X969260Y7720793D01*
X932687Y7757366D01*
X925377Y7773373D01*
X831128Y7882143D01*
X710053Y7959953D01*
X641007Y7980226D01*
X571964Y8000500D01*
X571961Y8000500D01*
X428039Y8000500D01*
X428036Y8000500D01*
X345183Y7976171D01*
X289947Y7959953D01*
X168872Y7882143D01*
X168869Y7882140D01*
X168868Y7882139D01*
X132932Y7840666D01*
X74623Y7773373D01*
X74623Y7773372D01*
X67313Y7757366D01*
X25861Y7718772D01*
X-30740Y7720793D01*
X-67313Y7757366D01*
X-74623Y7773372D01*
X-74623Y7773373D01*
X-132932Y7840666D01*
X-168868Y7882139D01*
X-168869Y7882140D01*
X-168872Y7882143D01*
X-289947Y7959953D01*
X-345183Y7976171D01*
X-428036Y8000500D01*
X-428039Y8000500D01*
X-571961Y8000500D01*
X-571964Y8000500D01*
X-641007Y7980226D01*
X-710053Y7959953D01*
X-831128Y7882143D01*
X-925377Y7773373D01*
X-932687Y7757366D01*
X-974139Y7718772D01*
X-1030740Y7720793D01*
X-1067313Y7757366D01*
X-1074623Y7773372D01*
X-1074623Y7773373D01*
X-1132932Y7840666D01*
X-1168868Y7882139D01*
X-1168869Y7882140D01*
X-1168872Y7882143D01*
X-1289947Y7959953D01*
X-1345183Y7976171D01*
X-1428036Y8000500D01*
X-1428039Y8000500D01*
X-1571961Y8000500D01*
X-1571964Y8000500D01*
X-1641007Y7980226D01*
X-1710053Y7959953D01*
X-1831128Y7882143D01*
X-1925377Y7773373D01*
X-1932687Y7757366D01*
X-1974139Y7718772D01*
X-2030740Y7720793D01*
X-2067313Y7757366D01*
X-2074623Y7773372D01*
X-2074623Y7773373D01*
X-2132932Y7840666D01*
X-2168868Y7882139D01*
X-2168869Y7882140D01*
X-2168872Y7882143D01*
X-2289947Y7959953D01*
X-2345183Y7976171D01*
X-2428036Y8000500D01*
X-2428039Y8000500D01*
X-2571961Y8000500D01*
X-2571964Y8000500D01*
X-2641007Y7980226D01*
X-2710053Y7959953D01*
X-2831128Y7882143D01*
X-2925377Y7773373D01*
X-2932687Y7757366D01*
X-2974139Y7718772D01*
X-3030740Y7720793D01*
X-3067313Y7757366D01*
X-3074623Y7773372D01*
X-3074623Y7773373D01*
X-3132932Y7840666D01*
X-3168868Y7882139D01*
X-3168869Y7882140D01*
X-3168872Y7882143D01*
X-3289947Y7959953D01*
X-3345183Y7976171D01*
X-3428036Y8000500D01*
X-3428039Y8000500D01*
X-3571961Y8000500D01*
X-3571964Y8000500D01*
X-3641007Y7980226D01*
X-3710053Y7959953D01*
X-3831128Y7882143D01*
X-3925377Y7773373D01*
X-3932687Y7757366D01*
X-3974139Y7718772D01*
X-4030740Y7720793D01*
X-4067313Y7757366D01*
X-4074623Y7773372D01*
X-4074623Y7773373D01*
X-4132932Y7840666D01*
X-4168868Y7882139D01*
X-4168869Y7882140D01*
X-4168872Y7882143D01*
X-4289947Y7959953D01*
X-4345183Y7976171D01*
X-4428036Y8000500D01*
X-4428039Y8000500D01*
X-4571961Y8000500D01*
X-4571964Y8000500D01*
X-4641007Y7980226D01*
X-4710053Y7959953D01*
X-4831128Y7882143D01*
X-4925377Y7773373D01*
X-4932687Y7757366D01*
X-4974139Y7718772D01*
X-5030740Y7720793D01*
X-5067313Y7757366D01*
X-5074623Y7773372D01*
X-5074623Y7773373D01*
X-5132932Y7840666D01*
X-5168868Y7882139D01*
X-5168869Y7882140D01*
X-5168872Y7882143D01*
X-5289947Y7959953D01*
X-5345183Y7976171D01*
X-5428036Y8000500D01*
X-5428039Y8000500D01*
X-5571961Y8000500D01*
X-5571964Y8000500D01*
X-5641007Y7980226D01*
X-5710053Y7959953D01*
X-5831128Y7882143D01*
X-5925377Y7773373D01*
X-5932687Y7757366D01*
X-5974139Y7718772D01*
X-6030740Y7720793D01*
X-6067313Y7757366D01*
X-6074623Y7773372D01*
X-6074623Y7773373D01*
X-6132932Y7840666D01*
X-6168868Y7882139D01*
X-6168869Y7882140D01*
X-6168872Y7882143D01*
X-6289947Y7959953D01*
X-6345183Y7976171D01*
X-6428036Y8000500D01*
X-6428039Y8000500D01*
X-6571961Y8000500D01*
X-6571964Y8000500D01*
X-6641007Y7980226D01*
X-6710053Y7959953D01*
X-6831128Y7882143D01*
X-6925377Y7773373D01*
X-6985165Y7642457D01*
X-7005647Y7500000D01*
X-7994353Y7500000D01*
X-8014834Y7642454D01*
X-8015941Y7644877D01*
X-8074623Y7773373D01*
X-8103552Y7806759D01*
X-8168868Y7882139D01*
X-8168869Y7882140D01*
X-8168872Y7882143D01*
X-8289947Y7959953D01*
X-8345183Y7976171D01*
X-8428036Y8000500D01*
X-8428039Y8000500D01*
X-8571961Y8000500D01*
X-8571964Y8000500D01*
X-8641007Y7980226D01*
X-8710053Y7959953D01*
X-8831128Y7882143D01*
X-8925377Y7773373D01*
X-8985165Y7642457D01*
X-9005647Y7500000D01*
X-9249500Y7500000D01*
X-9249500Y7689359D01*
X-9264955Y7806759D01*
X-9264956Y7806763D01*
X-9325463Y7952840D01*
X-9421715Y8078279D01*
X-9421720Y8078284D01*
X-9547158Y8174535D01*
X-9547159Y8174536D01*
X-9693238Y8235044D01*
X-9810639Y8250500D01*
X-10689360Y8250499D01*
X-10806762Y8235044D01*
X-10952841Y8174536D01*
X-11078282Y8078282D01*
X-11174536Y7952841D01*
X-11235044Y7806762D01*
X-11250500Y7689361D01*
X-14431074Y7689361D01*
X-14427826Y7697203D01*
X-13347203Y8777826D01*
X-13294877Y8799500D01*
X-7810435Y8799500D01*
X-7734014Y8819977D01*
X-7734009Y8819979D01*
X-7665488Y8859540D01*
X-7059540Y9465488D01*
X-7031328Y9514354D01*
X-7019979Y9534009D01*
X-7019977Y9534014D01*
X-6999500Y9610435D01*
X-6999500Y12526002D01*
X144500Y12526002D01*
X144500Y11023999D01*
X149197Y10980315D01*
X160407Y10928784D01*
X162888Y10918629D01*
X162889Y10918627D01*
X205899Y10837916D01*
X205901Y10837912D01*
X251651Y10785115D01*
X269248Y10767155D01*
X349062Y10722510D01*
X349060Y10722510D01*
X416098Y10702825D01*
X416103Y10702824D01*
X473997Y10694500D01*
X474000Y10694500D01*
X1326001Y10694500D01*
X1369684Y10699197D01*
X1421215Y10710407D01*
X1431370Y10712888D01*
X1431372Y10712889D01*
X1512083Y10755899D01*
X1512087Y10755901D01*
X1562629Y10799697D01*
X1564889Y10801655D01*
X1582843Y10819246D01*
X1605166Y10859154D01*
X1627489Y10899061D01*
X1633235Y10918627D01*
X1647175Y10966102D01*
X1655500Y11024000D01*
X1655500Y11320000D01*
X2794508Y11320000D01*
X2814353Y11194698D01*
X2871951Y11081656D01*
X2961656Y10991951D01*
X3074698Y10934353D01*
X3200000Y10914508D01*
X3325301Y10934353D01*
X3325302Y10934353D01*
X3325304Y10934354D01*
X3438342Y10991950D01*
X3446392Y11000000D01*
X6094508Y11000000D01*
X6114353Y10874698D01*
X6171951Y10761656D01*
X6261656Y10671951D01*
X6374698Y10614353D01*
X6500000Y10594508D01*
X6625301Y10614353D01*
X6625302Y10614353D01*
X6625304Y10614354D01*
X6738342Y10671950D01*
X6828050Y10761658D01*
X6885646Y10874696D01*
X6905492Y11000000D01*
X8694508Y11000000D01*
X8714353Y10874698D01*
X8771951Y10761656D01*
X8861656Y10671951D01*
X8974698Y10614353D01*
X9100000Y10594508D01*
X9225301Y10614353D01*
X9225302Y10614353D01*
X9225304Y10614354D01*
X9338342Y10671950D01*
X9428050Y10761658D01*
X9485646Y10874696D01*
X9505492Y11000000D01*
X9485646Y11125304D01*
X9428050Y11238342D01*
X9338342Y11328050D01*
X9225304Y11385646D01*
X9100000Y11405492D01*
X8974696Y11385646D01*
X8861658Y11328050D01*
X8771950Y11238342D01*
X8714354Y11125304D01*
X8714353Y11125302D01*
X8714353Y11125301D01*
X8694508Y11000000D01*
X6905492Y11000000D01*
X6885646Y11125304D01*
X6828050Y11238342D01*
X6738342Y11328050D01*
X6625304Y11385646D01*
X6500000Y11405492D01*
X6374696Y11385646D01*
X6261658Y11328050D01*
X6171950Y11238342D01*
X6114354Y11125304D01*
X6114353Y11125302D01*
X6114353Y11125301D01*
X6094508Y11000000D01*
X3446392Y11000000D01*
X3528050Y11081658D01*
X3585646Y11194696D01*
X3605492Y11320000D01*
X3585646Y11445304D01*
X3528050Y11558342D01*
X3438342Y11648050D01*
X3325304Y11705646D01*
X3200000Y11725492D01*
X3074696Y11705646D01*
X2961658Y11648050D01*
X2871950Y11558342D01*
X2814354Y11445304D01*
X2814353Y11445302D01*
X2814353Y11445301D01*
X2794508Y11320000D01*
X1655500Y11320000D01*
X1655500Y12526000D01*
X1650803Y12569684D01*
X1639597Y12621195D01*
X1637110Y12631373D01*
X1594100Y12712085D01*
X1548345Y12764889D01*
X1530754Y12782843D01*
X1450937Y12827490D01*
X1383898Y12847175D01*
X1326000Y12855500D01*
X474000Y12855500D01*
X473999Y12855500D01*
X469302Y12854994D01*
X430316Y12850803D01*
X378805Y12839597D01*
X378788Y12839593D01*
X378784Y12839592D01*
X368629Y12837111D01*
X368627Y12837110D01*
X287915Y12794100D01*
X287913Y12794098D01*
X287912Y12794098D01*
X266618Y12775646D01*
X235111Y12748345D01*
X217157Y12730754D01*
X217155Y12730751D01*
X172510Y12650938D01*
X152825Y12583901D01*
X152824Y12583896D01*
X144500Y12526002D01*
X-6999500Y12526002D01*
X-6999500Y14694877D01*
X-6977826Y14747203D01*
X-5712529Y16012500D01*
X-3905492Y16012500D01*
X-3885646Y15887196D01*
X-3828050Y15774158D01*
X-3738342Y15684450D01*
X-3625304Y15626854D01*
X-3625302Y15626853D01*
X-3625301Y15626853D01*
X-3500000Y15607008D01*
X-3374698Y15626853D01*
X-3261656Y15684451D01*
X-3171951Y15774156D01*
X-3114353Y15887198D01*
X-3096488Y16000000D01*
X-80804Y16000000D01*
X-62938Y15887198D01*
X-59719Y15866873D01*
X1471Y15746780D01*
X96780Y15651471D01*
X216871Y15590282D01*
X216877Y15590280D01*
X291174Y15578512D01*
X331922Y15557750D01*
X350138Y15539534D01*
X387250Y15518108D01*
X424359Y15496682D01*
X424364Y15496680D01*
X507144Y15474499D01*
X507147Y15474499D01*
X597383Y15474499D01*
X597399Y15474500D01*
X3242851Y15474500D01*
X3242853Y15474500D01*
X3325639Y15496682D01*
X3325641Y15496683D01*
X3325643Y15496684D01*
X3399858Y15539532D01*
X3399860Y15539534D01*
X3399862Y15539535D01*
X3418077Y15557750D01*
X3458824Y15578512D01*
X3533122Y15590280D01*
X3533124Y15590280D01*
X3533126Y15590281D01*
X3604903Y15626853D01*
X3653219Y15651471D01*
X3748528Y15746780D01*
X3809718Y15866873D01*
X3809719Y15866873D01*
X3812938Y15887198D01*
X3830804Y16000000D01*
X3809719Y16133126D01*
X3748528Y16253220D01*
X3653220Y16348528D01*
X3533126Y16409719D01*
X3400000Y16430804D01*
X3266873Y16409719D01*
X3266873Y16409718D01*
X3146780Y16348528D01*
X3051472Y16253220D01*
X3006981Y16165903D01*
X2963916Y16129122D01*
X2941049Y16125500D01*
X808951Y16125500D01*
X756625Y16147174D01*
X743020Y16165899D01*
X698528Y16253220D01*
X603220Y16348528D01*
X483126Y16409719D01*
X350000Y16430804D01*
X216873Y16409719D01*
X216873Y16409718D01*
X96780Y16348528D01*
X1471Y16253219D01*
X260Y16250842D01*
X-59719Y16133126D01*
X-80804Y16000000D01*
X-3096488Y16000000D01*
X-3094508Y16012500D01*
X-3114353Y16137801D01*
X-3114353Y16137802D01*
X-3114354Y16137804D01*
X-3171950Y16250842D01*
X-3261658Y16340550D01*
X-3374696Y16398146D01*
X-3500000Y16417992D01*
X-3625304Y16398146D01*
X-3738342Y16340550D01*
X-3828050Y16250842D01*
X-3885646Y16137804D01*
X-3905492Y16012500D01*
X-5712529Y16012500D01*
X-4797203Y16927826D01*
X-4744877Y16949500D01*
X1694877Y16949500D01*
X1747203Y16927826D01*
X1747203Y16927825D01*
X1851096Y16823930D01*
X1871859Y16783182D01*
X1890281Y16666873D01*
X1951471Y16546780D01*
X2046780Y16451471D01*
X2166873Y16390281D01*
X2166873Y16390280D01*
X2300000Y16369196D01*
X2433126Y16390280D01*
X2433126Y16390281D01*
X2553219Y16451471D01*
X2648528Y16546780D01*
X2665702Y16580486D01*
X2709718Y16666873D01*
X2709719Y16666873D01*
X2712601Y16685075D01*
X2730804Y16800000D01*
X2709719Y16933126D01*
X2648528Y17053220D01*
X2553220Y17148528D01*
X2433126Y17209719D01*
X2316814Y17228140D01*
X2276068Y17248901D01*
X2034511Y17490460D01*
X1965989Y17530021D01*
X1956953Y17532442D01*
X1889564Y17550500D01*
X1889562Y17550500D01*
X-4860438Y17550500D01*
X-4939562Y17550500D01*
X-5015988Y17530022D01*
X-5084511Y17490460D01*
X-7484511Y15090460D01*
X-7540460Y15034511D01*
X-7580021Y14965989D01*
X-7580022Y14965985D01*
X-7600499Y14889564D01*
X-7600500Y14889564D01*
X-7600500Y9805123D01*
X-7622174Y9752797D01*
X-7952797Y9422174D01*
X-8005123Y9400500D01*
X-8204916Y9400500D01*
X-8257242Y9422174D01*
X-8278916Y9474500D01*
X-8257242Y9526826D01*
X-8238514Y9540432D01*
X-8176658Y9571950D01*
X-8176656Y9571951D01*
X-8086951Y9661656D01*
X-8029353Y9774698D01*
X-8009508Y9900000D01*
X-8029353Y10025301D01*
X-8029353Y10025302D01*
X-8029354Y10025304D01*
X-8086950Y10138342D01*
X-8176658Y10228050D01*
X-8289696Y10285646D01*
X-8415000Y10305492D01*
X-8540304Y10285646D01*
X-8653342Y10228050D01*
X-8743050Y10138342D01*
X-8800646Y10025304D01*
X-8820492Y9900000D01*
X-8800646Y9774696D01*
X-8743050Y9661658D01*
X-8653342Y9571950D01*
X-8591487Y9540433D01*
X-8554706Y9497367D01*
X-8559149Y9440905D01*
X-8602217Y9404122D01*
X-8625084Y9400500D01*
X-13410438Y9400500D01*
X-13489562Y9400500D01*
X-13565988Y9380022D01*
X-13634511Y9340460D01*
X-14934511Y8040460D01*
X-14990460Y7984511D01*
X-15030021Y7915989D01*
X-15030022Y7915985D01*
X-15050499Y7839564D01*
X-15050500Y7839564D01*
X-15050500Y4805122D01*
X-15072173Y4752797D01*
X-15174781Y4650189D01*
X-15227106Y4628516D01*
X-15279432Y4650190D01*
X-15301106Y4702516D01*
X-15300195Y4714092D01*
X-15294508Y4749999D01*
X-15314353Y4875301D01*
X-15314353Y4875302D01*
X-15314354Y4875304D01*
X-15371950Y4988342D01*
X-15377826Y4994218D01*
X-15399500Y5046544D01*
X-15399500Y9982354D01*
X-15377826Y10034680D01*
X-15325500Y10056354D01*
X-15291905Y10048289D01*
X-15225304Y10014354D01*
X-15225302Y10014353D01*
X-15225301Y10014353D01*
X-15100000Y9994508D01*
X-14974698Y10014353D01*
X-14861656Y10071951D01*
X-14771951Y10161656D01*
X-14714353Y10274698D01*
X-14698089Y10377390D01*
X-14686912Y10395627D01*
X-14690534Y10404371D01*
X-14563087Y10404371D01*
X-14551911Y10377390D01*
X-14535646Y10274696D01*
X-14478050Y10161658D01*
X-14388342Y10071950D01*
X-14275304Y10014354D01*
X-14275302Y10014353D01*
X-14275301Y10014353D01*
X-14150000Y9994508D01*
X-14024698Y10014353D01*
X-13911656Y10071951D01*
X-13821951Y10161656D01*
X-13764353Y10274698D01*
X-13744508Y10400000D01*
X-13105492Y10400000D01*
X-13085646Y10274696D01*
X-13028050Y10161658D01*
X-12938342Y10071950D01*
X-12825304Y10014354D01*
X-12825302Y10014353D01*
X-12825301Y10014353D01*
X-12700000Y9994508D01*
X-12574698Y10014353D01*
X-12461656Y10071951D01*
X-12371951Y10161656D01*
X-12314353Y10274698D01*
X-12294508Y10400000D01*
X-12314353Y10525301D01*
X-12314353Y10525302D01*
X-12314354Y10525304D01*
X-12371950Y10638342D01*
X-12461658Y10728050D01*
X-12574696Y10785646D01*
X-12700000Y10805492D01*
X-12825304Y10785646D01*
X-12938342Y10728050D01*
X-13028050Y10638342D01*
X-13085646Y10525304D01*
X-13105492Y10400000D01*
X-13744508Y10400000D01*
X-13764353Y10525301D01*
X-13764353Y10525302D01*
X-13764354Y10525304D01*
X-13821950Y10638342D01*
X-13911658Y10728050D01*
X-14024696Y10785646D01*
X-14150000Y10805492D01*
X-14275304Y10785646D01*
X-14388342Y10728050D01*
X-14478050Y10638342D01*
X-14535646Y10525304D01*
X-14551911Y10422609D01*
X-14563087Y10404371D01*
X-14690534Y10404371D01*
X-14698089Y10422609D01*
X-14714353Y10525301D01*
X-14714353Y10525302D01*
X-14714354Y10525304D01*
X-14771950Y10638342D01*
X-14861658Y10728050D01*
X-14974696Y10785646D01*
X-15059747Y10799116D01*
X-15108037Y10828708D01*
X-15121259Y10883781D01*
X-15100496Y10924531D01*
X-14950007Y11075021D01*
X-14897681Y11096695D01*
X-14858803Y11084063D01*
X-14858532Y11084595D01*
X-14855173Y11082884D01*
X-14854186Y11082563D01*
X-14853345Y11081952D01*
X-14853342Y11081950D01*
X-14740304Y11024354D01*
X-14740302Y11024353D01*
X-14740301Y11024353D01*
X-14615000Y11004508D01*
X-14489698Y11024353D01*
X-14459845Y11039564D01*
X-14376658Y11081950D01*
X-14376657Y11081950D01*
X-14376651Y11081954D01*
X-14371952Y11085368D01*
X-14328458Y11099500D01*
X-10280121Y11099500D01*
X-10227795Y11077826D01*
X-10068826Y10918857D01*
X-10048063Y10878107D01*
X-10035645Y10799697D01*
X-9978049Y10686659D01*
X-9888341Y10596951D01*
X-9775303Y10539355D01*
X-9775301Y10539354D01*
X-9775300Y10539354D01*
X-9649999Y10519509D01*
X-9524697Y10539354D01*
X-9411655Y10596952D01*
X-9321950Y10686657D01*
X-9264352Y10799699D01*
X-9244507Y10925001D01*
X-9264352Y11050302D01*
X-9264352Y11050303D01*
X-9264353Y11050305D01*
X-9321949Y11163343D01*
X-9411657Y11253051D01*
X-9524695Y11310647D01*
X-9603105Y11323065D01*
X-9643855Y11343828D01*
X-9940486Y11640459D01*
X-9940487Y11640460D01*
X-10009009Y11680021D01*
X-10009010Y11680021D01*
X-10009012Y11680022D01*
X-10085434Y11700500D01*
X-10085436Y11700500D01*
X-14308456Y11700500D01*
X-14360782Y11722174D01*
X-14376656Y11738048D01*
X-14376658Y11738050D01*
X-14489696Y11795646D01*
X-14615000Y11815492D01*
X-14740304Y11795646D01*
X-14853342Y11738050D01*
X-14859218Y11732174D01*
X-14911544Y11710500D01*
X-15035876Y11710500D01*
X-15088202Y11732174D01*
X-15109876Y11784500D01*
X-15088202Y11836826D01*
X-14897808Y12027219D01*
X-14845482Y12048893D01*
X-14811888Y12040828D01*
X-14740304Y12004354D01*
X-14740302Y12004353D01*
X-14740301Y12004353D01*
X-14615000Y11984508D01*
X-14489698Y12004353D01*
X-14376656Y12061951D01*
X-14370782Y12067826D01*
X-14318456Y12089500D01*
X-10095433Y12089500D01*
X-10019012Y12109977D01*
X-10019007Y12109979D01*
X-9950486Y12149540D01*
X-9894538Y12205489D01*
X-9643855Y12456170D01*
X-9603106Y12476933D01*
X-9524698Y12489352D01*
X-9524697Y12489352D01*
X-9411655Y12546950D01*
X-9321950Y12636655D01*
X-9280477Y12718050D01*
X-9264353Y12749695D01*
X-9264352Y12749695D01*
X-9264352Y12749697D01*
X-9244507Y12874999D01*
X-9264352Y13000300D01*
X-9264352Y13000301D01*
X-9264353Y13000303D01*
X-9321949Y13113341D01*
X-9411657Y13203049D01*
X-9524695Y13260645D01*
X-9649999Y13280491D01*
X-9775303Y13260645D01*
X-9888341Y13203049D01*
X-9978049Y13113341D01*
X-10035645Y13000303D01*
X-10048063Y12921890D01*
X-10068824Y12881143D01*
X-10200272Y12749697D01*
X-10237795Y12712174D01*
X-10290121Y12690500D01*
X-14318456Y12690500D01*
X-14370782Y12712174D01*
X-14376656Y12718048D01*
X-14376658Y12718050D01*
X-14489696Y12775646D01*
X-14615000Y12795492D01*
X-14740304Y12775646D01*
X-14853342Y12718050D01*
X-14859218Y12712174D01*
X-14911544Y12690500D01*
X-14999564Y12690500D01*
X-15066953Y12672442D01*
X-15075989Y12670021D01*
X-15133777Y12636657D01*
X-15144511Y12630460D01*
X-16534511Y11240460D01*
X-16590460Y11184511D01*
X-16630021Y11115989D01*
X-16640998Y11075021D01*
X-16650499Y11039564D01*
X-16650500Y11039564D01*
X-16650500Y5693121D01*
X-16672174Y5640795D01*
X-16724500Y5619121D01*
X-16758092Y5627186D01*
X-16774696Y5635646D01*
X-16900000Y5655492D01*
X-17025304Y5635646D01*
X-17138342Y5578050D01*
X-17177116Y5539276D01*
X-17197674Y5518718D01*
X-17250000Y5497044D01*
X-17302326Y5518718D01*
X-17361656Y5578048D01*
X-17361658Y5578050D01*
X-17474696Y5635646D01*
X-17600000Y5655492D01*
X-17725304Y5635646D01*
X-17838342Y5578050D01*
X-17877116Y5539276D01*
X-17897674Y5518718D01*
X-17950000Y5497044D01*
X-18002326Y5518718D01*
X-18061656Y5578048D01*
X-18061658Y5578050D01*
X-18174696Y5635646D01*
X-18300000Y5655492D01*
X-18425304Y5635646D01*
X-18538342Y5578050D01*
X-18628050Y5488342D01*
X-18685646Y5375304D01*
X-18705492Y5250000D01*
X-19500000Y5250000D01*
X-19500000Y13400000D01*
X-13105492Y13400000D01*
X-13085646Y13274696D01*
X-13028050Y13161658D01*
X-12938342Y13071950D01*
X-12825304Y13014354D01*
X-12825302Y13014353D01*
X-12825301Y13014353D01*
X-12700000Y12994508D01*
X-12574698Y13014353D01*
X-12461656Y13071951D01*
X-12371951Y13161656D01*
X-12314353Y13274698D01*
X-12294508Y13400000D01*
X-12314353Y13525301D01*
X-12314353Y13525302D01*
X-12314354Y13525304D01*
X-12371950Y13638342D01*
X-12461658Y13728050D01*
X-12574696Y13785646D01*
X-12700000Y13805492D01*
X-12825304Y13785646D01*
X-12938342Y13728050D01*
X-13028050Y13638342D01*
X-13085646Y13525304D01*
X-13105492Y13400000D01*
X-19500000Y13400000D01*
X-19500000Y16138185D01*
X-19478326Y16190511D01*
X-19426000Y16212185D01*
X-19373674Y16190511D01*
X-19356153Y16162626D01*
X-19347467Y16137804D01*
X-19313801Y16041592D01*
X-19191945Y15788555D01*
X-19042523Y15550752D01*
X-18999402Y15496680D01*
X-18867416Y15331175D01*
X-18668824Y15132583D01*
X-18449248Y14957477D01*
X-18211440Y14808052D01*
X-17958407Y14686198D01*
X-17693325Y14593442D01*
X-17693309Y14593437D01*
X-17419513Y14530945D01*
X-17279967Y14515222D01*
X-17140425Y14499500D01*
X-17140421Y14499500D01*
X-16859579Y14499500D01*
X-16859575Y14499500D01*
X-16720033Y14515222D01*
X-16580487Y14530945D01*
X-16580486Y14530945D01*
X-16306690Y14593437D01*
X-16306674Y14593442D01*
X-16041592Y14686198D01*
X-15788559Y14808052D01*
X-15550751Y14957477D01*
X-15331175Y15132583D01*
X-15132583Y15331175D01*
X-14957477Y15550751D01*
X-14808052Y15788559D01*
X-14686198Y16041592D01*
X-14593442Y16306674D01*
X-14593437Y16306690D01*
X-14530945Y16580486D01*
X-14530945Y16580487D01*
X-14508107Y16783182D01*
X-14499500Y16859575D01*
X-14499500Y17140425D01*
X-14530945Y17419509D01*
X-14530945Y17419512D01*
X-14530945Y17419513D01*
X-14593437Y17693309D01*
X-14593442Y17693325D01*
X-14686198Y17958407D01*
X-14808052Y18211440D01*
X-14957477Y18449248D01*
X-15132583Y18668824D01*
X-15331175Y18867416D01*
X-15550751Y19042522D01*
X-15550752Y19042523D01*
X-15788555Y19191945D01*
X-16041592Y19313801D01*
X-16162626Y19356153D01*
X-16204857Y19393893D01*
X-16208032Y19450441D01*
X-16170292Y19492672D01*
X-16138185Y19500000D01*
X16138185Y19500000D01*
X16190511Y19478326D01*
G37*
G04 #@! TD.AperFunction*
G04 #@! TD*
G04 #@! TA.AperFunction,Conductor*
G04 #@! TO.N,VDDD*
G36*
X2428326Y-9321674D02*
G01*
X2450000Y-9374000D01*
X2450000Y-10426000D01*
X2428326Y-10478326D01*
X2376000Y-10500000D01*
X674000Y-10500000D01*
X621674Y-10478326D01*
X600000Y-10426000D01*
X600000Y-9374000D01*
X621674Y-9321674D01*
X674000Y-9300000D01*
X2376000Y-9300000D01*
X2428326Y-9321674D01*
G37*
G04 #@! TD.AperFunction*
G04 #@! TD*
G04 #@! TA.AperFunction,Conductor*
G04 #@! TO.N,VDDA*
G36*
X11978326Y-9621674D02*
G01*
X12000000Y-9674000D01*
X12000000Y-11176000D01*
X11978326Y-11228326D01*
X11926000Y-11250000D01*
X10824000Y-11250000D01*
X10771674Y-11228326D01*
X10750000Y-11176000D01*
X10750000Y-9674000D01*
X10771674Y-9621674D01*
X10824000Y-9600000D01*
X11926000Y-9600000D01*
X11978326Y-9621674D01*
G37*
G04 #@! TD.AperFunction*
G04 #@! TD*
G04 #@! TA.AperFunction,Conductor*
G04 #@! TO.N,VDDP*
G36*
X1393039Y12630315D02*
G01*
X1438794Y12577511D01*
X1450000Y12526000D01*
X1450000Y11024000D01*
X1430315Y10956961D01*
X1377511Y10911206D01*
X1326000Y10900000D01*
X474000Y10900000D01*
X406961Y10919685D01*
X361206Y10972489D01*
X350000Y11024000D01*
X350000Y12526000D01*
X369685Y12593039D01*
X422489Y12638794D01*
X474000Y12650000D01*
X1326000Y12650000D01*
X1393039Y12630315D01*
G37*
G04 #@! TD.AperFunction*
G04 #@! TD*
G04 #@! TA.AperFunction,Conductor*
G04 #@! TO.N,VDDIO*
G36*
X-2421674Y-11671674D02*
G01*
X-2400000Y-11724000D01*
X-2400000Y-12676000D01*
X-2421674Y-12728326D01*
X-2474000Y-12750000D01*
X-3476000Y-12750000D01*
X-3528326Y-12728326D01*
X-3550000Y-12676000D01*
X-3550000Y-11724000D01*
X-3528326Y-11671674D01*
X-3476000Y-11650000D01*
X-2474000Y-11650000D01*
X-2421674Y-11671674D01*
G37*
G04 #@! TD.AperFunction*
G04 #@! TD*
M02*
